  0
SECTION
  2
HEADER
  9
$ACADVER
  1
AC1027
  9
$ACADMAINTVER
 70
     8
  9
$DWGCODEPAGE
  3
ANSI_1252
  9
$REQUIREDVERSIONS
160
                 0
  9
$INSBASE
 10
0.0
 20
0.0
 30
0.0
  9
$EXTMIN
 10
1.000000000000000E+20
 20
1.000000000000000E+20
 30
1.000000000000000E+20
  9
$EXTMAX
 10
-1.000000000000000E+20
 20
-1.000000000000000E+20
 30
-1.000000000000000E+20
  9
$LIMMIN
 10
0.0
 20
0.0
  9
$LIMMAX
 10
12.0
 20
9.0
  9
$ORTHOMODE
 70
     0
  9
$REGENMODE
 70
     1
  9
$FILLMODE
 70
     1
  9
$QTEXTMODE
 70
     0
  9
$MIRRTEXT
 70
     1
  9
$LTSCALE
 40
1.0
  9
$ATTMODE
 70
     1
  9
$TEXTSIZE
 40
8.0
  9
$TRACEWID
 40
0.05
  9
$TEXTSTYLE
  7
STANDARD
  9
$CLAYER
  8
0
  9
$CELTYPE
  6
ByLayer
  9
$CECOLOR
 62
   256
  9
$CELTSCALE
 40
1.0
  9
$DISPSILH
 70
     0
  9
$DIMSCALE
 40
1.0
  9
$DIMASZ
 40
0.18
  9
$DIMEXO
 40
0.0625
  9
$DIMDLI
 40
0.38
  9
$DIMRND
 40
0.001
  9
$DIMDLE
 40
0.0
  9
$DIMEXE
 40
0.18
  9
$DIMTP
 40
0.0
  9
$DIMTM
 40
0.0
  9
$DIMTXT
 40
0.18
  9
$DIMCEN
 40
0.09
  9
$DIMTSZ
 40
0.0
  9
$DIMTOL
 70
     0
  9
$DIMLIM
 70
     0
  9
$DIMTIH
 70
     1
  9
$DIMTOH
 70
     1
  9
$DIMSE1
 70
     0
  9
$DIMSE2
 70
     0
  9
$DIMTAD
 70
     0
  9
$DIMZIN
 70
     0
  9
$DIMBLK
  1

  9
$DIMASO
 70
     1
  9
$DIMSHO
 70
     1
  9
$DIMPOST
  1

  9
$DIMAPOST
  1

  9
$DIMALT
 70
     0
  9
$DIMALTD
 70
     2
  9
$DIMALTF
 40
25.4
  9
$DIMLFAC
 40
1.0
  9
$DIMTOFL
 70
     0
  9
$DIMTVP
 40
0.0
  9
$DIMTIX
 70
     0
  9
$DIMSOXD
 70
     0
  9
$DIMSAH
 70
     0
  9
$DIMBLK1
  1

  9
$DIMBLK2
  1

  9
$DIMSTYLE
  2
CotStyle1
  9
$DIMCLRD
 70
     0
  9
$DIMCLRE
 70
     0
  9
$DIMCLRT
 70
     0
  9
$DIMTFAC
 40
1.0
  9
$DIMGAP
 40
0.09
  9
$DIMJUST
 70
     0
  9
$DIMSD1
 70
     0
  9
$DIMSD2
 70
     0
  9
$DIMTOLJ
 70
     1
  9
$DIMTZIN
 70
     0
  9
$DIMALTZ
 70
     0
  9
$DIMALTTZ
 70
     0
  9
$DIMUPT
 70
     0
  9
$DIMDEC
 70
     4
  9
$DIMTDEC
 70
     4
  9
$DIMALTU
 70
     2
  9
$DIMALTTD
 70
     2
  9
$DIMTXSTY
  7
STANDARD
  9
$DIMAUNIT
 70
     0
  9
$DIMADEC
 70
     0
  9
$DIMALTRND
 40
0.0
  9
$DIMAZIN
 70
     0
  9
$DIMDSEP
 70
     0
  9
$DIMATFIT
 70
     3
  9
$DIMFRAC
 70
     0
  9
$DIMLDRBLK
  1

  9
$DIMLUNIT
 70
     2
  9
$DIMLWD
 70
     0
  9
$DIMLWE
 70
     0
  9
$DIMTMOVE
 70
     0
  9
$DIMFXL
 40
1.0
  9
$DIMFXLON
 70
     0
  9
$DIMJOGANG
 40
0.7853981633974483
  9
$DIMTFILL
 70
     0
  9
$DIMTFILLCLR
 70
     0
  9
$DIMARCSYM
 70
     0
  9
$DIMLTYPE
  6

  9
$DIMLTEX1
  6

  9
$DIMLTEX2
  6

  9
$DIMTXTDIRECTION
 70
     0
  9
$LUNITS
 70
     2
  9
$LUPREC
 70
     6
  9
$SKETCHINC
 40
0.1
  9
$FILLETRAD
 40
20.0
  9
$AUNITS
 70
     0
  9
$AUPREC
 70
     4
  9
$MENU
  1
icad
  9
$ELEVATION
 40
1162.576380759091
  9
$PELEVATION
 40
0.0
  9
$THICKNESS
 40
0.0
  9
$LIMCHECK
 70
     0
  9
$CHAMFERA
 40
0.0
  9
$CHAMFERB
 40
0.0
  9
$CHAMFERC
 40
0.0
  9
$CHAMFERD
 40
0.0
  9
$SKPOLY
 70
     0
  9
$TDCREATE
 40
2454242.723700382
  9
$TDUCREATE
 40
2454242.682033715
  9
$TDUPDATE
 40
2457128.657199074
  9
$TDUUPDATE
 40
2457128.615532408
  9
$TDINDWG
 40
165.3211564236
  9
$TDUSRTIMER
 40
2457128.615416666
  9
$USRTIMER
 70
     1
  9
$ANGBASE
 50
0.0
  9
$ANGDIR
 70
     0
  9
$PDMODE
 70
     0
  9
$PDSIZE
 40
0.0
  9
$PLINEWID
 40
0.0
  9
$SPLFRAME
 70
     0
  9
$SPLINETYPE
 70
     5
  9
$SPLINESEGS
 70
     8
  9
$HANDSEED
  5
2F1B
  9
$SURFTAB1
 70
     6
  9
$SURFTAB2
 70
     6
  9
$SURFTYPE
 70
     6
  9
$SURFU
 70
     6
  9
$SURFV
 70
     6
  9
$UCSBASE
  2

  9
$UCSNAME
  2

  9
$UCSORG
 10
0.0
 20
0.0
 30
0.0
  9
$UCSXDIR
 10
1.0
 20
0.0
 30
0.0
  9
$UCSYDIR
 10
0.0
 20
1.0
 30
0.0
  9
$UCSORTHOREF
  2

  9
$UCSORTHOVIEW
 70
     0
  9
$UCSORGTOP
 10
0.0
 20
0.0
 30
0.0
  9
$UCSORGBOTTOM
 10
0.0
 20
0.0
 30
0.0
  9
$UCSORGLEFT
 10
0.0
 20
0.0
 30
0.0
  9
$UCSORGRIGHT
 10
0.0
 20
0.0
 30
0.0
  9
$UCSORGFRONT
 10
0.0
 20
0.0
 30
0.0
  9
$UCSORGBACK
 10
0.0
 20
0.0
 30
0.0
  9
$PUCSBASE
  2

  9
$PUCSNAME
  2

  9
$PUCSORG
 10
0.0
 20
0.0
 30
0.0
  9
$PUCSXDIR
 10
1.0
 20
0.0
 30
0.0
  9
$PUCSYDIR
 10
0.0
 20
1.0
 30
0.0
  9
$PUCSORTHOREF
  2

  9
$PUCSORTHOVIEW
 70
     0
  9
$PUCSORGTOP
 10
0.0
 20
0.0
 30
0.0
  9
$PUCSORGBOTTOM
 10
0.0
 20
0.0
 30
0.0
  9
$PUCSORGLEFT
 10
0.0
 20
0.0
 30
0.0
  9
$PUCSORGRIGHT
 10
0.0
 20
0.0
 30
0.0
  9
$PUCSORGFRONT
 10
0.0
 20
0.0
 30
0.0
  9
$PUCSORGBACK
 10
0.0
 20
0.0
 30
0.0
  9
$USERI1
 70
     0
  9
$USERI2
 70
     0
  9
$USERI3
 70
     0
  9
$USERI4
 70
     0
  9
$USERI5
 70
     0
  9
$USERR1
 40
0.0
  9
$USERR2
 40
0.0
  9
$USERR3
 40
0.0
  9
$USERR4
 40
0.0
  9
$USERR5
 40
0.0
  9
$WORLDVIEW
 70
     1
  9
$SHADEDGE
 70
     3
  9
$SHADEDIF
 70
    70
  9
$TILEMODE
 70
     1
  9
$MAXACTVP
 70
    16
  9
$PINSBASE
 10
0.0
 20
0.0
 30
0.0
  9
$PLIMCHECK
 70
     0
  9
$PEXTMIN
 10
1.000000000000000E+20
 20
1.000000000000000E+20
 30
1.000000000000000E+20
  9
$PEXTMAX
 10
-1.000000000000000E+20
 20
-1.000000000000000E+20
 30
-1.000000000000000E+20
  9
$PLIMMIN
 10
0.0
 20
0.0
  9
$PLIMMAX
 10
0.0
 20
0.0
  9
$UNITMODE
 70
     0
  9
$VISRETAIN
 70
     0
  9
$PLINEGEN
 70
     0
  9
$PSLTSCALE
 70
     1
  9
$TREEDEPTH
 70
  3020
  9
$CMLSTYLE
  2
STANDARD
  9
$CMLJUST
 70
     0
  9
$CMLSCALE
 40
1.0
  9
$PROXYGRAPHICS
 70
     1
  9
$MEASUREMENT
 70
     0
  9
$CELWEIGHT
370
     0
  9
$ENDCAPS
280
     0
  9
$JOINSTYLE
280
     0
  9
$LWDISPLAY
290
     0
  9
$INSUNITS
 70
     0
  9
$HYPERLINKBASE
  1

  9
$STYLESHEET
  1

  9
$XEDIT
290
     1
  9
$CEPSNTYPE
380
     0
  9
$PSTYLEMODE
290
     1
  9
$FINGERPRINTGUID
  2

  9
$VERSIONGUID
  2

  9
$EXTNAMES
290
     1
  9
$PSVPSCALE
 40
0.0
  9
$OLESTARTUP
290
     0
  9
$SORTENTS
280
   127
  9
$INDEXCTL
280
     0
  9
$HIDETEXT
280
     1
  9
$XCLIPFRAME
280
     2
  9
$HALOGAP
280
     0
  9
$OBSCOLOR
 70
   257
  9
$OBSLTYPE
280
     0
  9
$INTERSECTIONDISPLAY
280
     0
  9
$INTERSECTIONCOLOR
 70
   257
  9
$DIMASSOC
280
     2
  9
$PROJECTNAME
  1

  9
$CAMERADISPLAY
290
     0
  9
$LENSLENGTH
 40
50.0
  9
$CAMERAHEIGHT
 40
0.0
  9
$STEPSPERSEC
 40
2.0
  9
$STEPSIZE
 40
6.0
  9
$3DDWFPREC
 40
2.0
  9
$PSOLWIDTH
 40
0.25
  9
$PSOLHEIGHT
 40
4.0
  9
$LOFTANG1
 40
1.570796326794897
  9
$LOFTANG2
 40
1.570796326794897
  9
$LOFTMAG1
 40
0.0
  9
$LOFTMAG2
 40
0.0
  9
$LOFTPARAM
 70
     7
  9
$LOFTNORMALS
280
     1
  9
$LATITUDE
 40
37.795
  9
$LONGITUDE
 40
-122.394
  9
$NORTHDIRECTION
 40
0.0
  9
$TIMEZONE
 70
 -8000
  9
$LIGHTGLYPHDISPLAY
280
     1
  9
$TILEMODELIGHTSYNCH
280
     1
  9
$SOLIDHIST
280
     0
  9
$SHOWHIST
280
     1
  9
$DWFFRAME
280
     2
  9
$DGNFRAME
280
     2
  9
$REALWORLDSCALE
290
     1
  9
$INTERFERECOLOR
 62
   256
  9
$CSHADOW
280
     0
  9
$SHADOWPLANELOCATION
 40
0.0
  0
ENDSEC
  0
SECTION
  2
CLASSES
  0
CLASS
  1
LWPOLYLINE
  2
AcDbPolyline
  3
ObjectDBX Classes
 90
        0
 91
        1
280
     0
281
     1
  0
CLASS
  1
IMAGE
  2
AcDbRasterImage
  3
ISM
 90
      127
 91
        5
280
     0
281
     1
  0
CLASS
  1
OLE2FRAME
  2
AcDbOle2Frame
  3
ObjectDBX Classes
 90
        0
 91
        1
280
     0
281
     1
  0
CLASS
  1
HATCH
  2
AcDbHatch
  3
ObjectDBX Classes
 90
        0
 91
        1
280
     0
281
     1
  0
CLASS
  1
DICTIONARYVAR
  2
AcDbDictionaryVar
  3
ObjectDBX Classes
 90
        0
 91
        4
280
     0
281
     0
  0
CLASS
  1
RASTERVARIABLES
  2
AcDbRasterVariables
  3
ISM
 90
        0
 91
        4
280
     0
281
     0
  0
CLASS
  1
IMAGEDEF
  2
AcDbRasterImageDef
  3
ISM
 90
        0
 91
        4
280
     0
281
     0
  0
CLASS
  1
IMAGEDEF_REACTOR
  2
AcDbRasterImageDefReactor
  3
ISM
 90
        1
 91
        4
280
     0
281
     0
  0
CLASS
  1
IDBUFFER
  2
AcDbIdBuffer
  3
ObjectDBX Classes
 90
        0
 91
        4
280
     0
281
     0
  0
CLASS
  1
SPATIAL_FILTER
  2
AcDbSpatialFilter
  3
ObjectDBX Classes
 90
        0
 91
        4
280
     0
281
     0
  0
CLASS
  1
XRECORD
  2
AcDbXrecord
  3
ObjectDBX Classes
 90
        0
 91
        1
280
     0
281
     0
  0
CLASS
  1
SORTENTSTABLE
  2
AcDbSortentsTable
  3
ObjectDBX Classes
 90
        0
 91
        4
280
     0
281
     0
  0
CLASS
  1
LAYER_INDEX
  2
AcDbLayerIndex
  3
ObjectDBX Classes
 90
        0
 91
        4
280
     0
281
     0
  0
CLASS
  1
SPATIAL_INDEX
  2
AcDbSpatialIndex
  3
AutoCAD 2000
 90
        0
 91
        4
280
     0
281
     0
  0
CLASS
  1
OBJECT_PTR
  2
CAseDLPNTableRecord
  3
ASE-LPNTableRecord
 90
        1
 91
        4
280
     0
281
     0
  0
CLASS
  1
LAYOUT
  2
AcDbLayout
  3
ObjectDBX Classes
 90
        0
 91
        1
280
     0
281
     0
  0
CLASS
  1
PLOTSETTINGS
  2
AcDbPlotSettings
  3
ObjectDBX Classes
 90
        0
 91
        4
280
     0
281
     0
  0
CLASS
  1
ACDBDICTIONARYWDFLT
  2
AcDbDictionaryWithDefault
  3
ObjectDBX Classes
 90
        0
 91
        4
280
     0
281
     0
  0
CLASS
  1
ACDBPLACEHOLDER
  2
AcDbPlaceHolder
  3
ObjectDBX Classes
 90
        0
 91
        1
280
     0
281
     0
  0
CLASS
  1
VBA_PROJECT
  2
AcDbVbaProject
  3
ObjectDBX Classes
 90
        0
 91
        1
280
     0
281
     0
  0
CLASS
  1
WIPEOUT
  2
AcDbWipeout
  3
WipeOut|AutoCAD Express Tool|expresstools@autodesk.com
 90
      127
 91
        4
280
     0
281
     1
  0
CLASS
  1
WIPEOUTVARIABLES
  2
AcDbWipeoutVariables
  3
WipeOut|AutoCAD Express Tool|expresstools@autodesk.com
 90
        0
 91
        4
280
     0
281
     0
  0
CLASS
  1
RTEXT
  2
RText
  3
RText|AutoCAD Express Tool|expresstools@autodesk.com
 90
        0
 91
        4
280
     0
281
     1
  0
CLASS
  1
ARCALIGNEDTEXT
  2
AcDbArcAlignedText
  3
ATEXT|AutoCAD Express Tool|expresstools@autodesk.com
 90
        0
 91
        4
280
     0
281
     1
  0
CLASS
  1
VISUALSTYLE
  2
AcDbVisualStyle
  3
ObjectDBX Classes
 90
     4095
 91
        4
280
     0
281
     0
  0
CLASS
  1
SCALE
  2
AcDbScale
  3
ObjectDBX Classes
 90
     1153
 91
        4
280
     0
281
     0
  0
CLASS
  1
MATERIAL
  2
AcDbMaterial
  3
ObjectDBX Classes
 90
     1153
 91
        4
280
     0
281
     0
  0
CLASS
  1
TABLESTYLE
  2
AcDbTableStyle
  3
ObjectDBX Classes
 90
     4095
 91
        4
280
     0
281
     0
  0
CLASS
  1
MLEADERSTYLE
  2
AcDbMLeaderStyle
  3
ACDB_MLEADERSTYLE_CLASS
 90
     4095
 91
        4
280
     0
281
     0
  0
CLASS
  1
SUN
  2
AcDbSun
  3
SCENEOE
 90
     1153
 91
        4
280
     0
281
     0
  0
CLASS
  1
CELLSTYLEMAP
  2
AcDbCellStyleMap
  3
ObjectDBX Classes
 90
     1152
 91
        4
280
     0
281
     0
  0
ENDSEC
  0
SECTION
  2
TABLES
  0
TABLE
  2
VPORT
  5
8
330
0
100
AcDbSymbolTable
 70
     2
  0
VPORT
  5
2C
330
8
100
AcDbSymbolTableRecord
100
AcDbViewportTableRecord
  2
*ACTIVE
 70
     0
 10
0.0
 20
0.0
 11
1.0
 21
1.0
 12
-322.098826122738
 22
232.5805446596265
 13
0.0
 23
0.0
 14
0.1
 24
0.1
 15
0.5
 25
0.5
 16
0.0
 26
0.0
 36
1.0
 17
0.0
 27
0.0
 37
0.0
 40
741.4470841263549
 41
1.333333333333333
 42
50.0
 43
0.0
 44
0.0
 50
0.0
 51
0.0
 71
     0
 72
   100
 73
     0
 74
     1
 75
     0
 76
     0
 77
     0
 78
     1
281
     0
 65
     0
110
0.0
120
0.0
130
0.0
111
1.0
121
0.0
131
0.0
112
0.0
122
1.0
132
0.0
 79
     0
146
0.0
348
2ED1
 60
     3
 61
     5
292
     1
282
     1
141
0.0
142
0.0
 63
   256
361
2F10
  0
ENDTAB
  0
TABLE
  2
LTYPE
  5
5
330
0
100
AcDbSymbolTable
 70
     6
  0
LTYPE
  5
26
330
5
100
AcDbSymbolTableRecord
100
AcDbLinetypeTableRecord
  2
ByBlock
 70
     0
  3

 72
    65
 73
     0
 40
0.0
  0
LTYPE
  5
25
330
5
100
AcDbSymbolTableRecord
100
AcDbLinetypeTableRecord
  2
ByLayer
 70
     0
  3

 72
    65
 73
     0
 40
0.0
  0
LTYPE
  5
27
330
5
100
AcDbSymbolTableRecord
100
AcDbLinetypeTableRecord
  2
CONTINUOUS
 70
     0
  3
CONTINUOUS
 72
    65
 73
     0
 40
0.0
  0
LTYPE
  5
32
330
5
100
AcDbSymbolTableRecord
100
AcDbLinetypeTableRecord
  2
DOT2
 70
     0
  3
................................................................
 72
    65
 73
     2
 40
0.125
 49
0.0
 74
     0
 49
-0.125
 74
     0
  0
LTYPE
  5
3BF
330
5
100
AcDbSymbolTableRecord
100
AcDbLinetypeTableRecord
  2
DOT
 70
     0
  3
. . . . . . . . . . . . . . . . . . . . . . . . . . . . . . . . 
 72
    65
 73
     2
 40
0.25
 49
0.0
 74
     0
 49
-0.25
 74
     0
  0
LTYPE
  5
3C0
330
5
100
AcDbSymbolTableRecord
100
AcDbLinetypeTableRecord
  2
HIDDEN
 70
     0
  3
__ __ __ __ __ __ __ __ __ __ __ __ __ __ __ __ __ __ __ __ __ 
 72
    65
 73
     2
 40
0.375
 49
0.25
 74
     0
 49
-0.125
 74
     0
  0
LTYPE
  5
3C2
330
5
100
AcDbSymbolTableRecord
100
AcDbLinetypeTableRecord
  2
DOTX2
 70
     0
  3
.  .  .  .  .  .  .  .  .  .  .  .  .  .  .  .  .  .  .  .  .  
 72
    65
 73
     2
 40
0.5
 49
0.0
 74
     0
 49
-0.5
 74
     0
  0
LTYPE
  5
3C3
330
5
100
AcDbSymbolTableRecord
100
AcDbLinetypeTableRecord
  2
DASHEDX2
 70
     0
  3
____  ____  ____  ____  ____  ____  ____  ____  ____  ____  
 72
    65
 73
     2
 40
1.5
 49
1.0
 74
     0
 49
-0.5
 74
     0
  0
ENDTAB
  0
TABLE
  2
LAYER
  5
2
330
0
100
AcDbSymbolTable
 70
     3
  0
LAYER
  5
28
330
2
100
AcDbSymbolTableRecord
100
AcDbLayerTableRecord
  2
0
 70
     0
 62
     2
  6
CONTINUOUS
370
    -3
390
2EAA
347
2F0A
348
0
  0
LAYER
  5
27DC
330
2
100
AcDbSymbolTableRecord
100
AcDbLayerTableRecord
  2
Plis
 70
     0
 62
     1
  6
CONTINUOUS
370
    -3
390
2EAA
347
2F0A
348
0
  0
LAYER
  5
28A6
330
2
100
AcDbSymbolTableRecord
100
AcDbLayerTableRecord
  2
Epure
 70
     0
 62
   -14
  6
CONTINUOUS
370
    -3
390
2EAA
347
2F0A
348
0
  0
ENDTAB
  0
TABLE
  2
STYLE
  5
3
330
0
100
AcDbSymbolTable
 70
     1
  0
STYLE
  5
29
330
3
100
AcDbSymbolTableRecord
100
AcDbTextStyleTableRecord
  2
STANDARD
 70
     0
 40
0.0
 41
1.0
 50
0.0
 71
     0
 42
0.2
  3
TXT
  4

  0
ENDTAB
  0
TABLE
  2
VIEW
  5
6
330
0
100
AcDbSymbolTable
 70
     1
  0
VIEW
  5
3E8
330
6
100
AcDbSymbolTableRecord
100
AcDbViewTableRecord
  2
VC
 70
     0
 40
129.52130540165
 10
-37.82953581858243
 20
52.69894580787448
 41
237.3606301633762
 11
0.4836895252959502
 21
1.392728480640038
 31
0.9090389553440881
 12
0.0
 22
0.0
 32
0.0
 42
50.0
 43
0.0
 44
0.0
 50
152.7089390121425
 71
     0
281
     0
 72
     0
 73
     0
348
2ED1
  0
ENDTAB
  0
TABLE
  2
UCS
  5
7
330
0
100
AcDbSymbolTable
 70
     0
  0
ENDTAB
  0
TABLE
  2
APPID
  5
9
330
0
100
AcDbSymbolTable
 70
     1
  0
APPID
  5
2B
330
9
100
AcDbSymbolTableRecord
100
AcDbRegAppTableRecord
  2
ACAD
 70
     0
  0
ENDTAB
  0
TABLE
  2
DIMSTYLE
  5
A
330
0
100
AcDbSymbolTable
 70
     2
100
AcDbDimStyleTable
  0
DIMSTYLE
105
2A
330
A
100
AcDbSymbolTableRecord
100
AcDbDimStyleTableRecord
  2
STANDARD
 70
     0
178
     0
340
29
  0
DIMSTYLE
105
131
330
A
100
AcDbSymbolTableRecord
100
AcDbDimStyleTableRecord
  2
CotStyle1
 70
     0
178
     0
340
29
  0
ENDTAB
  0
TABLE
  2
BLOCK_RECORD
  5
1
330
0
100
AcDbSymbolTable
 70
     2
  0
BLOCK_RECORD
  5
19
330
1
100
AcDbSymbolTableRecord
100
AcDbBlockTableRecord
  2
*MODEL_SPACE
340
1F
 70
     0
280
     1
281
     0
  0
BLOCK_RECORD
  5
16
330
1
100
AcDbSymbolTableRecord
100
AcDbBlockTableRecord
  2
*PAPER_SPACE
340
20
 70
     0
280
     1
281
     0
  0
BLOCK_RECORD
  5
15F5
330
1
100
AcDbSymbolTableRecord
100
AcDbBlockTableRecord
  2
_CLOSEDBLANK
340
0
 70
     0
280
     1
281
     0
  0
BLOCK_RECORD
  5
2935
330
1
100
AcDbSymbolTableRecord
100
AcDbBlockTableRecord
  2
TENDEUR
340
0
 70
     0
280
     1
281
     0
  0
ENDTAB
  0
ENDSEC
  0
SECTION
  2
BLOCKS
  0
BLOCK
  5
1A
330
19
100
AcDbEntity
  8
0
100
AcDbBlockBegin
  2
*MODEL_SPACE
 70
     0
 71
     1
 10
0.0
 20
0.0
 30
0.0
  3
*MODEL_SPACE
  1
*MODEL_SPACE
  0
ENDBLK
  5
1B
330
19
100
AcDbEntity
  8
0
100
AcDbBlockEnd
  0
BLOCK
  5
17
330
16
100
AcDbEntity
 67
     1
  8
0
100
AcDbBlockBegin
  2
*PAPER_SPACE
 70
     0
 71
     1
 10
0.0
 20
0.0
 30
0.0
  3
*PAPER_SPACE
  1
*PAPER_SPACE
  0
ENDBLK
  5
18
330
16
100
AcDbEntity
 67
     1
  8
0
100
AcDbBlockEnd
  0
BLOCK
  5
15F0
330
15F5
100
AcDbEntity
  8
0
 62
     0
100
AcDbBlockBegin
  2
_CLOSEDBLANK
 70
     0
 10
0.0
 20
0.0
 30
0.0
  3
_CLOSEDBLANK
  1
_CLOSEDBLANK
  0
LINE
  5
15F1
330
15F5
100
AcDbEntity
  8
0
  6
ByBlock
 62
     0
100
AcDbLine
 10
0.0
 20
0.0
 30
0.0
 11
-1.0
 21
-0.1666666666667
 31
0.0
  0
LINE
  5
15F2
330
15F5
100
AcDbEntity
  8
0
  6
ByBlock
 62
     0
100
AcDbLine
 10
-1.0
 20
-0.1666666666667
 30
0.0
 11
-1.0
 21
0.1666666666667
 31
0.0
  0
LINE
  5
15F3
330
15F5
100
AcDbEntity
  8
0
  6
ByBlock
 62
     0
100
AcDbLine
 10
-1.0
 20
0.1666666666667
 30
0.0
 11
0.0
 21
0.0
 31
0.0
  0
ENDBLK
  5
15F4
330
15F5
100
AcDbEntity
  8
0
100
AcDbBlockEnd
  0
BLOCK
  5
292A
330
2935
100
AcDbEntity
  8
0
100
AcDbBlockBegin
  2
TENDEUR
 70
     0
 10
0.0
 20
0.0
 30
0.0
  3
TENDEUR
  1
TENDEUR
  0
ENDBLK
  5
2934
330
2935
100
AcDbEntity
  8
0
100
AcDbBlockEnd
  0
ENDSEC
  0
SECTION
  2
ENTITIES
  0
LINE
  5
548
330
19
100
AcDbEntity
  8
0
100
AcDbLine
 10
-425.6466946482927
 20
261.4666768279337
 30
0.0
 11
-368.3288182824116
 21
261.4666768279337
 31
0.0
210
0.0
220
-1.0
230
0.0
  0
LINE
  5
5B4
330
19
100
AcDbEntity
  8
Plis
100
AcDbLine
 10
4.00822093852074
 20
488.9606647203547
 30
0.0
 11
4.008220938520537
 21
505.4632774752791
 31
0.0
210
0.9787216084930787
220
0.0
230
0.2051926243038984
  0
LINE
  5
5C2
330
19
100
AcDbEntity
  8
Plis
100
AcDbLine
 10
-55.17224410159992
 20
104.9022406401647
 30
0.0
 11
-55.17224410160043
 21
121.4022406401647
 31
0.0
210
-0.03489906624656669
220
0.0
230
0.9993908420508554
  0
ARC
  5
5C5
330
19
100
AcDbEntity
  8
0
100
AcDbCircle
 10
-33.56291118762698
 20
121.4022406373755
 30
0.0
 40
18.5
100
AcDbArc
 50
179.9999999915894
 51
221.7998628836855
  0
LINE
  5
CA1
330
19
100
AcDbEntity
  8
0
100
AcDbLine
 10
5.813072876422439
 20
-175.6653509702632
 30
0.0
 11
63.32858571669567
 21
-175.6653509702633
 31
0.0
  0
LINE
  5
CA2
330
19
100
AcDbEntity
  8
0
100
AcDbLine
 10
63.32858571669567
 20
-175.6653509702633
 30
0.0
 11
69.52119530662549
 21
-222.6653513103746
 31
0.0
  0
LINE
  5
CA3
330
19
100
AcDbEntity
  8
0
100
AcDbLine
 10
69.52119530662549
 20
-222.6653513103746
 30
0.0
 11
5.813072876422893
 21
-222.6653513801993
 31
0.0
  0
LINE
  5
CB9
330
19
100
AcDbEntity
  8
0
100
AcDbLine
 10
-485.4890872651426
 20
102.9022406401644
 30
0.0
 11
-419.0134015188119
 21
102.9022406401646
 31
0.0
210
0.0
220
-1.0
230
0.0
  0
ELLIPSE
  5
D4A
330
19
100
AcDbEntity
  8
0
100
AcDbEllipse
 10
-490.00669666023
 20
121.4022406401644
 30
0.0
 11
19.82264680263938
 21
0.0
 31
0.0
210
0.0
220
0.0
230
-1.0
 40
0.9584996488694413
 41
4.9423108213861
 42
7.624059792973067
  0
LINE
  5
E88
330
19
100
AcDbEntity
  8
0
100
AcDbLine
 10
-53.56290321241829
 20
102.9022406401647
 30
0.0
 11
-47.3542466910633
 21
109.0714229421999
 31
0.0
210
-0.9839845905287258
220
0.0
230
0.1782535430279462
  0
LINE
  5
E94
330
19
100
AcDbEntity
  8
Plis
100
AcDbLine
 10
-55.17224410160002
 20
137.9022406401647
 30
0.0
 11
-55.17224410160043
 21
121.4022406401647
 31
0.0
210
-0.03489906624656669
220
0.0
230
0.9993908420508554
  0
ARC
  5
E95
330
19
100
AcDbEntity
  8
0
100
AcDbCircle
 10
-33.56291118762709
 20
121.4022406429531
 30
0.0
 40
18.5
100
AcDbArc
 50
138.200137116313
 51
180.0000000084092
  0
LINE
  5
E98
330
19
100
AcDbEntity
  8
0
100
AcDbLine
 10
-53.56290321241784
 20
139.9022406401646
 30
0.0
 11
-47.35424669106311
 21
133.7330583381291
 31
0.0
210
-0.9839845905287258
220
0.0
230
0.1782535430279462
  0
LINE
  5
EA1
330
19
100
AcDbEntity
  8
0
100
AcDbLine
 10
-23.67796394219664
 20
462.6133967186538
 30
0.0
 11
-23.95961590257338
 21
463.9568117689278
 31
0.0
210
-0.9787216084930567
220
-0.2051926243040035
230
0.0
  0
ARC
  5
EAC
330
19
100
AcDbEntity
  8
0
100
AcDbCircle
 10
-48.08739437408443
 20
505.460664720354
 30
-0.0000207121194796
 40
18.5
210
-4.307182734919479E-7
220
0.0
230
-0.9999999999999072
100
AcDbArc
 50
318.1900781633683
 51
359.9999999999997
  0
LINE
  5
EAF
330
19
100
AcDbEntity
  8
0
100
AcDbLine
 10
-455.8414299282971
 20
443.7864373588534
 30
0.0
 11
-438.2257702320775
 21
444.6704087989801
 31
0.0
  0
LINE
  5
EB0
330
19
100
AcDbEntity
  8
0
100
AcDbLine
 10
-471.076990340553
 20
486.9606647203549
 30
0.0
 11
-455.8414299282971
 21
443.7864373588534
 31
0.0
  0
LINE
  5
EBB
330
19
100
AcDbEntity
  8
0
100
AcDbLine
 10
4.84537343429322
 20
486.4136928099674
 30
0.0
 11
21.65866127145125
 21
475.4284667678927
 31
0.0
210
-0.5469675901645671
220
-0.8371537823539749
230
0.0
  0
LINE
  5
EBD
330
19
100
AcDbEntity
  8
Plis
100
AcDbLine
 10
-21.72406758938149
 20
463.0335632672317
 30
0.0
 11
20.31701137512067
 21
472.0740914515661
 31
0.0
210
0.9787216084930794
220
0.2051926243038946
230
0.0
  0
LINE
  5
EC5
330
19
100
AcDbEntity
  8
Plis
100
AcDbLine
 10
-469.076990340553
 20
486.9606647203549
 30
0.0
 11
2.008220938520765
 21
486.9606647203547
 31
0.0
210
0.0
220
-1.0
230
0.0
  0
ELLIPSE
  5
EC7
330
19
100
AcDbEntity
  8
0
100
AcDbEllipse
 10
-475.6610060751732
 20
505.4606647203547
 30
0.0
 11
-20.11402865947935
 21
-1.136868377216160E-13
 31
0.0
210
2.148124827846175E-32
220
-3.800566997671163E-18
230
-1.0
 40
0.9446141310781789
 41
1.800718167796315
 42
4.482467139383282
  0
LINE
  5
EC9
330
19
100
AcDbEntity
  8
Plis
100
AcDbLine
 10
25.09208952392758
 20
488.9606647203547
 30
0.0
 11
25.09208952392743
 21
505.4632774752791
 31
0.0
210
0.7071070857502447
220
0.0
230
0.7071064766227192
  0
LINE
  5
ED1
330
19
100
AcDbEntity
  8
0
100
AcDbLine
 10
-23.67757501397676
 20
548.3097361885779
 30
0.0
 11
-21.86856652531673
 21
556.8738898474173
 31
0.0
210
-0.978404221834322
220
0.2066685630583206
230
-0.003644686568691203
  0
ARC
  5
ED5
330
19
100
AcDbEntity
  8
0
100
AcDbCircle
 10
-48.08739437408443
 20
505.4606647203541
 30
-0.0000207121194796
 40
18.5
210
-4.307182734919479E-7
220
0.0
230
-0.9999999999999072
100
AcDbArc
 50
0.0
 51
41.80992183663141
  0
LINE
  5
ED7
330
19
100
AcDbEntity
  8
0
100
AcDbLine
 10
22.2737030263325
 20
538.4264651776793
 30
0.0
 11
24.08271151499241
 21
546.9906188365189
 31
0.0
210
-0.9784042218343468
220
0.2066685630582002
230
-0.003644686568804855
  0
LINE
  5
EE0
330
19
100
AcDbEntity
  8
Plis
100
AcDbLine
 10
-21.72121025271874
 20
547.8871465698564
 30
0.0
 11
20.31840101150133
 21
538.8469340003014
 31
0.0
210
0.9787216084930794
220
-0.2051926243038946
230
0.0
  0
LINE
  5
EEB
330
19
100
AcDbEntity
  8
0
100
AcDbLine
 10
-471.0769903405529
 20
523.9606595593983
 30
0.0
 11
-455.8414299282973
 21
567.1348869208996
 31
0.0
  0
ELLIPSE
  5
EED
330
19
100
AcDbEntity
  8
0
100
AcDbEllipse
 10
-68.42770353035591
 20
279.9666768279339
 30
0.0
 11
-19.35639558999998
 21
-1.705302565824240E-13
 31
0.0
210
6.372456944194735E-35
220
-7.233191338831817E-21
230
-1.0
 40
0.9815877089125769
 41
4.942310821386107
 42
7.624059792973079
  0
LINE
  5
EEE
330
19
100
AcDbEntity
  8
0
100
AcDbLine
 10
-367.4594461857166
 20
260.475245362386
 30
0.0
 11
-373.5213916831106
 21
214.4666717231194
 31
0.0
  0
LINE
  5
EF0
330
19
100
AcDbEntity
  8
0
100
AcDbLine
 10
-72.67870680742895
 20
261.4669187411592
 30
0.0
 11
-76.80042868060694
 21
214.4669153571331
 31
0.0
  0
LINE
  5
EF1
330
19
100
AcDbEntity
  8
Plis
100
AcDbLine
 10
-74.67870680742895
 20
261.4666768279338
 30
0.0
 11
-365.3288182824116
 21
261.4666768279337
 31
0.0
210
0.0
220
-1.0
230
0.0
  0
LINE
  5
EF5
330
19
100
AcDbEntity
  8
0
100
AcDbLine
 10
-425.6466946482927
 20
261.4666768279337
 30
0.0
 11
-425.6466946482927
 21
279.9666768279337
 31
0.0
210
0.0
220
-1.0
230
0.0
  0
LINE
  5
EFA
330
19
100
AcDbEntity
  8
Plis
100
AcDbLine
 10
-367.3288182824116
 20
263.4666768279337
 30
0.0
 11
-367.3288182824115
 21
279.9666768279337
 31
0.0
210
0.0
220
-1.0
230
0.0
  0
LINE
  5
EFD
330
19
100
AcDbEntity
  8
0
100
AcDbLine
 10
-448.5181388482756
 20
-2.75912724280613
 30
0.0
 11
-448.5181388482756
 21
15.74087275719387
 31
0.0
210
0.0
220
-1.0
230
0.0
  0
LINE
  5
EFE
330
19
100
AcDbEntity
  8
0
100
AcDbLine
 10
-448.5181388482756
 20
-2.75912724280613
 30
0.0
 11
-383.8100164207842
 21
-2.75912724280613
 31
0.0
210
0.0
220
-1.0
230
0.0
  0
ELLIPSE
  5
F00
330
19
100
AcDbEntity
  8
0
100
AcDbEllipse
 10
-82.71842235305405
 20
15.74087275719393
 30
0.0
 11
-19.35639558999998
 21
-1.705302565824240E-13
 31
0.0
210
6.372456944194735E-35
220
-7.233191338831817E-21
230
-1.0
 40
0.9815877089125769
 41
4.942310821386107
 42
7.624059792973079
  0
LINE
  5
F01
330
19
100
AcDbEntity
  8
0
100
AcDbLine
 10
-383.8100164197907
 20
-2.75912724280613
 30
0.0
 11
-300.0555538201149
 21
-2.75912724280613
 31
0.0
210
0.0
220
-1.0
230
0.0
  0
LINE
  5
F02
330
19
100
AcDbEntity
  8
Plis
100
AcDbLine
 10
-383.8100164489009
 20
-0.7591272428061304
 30
0.0
 11
-383.8100164489009
 21
15.74087275719381
 31
0.0
210
0.0
220
-1.0
230
0.0
  0
LINE
  5
F04
330
19
100
AcDbEntity
  8
0
100
AcDbLine
 10
-425.6466946482927
 20
298.4666768279337
 30
0.0
 11
-368.3288182824115
 21
298.4666768279337
 31
0.0
210
0.0
220
1.0
230
0.0
  0
LINE
  5
F07
330
19
100
AcDbEntity
  8
Plis
100
AcDbLine
 10
-74.67870680742895
 20
298.466676827934
 30
0.0
 11
-365.3288182824115
 21
298.4666768279337
 31
0.0
210
0.0
220
1.0
230
0.0
  0
LINE
  5
F08
330
19
100
AcDbEntity
  8
0
100
AcDbLine
 10
-425.6466946482927
 20
298.4666768279337
 30
0.0
 11
-425.6466946482927
 21
279.9666768279337
 31
0.0
210
0.0
220
1.0
230
0.0
  0
LINE
  5
F0E
330
19
100
AcDbEntity
  8
0
100
AcDbLine
 10
-448.5181388482756
 20
34.24087275719381
 30
0.0
 11
-448.5181388482756
 21
15.74087275719387
 31
0.0
210
0.0
220
1.0
230
0.0
  0
LINE
  5
F0F
330
19
100
AcDbEntity
  8
0
100
AcDbLine
 10
-448.5181388482756
 20
34.24087275719381
 30
0.0
 11
-383.8100164207842
 21
34.24087275719387
 31
0.0
210
0.0
220
1.0
230
0.0
  0
LINE
  5
F12
330
19
100
AcDbEntity
  8
0
100
AcDbLine
 10
-367.4594461857165
 20
299.4581082934815
 30
0.0
 11
-373.5213916803989
 21
345.4666819121676
 31
0.0
  0
LINE
  5
F15
330
19
100
AcDbEntity
  8
Plis
100
AcDbLine
 10
-383.8100164489009
 20
32.24087275719393
 30
0.0
 11
-383.8100164489009
 21
15.74087275719393
 31
0.0
210
0.0
220
1.0
230
0.0
  0
LINE
  5
F1B
330
19
100
AcDbEntity
  8
Plis
100
AcDbLine
 10
-367.3288182824115
 20
296.4666768279337
 30
0.0
 11
-367.3288182824115
 21
279.9666768279338
 31
0.0
210
0.0
220
1.0
230
0.0
  0
LINE
  5
F1F
330
19
100
AcDbEntity
  8
0
100
AcDbLine
 10
-72.67870680742895
 20
298.4664349147083
 30
0.0
 11
-76.80042868060677
 21
345.4664382987344
 31
0.0
  0
LINE
  5
F2E
330
19
100
AcDbEntity
  8
Epure
100
AcDbLine
 10
-227.5139580083587
 20
-136.3995793127733
 30
0.0
 11
6.45430478333401
 21
-157.2382959199374
 31
0.0
210
4.331468517193571E-10
220
-3.853983798762783E-11
230
-1.0
  0
LINE
  5
F2F
330
19
100
AcDbEntity
  8
0
100
AcDbLine
 10
6.45430478333401
 20
-157.2382959199374
 30
0.0
 11
4.901788114633875
 21
-174.6692939405159
 31
0.0
210
-0.08871523821130516
220
-0.996057029747349
230
0.0
  0
LINE
  5
F3C
330
19
100
AcDbEntity
  8
0
100
AcDbLine
 10
4.861144670562802
 20
-223.6641952642961
 30
0.0
 11
5.702401821853528
 21
-241.1438426497243
 31
0.0
210
-0.04807183482262129
220
0.9988373687009147
230
0.00360688001182991
  0
LINE
  5
F4C
330
19
100
AcDbEntity
  8
Plis
100
AcDbLine
 10
4.813072876394786
 20
-177.6653509702632
 30
0.0
 11
4.813072875800485
 21
-220.665351328682
 31
0.0
210
-0.08871523821130722
220
0.0
230
0.9960570297473489
  0
LINE
  5
F4D
330
19
100
AcDbEntity
  8
Plis
100
AcDbLine
 10
-608.0564842662724
 20
-197.7273266046185
 30
0.0
 11
2.814726546766129
 21
-222.5840374347559
 31
0.0
210
0.0
220
-1.0
230
-2.842170943040401E-14
  0
LINE
  5
F63
330
19
100
AcDbEntity
  8
0
100
AcDbLine
 10
-599.5589088219841
 20
32.13018366333231
 30
0.0
 11
-683.5995794246046
 21
32.13018596466024
 31
0.0
  0
LINE
  5
F64
330
19
100
AcDbEntity
  8
0
100
AcDbLine
 10
-683.5995794246046
 20
32.13018596466024
 30
0.0
 11
-649.8165182226521
 21
94.1144893580661
 31
0.0
210
0.0
220
0.0
230
-1.0
  0
LINE
  5
F65
330
19
100
AcDbEntity
  8
0
100
AcDbLine
 10
-637.1589077562445
 20
99.32886953499381
 30
0.0
 11
-641.0359856423686
 21
99.32886788523153
 31
0.0
210
4.347668891568901E-10
220
-1.0
230
-2.414735078559716E-15
  0
LINE
  5
F66
330
19
100
AcDbEntity
  8
0
100
AcDbLine
 10
-623.0589077562452
 20
99.3288650468027
 30
0.0
 11
-599.5589075567353
 21
99.32887606464865
 31
0.0
210
4.347668891568901E-10
220
-1.0
230
-2.414735078559716E-15
  0
ARC
  5
F67
330
19
100
AcDbEntity
  8
0
100
AcDbCircle
 10
-630.1089077562448
 20
91.32886736473698
 30
0.0
 40
7.050000000000061
100
AcDbArc
 50
179.9999823621905
 51
359.9999811620063
  0
LINE
  5
F6C
330
19
100
AcDbEntity
  8
Plis
100
AcDbLine
 10
-623.0589077562452
 20
34.13018628188244
 30
0.0
 11
-623.0589077562452
 21
86.83552667539674
 31
0.0
210
-1.0
220
0.0
230
0.0
  0
LINE
  5
1E7D
330
19
100
AcDbEntity
  8
0
100
AcDbLine
 10
-692.292259584696
 20
-66.43104336736698
 30
0.0
 11
-692.2922595840478
 21
-67.93104336736698
 31
0.0
210
4.320099833421409E-10
220
-1.0
230
4.698108568845782E-11
  0
LINE
  5
1E7F
330
19
100
AcDbEntity
  8
0
100
AcDbLine
 10
-692.292259584696
 20
-66.43104336736698
 30
0.0
 11
-697.2922595846958
 21
-66.431043369528
 31
0.0
210
4.320099833421409E-10
220
-1.0
230
4.698108568845782E-11
  0
LINE
  5
1E83
330
19
100
AcDbEntity
  8
0
100
AcDbLine
 10
-504.5460263318657
 20
-66.43104328622411
 30
0.0
 11
-509.5460263318653
 21
-66.43104328838518
 31
0.0
210
4.320099833421409E-10
220
-1.0
230
4.698108568845782E-11
  0
LINE
  5
1E85
330
19
100
AcDbEntity
  8
0
100
AcDbLine
 10
-504.5460263318657
 20
-66.43104328622411
 30
0.0
 11
-504.5460263312173
 21
-67.93104328622411
 31
0.0
210
4.320099833421409E-10
220
-1.0
230
4.698108568845782E-11
  0
LINE
  5
1E8A
330
19
100
AcDbEntity
  8
0
100
AcDbLine
 10
-509.5460263321163
 20
-66.43104328838501
 30
0.0
 11
-509.5460263314678
 21
-67.93104328838501
 31
0.0
210
4.320099833421409E-10
220
-1.0
230
4.695266397902742E-11
  0
LINE
  5
1E97
330
19
100
AcDbEntity
  8
0
100
AcDbLine
 10
-296.0955032243942
 20
-66.80505066135211
 30
0.0
 11
-301.0955032243938
 21
-66.80505066351313
 31
0.0
210
4.320099833421409E-10
220
-1.0
230
4.698108568845782E-11
  0
LINE
  5
1E9E
330
19
100
AcDbEntity
  8
0
100
AcDbLine
 10
-301.0955032246445
 20
-66.80505066351301
 30
0.0
 11
-301.0955032240105
 21
-68.27193118527197
 31
0.0
210
4.320099833421409E-10
220
-1.0
230
4.695266397902742E-11
  0
LINE
  5
1EA4
330
19
100
AcDbEntity
  8
0
100
AcDbLine
 10
-504.5460263312173
 20
-67.93104328621979
 30
0.0
 11
-351.4700262357658
 21
-67.93104322005763
 31
0.0
210
-0.1080531442914889
220
0.0
230
0.99414511918971
  0
LINE
  5
1EE8
330
19
100
AcDbEntity
  8
0
100
AcDbLine
 10
-510.888337533675
 20
-167.292597785585
 30
0.0
 11
-515.887393550677
 21
-167.3897520000201
 31
0.0
210
4.331468517193571E-10
220
-3.853983798762783E-11
230
-1.0
  0
LINE
  5
1EEE
330
19
100
AcDbEntity
  8
0
100
AcDbLine
 10
-510.859191269335
 20
-168.7923145906103
 30
0.0
 11
-510.888337533675
 21
-167.292597785585
 31
0.0
210
-0.08871523821130516
220
-0.996057029747349
230
0.0
  0
LINE
  5
1EF1
330
19
100
AcDbEntity
  8
0
100
AcDbLine
 10
-515.8582472863372
 20
-168.8894688050453
 30
0.0
 11
-515.887393550677
 21
-167.3897520000201
 31
0.0
210
-0.08871523821130516
220
-0.996057029747349
230
0.0
  0
LINE
  5
1EF3
330
19
100
AcDbEntity
  8
0
100
AcDbLine
 10
-510.859191274347
 20
-168.7923145483847
 30
0.0
 11
-325.8941186506315
 21
-165.1976086130629
 31
0.0
210
-0.08871523821130516
220
-0.996057029747349
230
0.0
  0
LINE
  5
1EF4
330
19
100
AcDbEntity
  8
0
100
AcDbLine
 10
-320.9242088954686
 20
-163.6007377223064
 30
0.0
 11
-325.9232649124701
 21
-163.6978919367415
 31
0.0
210
4.331468517193571E-10
220
-3.853983798762783E-11
230
-1.0
  0
LINE
  5
1EFA
330
19
100
AcDbEntity
  8
0
100
AcDbLine
 10
-320.8950626311282
 20
-165.1004545273316
 30
0.0
 11
-320.9242088954682
 21
-163.6007377223064
 31
0.0
210
-0.08871523821130516
220
-0.996057029747349
230
0.0
  0
LINE
  5
1EFD
330
19
100
AcDbEntity
  8
0
100
AcDbLine
 10
-325.8941186481304
 20
-165.1976087417667
 30
0.0
 11
-325.9232649124701
 21
-163.6978919367415
 31
0.0
210
-0.08871523821130516
220
-0.996057029747349
230
0.0
  0
LINE
  5
1F27
330
19
100
AcDbEntity
  8
Plis
100
AcDbLine
 10
-607.6076275440087
 20
-175.6653512786279
 30
0.0
 11
2.813072876422439
 21
-175.6653509712702
 31
0.0
210
-9.507495178695535E-6
220
-5.354650056688115E-11
230
-0.9999999999548037
  0
LINE
  5
1F96
330
19
100
AcDbEntity
  8
0
100
AcDbLine
 10
-373.5213904488711
 20
212.9666717437003
 30
0.0
 11
-373.5213916803989
 21
214.4666717437
 31
0.0
210
0.0
220
-1.0
230
0.0
  0
LINE
  5
1F99
330
19
100
AcDbEntity
  8
0
100
AcDbLine
 10
-368.5213904488728
 20
212.9666758487933
 30
0.0
 11
-368.5213916804006
 21
214.466675848793
 31
0.0
210
0.0
220
-1.0
230
0.0
  0
LINE
  5
1F9C
330
19
100
AcDbEntity
  8
0
100
AcDbLine
 10
-373.5213904488712
 20
212.9666717437003
 30
0.0
 11
-368.5213904488729
 21
212.9666758487933
 31
0.0
210
0.0
220
-1.0
230
0.0
  0
LINE
  5
1FAA
330
19
100
AcDbEntity
  8
0
100
AcDbLine
 10
-219.7669278492189
 20
212.9667979789758
 30
0.0
 11
-219.7669290807466
 21
214.4667979789753
 31
0.0
210
0.0
220
-1.0
230
0.0
  0
LINE
  5
1FAD
330
19
100
AcDbEntity
  8
0
100
AcDbLine
 10
-214.7669278492206
 20
212.9668020840689
 30
0.0
 11
-214.7669290807484
 21
214.4668020840685
 31
0.0
210
0.0
220
-1.0
230
0.0
  0
LINE
  5
1FB0
330
19
100
AcDbEntity
  8
0
100
AcDbLine
 10
-219.766927849219
 20
212.9667979789757
 30
0.0
 11
-214.7669278492207
 21
212.9668020840688
 31
0.0
210
0.0
220
-1.0
230
0.0
  0
LINE
  5
1FB2
330
19
100
AcDbEntity
  8
0
100
AcDbLine
 10
-219.7669290807467
 20
214.4667979789754
 30
0.0
 11
-368.5213916804006
 21
214.466675848793
 31
0.0
  0
LINE
  5
1FB4
330
19
100
AcDbEntity
  8
0
100
AcDbLine
 10
-76.80042868060694
 20
214.4669153571331
 30
0.0
 11
-82.96153119726763
 21
214.4669102987533
 31
0.0
  0
LINE
  5
1FB6
330
19
100
AcDbEntity
  8
0
100
AcDbLine
 10
-373.5213916803989
 20
345.4666819121676
 30
0.0
 11
-373.5213904488712
 21
346.9666819121672
 31
0.0
210
8.210186024371102E-7
220
0.9999999999996629
230
0.0
  0
LINE
  5
1FBA
330
19
100
AcDbEntity
  8
0
100
AcDbLine
 10
-368.5213916804005
 20
345.4666778070743
 30
0.0
 11
-368.5213904488729
 21
346.9666778070742
 31
0.0
210
8.210186024371102E-7
220
0.9999999999996629
230
0.0
  0
LINE
  5
1FBD
330
19
100
AcDbEntity
  8
0
100
AcDbLine
 10
-373.5213904488712
 20
346.9666819121672
 30
0.0
 11
-368.5213904488729
 21
346.9666778070741
 31
0.0
210
8.210186024371102E-7
220
0.9999999999996629
230
0.0
  0
LINE
  5
1FBF
330
19
100
AcDbEntity
  8
0
100
AcDbLine
 10
-219.7669290807466
 20
345.466555676892
 30
0.0
 11
-368.5213916804005
 21
345.4666778070743
 31
0.0
210
0.0
220
0.0
230
-1.0
  0
LINE
  5
1FC2
330
19
100
AcDbEntity
  8
0
100
AcDbLine
 10
-219.7669290807466
 20
345.4665556768922
 30
0.0
 11
-219.7669278492189
 21
346.9665556768917
 31
0.0
210
8.210186024371102E-7
220
0.9999999999996629
230
0.0
  0
LINE
  5
1FC6
330
19
100
AcDbEntity
  8
0
100
AcDbLine
 10
-214.7669290807484
 20
345.4665515717991
 30
0.0
 11
-214.7669278492206
 21
346.9665515717986
 31
0.0
210
8.210186024371102E-7
220
0.9999999999996629
230
0.0
  0
LINE
  5
1FC9
330
19
100
AcDbEntity
  8
0
100
AcDbLine
 10
-219.766927849219
 20
346.9665556768917
 30
0.0
 11
-214.7669278492208
 21
346.9665515717987
 31
0.0
210
8.210186024371102E-7
220
0.9999999999996629
230
0.0
  0
LINE
  5
1FCB
330
19
100
AcDbEntity
  8
0
100
AcDbLine
 10
-87.9615311970882
 20
345.4664474622073
 30
0.0
 11
-214.7669290807484
 21
345.4665515717991
 31
0.0
210
0.0
220
0.0
230
-1.0
  0
LINE
  5
1FCE
330
19
100
AcDbEntity
  8
0
100
AcDbLine
 10
-87.9615311970882
 20
345.4664474622073
 30
0.0
 11
-87.96152996556053
 21
346.9664474622069
 31
0.0
210
8.210186024371102E-7
220
0.9999999999996629
230
0.0
  0
LINE
  5
1FD2
330
19
100
AcDbEntity
  8
0
100
AcDbLine
 10
-82.96153119708997
 20
345.4664433571143
 30
0.0
 11
-82.96152996556224
 21
346.9664433571139
 31
0.0
210
8.210186024371102E-7
220
0.9999999999996629
230
0.0
  0
LINE
  5
1FD5
330
19
100
AcDbEntity
  8
0
100
AcDbLine
 10
-87.96152996556053
 20
346.9664474622069
 30
0.0
 11
-82.96152996556224
 21
346.9664433571139
 31
0.0
210
8.210186024371102E-7
220
0.9999999999996629
230
0.0
  0
LINE
  5
1FD7
330
19
100
AcDbEntity
  8
0
100
AcDbLine
 10
-76.80042868060694
 20
345.4664382987344
 30
0.0
 11
-82.96153119708991
 21
345.4664433571141
 31
0.0
210
0.0
220
0.0
230
-1.0
  0
LINE
  5
1FD9
330
19
100
AcDbEntity
  8
0
100
AcDbLine
 10
-300.055553820115
 20
-4.25912724280613
 30
0.0
 11
-300.055553820115
 21
-2.75912724280613
 31
0.0
210
8.210186024371069E-7
220
0.0
230
-0.9999999999996629
  0
LINE
  5
1FDD
330
19
100
AcDbEntity
  8
0
100
AcDbLine
 10
-295.0555538201168
 20
-4.25912724280613
 30
0.0
 11
-295.0555538201168
 21
-2.75912724280613
 31
0.0
210
8.210186024371069E-7
220
0.0
230
-0.9999999999996629
  0
LINE
  5
1FE1
330
19
100
AcDbEntity
  8
0
100
AcDbLine
 10
-295.0555538201168
 20
-2.75912724280613
 30
0.0
 11
-165.0555538201605
 21
-2.75912724280613
 31
0.0
210
0.0
220
-1.0
230
0.0
  0
LINE
  5
1FE3
330
19
100
AcDbEntity
  8
0
100
AcDbLine
 10
-300.055553820115
 20
-4.25912724280613
 30
0.0
 11
-295.0555538201168
 21
-4.25912724280613
 31
0.0
210
8.210186024371069E-7
220
0.0
230
-0.9999999999996629
  0
LINE
  5
1FE5
330
19
100
AcDbEntity
  8
0
100
AcDbLine
 10
-165.0555538201605
 20
-4.259127242806073
 30
0.0
 11
-165.0555538201605
 21
-2.759127242806073
 31
0.0
210
8.210186024371069E-7
220
0.0
230
-0.9999999999996629
  0
LINE
  5
1FE9
330
19
100
AcDbEntity
  8
0
100
AcDbLine
 10
-160.0555538201622
 20
-4.259127242806073
 30
0.0
 11
-160.0555538201622
 21
-2.759127242806073
 31
0.0
210
8.210186024371069E-7
220
0.0
230
-0.9999999999996629
  0
LINE
  5
1FED
330
19
100
AcDbEntity
  8
0
100
AcDbLine
 10
-165.0555538201605
 20
-4.259127242806073
 30
0.0
 11
-160.0555538201622
 21
-4.259127242806073
 31
0.0
210
8.210186024371069E-7
220
0.0
230
-0.9999999999996629
  0
LINE
  5
1FEF
330
19
100
AcDbEntity
  8
0
100
AcDbLine
 10
-160.0555538201622
 20
-2.75912724280613
 30
0.0
 11
-87.08905341999866
 21
-2.759127242806073
 31
0.0
210
0.0
220
-1.0
230
0.0
  0
LINE
  5
1FF1
330
19
100
AcDbEntity
  8
0
100
AcDbLine
 10
-383.8100164197907
 20
34.24087275719387
 30
0.0
 11
-300.055553820115
 21
34.24087275719381
 31
0.0
210
0.0
220
1.0
230
0.0
  0
LINE
  5
1FF3
330
19
100
AcDbEntity
  8
0
100
AcDbLine
 10
-295.0555538201168
 20
34.24087275719381
 30
0.0
 11
-165.0555538201605
 21
34.24087275719387
 31
0.0
210
0.0
220
1.0
230
0.0
  0
LINE
  5
1FF5
330
19
100
AcDbEntity
  8
0
100
AcDbLine
 10
-165.0555538201605
 20
35.74087275719381
 30
0.0
 11
-165.0555538201605
 21
34.24087275719381
 31
0.0
210
8.210186024371069E-7
220
0.0
230
-0.9999999999996629
  0
LINE
  5
1FF9
330
19
100
AcDbEntity
  8
0
100
AcDbLine
 10
-160.0555538201623
 20
35.74087275719381
 30
0.0
 11
-160.0555538201623
 21
34.24087275719381
 31
0.0
210
8.210186024371069E-7
220
0.0
230
-0.9999999999996629
  0
LINE
  5
1FFD
330
19
100
AcDbEntity
  8
0
100
AcDbLine
 10
-165.0555538201605
 20
35.74087275719381
 30
0.0
 11
-160.0555538201623
 21
35.74087275719381
 31
0.0
210
8.210186024371069E-7
220
0.0
230
-0.9999999999996629
  0
LINE
  5
1FFF
330
19
100
AcDbEntity
  8
0
100
AcDbLine
 10
-300.0555538201151
 20
35.74087275719381
 30
0.0
 11
-300.0555538201151
 21
34.24087275719381
 31
0.0
210
8.210186024371069E-7
220
0.0
230
-0.9999999999996629
  0
LINE
  5
2003
330
19
100
AcDbEntity
  8
0
100
AcDbLine
 10
-295.0555538201168
 20
35.74087275719381
 30
0.0
 11
-295.0555538201168
 21
34.24087275719381
 31
0.0
210
8.210186024371069E-7
220
0.0
230
-0.9999999999996629
  0
LINE
  5
2007
330
19
100
AcDbEntity
  8
0
100
AcDbLine
 10
-300.0555538201151
 20
35.74087275719381
 30
0.0
 11
-295.0555538201168
 21
35.74087275719381
 31
0.0
210
8.210186024371069E-7
220
0.0
230
-0.9999999999996629
  0
LINE
  5
2009
330
19
100
AcDbEntity
  8
0
100
AcDbLine
 10
-160.0555538201623
 20
34.24087275719387
 30
0.0
 11
-87.0890534199986
 21
34.24087275719381
 31
0.0
210
0.0
220
1.0
230
0.0
  0
LINE
  5
2010
330
19
100
AcDbEntity
  8
0
100
AcDbLine
 10
-29.49158583950089
 20
465.1810993911745
 30
0.0
 11
-29.41640893093063
 21
463.6829844314941
 31
0.0
210
0.05011793904662933
220
-0.9987433064535243
230
0.0
  0
LINE
  5
2012
330
19
100
AcDbEntity
  8
0
100
AcDbLine
 10
-29.41640893093063
 20
463.6829844314942
 30
0.0
 11
-23.95961590257338
 21
463.9568117689278
 31
0.0
  0
LINE
  5
2017
330
19
100
AcDbEntity
  8
0
100
AcDbLine
 10
-179.1992743715985
 20
457.6686176952344
 30
0.0
 11
-179.1240974630284
 21
456.1705027355542
 31
0.0
210
0.05011793904662933
220
-0.9987433064535243
230
0.0
  0
LINE
  5
2019
330
19
100
AcDbEntity
  8
0
100
AcDbLine
 10
-179.1240974630284
 20
456.1705027355544
 30
0.0
 11
-174.1303809307607
 21
456.4210924307877
 31
0.0
  0
LINE
  5
201D
330
19
100
AcDbEntity
  8
0
100
AcDbLine
 10
-174.2055578393309
 20
457.9192073904682
 30
0.0
 11
-174.1303809307607
 21
456.4210924307877
 31
0.0
210
0.05011793904662933
220
-0.9987433064535243
230
0.0
  0
LINE
  5
2021
330
19
100
AcDbEntity
  8
0
100
AcDbLine
 10
-319.0233372750914
 20
450.6521062286956
 30
0.0
 11
-318.9481603665213
 21
449.1539912690156
 31
0.0
210
0.05011793904662933
220
-0.9987433064535243
230
0.0
  0
LINE
  5
2023
330
19
100
AcDbEntity
  8
0
100
AcDbLine
 10
-318.9481603665213
 20
449.1539912690157
 30
0.0
 11
-313.9544438342535
 21
449.404580964249
 31
0.0
  0
LINE
  5
2027
330
19
100
AcDbEntity
  8
0
100
AcDbLine
 10
-314.0296207428237
 20
450.9026959239296
 30
0.0
 11
-313.9544438342535
 21
449.404580964249
 31
0.0
210
0.05011793904662933
220
-0.9987433064535243
230
0.0
  0
LINE
  5
2029
330
19
100
AcDbEntity
  8
0
100
AcDbLine
 10
-174.2055578393309
 20
457.9192073904677
 30
0.0
 11
-29.49158583950089
 21
465.1810993911745
 31
0.0
  0
LINE
  5
202B
330
19
100
AcDbEntity
  8
0
100
AcDbLine
 10
-314.0296207428239
 20
450.9026959239289
 30
0.0
 11
-179.1992743715985
 21
457.6686176952343
 31
0.0
  0
LINE
  5
202F
330
19
100
AcDbEntity
  8
0
100
AcDbLine
 10
-438.2257702320774
 20
444.6704087989806
 30
0.0
 11
-438.1505933235074
 21
443.1722938393007
 31
0.0
210
0.05011793904662933
220
-0.9987433064535243
230
0.0
  0
LINE
  5
2031
330
19
100
AcDbEntity
  8
0
100
AcDbLine
 10
-438.1505933235073
 20
443.1722938393009
 30
0.0
 11
-433.1568767912397
 21
443.422883534534
 31
0.0
  0
LINE
  5
2035
330
19
100
AcDbEntity
  8
0
100
AcDbLine
 10
-433.2320536998098
 20
444.9209984942147
 30
0.0
 11
-433.1568767912397
 21
443.422883534534
 31
0.0
210
0.05011793904662933
220
-0.9987433064535243
230
0.0
  0
LINE
  5
2037
330
19
100
AcDbEntity
  8
0
100
AcDbLine
 10
-433.2320536998098
 20
444.9209984942147
 30
0.0
 11
-319.0233372750915
 21
450.6521062286954
 31
0.0
  0
LINE
  5
2038
330
19
100
AcDbEntity
  8
0
100
AcDbLine
 10
-455.8414299282973
 20
567.1348869208996
 30
0.0
 11
-438.2257702320774
 21
566.250915480773
 31
0.0
210
0.0
220
0.0
230
-1.0
  0
LINE
  5
203C
330
19
100
AcDbEntity
  8
0
100
AcDbLine
 10
-179.1992743715984
 20
553.2527065845185
 30
0.0
 11
-179.1240974630281
 21
554.7508215441983
 31
0.0
210
0.05011793904662933
220
0.9987433064535243
230
-1.136868377216139E-13
  0
LINE
  5
203E
330
19
100
AcDbEntity
  8
0
100
AcDbLine
 10
-179.1240974630282
 20
554.7508215441984
 30
0.0
 11
-174.1303809307604
 21
554.500231848965
 31
0.0
210
0.0
220
0.0
230
-1.0
  0
LINE
  5
2040
330
19
100
AcDbEntity
  8
0
100
AcDbLine
 10
-174.2055578393308
 20
553.0021168892844
 30
0.0
 11
-174.1303809307604
 21
554.500231848965
 31
0.0
210
0.05011793904662933
220
0.9987433064535243
230
-1.136868377216139E-13
  0
LINE
  5
2045
330
19
100
AcDbEntity
  8
0
100
AcDbLine
 10
-319.0233372750915
 20
560.2692180510572
 30
0.0
 11
-318.948160366521
 21
561.7673330107372
 31
0.0
210
0.05011793904662933
220
0.9987433064535243
230
-1.136868377216139E-13
  0
LINE
  5
2047
330
19
100
AcDbEntity
  8
0
100
AcDbLine
 10
-318.9481603665211
 20
561.767333010737
 30
0.0
 11
-313.9544438342534
 21
561.5167433155036
 31
0.0
210
0.0
220
0.0
230
-1.0
  0
LINE
  5
204A
330
19
100
AcDbEntity
  8
0
100
AcDbLine
 10
-314.0296207428236
 20
560.0186283558231
 30
0.0
 11
-313.9544438342534
 21
561.5167433155036
 31
0.0
210
0.05011793904662933
220
0.9987433064535243
230
-1.136868377216139E-13
  0
LINE
  5
204D
330
19
100
AcDbEntity
  8
0
100
AcDbLine
 10
-314.0296207428237
 20
560.0186283558239
 30
0.0
 11
-179.1992743715985
 21
553.2527065845186
 31
0.0
210
0.0
220
0.0
230
-1.0
  0
LINE
  5
2051
330
19
100
AcDbEntity
  8
0
100
AcDbLine
 10
-438.2257702320774
 20
566.2509154807724
 30
0.0
 11
-438.1505933235072
 21
567.7490304404522
 31
0.0
210
0.05011793904662933
220
0.9987433064535243
230
-1.136868377216139E-13
  0
LINE
  5
2053
330
19
100
AcDbEntity
  8
0
100
AcDbLine
 10
-438.1505933235073
 20
567.749030440452
 30
0.0
 11
-433.1568767912395
 21
567.4984407452185
 31
0.0
210
0.0
220
0.0
230
-1.0
  0
LINE
  5
2056
330
19
100
AcDbEntity
  8
0
100
AcDbLine
 10
-433.2320536998097
 20
566.0003257855382
 30
0.0
 11
-433.1568767912395
 21
567.4984407452185
 31
0.0
210
0.05011793904662933
220
0.9987433064535243
230
-1.136868377216139E-13
  0
LINE
  5
2059
330
19
100
AcDbEntity
  8
0
100
AcDbLine
 10
-433.2320536998097
 20
566.0003257855382
 30
0.0
 11
-319.0233372750914
 21
560.2692180510576
 31
0.0
210
0.0
220
0.0
230
-1.0
  0
LINE
  5
205D
330
19
100
AcDbEntity
  8
0
100
AcDbLine
 10
-29.49158583950066
 20
545.7402248885782
 30
0.0
 11
-29.4164089309304
 21
547.2383398482583
 31
0.0
210
0.05011793904662933
220
0.9987433064535243
230
-1.136868377216139E-13
  0
LINE
  5
205F
330
19
100
AcDbEntity
  8
0
100
AcDbLine
 10
-174.2055578393308
 20
553.0021168892848
 30
0.0
 11
-29.49158583950066
 21
545.7402248885782
 31
0.0
210
0.0
220
0.0
230
-1.0
  0
LINE
  5
2062
330
19
100
AcDbEntity
  8
0
100
AcDbLine
 10
-29.41640893093052
 20
547.2383398482583
 30
0.0
 11
-23.95961590257332
 21
546.964512510825
 31
0.0
210
0.0
220
0.0
230
-1.0
  0
LINE
  5
2071
330
19
100
AcDbEntity
  8
0
100
AcDbLine
 10
-419.0134015188119
 20
101.4022406401647
 30
0.0
 11
-419.0134015188119
 21
102.9022406401647
 31
0.0
210
-0.9839845121394478
220
0.0
230
-0.1782539757472267
  0
LINE
  5
2074
330
19
100
AcDbEntity
  8
0
100
AcDbLine
 10
-419.0134015188119
 20
101.4022406401647
 30
0.0
 11
-414.0134015188136
 21
101.4022406401647
 31
0.0
210
0.0
220
-1.0
230
0.0
  0
LINE
  5
2078
330
19
100
AcDbEntity
  8
0
100
AcDbLine
 10
-414.0134015188136
 20
101.4022406401647
 30
0.0
 11
-414.0134015188137
 21
102.9022406401647
 31
0.0
210
-0.9839845121394478
220
0.0
230
-0.1782539757472267
  0
LINE
  5
207B
330
19
100
AcDbEntity
  8
0
100
AcDbLine
 10
-414.0134015188137
 20
102.9022406401646
 30
0.0
 11
-279.0134015188649
 21
102.9022406401647
 31
0.0
210
0.0
220
-1.0
230
0.0
  0
LINE
  5
207D
330
19
100
AcDbEntity
  8
0
100
AcDbLine
 10
-279.0134015188649
 20
101.4022406401647
 30
0.0
 11
-279.013401518865
 21
102.9022406401647
 31
0.0
210
-0.9839845121394478
220
0.0
230
-0.1782539757472267
  0
LINE
  5
2080
330
19
100
AcDbEntity
  8
0
100
AcDbLine
 10
-279.0134015188649
 20
101.4022406401647
 30
0.0
 11
-274.0134015188665
 21
101.4022406401647
 31
0.0
210
0.0
220
-1.0
230
0.0
  0
LINE
  5
2084
330
19
100
AcDbEntity
  8
0
100
AcDbLine
 10
-274.0134015188667
 20
101.4022406401647
 30
0.0
 11
-274.0134015188667
 21
102.9022406401647
 31
0.0
210
-0.9839845121394478
220
0.0
230
-0.1782539757472267
  0
LINE
  5
2087
330
19
100
AcDbEntity
  8
0
100
AcDbLine
 10
-274.0134015188667
 20
102.9022406401647
 30
0.0
 11
-139.0134015189178
 21
102.9022406401647
 31
0.0
210
0.0
220
-1.0
230
0.0
  0
LINE
  5
2089
330
19
100
AcDbEntity
  8
0
100
AcDbLine
 10
-139.0134015189179
 20
101.4022406401647
 30
0.0
 11
-139.0134015189179
 21
102.9022406401647
 31
0.0
210
-0.9839845121394478
220
0.0
230
-0.1782539757472267
  0
LINE
  5
208C
330
19
100
AcDbEntity
  8
0
100
AcDbLine
 10
-139.0134015189179
 20
101.4022406401647
 30
0.0
 11
-134.0134015189196
 21
101.4022406401647
 31
0.0
210
0.0
220
-1.0
230
0.0
  0
LINE
  5
2090
330
19
100
AcDbEntity
  8
0
100
AcDbLine
 10
-134.0134015189197
 20
101.4022406401646
 30
0.0
 11
-134.0134015189197
 21
102.9022406401646
 31
0.0
210
-0.9839845121394478
220
0.0
230
-0.1782539757472267
  0
LINE
  5
2094
330
19
100
AcDbEntity
  8
0
100
AcDbLine
 10
-485.4890872651426
 20
139.9022406401645
 30
0.0
 11
-419.0134015188119
 21
139.9022406401679
 31
0.0
210
0.0
220
1.0
230
0.0
  0
LINE
  5
2097
330
19
100
AcDbEntity
  8
0
100
AcDbLine
 10
-419.0134015188119
 20
141.4022406401679
 30
0.0
 11
-419.0134015188119
 21
139.9022406401679
 31
0.0
210
-0.9839845121394478
220
0.0
230
-0.1782539757472267
  0
LINE
  5
209A
330
19
100
AcDbEntity
  8
0
100
AcDbLine
 10
-419.0134015188119
 20
141.4022406401679
 30
0.0
 11
-414.0134015188136
 21
141.4022406401679
 31
0.0
210
0.0
220
1.0
230
0.0
  0
LINE
  5
209E
330
19
100
AcDbEntity
  8
0
100
AcDbLine
 10
-414.0134015188136
 20
141.4022406401679
 30
0.0
 11
-414.0134015188137
 21
139.9022406401679
 31
0.0
210
-0.9839845121394478
220
0.0
230
-0.1782539757472267
  0
LINE
  5
20A1
330
19
100
AcDbEntity
  8
0
100
AcDbLine
 10
-414.0134015188137
 20
139.9022406401679
 30
0.0
 11
-279.0134015188648
 21
139.9022406401679
 31
0.0
210
0.0
220
1.0
230
0.0
  0
LINE
  5
20A3
330
19
100
AcDbEntity
  8
0
100
AcDbLine
 10
-279.0134015188648
 20
141.4022406401679
 30
0.0
 11
-279.0134015188649
 21
139.9022406401679
 31
0.0
210
-0.9839845121394478
220
0.0
230
-0.1782539757472267
  0
LINE
  5
20A6
330
19
100
AcDbEntity
  8
0
100
AcDbLine
 10
-279.0134015188648
 20
141.4022406401679
 30
0.0
 11
-274.0134015188665
 21
141.4022406401679
 31
0.0
210
0.0
220
1.0
230
0.0
  0
LINE
  5
20AA
330
19
100
AcDbEntity
  8
0
100
AcDbLine
 10
-274.0134015188667
 20
141.4022406401679
 30
0.0
 11
-274.0134015188667
 21
139.9022406401679
 31
0.0
210
-0.9839845121394478
220
0.0
230
-0.1782539757472267
  0
LINE
  5
20AD
330
19
100
AcDbEntity
  8
0
100
AcDbLine
 10
-274.0134015188667
 20
139.9022406401679
 30
0.0
 11
-139.0134015189177
 21
139.9022406401679
 31
0.0
210
0.0
220
1.0
230
0.0
  0
LINE
  5
20AF
330
19
100
AcDbEntity
  8
0
100
AcDbLine
 10
-139.0134015189178
 20
141.4022406401679
 30
0.0
 11
-139.0134015189177
 21
139.9022406401679
 31
0.0
210
-0.9839845121394478
220
0.0
230
-0.1782539757472267
  0
LINE
  5
20B2
330
19
100
AcDbEntity
  8
0
100
AcDbLine
 10
-139.0134015189178
 20
141.4022406401679
 30
0.0
 11
-134.0134015189195
 21
141.4022406401679
 31
0.0
210
0.0
220
1.0
230
0.0
  0
LINE
  5
20B6
330
19
100
AcDbEntity
  8
0
100
AcDbLine
 10
-134.0134015189196
 20
141.4022406401679
 30
0.0
 11
-134.0134015189196
 21
139.9022406401679
 31
0.0
210
-0.9839845121394478
220
0.0
230
-0.1782539757472267
  0
LINE
  5
20B9
330
19
100
AcDbEntity
  8
0
100
AcDbLine
 10
-134.0134015189196
 20
139.9022406401679
 30
0.0
 11
-55.17224410159997
 21
139.9022406401647
 31
0.0
210
0.0
220
1.0
230
0.0
  0
LINE
  5
20E6
330
19
100
AcDbEntity
  8
0
100
AcDbLine
 10
-529.3633474059799
 20
-169.1519337939588
 30
0.0
 11
-529.3634139572075
 21
-162.1520642241115
 31
0.0
210
-9.507495406069157E-6
220
0.9999999999548037
230
-5.354650056688022E-11
  0
LINE
  5
20E7
330
19
100
AcDbEntity
  8
0
100
AcDbLine
 10
-529.3634139572075
 20
-162.1520642241115
 30
0.0
 11
-609.3633996127003
 21
-163.6612036003068
 31
0.0
210
-9.507496088190183E-6
220
0.9999999999548037
230
-5.343281372915860E-11
  0
CIRCLE
  5
24AE
330
19
100
AcDbEntity
  8
0
100
AcDbCircle
 10
-70.71794115831284
 20
474.8176683993644
 30
0.0
 40
5.549999999999997
  0
LINE
  5
25D0
330
19
100
AcDbEntity
  8
0
100
AcDbLine
 10
-55.17224410159997
 20
139.9022406401647
 30
0.0
 11
-53.56290321241784
 21
139.9022406401646
 31
0.0
210
0.0
220
1.0
230
0.0
  0
LINE
  5
25D1
330
19
100
AcDbEntity
  8
0
100
AcDbLine
 10
-134.0134015189196
 20
102.9022406401614
 30
0.0
 11
-55.17224410159997
 21
102.9022406401646
 31
0.0
210
0.0
220
-1.0
230
0.0
  0
LINE
  5
25D2
330
19
100
AcDbEntity
  8
0
100
AcDbLine
 10
-55.17224410159997
 20
102.9022406401646
 30
0.0
 11
-53.56290321241829
 21
102.9022406401647
 31
0.0
210
0.0
220
-1.0
230
0.0
  0
LINE
  5
2776
330
19
100
AcDbEntity
  8
0
100
AcDbLine
 10
21.65866127145136
 20
475.4284667678926
 30
0.0
 11
22.27370302633244
 21
472.4948591020735
 31
0.0
210
-0.9787216084930794
220
-0.2051926243038946
230
0.0
  0
LINE
  5
2782
330
19
100
AcDbEntity
  8
Plis
100
AcDbLine
 10
4.00822093852074
 20
521.9606647203547
 30
0.0
 11
4.008220938520537
 21
505.4580519654303
 31
0.0
210
0.9787216084930787
220
0.0
230
0.2051926243038984
  0
LINE
  5
2784
330
19
100
AcDbEntity
  8
0
100
AcDbLine
 10
4.845374720874801
 20
524.5076323105192
 30
0.0
 11
21.65866127145125
 21
535.4928575118602
 31
0.0
210
-0.5469675901645671
220
0.8371537823539749
230
0.0
  0
LINE
  5
2786
330
19
100
AcDbEntity
  8
Plis
100
AcDbLine
 10
-469.0769903405595
 20
523.9606647203548
 30
0.0
 11
2.008220938520765
 21
523.9606647203547
 31
0.0
210
0.0
220
1.0
230
0.0
  0
LINE
  5
278E
330
19
100
AcDbEntity
  8
0
100
AcDbLine
 10
21.65866127145136
 20
535.4928575118603
 30
0.0
 11
22.27370302633244
 21
538.4264651776793
 31
0.0
210
-0.9787216084930823
220
0.205192624303881
230
0.0
  0
LINE
  5
2790
330
19
100
AcDbEntity
  8
Plis
100
AcDbLine
 10
25.09208952392763
 20
521.9606647203547
 30
0.0
 11
25.09208952392743
 21
505.4580519654302
 31
0.0
210
0.7071070857502447
220
0.0
230
0.7071064766227192
  0
TEXT
  5
283D
330
19
100
AcDbEntity
  8
Plis
100
AcDbText
 10
-409.2765984328227
 20
13.67804331715748
 30
0.0
 40
4.0
  1
Pli 165 vers l'arrire
100
AcDbText
  0
TEXT
  5
283E
330
19
100
AcDbEntity
  8
Plis
100
AcDbText
 10
-78.23054321840829
 20
119.7793419554135
 30
0.0
 40
4.0
  1
Pli 99 vers l'arrire
100
AcDbText
  0
TEXT
  5
283F
330
19
100
AcDbEntity
  8
Plis
100
AcDbText
 10
-392.5818855303676
 20
277.0962872119093
 30
0.0
 40
4.0
  1
Pli 165 vers l'avant
100
AcDbText
  0
TEXT
  5
2840
330
19
100
AcDbEntity
  8
Plis
100
AcDbText
 10
-203.845203068473
 20
301.3355349331692
 30
0.0
 40
4.0
  1
Pli 90 vers l'arrire
100
AcDbText
  0
TEXT
  5
2841
330
19
100
AcDbEntity
  8
Plis
100
AcDbText
 10
-208.7336254131906
 20
264.1835251133157
 30
0.0
 40
4.0
  1
Pli 90 vers l'arrire
100
AcDbText
  0
LINE
  5
2842
330
19
100
AcDbEntity
  8
0
100
AcDbLine
 10
5.008220938148558
 20
486.9606647203547
 30
0.0
 11
25.0920895239276
 21
486.9606647203547
 31
0.0
210
-4.307182734919479E-7
220
0.0
230
-0.9999999999999072
  0
LINE
  5
2843
330
19
100
AcDbEntity
  8
0
100
AcDbLine
 10
5.008220938520787
 20
523.9606647203547
 30
0.0
 11
25.09208952392765
 21
523.9606647203547
 31
0.0
210
-4.307182734919479E-7
220
0.0
230
-0.9999999999999072
  0
LINE
  5
2844
330
19
100
AcDbEntity
  8
0
100
AcDbLine
 10
6.008220938520765
 20
523.9606647203545
 30
0.0
 11
28.0894767690462
 21
523.9606647203545
 31
0.0
210
-4.307182734919479E-7
220
0.0
230
-0.9999999999999072
  0
LINE
  5
2845
330
19
100
AcDbEntity
  8
0
100
AcDbLine
 10
25.09208952392794
 20
486.9606647203547
 30
0.0
 11
28.0894767690462
 21
486.9606647203547
 31
0.0
210
-4.307182734919479E-7
220
0.0
230
-0.9999999999999072
  0
LINE
  5
2846
330
19
100
AcDbEntity
  8
0
100
AcDbLine
 10
28.0894767690462
 20
486.9580519654302
 30
0.0
 11
34.29822390432529
 21
493.1274259828704
 31
0.0
210
-4.307182734919479E-7
220
0.0
230
-0.9999999999999072
  0
LINE
  5
2847
330
19
100
AcDbEntity
  8
0
100
AcDbLine
 10
28.08947676904626
 20
523.963277475279
 30
0.0
 11
34.29822390432523
 21
517.7939034578375
 31
0.0
210
-4.307182734919479E-7
220
0.0
230
-0.9999999999999072
  0
LINE
  5
284A
330
19
100
AcDbEntity
  8
0
100
AcDbLine
 10
-23.67802218159335
 20
462.6068766708003
 30
0.0
 11
-21.86910306256279
 21
454.0427041348769
 31
0.0
210
-0.9784063784299438
220
-0.2066583531034195
230
-0.003644686568691052
  0
LINE
  5
284B
330
19
100
AcDbEntity
  8
0
100
AcDbLine
 10
-21.86910306256279
 20
454.0427041348769
 30
0.0
 11
-12.09265380078928
 21
456.1453310233115
 31
0.0
210
0.9784063784299923
220
0.2066583531031903
230
0.003644686568691196
  0
LINE
  5
284C
330
19
100
AcDbEntity
  8
0
100
AcDbLine
 10
22.27335899113308
 20
472.4896681656907
 30
0.0
 11
24.08227811016353
 21
463.9254956297673
 31
0.0
210
-0.9784063784299434
220
-0.2066583531034194
230
-0.00364468656880474
  0
LINE
  5
284D
330
19
100
AcDbEntity
  8
0
100
AcDbLine
 10
-23.67749719147889
 20
548.3030088225753
 30
0.0
 11
-23.95916378698365
 21
546.9595968406935
 31
0.0
210
-0.9787193730694168
220
0.2052032864712645
230
0.0
  0
TEXT
  5
284E
330
19
100
AcDbEntity
  8
Plis
100
AcDbText
 10
-322.1690817571293
 20
528.3834617923732
 30
0.0
 40
4.0
  1
Pli 90 vers l'arrire
100
AcDbText
  0
TEXT
  5
284F
330
19
100
AcDbEntity
  8
Plis
100
AcDbText
 10
-319.0396674914934
 20
490.8304906047425
 30
0.0
 40
4.0
  1
Pli 90 vers l'arrire
100
AcDbText
  0
TEXT
  5
2850
330
19
100
AcDbEntity
  8
Plis
100
AcDbText
 10
-15.86414289443509
 20
549.0148291832395
 30
0.0
 40
4.0
  1
Pli 135 vers l'arrire
100
AcDbText
  0
TEXT
  5
2851
330
19
100
AcDbEntity
  8
Plis
100
AcDbText
 10
32.06302640249424
 20
503.5727723683731
 30
0.0
 40
4.0
  1
Pli 135 vers l'arrire
100
AcDbText
  0
TEXT
  5
2852
330
19
100
AcDbEntity
  8
Plis
100
AcDbText
 10
-74.79681032621485
 20
504.2828045061054
 30
0.0
 40
4.0
  1
Pli 147 vers l'arrire
100
AcDbText
  0
TEXT
  5
2856
330
19
100
AcDbEntity
  8
Plis
100
AcDbText
 10
-203.6360507303146
 20
-171.8041119469004
 30
0.0
 40
4.0
  1
Pli 90 vers l'arrire
100
AcDbText
  0
TEXT
  5
2857
330
19
100
AcDbEntity
  8
Plis
100
AcDbText
 10
-219.4389670092492
 20
-211.9561307229076
 30
0.0
 40
4.0
  1
Pli 90 vers l'arrire
100
AcDbText
  0
TEXT
  5
2858
330
19
100
AcDbEntity
  8
Plis
100
AcDbText
 10
-3.579161184425605
 20
-193.570384931122
 30
0.0
 40
4.0
  1
Pli 175 vers l'avant
100
AcDbText
  0
TEXT
  5
285A
330
19
100
AcDbEntity
  8
0
100
AcDbText
 10
-428.1282921321042
 20
-156.2429349724318
 30
0.0
 40
8.0
  1
2 pices symtriques
100
AcDbText
  0
ARC
  5
2864
330
19
100
AcDbEntity
  8
0
100
AcDbCircle
 10
-367.3288182824115
 20
298.4666768279337
 30
0.0
 40
1.0
100
AcDbArc
 50
180.0
 51
97.50587794187099
  0
ARC
  5
2867
330
19
100
AcDbEntity
  8
0
100
AcDbCircle
 10
-367.3288182824116
 20
261.4666768279337
 30
0.0
 40
1.000000000000012
100
AcDbArc
 50
262.4941220581289
 51
180.0
  0
ARC
  5
2869
330
19
100
AcDbEntity
  8
0
100
AcDbCircle
 10
4.008220938520765
 20
523.9606647203547
 30
0.0
 40
1.000000000000022
100
AcDbArc
 50
33.15922467834054
 51
360.0
  0
ARC
  5
286B
330
19
100
AcDbEntity
  8
0
100
AcDbCircle
 10
4.008213039489289
 20
486.9606647203547
 30
0.0
 40
1.000007898659269
100
AcDbArc
 50
0.0
 51
326.8407753276754
  0
LINE
  5
2876
330
19
100
AcDbEntity
  8
0
100
AcDbLine
 10
-639.4491761739719
 20
71.34437018453887
 30
0.0
 11
-650.5599068519645
 21
50.95868348935779
 31
0.0
  0
LINE
  5
2877
330
19
100
AcDbEntity
  8
0
100
AcDbLine
 10
-643.535477395384
 20
39.13018631109091
 30
0.0
 11
-635.0589077562452
 21
39.13018629860682
 31
0.0
  0
LINE
  5
2878
330
19
100
AcDbEntity
  8
0
100
AcDbLine
 10
-630.0589077562452
 20
44.13018629124294
 30
0.0
 11
-630.0589077562452
 21
68.95155944812208
 31
0.0
  0
ARC
  5
2881
330
19
100
AcDbEntity
  8
0
100
AcDbCircle
 10
-635.0589077562452
 20
68.95155944812208
 30
0.0
 40
5.0
100
AcDbArc
 50
0.0
 51
151.4084643713634
  0
ARC
  5
2883
330
19
100
AcDbEntity
  8
0
100
AcDbCircle
 10
-635.0589077525632
 20
44.13018629492488
 30
0.0
 40
5.0
100
AcDbArc
 50
269.9999999578077
 51
359.9999999578081
  0
ARC
  5
28A4
330
19
100
AcDbEntity
  8
Epure
100
AcDbCircle
 10
-317.6350618894206
 20
1842.855910316942
 30
0.0
 40
2007.517857142858
100
AcDbArc
 50
261.654549984601
 51
271.2267819190287
  0
LINE
  5
28A8
330
19
100
AcDbEntity
  8
0
100
AcDbLine
 10
-227.9370134098377
 20
-127.4745718873955
 30
0.0
 11
6.454304783334011
 21
-157.2382959199374
 31
0.0
210
4.314131274441024E-10
220
-5.462652552523650E-11
230
-1.0
  0
LINE
  5
28A9
330
19
100
AcDbEntity
  8
Epure
100
AcDbLine
 10
-609.5067989328635
 20
-170.7094826695078
 30
0.0
 11
-529.3633474059799
 21
-169.1519337939588
 31
0.0
210
-0.08871523821130516
220
-0.996057029747349
230
0.0
  0
LINE
  5
28AE
330
19
100
AcDbEntity
  8
0
100
AcDbLine
 10
-230.6603413387785
 20
-261.3299849972445
 30
0.0
 11
5.702401821853529
 21
-241.1438426497243
 31
0.0
210
-2.097515136512129E-5
220
-0.00362188249994233
230
0.9999934407420878
  0
LINE
  5
28B3
330
19
100
AcDbEntity
  8
0
100
AcDbLine
 10
-227.9370134098377
 20
-127.4745718873955
 30
0.0
 11
-228.565934485923
 21
-132.5196379645807
 31
0.0
  0
LINE
  5
28B4
330
19
100
AcDbEntity
  8
0
100
AcDbLine
 10
-263.5807482525058
 20
-163.9865786643128
 30
0.0
 11
-320.8950626463798
 21
-165.1004543988398
 31
0.0
  0
ARC
  5
28B5
330
19
100
AcDbEntity
  8
0
100
AcDbCircle
 10
-264.2802585966616
 20
-127.9933753437078
 30
0.0
 40
36.00000000000001
100
AcDbArc
 50
271.1133753582243
 51
334.777112500924
  0
LINE
  5
28B8
330
19
100
AcDbEntity
  8
0
100
AcDbLine
 10
-692.2922595840478
 20
-67.93104336736698
 30
0.0
 11
-509.5460263314676
 21
-67.93104328838086
 31
0.0
210
-0.1080531442914889
220
0.0
230
0.99414511918971
  0
LINE
  5
28C5
330
19
100
AcDbEntity
  8
Epure
100
AcDbLine
 10
-352.2001509254131
 20
-103.9726169517043
 30
0.0
 11
-504.7046813544589
 21
-97.78511311240902
 31
0.0
210
-0.04054475537464013
220
-0.9991774129247155
230
-0.0007875993163111093
  0
LINE
  5
28C9
330
19
100
AcDbEntity
  8
0
100
AcDbLine
 10
-301.0955032240105
 20
-68.27193118527197
 30
0.0
 11
-351.4700262357658
 21
-67.93104322005763
 31
0.0
  0
LINE
  5
28CB
330
19
100
AcDbEntity
  8
Epure
100
AcDbLine
 10
-351.4700262357658
 20
-67.93104322005763
 30
0.0
 11
-352.2001509254131
 21
-103.9726169517043
 31
0.0
  0
LINE
  5
28CE
330
19
100
AcDbEntity
  8
Epure
100
AcDbLine
 10
-296.5065778215477
 20
-87.07377169736395
 30
0.0
 11
-697.546025530492
 21
-78.94151249464238
 31
0.0
  0
LINE
  5
28D5
330
19
100
AcDbEntity
  8
0
100
AcDbLine
 10
-231.3272328309812
 20
-138.2084667719037
 30
0.0
 11
-229.8944927863517
 21
-138.6526018465324
 31
0.0
  0
LINE
  5
28D6
330
19
100
AcDbEntity
  8
0
100
AcDbLine
 10
-233.0695953552429
 20
-142.6952289693821
 30
0.0
 11
-231.7126103017199
 21
-143.3344406436463
 31
0.0
  0
ARC
  5
28D7
330
19
100
AcDbEntity
  8
0
100
AcDbCircle
 10
-264.2802585966616
 20
-127.9933753437078
 30
0.0
 40
34.50000000000001
100
AcDbArc
 50
334.7771136392889
 51
342.7771135469685
  0
ARC
  5
28D8
330
19
100
AcDbEntity
  8
0
100
AcDbCircle
 10
-264.2802585966616
 20
-127.9933753437078
 30
0.0
 40
36.0
100
AcDbArc
 50
342.7771125179899
 51
352.7771135777554
  0
LINE
  5
28E7
330
19
100
AcDbEntity
  8
0
100
AcDbLine
 10
-692.803743331733
 20
-91.65468101964237
 30
0.0
 11
-692.7429344754271
 21
-90.15591409880551
 31
0.0
210
0.04053923753717481
220
0.9991779472245694
230
4.698108568845609E-11
  0
LINE
  5
28E8
330
19
100
AcDbEntity
  8
0
100
AcDbLine
 10
-692.803743331733
 20
-91.65468101964237
 30
0.0
 11
-697.7996330678557
 21
-91.45198483195557
 31
0.0
210
0.04053923753717481
220
0.9991779472245694
230
4.698108568845609E-11
  0
LINE
  5
28E9
330
19
100
AcDbEntity
  8
0
100
AcDbLine
 10
-505.2118473910263
 20
-99.26577016622224
 30
0.0
 11
-510.2077371271486
 21
-99.06307397853539
 31
0.0
210
0.04053923753717481
220
0.9991779472245694
230
4.698108568845609E-11
  0
LINE
  5
28EA
330
19
100
AcDbEntity
  8
0
100
AcDbLine
 10
-505.2118473910263
 20
-99.26577016622224
 30
0.0
 11
-505.15103853472
 21
-97.76700324538541
 31
0.0
210
0.04053923753717481
220
0.9991779472245694
230
4.698108568845609E-11
  0
LINE
  5
28EB
330
19
100
AcDbEntity
  8
0
100
AcDbLine
 10
-510.2077371273994
 20
-99.06307397852538
 30
0.0
 11
-510.1469282710932
 21
-97.56430705768855
 31
0.0
210
0.04053923753717481
220
0.9991779472245694
230
4.695266397902569E-11
  0
LINE
  5
28EC
330
19
100
AcDbEntity
  8
0
100
AcDbLine
 10
-296.9175196373048
 20
-107.3424954259108
 30
0.0
 11
-301.9134093734274
 21
-107.139799238224
 31
0.0
210
0.04053923753717481
220
0.9991779472245694
230
4.698108568845609E-11
  0
LINE
  5
28ED
330
19
100
AcDbEntity
  8
0
100
AcDbLine
 10
-301.9134093736778
 20
-107.1397992382139
 30
0.0
 11
-301.8539431557673
 21
-105.6741245696591
 31
0.0
210
0.04053923753717481
220
0.9991779472245694
230
4.695266397902569E-11
  0
LINE
  5
28EE
330
19
100
AcDbEntity
  8
0
100
AcDbLine
 10
-505.1510385347202
 20
-97.76700324538973
 30
0.0
 11
-352.2008749900002
 21
-103.9725875745307
 31
0.0
210
-0.1079643189062266
220
0.004380392036466671
230
0.9941451191897094
  0
LINE
  5
28EF
330
19
100
AcDbEntity
  8
0
100
AcDbLine
 10
-692.7429344754271
 20
-90.15591409880551
 30
0.0
 11
-510.1469282710931
 21
-97.5643070576927
 31
0.0
210
-0.1079643189062266
220
0.004380392036466671
230
0.9941451191897094
  0
LINE
  5
28F0
330
19
100
AcDbEntity
  8
0
100
AcDbLine
 10
-301.8539431557673
 20
-105.6741245696591
 30
0.0
 11
-352.2008749900002
 21
-103.9725875745307
 31
0.0
  0
LINE
  5
28F1
330
19
100
AcDbEntity
  8
0
100
AcDbLine
 10
-296.9175196373048
 20
-107.3424954259108
 30
0.0
 11
-296.0955032243942
 21
-66.80505066135211
 31
0.0
  0
LINE
  5
28F2
330
19
100
AcDbEntity
  8
0
100
AcDbLine
 10
-697.7996330678557
 20
-91.45198483195557
 30
0.0
 11
-697.2922595846958
 21
-66.431043369528
 31
0.0
  0
LINE
  5
28F4
330
19
100
AcDbEntity
  8
Epure
100
AcDbLine
 10
4.813072876097522
 20
-199.165351172348
 30
0.0
 11
-609.8313215871816
 21
-186.6602293627795
 31
0.0
  0
LINE
  5
28FE
330
19
100
AcDbEntity
  8
0
100
AcDbLine
 10
-511.7579690859129
 20
-210.0362165180702
 30
0.0
 11
-516.7489366595898
 21
-209.735812322008
 31
0.0
210
4.343547743701492E-10
220
2.091837814077735E-11
230
-1.0
  0
LINE
  5
28FF
330
19
100
AcDbEntity
  8
0
100
AcDbLine
 10
-511.6678478270879
 20
-208.5389262460428
 30
0.0
 11
-511.7579690859129
 21
-210.0362165180702
 31
0.0
210
-0.04812844522716967
220
0.9988411549190468
230
0.0
  0
LINE
  5
2900
330
19
100
AcDbEntity
  8
0
100
AcDbLine
 10
-516.6588154007651
 20
-208.2385220499806
 30
0.0
 11
-516.7489366595898
 21
-209.735812322008
 31
0.0
210
-0.04812844522716967
220
0.9988411549190468
230
0.0
  0
LINE
  5
2901
330
19
100
AcDbEntity
  8
0
100
AcDbLine
 10
-511.6678478338133
 20
-208.5389262880296
 30
0.0
 11
-327.0020476131706
 21
-219.6538815433375
 31
0.0
210
-0.04812844522716967
220
0.9988411549190468
230
0.0
  0
LINE
  5
2902
330
19
100
AcDbEntity
  8
0
100
AcDbLine
 10
-322.1012012905851
 20
-221.4515758829316
 30
0.0
 11
-327.0921688642615
 21
-221.1511716868693
 31
0.0
210
4.343547743701492E-10
220
2.091837814077735E-11
230
-1.0
  0
LINE
  5
2903
330
19
100
AcDbEntity
  8
0
100
AcDbLine
 10
-322.0110800317596
 20
-219.9542856109043
 30
0.0
 11
-322.1012012905846
 21
-221.4515758829316
 31
0.0
210
-0.04812844522716967
220
0.9988411549190468
230
0.0
  0
LINE
  5
2904
330
19
100
AcDbEntity
  8
0
100
AcDbLine
 10
-327.0020476054368
 20
-219.653881414842
 30
0.0
 11
-327.0921688642615
 21
-221.1511716868693
 31
0.0
210
-0.04812844522716967
220
0.9988411549190468
230
0.0
  0
LINE
  5
2905
330
19
100
AcDbEntity
  8
0
100
AcDbLine
 10
-530.1420643493132
 20
-207.4269711252365
 30
0.0
 11
-530.4268418239463
 21
-214.4210454592171
 31
0.0
210
-0.04068325442049592
220
-0.9991720936904499
230
-5.354650056688388E-11
  0
LINE
  5
2906
330
19
100
AcDbEntity
  8
0
100
AcDbLine
 10
-530.4268418239463
 20
-214.4210454592171
 30
0.0
 11
-610.2992435616629
 21
-209.6592551252523
 31
0.0
210
-0.04068325442117514
220
-0.9991720936904223
230
-5.343281372915929E-11
  0
LINE
  5
2907
330
19
100
AcDbEntity
  8
Epure
100
AcDbLine
 10
-610.1558442414996
 20
-202.6109760560513
 30
0.0
 11
-530.1420643493132
 21
-207.4269711252365
 31
0.0
210
-0.04812844522716967
220
0.9988411549190468
230
0.0
  0
LINE
  5
2908
330
19
100
AcDbEntity
  8
0
100
AcDbLine
 10
-230.6603413387785
 20
-261.3299849972445
 30
0.0
 11
-231.0835401898265
 21
-256.2635132292802
 31
0.0
  0
LINE
  5
2909
330
19
100
AcDbEntity
  8
0
100
AcDbLine
 10
-264.7894998830118
 20
-223.398428089115
 30
0.0
 11
-322.0110800522248
 21
-219.9542857386695
 31
0.0
  0
ARC
  5
290A
330
19
100
AcDbEntity
  8
0
100
AcDbCircle
 10
-266.9524100948095
 20
-259.333394617772
 30
0.0
 40
36.00000000000001
100
AcDbArc
 50
22.89180997283512
 51
86.55554711553486
  0
LINE
  5
290B
330
19
100
AcDbEntity
  8
0
100
AcDbLine
 10
-233.6111674785191
 20
-250.4670796672606
 30
0.0
 11
-232.1615484131781
 21
-250.0815870403526
 31
0.0
  0
LINE
  5
290C
330
19
100
AcDbEntity
  8
0
100
AcDbLine
 10
-235.1695946982715
 20
-245.9131619271816
 30
0.0
 11
-233.7877334375206
 21
-245.3296728904069
 31
0.0
  0
ARC
  5
290D
330
19
100
AcDbEntity
  8
0
100
AcDbCircle
 10
-266.9524100948095
 20
-259.333394617772
 30
0.0
 40
34.5
100
AcDbArc
 50
14.89180892679085
 51
22.89180883447045
  0
ARC
  5
290E
330
19
100
AcDbEntity
  8
0
100
AcDbCircle
 10
-266.9524100948095
 20
-259.333394617772
 30
0.0
 40
35.99999999999999
100
AcDbArc
 50
4.891808896003768
 51
14.89180995576926
  0
LINE
  5
290F
330
19
100
AcDbEntity
  8
0
100
AcDbLine
 10
-609.3633996127003
 20
-163.6612036003068
 30
0.0
 11
-610.2992435616629
 21
-209.6592551252523
 31
0.0
  0
LINE
  5
2910
330
19
100
AcDbEntity
  8
0
100
AcDbLine
 10
-529.3633474059799
 20
-169.1519337939588
 30
0.0
 11
-515.8582472913449
 21
-168.8894687628556
 31
0.0
210
-0.08871523821130516
220
-0.996057029747349
230
0.0
  0
LINE
  5
2911
330
19
100
AcDbEntity
  8
0
100
AcDbLine
 10
-530.1420643493132
 20
-207.4269711252365
 30
0.0
 11
-516.6588154074847
 21
-208.2385220919317
 31
0.0
210
-0.04812844522716967
220
0.9988411549190468
230
0.0
  0
LINE
  5
2919
330
19
100
AcDbEntity
  8
0
100
AcDbLine
 10
-129.8004286805901
 20
225.4668743062025
 30
0.0
 11
-126.8004286805901
 21
225.4668743062025
 31
0.0
  0
LINE
  5
291A
330
19
100
AcDbEntity
  8
0
100
AcDbLine
 10
-126.8004286805901
 20
223.4668743062025
 30
0.0
 11
-129.8004286805901
 21
223.4668743062025
 31
0.0
  0
ARC
  5
291B
330
19
100
AcDbEntity
  8
0
100
AcDbCircle
 10
-129.8004286805901
 20
224.4668743062025
 30
0.0
 40
1.0
100
AcDbArc
 50
90.0
 51
270.0
  0
ARC
  5
291D
330
19
100
AcDbEntity
  8
0
100
AcDbCircle
 10
-126.8004286805901
 20
224.4668743062025
 30
0.0
 40
1.0
100
AcDbArc
 50
270.0
 51
90.0
  0
LINE
  5
291E
330
19
100
AcDbEntity
  8
0
100
AcDbLine
 10
-140.1297724337322
 20
31.24083170625084
 30
0.0
 11
-137.1297724337322
 21
31.24083170625084
 31
0.0
  0
LINE
  5
291F
330
19
100
AcDbEntity
  8
0
100
AcDbLine
 10
-137.1297724337322
 20
29.24083170625084
 30
0.0
 11
-140.1297724337322
 21
29.24083170625084
 31
0.0
  0
ARC
  5
2920
330
19
100
AcDbEntity
  8
0
100
AcDbCircle
 10
-140.1297724337322
 20
30.24083170625084
 30
0.0
 40
1.0
100
AcDbArc
 50
90.0
 51
270.0
  0
ARC
  5
2921
330
19
100
AcDbEntity
  8
0
100
AcDbCircle
 10
-137.1297724337322
 20
30.24083170625084
 30
0.0
 40
1.0
100
AcDbArc
 50
270.0
 51
90.0
  0
CIRCLE
  5
29B3
330
19
100
AcDbEntity
  8
0
100
AcDbCircle
 10
-304.4528556038226
 20
247.6464509073035
 30
0.0
 40
3.550000000000011
  0
ELLIPSE
  5
29C9
330
19
100
AcDbEntity
  8
0
100
AcDbEllipse
 10
-363.8100164489009
 20
24.99087275719393
 30
0.0
 11
-4.5
 21
0.0
 31
0.0
210
0.0
220
0.0
230
1.0
 40
0.6666666666666666
 41
0.0
 42
6.283185307179586
  0
ELLIPSE
  5
29CA
330
19
100
AcDbEntity
  8
0
100
AcDbEllipse
 10
-363.8100164489009
 20
6.490872757193841
 30
0.0
 11
-4.5
 21
0.0
 31
0.0
210
0.0
220
0.0
230
1.0
 40
0.6666666666666666
 41
0.0
 42
6.283185307179586
  0
ELLIPSE
  5
29CF
330
19
100
AcDbEntity
  8
0
100
AcDbEllipse
 10
-409.8727018459389
 20
-190.728446561638
 30
0.0
 11
-4.499068944177963
 21
0.09153488697432975
 31
0.0
210
0.0
220
0.0
230
1.0
 40
0.6666666666666707
 41
0.0
 42
6.283185307179586
  0
ARC
  5
29DF
330
19
100
AcDbEntity
  8
0
100
AcDbCircle
 10
4.813072876422439
 20
-175.6653509702632
 30
0.0
 40
1.0
100
AcDbArc
 50
84.9102999999994
 51
360.0
  0
ARC
  5
29E1
330
19
100
AcDbEntity
  8
0
100
AcDbCircle
 10
4.813072876422893
 20
-222.6653513812953
 30
0.0
 40
1.0
100
AcDbArc
 50
0.0000000627960574
 51
272.7553728441635
  0
TEXT
  5
29EE
330
19
100
AcDbEntity
  8
0
100
AcDbText
 10
-399.3841825654418
 20
582.0977917970034
 30
0.0
 40
8.0
  1
Rep A
100
AcDbText
  0
TEXT
  5
29EF
330
19
100
AcDbEntity
  8
0
100
AcDbText
 10
-339.109666872526
 20
359.3441468449231
 30
0.0
 40
8.0
  1
Rep B
100
AcDbText
  0
TEXT
  5
29F0
330
19
100
AcDbEntity
  8
0
100
AcDbText
 10
-453.1071204656494
 20
157.5555508295092
 30
0.0
 40
8.0
  1
Rep C
100
AcDbText
  0
TEXT
  5
29F1
330
19
100
AcDbEntity
  8
0
100
AcDbText
 10
-428.2111248533581
 20
47.48904391201063
 30
0.0
 40
8.0
  1
Rep D
100
AcDbText
  0
TEXT
  5
29F2
330
19
100
AcDbEntity
  8
0
100
AcDbText
 10
-647.4990943325705
 20
116.8874280139977
 30
0.0
 40
8.0
  1
Rep G
100
AcDbText
  0
TEXT
  5
29F3
330
19
100
AcDbEntity
  8
0
100
AcDbText
 10
-679.7917120933547
 20
-56.0258852127796
 30
0.0
 40
8.0
  1
Rep E
100
AcDbText
  0
TEXT
  5
29F4
330
19
100
AcDbEntity
  8
0
100
AcDbText
 10
-495.0372183389822
 20
-147.747974310695
 30
0.0
 40
8.0
  1
Rep F
100
AcDbText
  0
TEXT
  5
29F6
330
19
100
AcDbEntity
  8
0
100
AcDbText
 10
-627.6761305159598
 20
496.0244551323266
 30
0.0
 40
8.0
  1
Rep I
100
AcDbText
  0
CIRCLE
  5
29FB
330
19
100
AcDbEntity
  8
0
100
AcDbCircle
 10
-661.7808845394754
 20
43.75133656857044
 30
0.0
 40
2.55
  0
ARC
  5
29FC
330
19
100
AcDbEntity
  8
0
100
AcDbCircle
 10
-643.5354773836018
 20
47.13018631109091
 30
0.0
 40
8.0
100
AcDbArc
 50
151.4084643713631
 51
269.9999999156165
  0
TEXT
  5
2A04
330
19
100
AcDbEntity
  8
0
100
AcDbText
 10
-566.7945452785196
 20
-59.27264995485323
 30
0.0
 40
8.0
  1
2 pices identiques
100
AcDbText
  0
CIRCLE
  5
2A05
330
19
100
AcDbEntity
  8
0
100
AcDbCircle
 10
-687.008700980457
 20
-87.13983741483557
 30
0.0
 40
1.0
  0
CIRCLE
  5
2A06
330
19
100
AcDbEntity
  8
0
100
AcDbCircle
 10
-470.5900836538899
 20
106.5969032130591
 30
0.0
 40
1.0
  0
LINE
  5
2A0B
330
19
100
AcDbEntity
  8
0
100
AcDbLine
 10
-623.058907756245
 20
91.32886504680262
 30
0.0
 11
-623.0589077562452
 21
99.3288650468027
 31
0.0
  0
LINE
  5
2A0C
330
19
100
AcDbEntity
  8
0
100
AcDbLine
 10
-637.1589077562445
 20
91.32886953499381
 30
0.0
 11
-637.1589077562445
 21
99.32886953499381
 31
0.0
  0
ARC
  5
2A24
330
19
100
AcDbEntity
  8
0
100
AcDbCircle
 10
-641.0359813871987
 20
89.32886788523244
 30
0.0
 40
10.0
100
AcDbArc
 50
90.00002438032746
 51
151.4084643713631
  0
CIRCLE
  5
2A34
330
19
100
AcDbEntity
  8
Epure
100
AcDbCircle
 10
48.08739437408888
 20
505.4606647203541
 30
0.0
 40
17.0
  0
CIRCLE
  5
2A35
330
19
100
AcDbEntity
  8
Epure
100
AcDbCircle
 10
48.08739437408888
 20
505.4606647203541
 30
0.0
 40
18.5
  0
LINE
  5
2A43
330
19
100
AcDbEntity
  8
Epure
100
AcDbLine
 10
65.40790244977765
 20
511.9606647203541
 30
0.0
 11
83.13739437408888
 21
511.9606647203541
 31
0.0
  0
LINE
  5
2A44
330
19
100
AcDbEntity
  8
Epure
100
AcDbLine
 10
83.13739437408888
 20
511.9606647203541
 30
0.0
 11
83.13739437408888
 21
510.4606647203541
 31
0.0
  0
LINE
  5
2A45
330
19
100
AcDbEntity
  8
Epure
100
AcDbLine
 10
83.13739437408888
 20
510.4606647203541
 30
0.0
 11
64.3354711833608
 21
510.4606647203541
 31
0.0
  0
LINE
  5
2A46
330
19
100
AcDbEntity
  8
Epure
100
AcDbLine
 10
64.3354711833608
 20
500.4606647203541
 30
0.0
 11
83.13739437408888
 21
500.4606647203541
 31
0.0
  0
LINE
  5
2A47
330
19
100
AcDbEntity
  8
Epure
100
AcDbLine
 10
83.13739437408888
 20
500.4606647203541
 30
0.0
 11
83.13739437408888
 21
497.5374768999463
 31
0.0
  0
LINE
  5
2A48
330
19
100
AcDbEntity
  8
Epure
100
AcDbLine
 10
83.13739437408888
 20
498.9606647203541
 30
0.0
 11
65.40790244977765
 21
498.9606647203541
 31
0.0
  0
LINE
  5
2A49
330
19
100
AcDbEntity
  8
Epure
100
AcDbLine
 10
69.03739437408889
 20
500.4606647203541
 30
0.0
 11
69.03739437408889
 21
498.9606647203541
 31
0.0
  0
LINE
  5
2A4A
330
19
100
AcDbEntity
  8
Epure
100
AcDbLine
 10
80.13739437408888
 20
500.4606647203541
 30
0.0
 11
80.13739437408888
 21
498.9606647203541
 31
0.0
  0
LINE
  5
2A4D
330
19
100
AcDbEntity
  8
Epure
100
AcDbLine
 10
70.4873943740889
 20
511.9606647203541
 30
0.0
 11
70.4873943740889
 21
510.4606647203541
 31
0.0
  0
LINE
  5
2A4E
330
19
100
AcDbEntity
  8
Epure
100
AcDbLine
 10
78.68739437408888
 20
511.9606647203541
 30
0.0
 11
78.68739437408888
 21
510.4606647203541
 31
0.0
  0
LINE
  5
2A52
330
19
100
AcDbEntity
  8
Epure
100
AcDbLine
 10
52.63198976927315
 20
485.4457539612707
 30
0.0
 11
76.52657979542433
 21
489.6590148758486
 31
0.0
  0
ARC
  5
2A55
330
19
100
AcDbEntity
  8
Epure
100
AcDbCircle
 10
75.13739437408888
 20
497.5374768999462
 30
0.0
 40
8.0
100
AcDbArc
 50
280.0
 51
360.0000000000004
  0
LINE
  5
2A57
330
19
100
AcDbEntity
  8
Epure
100
AcDbLine
 10
51.29988566092708
 20
487.2417212896282
 30
0.0
 11
51.47353383859401
 21
486.256913536616
 31
0.0
  0
ARC
  5
2A58
330
19
100
AcDbEntity
  8
Epure
100
AcDbCircle
 10
52.45834159160622
 20
486.4305617142829
 30
0.0
 40
1.0
100
AcDbArc
 50
189.9999999999985
 51
279.9999999999998
  0
TEXT
  5
2AB6
330
19
100
AcDbEntity
  8
0
100
AcDbText
 10
-683.5133915506887
 20
410.2859270021476
 30
0.0
 40
8.0
  1
2 pices identiques
100
AcDbText
  0
CIRCLE
  5
2ABD
330
19
100
AcDbEntity
  8
0
100
AcDbCircle
 10
-652.6144398969757
 20
556.7428036516117
 30
0.0
 40
3.100000000000023
  0
LINE
  5
2ABE
330
19
100
AcDbEntity
  8
0
100
AcDbLine
 10
-610.6144398969757
 20
560.2428036516117
 30
0.0
 11
-645.7593331100747
 21
560.2428036516117
 31
0.0
  0
TEXT
  5
2ABF
330
19
100
AcDbEntity
  8
0
100
AcDbText
 10
-621.2211291595011
 20
576.7339868195493
 30
0.0
 40
8.0
  1
Rep J
100
AcDbText
  0
ARC
  5
2AC5
330
19
100
AcDbEntity
  8
0
100
AcDbCircle
 10
-652.6144398969757
 20
556.7428036516117
 30
0.0
 40
6.500000000000043
100
AcDbArc
 50
43.17355110725958
 51
180.0000000000007
  0
ARC
  5
2AC6
330
19
100
AcDbEntity
  8
0
100
AcDbCircle
 10
-645.6862366667002
 20
563.2428036516117
 30
0.0
 40
2.999999999999929
100
AcDbArc
 50
223.173551107258
 51
269.9999999999985
  0
ARC
  5
2AC9
330
19
100
AcDbEntity
  8
0
100
AcDbCircle
 10
-652.6144398969757
 20
556.7428036516117
 30
0.0
 40
6.5
100
AcDbArc
 50
180.0
 51
316.8264488927412
  0
ARC
  5
2ACA
330
19
100
AcDbEntity
  8
0
100
AcDbCircle
 10
-645.6862366667002
 20
550.2428036516117
 30
0.0
 40
3.0
100
AcDbArc
 50
90.0
 51
136.8264488927404
  0
LINE
  5
2ACB
330
19
100
AcDbEntity
  8
0
100
AcDbLine
 10
-610.6144398969757
 20
553.2428036516117
 30
0.0
 11
-645.7593331100747
 21
553.2428036516117
 31
0.0
  0
CIRCLE
  5
2ACC
330
19
100
AcDbEntity
  8
0
100
AcDbCircle
 10
-563.6144398969757
 20
556.7428036516117
 30
0.0
 40
4.549999999999955
  0
LINE
  5
2ACD
330
19
100
AcDbEntity
  8
0
100
AcDbLine
 10
-610.6144398969757
 20
560.2428036516117
 30
0.0
 11
-571.860651148211
 21
560.2428036516117
 31
0.0
  0
ARC
  5
2ACE
330
19
100
AcDbEntity
  8
0
100
AcDbCircle
 10
-563.6144398969757
 20
556.7428036516117
 30
0.0
 40
7.5
100
AcDbArc
 50
0.0
 51
141.7533801216547
  0
ARC
  5
2AD3
330
19
100
AcDbEntity
  8
0
100
AcDbCircle
 10
-571.860651148211
 20
563.2428036516117
 30
0.0
 40
3.0
100
AcDbArc
 50
270.0
 51
321.7533801216557
  0
LINE
  5
2AD4
330
19
100
AcDbEntity
  8
0
100
AcDbLine
 10
-610.6144398969757
 20
553.2428036516117
 30
0.0
 11
-571.860651148211
 21
553.2428036516117
 31
0.0
  0
ARC
  5
2AD5
330
19
100
AcDbEntity
  8
0
100
AcDbCircle
 10
-571.860651148211
 20
550.2428036516117
 30
0.0
 40
3.000000000000043
100
AcDbArc
 50
38.24661987834513
 51
90.00000000000085
  0
ARC
  5
2AD6
330
19
100
AcDbEntity
  8
0
100
AcDbCircle
 10
-563.6144398969757
 20
556.7428036516117
 30
0.0
 40
7.499999999999948
100
AcDbArc
 50
218.246619878345
 51
359.9999999999997
  0
LINE
  5
2ADF
330
19
100
AcDbEntity
  8
0
100
AcDbLine
 10
-87.96152996556043
 20
212.9666897642911
 30
0.0
 11
-87.96153119708822
 21
214.4666897642906
 31
0.0
210
0.0
220
-1.0
230
0.0
  0
LINE
  5
2AE0
330
19
100
AcDbEntity
  8
0
100
AcDbLine
 10
-82.96152996556219
 20
212.9666938693842
 30
0.0
 11
-82.96153119708993
 21
214.4666938693838
 31
0.0
210
0.0
220
-1.0
230
0.0
  0
LINE
  5
2AE1
330
19
100
AcDbEntity
  8
0
100
AcDbLine
 10
-87.96152996556054
 20
212.966689764291
 30
0.0
 11
-82.9615299655623
 21
212.9666938693841
 31
0.0
210
0.0
220
-1.0
230
0.0
  0
LINE
  5
2AE2
330
19
100
AcDbEntity
  8
0
100
AcDbLine
 10
-87.96153119726591
 20
214.4669061936602
 30
0.0
 11
-214.7669290807484
 21
214.4668020840685
 31
0.0
  0
LINE
  5
2AE3
330
19
100
AcDbEntity
  8
0
100
AcDbLine
 10
-616.0589078135386
 20
82.32887383361208
 30
0.0
 11
-616.0589077562452
 21
49.13018621768525
 31
0.0
  0
LINE
  5
2AE6
330
19
100
AcDbEntity
  8
0
100
AcDbLine
 10
-599.5589076885348
 20
92.32887367195389
 30
0.0
 11
-606.0589076448904
 21
92.32887379433896
 31
0.0
  0
TEXT
  5
2AEB
330
19
100
AcDbEntity
  8
Plis
100
AcDbText
 10
-619.2592214472754
 20
106.4019592171053
 30
0.0
 40
4.0
  1
Plis 90 en U
100
AcDbText
  0
ARC
  5
2AED
330
19
100
AcDbEntity
  8
0
100
AcDbCircle
 10
-606.0589078135386
 20
82.32887381397552
 30
0.0
 40
10.0
100
AcDbArc
 50
89.99999903371716
 51
179.9999998874908
  0
LINE
  5
2AF2
330
19
100
AcDbEntity
  8
0
100
AcDbLine
 10
-599.558907756245
 20
39.13018605602706
 30
0.0
 11
-606.0589079052568
 21
39.13018617841213
 31
0.0
  0
ARC
  5
2AF3
330
19
100
AcDbEntity
  8
0
100
AcDbCircle
 10
-606.0589077366086
 20
49.13018619804869
 30
0.0
 40
10.0
100
AcDbArc
 50
179.9999998874908
 51
269.9999990337171
  0
LINE
  5
2AF5
330
19
100
AcDbEntity
  8
0
100
AcDbLine
 10
-599.5589088219841
 20
32.13018366333231
 30
0.0
 11
-515.5182382193636
 21
32.1301827999452
 31
0.0
  0
LINE
  5
2AF6
330
19
100
AcDbEntity
  8
0
100
AcDbLine
 10
-515.5182382193636
 20
32.1301827999452
 30
0.0
 11
-549.3012970871765
 21
94.11448746551794
 31
0.0
210
0.0
220
0.0
230
-1.0
  0
LINE
  5
2AF7
330
19
100
AcDbEntity
  8
0
100
AcDbLine
 10
-561.9589073572264
 20
99.32886811909262
 30
0.0
 11
-558.0818294711024
 21
99.32886632333143
 31
0.0
210
-3.809168447332922E-8
220
-0.9999999999999993
230
-2.414735078559716E-15
  0
LINE
  5
2AF8
330
19
100
AcDbEntity
  8
0
100
AcDbLine
 10
-576.058907357226
 20
99.32886416186446
 30
0.0
 11
-599.5589075567353
 21
99.32887606464865
 31
0.0
210
-3.809168447332922E-8
220
-0.9999999999999993
230
-2.414735078559716E-15
  0
ARC
  5
2AF9
330
19
100
AcDbEntity
  8
0
100
AcDbCircle
 10
-569.0089076584818
 20
91.32886621431726
 30
0.0
 40
7.050000000000061
100
AcDbArc
 50
180.0000166804097
 51
0.0000154802254206
  0
LINE
  5
2AFA
330
19
100
AcDbEntity
  8
Plis
100
AcDbLine
 10
-576.0589098124091
 20
34.13018539694424
 30
0.0
 11
-576.0589078276869
 21
86.83552579045849
 31
0.0
210
0.9999999999999993
220
-3.765694654918900E-8
230
0.0
  0
LINE
  5
2AFB
330
19
100
AcDbEntity
  8
0
100
AcDbLine
 10
-559.6686399933099
 20
71.34436868239318
 30
0.0
 11
-548.55791008298
 21
50.95868156881592
 31
0.0
  0
LINE
  5
2AFC
330
19
100
AcDbEntity
  8
0
100
AcDbLine
 10
-555.5823399849855
 20
39.13018465506762
 30
0.0
 11
-564.0589096241243
 21
39.13018496178525
 31
0.0
  0
LINE
  5
2AFD
330
19
100
AcDbEntity
  8
0
100
AcDbLine
 10
-569.0589094358396
 20
44.1301851427061
 30
0.0
 11
-569.0589085011425
 21
68.95155829958523
 31
0.0
  0
ARC
  5
2AFE
330
19
100
AcDbEntity
  8
0
100
AcDbCircle
 10
-564.0589085011426
 20
68.9515581113005
 30
0.0
 40
5.0
100
AcDbArc
 50
28.59153347105194
 51
179.9999978424154
  0
ARC
  5
2AFF
330
19
100
AcDbEntity
  8
0
100
AcDbCircle
 10
-564.0589094395216
 20
44.13018495810331
 30
0.0
 40
5.0
100
AcDbArc
 50
179.9999978846079
 51
269.9999978846083
  0
CIRCLE
  5
2B00
330
19
100
AcDbEntity
  8
0
100
AcDbCircle
 10
-537.3369326668757
 20
43.75133422548082
 30
0.0
 40
2.55
  0
ARC
  5
2B01
330
19
100
AcDbEntity
  8
0
100
AcDbCircle
 10
-555.5823396955121
 20
47.13018465506761
 30
0.0
 40
8.0
100
AcDbArc
 50
269.9999979267995
 51
28.5915334710528
  0
LINE
  5
2B02
330
19
100
AcDbEntity
  8
0
100
AcDbLine
 10
-576.0589076584816
 20
91.32886416186437
 30
0.0
 11
-576.058907357226
 21
99.32886416186446
 31
0.0
  0
LINE
  5
2B03
330
19
100
AcDbEntity
  8
0
100
AcDbLine
 10
-561.958907658482
 20
91.32886811909262
 30
0.0
 11
-561.9589073572264
 21
99.32886811909262
 31
0.0
  0
ARC
  5
2B04
330
19
100
AcDbEntity
  8
0
100
AcDbCircle
 10
-558.0818341028418
 20
89.32886632333249
 30
0.0
 40
10.0
100
AcDbArc
 50
28.59153347105292
 51
89.99997346208855
  0
LINE
  5
2B05
330
19
100
AcDbEntity
  8
0
100
AcDbLine
 10
-583.0589079401003
 20
82.32887321227247
 30
0.0
 11
-583.0589092475549
 21
49.13018559634566
 31
0.0
  0
LINE
  5
2B06
330
19
100
AcDbEntity
  8
0
100
AcDbLine
 10
-599.5589076885346
 20
92.32887367195389
 30
0.0
 11
-593.058907732179
 21
92.32887354956881
 31
0.0
  0
ARC
  5
2B07
330
19
100
AcDbEntity
  8
0
100
AcDbCircle
 10
-593.0589079401003
 20
82.32887356920537
 30
0.0
 40
10.0
100
AcDbArc
 50
359.9999979549251
 51
89.99999880869876
  0
LINE
  5
2B08
330
19
100
AcDbEntity
  8
0
100
AcDbLine
 10
-599.5589096241245
 20
39.13018605602709
 30
0.0
 11
-593.0589094751127
 21
39.13018593364201
 31
0.0
  0
ARC
  5
2B09
330
19
100
AcDbEntity
  8
0
100
AcDbCircle
 10
-593.0589092671914
 20
49.13018595327857
 30
0.0
 40
10.0
100
AcDbArc
 50
269.9999988086988
 51
359.9999979549251
  0
CIRCLE
  5
2B14
330
19
100
AcDbEntity
  8
Epure
100
AcDbCircle
 10
139.0480213190484
 20
58.05455634076782
 30
0.0
 40
11.0
  0
LINE
  5
2B2F
330
19
100
AcDbEntity
  8
Epure
100
AcDbLine
 10
231.5697873829194
 20
55.65578142763874
 30
0.0
 11
232.6304475546993
 21
54.59512125585893
 31
0.0
  0
LINE
  5
2B32
330
19
100
AcDbEntity
  8
Epure
100
AcDbLine
 10
252.898066578024
 20
53.46375040596067
 30
0.0
 11
252.8980665780242
 21
35.92750223253418
 31
0.0
  0
LINE
  5
2B33
330
19
100
AcDbEntity
  8
Epure
100
AcDbLine
 10
254.3980665780242
 20
35.9275022325342
 30
0.0
 11
254.398066578024
 21
53.46375040596068
 31
0.0
  0
ARC
  5
2B34
330
19
100
AcDbEntity
  8
Epure
100
AcDbCircle
 10
242.529942491311
 20
44.69562631924731
 30
0.0
 40
15.5
100
AcDbArc
 50
45.00000000000097
 51
135.0000000000003
  0
ARC
  5
2B35
330
19
100
AcDbEntity
  8
Epure
100
AcDbCircle
 10
242.529942491311
 20
44.69562631924731
 30
0.0
 40
14.0
100
AcDbArc
 50
44.99999983100106
 51
135.0000000000003
  0
ARC
  5
2B36
330
19
100
AcDbEntity
  8
Epure
100
AcDbCircle
 10
251.298066578024
 20
53.46375040596065
 30
0.0
 40
3.100000000000001
100
AcDbArc
 50
0.0000000000006566
 51
45.00000000000094
  0
ARC
  5
2B37
330
19
100
AcDbEntity
  8
Epure
100
AcDbCircle
 10
251.298066578024
 20
53.46375040596065
 30
0.0
 40
1.6
100
AcDbArc
 50
0.0000000000007633
 51
45.00000000000104
  0
ARC
  5
2B38
330
19
100
AcDbEntity
  8
Epure
100
AcDbCircle
 10
251.2980665780242
 20
35.92750223253416
 30
0.0
 40
1.599999999999994
100
AcDbArc
 50
315.0000000000003
 51
360.0000000000006
  0
ARC
  5
2B39
330
19
100
AcDbEntity
  8
Epure
100
AcDbCircle
 10
251.2980665780242
 20
35.92750223253416
 30
0.0
 40
3.099999999999994
100
AcDbArc
 50
315.0000000000003
 51
360.0000000000006
  0
LINE
  5
2B45
330
19
100
AcDbEntity
  8
Epure
100
AcDbLine
 10
233.7618184045977
 20
34.32750223253416
 30
0.0
 11
251.2980665780242
 21
34.32750223253416
 31
0.0
  0
LINE
  5
2B46
330
19
100
AcDbEntity
  8
Epure
100
AcDbLine
 10
251.2980665780242
 20
32.82750223253416
 30
0.0
 11
233.7618184045977
 21
32.82750223253416
 31
0.0
  0
ARC
  5
2B47
330
19
100
AcDbEntity
  8
Epure
100
AcDbCircle
 10
242.529942491311
 20
44.6956263192473
 30
0.0
 40
15.5
100
AcDbArc
 50
135.0000000000004
 51
224.9999999999998
  0
ARC
  5
2B48
330
19
100
AcDbEntity
  8
Epure
100
AcDbCircle
 10
242.529942491311
 20
44.6956263192473
 30
0.0
 40
14.0
100
AcDbArc
 50
135.0000000000004
 51
225.0000001689997
  0
ARC
  5
2B49
330
19
100
AcDbEntity
  8
Epure
100
AcDbCircle
 10
233.7618184045977
 20
35.92750223253415
 30
0.0
 40
3.100000000000001
100
AcDbArc
 50
225.0
 51
270.0000000000002
  0
ARC
  5
2B4A
330
19
100
AcDbEntity
  8
Epure
100
AcDbCircle
 10
233.7618184045977
 20
35.92750223253415
 30
0.0
 40
1.6
100
AcDbArc
 50
224.9999999999989
 51
269.9999999999992
  0
ARC
  5
2B4B
330
19
100
AcDbEntity
  8
Epure
100
AcDbCircle
 10
251.2980665780242
 20
35.92750223253415
 30
0.0
 40
1.599999999999994
100
AcDbArc
 50
270.0
 51
315.0000000000002
  0
ARC
  5
2B4C
330
19
100
AcDbEntity
  8
Epure
100
AcDbCircle
 10
251.2980665780242
 20
35.92750223253415
 30
0.0
 40
3.099999999999994
100
AcDbArc
 50
270.0
 51
315.0000000000002
  0
ARC
  5
2B80
330
19
100
AcDbEntity
  8
Epure
100
AcDbCircle
 10
242.529942491311
 20
119.9936737562542
 30
0.0
 40
11.0
100
AcDbArc
 50
219.4005687537377
 51
140.5994312462623
  0
ARC
  5
2B81
330
19
100
AcDbEntity
  8
Epure
100
AcDbCircle
 10
242.529942491311
 20
119.9936737562542
 30
0.0
 40
12.5
100
AcDbArc
 50
216.869897645844
 51
143.130102354156
  0
CIRCLE
  5
2B9A
330
19
100
AcDbEntity
  8
Epure
100
AcDbCircle
 10
242.529942491311
 20
44.69562631924731
 30
0.0
 40
16.85
  0
ARC
  5
2B9E
330
19
100
AcDbEntity
  8
Epure
100
AcDbCircle
 10
183.4306274843111
 20
-64.98118718256524
 30
0.0
 40
18.99999999999994
100
AcDbArc
 50
178.4843543650542
 51
178.7004630368775
  0
LINE
  5
2BA5
330
19
100
AcDbEntity
  8
Epure
100
AcDbLine
 10
232.529942491311
 20
127.4936737562542
 30
0.0
 11
232.529942491311
 21
112.4936737562542
 31
0.0
  0
LINE
  5
2BA6
330
19
100
AcDbEntity
  8
Epure
100
AcDbLine
 10
234.029942491311
 20
113.0115537343698
 30
0.0
 11
234.029942491311
 21
126.9757937781387
 31
0.0
  0
LINE
  5
2BB7
330
19
100
AcDbEntity
  8
Epure
100
AcDbLine
 10
99.87068053120534
 20
70.29163072699946
 30
0.0
 11
173.445476590544
 21
-48.81651082859205
 31
0.0
  0
LINE
  5
2BFF
330
19
100
AcDbEntity
  8
Epure
100
AcDbLine
 10
49.15982564050574
 20
523.9606647203541
 30
0.0
 11
77.08739437408889
 21
523.9606647203541
 31
0.0
  0
LINE
  5
2C00
330
19
100
AcDbEntity
  8
Epure
100
AcDbLine
 10
77.08739437408889
 20
522.4606647203541
 30
0.0
 11
48.08739437408888
 21
522.4606647203541
 31
0.0
  0
XLINE
  5
2C02
330
19
100
AcDbEntity
  8
Epure
100
AcDbXline
 10
69.08739437408889
 20
505.4606647203541
 30
0.0
 11
0.0
 21
1.0
 31
0.0
  0
LINE
  5
2C08
330
19
100
AcDbEntity
  8
Epure
100
AcDbLine
 10
48.08739437408888
 20
523.9606647203541
 30
0.0
 11
77.08739437408889
 21
523.9606647203541
 31
0.0
  0
LINE
  5
2C09
330
19
100
AcDbEntity
  8
Epure
100
AcDbLine
 10
77.08739437408889
 20
522.4606647203541
 30
0.0
 11
73.08739437408889
 21
507.4606647203541
 31
0.0
  0
LINE
  5
2C0A
330
19
100
AcDbEntity
  8
Epure
100
AcDbLine
 10
73.08739437408889
 20
507.4606647203541
 30
0.0
 11
64.96933739022302
 21
507.4606647203541
 31
0.0
  0
LINE
  5
2C0B
330
19
100
AcDbEntity
  8
Epure
100
AcDbLine
 10
65.08739437408889
 20
523.9606647203541
 30
0.0
 11
65.08739437408889
 21
522.4606647203541
 31
0.0
  0
LINE
  5
2C0C
330
19
100
AcDbEntity
  8
Epure
100
AcDbLine
 10
73.08739437408889
 20
523.9606647203541
 30
0.0
 11
73.08739437408889
 21
522.4606647203541
 31
0.0
  0
LINE
  5
2C0D
330
19
100
AcDbEntity
  8
Epure
100
AcDbLine
 10
77.08739437408889
 20
523.9606647203541
 30
0.0
 11
77.08739437408889
 21
522.4606647203541
 31
0.0
  0
TEXT
  5
2C42
330
19
100
AcDbEntity
  8
Plis
100
AcDbText
 10
-651.2447299985677
 20
460.0855310676911
 30
0.0
 40
4.0
  1
Plis 90 en U
100
AcDbText
  0
ARC
  5
2C43
330
19
100
AcDbEntity
  8
Epure
100
AcDbCircle
 10
48.08739437408888
 20
505.4606647203541
 30
0.0
 40
17.0
100
AcDbArc
 50
6.756327030587826
 51
90.0
  0
LINE
  5
2C4F
330
19
100
AcDbEntity
  8
0
100
AcDbLine
 10
-612.1822170436092
 20
451.7312775269029
 30
0.0
 11
-647.7233105738139
 21
451.7312775269029
 31
0.0
  0
CIRCLE
  5
2C57
330
19
100
AcDbEntity
  8
0
100
AcDbCircle
 10
-661.8792237509363
 20
461.7312775269029
 30
0.0
 40
3.5
  0
LINE
  5
2C60
330
19
100
AcDbEntity
  8
0
100
AcDbLine
 10
-612.1822170436092
 20
471.7312775269029
 30
0.0
 11
-647.7233105738139
 21
471.7312775269029
 31
0.0
  0
ARC
  5
2C61
330
19
100
AcDbEntity
  8
0
100
AcDbCircle
 10
-640.0622170436092
 20
489.7312775269029
 30
0.0
 40
17.00000000000004
100
AcDbArc
 50
210.5295362830941
 51
235.3682620385868
  0
LINE
  5
2C64
330
19
100
AcDbEntity
  8
Plis
100
AcDbLine
 10
-650.4442114060762
 20
472.7312775269029
 30
0.0
 11
-668.0622170436092
 21
472.7312775269029
 31
0.0
  0
LINE
  5
2C68
330
19
100
AcDbEntity
  8
0
100
AcDbLine
 10
-669.0622170436092
 20
472.7312775269029
 30
0.0
 11
-669.0622170436092
 21
450.7312775269029
 31
0.0
  0
LINE
  5
2C6D
330
19
100
AcDbEntity
  8
Epure
100
AcDbLine
 10
-640.0622170436092
 20
451.7312775269029
 30
0.0
 11
-640.0622170436092
 21
471.7312775269029
 31
0.0
  0
LINE
  5
2C6E
330
19
100
AcDbEntity
  8
Epure
100
AcDbLine
 10
-612.1822170436092
 20
451.7312775269029
 30
0.0
 11
-612.1822170436092
 21
471.7312775269029
 31
0.0
  0
LINE
  5
2C6F
330
19
100
AcDbEntity
  8
Epure
100
AcDbLine
 10
-584.3022170436092
 20
451.7312775269029
 30
0.0
 11
-584.3022170436092
 21
471.7312775269029
 31
0.0
  0
LINE
  5
2C83
330
19
100
AcDbEntity
  8
Epure
100
AcDbLine
 10
162.529942491311
 20
44.69562631924731
 30
0.0
 11
322.529942491311
 21
44.69562631924731
 31
0.0
  0
LINE
  5
2C84
330
19
100
AcDbEntity
  8
Epure
100
AcDbLine
 10
162.529942491311
 20
104.6956263192473
 30
0.0
 11
322.529942491311
 21
104.6956263192473
 31
0.0
  0
LINE
  5
2D28
330
19
100
AcDbEntity
  8
0
100
AcDbLine
 10
-11.78266417664477
 20
454.6777117154109
 30
0.0
 11
14.61581847253455
 21
460.3552494334321
 31
0.0
210
0.9784063784299923
220
0.2066583531031903
230
0.003644686568691196
  0
LINE
  5
2D29
330
19
100
AcDbEntity
  8
0
100
AcDbLine
 10
14.30582884839002
 20
461.8228687413327
 30
0.0
 11
14.61581847253454
 21
460.3552494334321
 31
0.0
210
-0.9784063784299434
220
-0.2066583531034195
230
-0.003644686568804741
  0
LINE
  5
2D2A
330
19
100
AcDbEntity
  8
0
100
AcDbLine
 10
-12.09265380078928
 20
456.1453310233115
 30
0.0
 11
-11.78266417664476
 21
454.6777117154109
 31
0.0
210
-0.9784063784299435
220
-0.2066583531034191
230
-0.003644686568804736
  0
LINE
  5
2D2B
330
19
100
AcDbEntity
  8
0
100
AcDbLine
 10
14.30582884839004
 20
461.8228687413327
 30
0.0
 11
24.08227811016353
 21
463.9254956297673
 31
0.0
210
0.9784063784299923
220
0.2066583531031903
230
0.003644686568691196
  0
LINE
  5
2D2C
330
19
100
AcDbEntity
  8
0
100
AcDbLine
 10
-21.86856652531673
 20
556.8738898474173
 30
0.0
 11
-12.09211726354323
 21
554.7712629589827
 31
0.0
210
0.9784063784299916
220
-0.2066583531031938
230
0.003644686568691193
  0
LINE
  5
2D2D
330
19
100
AcDbEntity
  8
0
100
AcDbLine
 10
-11.78212763939871
 20
556.2388822668834
 30
0.0
 11
14.6163550097806
 21
550.561344548862
 31
0.0
210
0.9784063784299916
220
-0.2066583531031938
230
0.003644686568691193
  0
LINE
  5
2D2E
330
19
100
AcDbEntity
  8
0
100
AcDbLine
 10
-12.09211726354323
 20
554.7712629589827
 30
0.0
 11
-11.78212763939871
 21
556.2388822668834
 31
0.0
210
-0.9784063784299895
220
0.206658353103201
230
-0.003644686568804908
  0
LINE
  5
2D2F
330
19
100
AcDbEntity
  8
0
100
AcDbLine
 10
14.30636538563607
 20
549.0937252409615
 30
0.0
 11
14.61635500978059
 21
550.561344548862
 31
0.0
210
-0.9784063784299895
220
0.206658353103201
230
-0.003644686568804913
  0
LINE
  5
2D30
330
19
100
AcDbEntity
  8
0
100
AcDbLine
 10
14.30636538563609
 20
549.0937252409615
 30
0.0
 11
24.08281464740958
 21
546.9910983525268
 31
0.0
210
0.9784063784299916
220
-0.2066583531031938
230
0.003644686568691193
  0
TEXT
  5
2D3D
330
19
100
AcDbEntity
  8
0
100
AcDbText
 10
-727.8134685846775
 20
229.5499318413016
 30
0.0
 40
8.0
  1
Rep H
 50
359.9999999999968
100
AcDbText
  0
ARC
  5
2D49
330
19
100
AcDbEntity
  8
0
100
AcDbCircle
 10
-607.8338872240721
 20
151.8851481785641
 30
0.0
 40
18.99999999999996
100
AcDbArc
 50
88.63278358316298
 51
149.3609632089834
  0
LINE
  5
2D4B
330
19
100
AcDbEntity
  8
0
100
AcDbLine
 10
-607.380544117199
 20
170.8797389882511
 30
0.0
 11
-581.8573709267147
 21
186.6457667152518
 31
0.0
  0
LINE
  5
2D4C
330
19
100
AcDbEntity
  8
0
100
AcDbLine
 10
-632.3298638285949
 20
280.3957317600979
 30
0.0
 11
-644.24017298107
 21
273.0385641017635
 31
0.0
  0
LINE
  5
2D4D
330
19
100
AcDbEntity
  8
0
100
AcDbLine
 10
-598.6956713443253
 20
225.9462956203992
 30
0.0
 11
-607.2033957411533
 21
220.6909530447319
 31
0.0
  0
ARC
  5
2D4E
330
19
100
AcDbEntity
  8
0
100
AcDbCircle
 10
-631.2787953134615
 20
278.6941868807322
 30
0.0
 40
1.999999999999999
100
AcDbArc
 50
31.70421617604184
 51
121.704216176042
  0
ARC
  5
2D50
330
19
100
AcDbEntity
  8
0
100
AcDbCircle
 10
-599.7467398594588
 20
227.6478404997647
 30
0.0
 40
1.999999999999992
100
AcDbArc
 50
301.7042161760477
 51
31.70421617604751
  0
ARC
  5
2D51
330
19
100
AcDbEntity
  8
0
100
AcDbCircle
 10
-635.832129758545
 20
259.4258931838156
 30
0.0
 40
2.000000000000014
100
AcDbArc
 50
31.70420000000369
 51
211.7042
  0
LINE
  5
2D52
330
19
100
AcDbEntity
  8
0
100
AcDbLine
 10
-634.1305845824363
 20
260.4769612185598
 30
0.0
 11
-609.9560090311109
 21
221.3414294735406
 31
0.0
  0
ARC
  5
2D53
330
19
100
AcDbEntity
  8
0
100
AcDbCircle
 10
-608.2544641517453
 20
222.3924979886741
 30
0.0
 40
2.000000000000021
100
AcDbArc
 50
211.7042161760491
 51
301.7042161760492
  0
LINE
  5
2D55
330
19
100
AcDbEntity
  8
0
100
AcDbLine
 10
-633.8967357462581
 20
159.1990875015382
 30
0.0
 11
-624.1813923548879
 21
161.5680752152587
 31
0.0
  0
TEXT
  5
2D56
330
19
100
AcDbEntity
  8
Plis
100
AcDbText
 10
-614.4680362909829
 20
161.471333710339
 30
0.0
 40
4.0
  1
Pli 90 vers l'arrire
100
AcDbText
  0
LINE
  5
2D58
330
19
100
AcDbEntity
  8
0
100
AcDbLine
 10
-510.66780364689
 20
290.7279691492104
 30
0.0
 11
-510.1149092292964
 21
290.8627868318698
 31
0.0
  0
LINE
  5
2D5A
330
19
100
AcDbEntity
  8
0
100
AcDbLine
 10
-615.302699075119
 20
222.7400970927934
 30
0.0
 11
-581.8573709267147
 21
186.6457667152518
 31
0.0
  0
LINE
  5
2D64
330
19
100
AcDbEntity
  8
0
100
AcDbLine
 10
-635.3891912172519
 20
177.5455544494252
 30
0.0
 11
-655.1553526800354
 21
209.5419809307863
 31
0.0
  0
LINE
  5
2D84
330
19
100
AcDbEntity
  8
0
100
AcDbLine
 10
-633.8967357462581
 20
159.1990875015382
 30
0.0
 11
-633.8967357462581
 21
172.2899207020093
 31
0.0
  0
ARC
  5
2D85
330
19
100
AcDbEntity
  8
0
100
AcDbCircle
 10
-643.8967357462581
 20
172.2899207020093
 30
0.0
 40
10.0
100
AcDbArc
 50
0.0
 51
31.70617711035673
  0
LINE
  5
2D95
330
19
100
AcDbEntity
  8
0
100
AcDbLine
 10
-616.4754945687016
 20
224.2818228329699
 30
0.0
 11
-637.5337436437594
 21
258.3749363884879
 31
0.0
  0
CIRCLE
  5
2D97
330
19
100
AcDbEntity
  8
Epure
100
AcDbCircle
 10
-663.3195363712248
 20
272.0155306414537
 30
0.0
 40
3.100000000000023
  0
ARC
  5
2DA7
330
19
100
AcDbEntity
  8
0
100
AcDbCircle
 10
-607.9675903140172
 20
229.5368742307322
 30
0.0
 40
10.00000000000001
100
AcDbArc
 50
211.7022552417342
 51
222.818463593532
  0
LINE
  5
2DB8
330
19
100
AcDbEntity
  8
Epure
100
AcDbLine
 10
162.529942491311
 20
-11.30437368075269
 30
0.0
 11
322.529942491311
 21
-11.30437368075269
 31
0.0
  0
LINE
  5
2DBF
330
19
100
AcDbEntity
  8
0
100
AcDbLine
 10
-571.2091559610267
 20
314.4146317674166
 30
0.0
 11
-562.7014315641986
 21
319.6699743430835
 31
0.0
  0
LINE
  5
2DC1
330
19
100
AcDbEntity
  8
0
100
AcDbLine
 10
-575.7024738632218
 20
321.6887361267046
 30
0.0
 11
-567.1947494663942
 21
326.9440787023713
 31
0.0
  0
LINE
  5
2DC2
330
19
100
AcDbEntity
  8
0
100
AcDbLine
 10
-573.8893806746167
 20
318.7535712097988
 30
0.0
 11
-565.3816562777888
 21
324.0089137854658
 31
0.0
  0
LINE
  5
2DC4
330
19
100
AcDbEntity
  8
0
100
AcDbLine
 10
-561.3410263267072
 20
327.1973545453246
 30
0.0
 11
-549.1657813287293
 21
321.0607340384906
 31
0.0
  0
ARC
  5
2DC8
330
19
100
AcDbEntity
  8
0
100
AcDbCircle
 10
-572.5492683178221
 20
316.5841014886074
 30
0.0
 40
6.000000000000097
100
AcDbArc
 50
121.7042161760444
 51
301.7041914977091
  0
LINE
  5
2DCA
330
19
100
AcDbEntity
  8
Epure
100
AcDbLine
 10
-676.254209288145
 20
325.0613055583434
 30
0.0
 11
-673.8852215744238
 21
315.3459621669734
 31
0.0
  0
LINE
  5
2DCD
330
19
100
AcDbEntity
  8
Epure
100
AcDbLine
 10
-677.5471279960839
 20
319.5995419956599
 30
0.0
 11
-672.5923028664852
 21
320.8077257296578
 31
0.0
  0
ARC
  5
2DCE
330
19
100
AcDbEntity
  8
0
100
AcDbCircle
 10
-572.5492683178221
 20
316.5841014886074
 30
0.0
 40
2.550000000000035
100
AcDbArc
 50
121.7042121750536
 51
301.7042201770401
  0
ARC
  5
2DCF
330
19
100
AcDbEntity
  8
0
100
AcDbCircle
 10
-564.0415439209942
 20
321.8394440642743
 30
0.0
 40
2.549999999999958
100
AcDbArc
 50
301.704216176043
 51
121.704216176043
  0
LINE
  5
2DD0
330
19
100
AcDbEntity
  8
Epure
100
AcDbLine
 10
-677.6756019163778
 20
330.8905115931655
 30
0.0
 11
-663.3195363712248
 21
272.0155306414537
 31
0.0
  0
CIRCLE
  5
2DD2
330
19
100
AcDbEntity
  8
Epure
100
AcDbCircle
 10
-668.6497587270977
 20
293.8750532720367
 30
0.0
 40
3.549999999999955
  0
LINE
  5
2DD7
330
19
100
AcDbEntity
  8
0
100
AcDbLine
 10
-689.9202094727175
 20
265.817509520213
 30
0.0
 11
-669.152986146475
 21
270.8813857957212
 31
0.0
  0
LINE
  5
2DE6
330
19
100
AcDbEntity
  8
0
100
AcDbLine
 10
-629.5772504340958
 20
279.7452553958655
 30
0.0
 11
-598.0451949800932
 21
228.6989090148982
 31
0.0
  0
ARC
  5
2DF3
330
19
100
AcDbEntity
  8
0
100
AcDbCircle
 10
-647.7233105738139
 20
473.7312775269029
 30
0.0
 40
2.0
100
AcDbArc
 50
180.0
 51
270.0
  0
LINE
  5
2DF4
330
19
100
AcDbEntity
  8
0
100
AcDbLine
 10
-649.7233105738139
 20
473.7312775269029
 30
0.0
 11
-649.7233105738139
 21
475.7433087036378
 31
0.0
  0
LINE
  5
2DFA
330
19
100
AcDbEntity
  8
0
100
AcDbLine
 10
-657.5896581076258
 20
481.2634083443889
 30
0.0
 11
-644.6740849841018
 21
485.1925263303228
 31
0.0
  0
LINE
  5
2DFB
330
19
100
AcDbEntity
  8
0
100
AcDbLine
 10
-644.6740849841018
 20
485.1925263303228
 30
0.0
 11
-646.4203596576613
 21
490.9327810950946
 31
0.0
  0
LINE
  5
2DFC
330
19
100
AcDbEntity
  8
0
100
AcDbLine
 10
-646.4203596576613
 20
490.9327810950946
 30
0.0
 11
-659.3359326839714
 21
487.0036631387343
 31
0.0
  0
LINE
  5
2DFD
330
19
100
AcDbEntity
  8
0
100
AcDbLine
 10
-665.656086923161
 20
485.5042654785839
 30
0.0
 11
-669.0622170436092
 21
472.7312775269029
 31
0.0
  0
LINE
  5
2E0C
330
19
100
AcDbEntity
  8
Plis
100
AcDbLine
 10
-650.4442114060762
 20
450.7312775269029
 30
0.0
 11
-668.0622170436092
 21
450.7312775269029
 31
0.0
  0
ARC
  5
2E0E
330
19
100
AcDbEntity
  8
0
100
AcDbCircle
 10
-647.7233105738139
 20
449.7312775269029
 30
0.0
 40
2.0
100
AcDbArc
 50
90.0
 51
180.0
  0
LINE
  5
2E0F
330
19
100
AcDbEntity
  8
0
100
AcDbLine
 10
-649.7233105738139
 20
449.7312775269029
 30
0.0
 11
-649.7233105738139
 21
447.7192463501681
 31
0.0
  0
LINE
  5
2E14
330
19
100
AcDbEntity
  8
0
100
AcDbLine
 10
-612.1822170436092
 20
451.7312775269029
 30
0.0
 11
-576.6411235134044
 21
451.7312775269029
 31
0.0
  0
LINE
  5
2E16
330
19
100
AcDbEntity
  8
0
100
AcDbLine
 10
-612.1822170436092
 20
471.7312775269029
 30
0.0
 11
-576.6411235134044
 21
471.7312775269029
 31
0.0
  0
LINE
  5
2E31
330
19
100
AcDbEntity
  8
Epure
100
AcDbLine
 10
-658.3792237509364
 20
487.2947088585132
 30
0.0
 11
-656.6329490773774
 21
481.5544540937415
 31
0.0
  0
LINE
  5
2E32
330
19
100
AcDbEntity
  8
0
100
AcDbLine
 10
-657.2986125231264
 20
480.3066991577792
 30
0.0
 11
-654.7054629660912
 21
481.0955755372722
 31
0.0
  0
ARC
  5
2E35
330
19
100
AcDbEntity
  8
0
100
AcDbCircle
 10
-657.4441353153761
 20
480.785053751084
 30
0.0
 40
0.5
100
AcDbArc
 50
106.9205640083844
 51
286.9205872962295
  0
LINE
  5
2E36
330
19
100
AcDbEntity
  8
0
100
AcDbLine
 10
-659.9598101371656
 20
487.336494813002
 30
0.0
 11
-660.0799091716327
 21
487.7312775269029
 31
0.0
  0
LINE
  5
2E39
330
19
100
AcDbEntity
  8
0
100
AcDbLine
 10
-660.0799091716327
 20
487.7312775269029
 30
0.0
 11
-662.7573821043571
 21
487.7312775269029
 31
0.0
  0
ARC
  5
2E3A
330
19
100
AcDbEntity
  8
0
100
AcDbCircle
 10
-659.4814555734347
 20
487.4820177024653
 30
0.0
 40
0.5
100
AcDbArc
 50
196.9205756523151
 51
286.9205756523194
  0
ARC
  5
2E3B
330
19
100
AcDbEntity
  8
0
100
AcDbCircle
 10
-662.7573821043571
 20
484.7312775269029
 30
0.0
 40
3.0
100
AcDbArc
 50
90.0
 51
165.068582821863
  0
ARC
  5
2E3E
330
19
100
AcDbEntity
  8
0
100
AcDbCircle
 10
-640.0622170436092
 20
433.7312775269029
 30
0.0
 40
17.00000000000004
100
AcDbArc
 50
124.6317379614132
 51
149.4704637169059
  0
LINE
  5
2E3F
330
19
100
AcDbEntity
  8
0
100
AcDbLine
 10
-657.5896581076258
 20
442.199146709417
 30
0.0
 11
-644.6740849841018
 21
438.2700287234831
 31
0.0
  0
LINE
  5
2E40
330
19
100
AcDbEntity
  8
0
100
AcDbLine
 10
-644.6740849841018
 20
438.2700287234831
 30
0.0
 11
-646.4203596576613
 21
432.5297739587112
 31
0.0
  0
LINE
  5
2E41
330
19
100
AcDbEntity
  8
0
100
AcDbLine
 10
-646.4203596576613
 20
432.5297739587112
 30
0.0
 11
-659.3359326839714
 21
436.4588919150715
 31
0.0
  0
LINE
  5
2E42
330
19
100
AcDbEntity
  8
0
100
AcDbLine
 10
-665.656086923161
 20
437.958289575222
 30
0.0
 11
-669.0622170436092
 21
450.7312775269029
 31
0.0
  0
LINE
  5
2E43
330
19
100
AcDbEntity
  8
Epure
100
AcDbLine
 10
-658.3792237509364
 20
436.1678461952927
 30
0.0
 11
-656.6329490773774
 21
441.9081009600644
 31
0.0
  0
LINE
  5
2E44
330
19
100
AcDbEntity
  8
0
100
AcDbLine
 10
-657.2986125231264
 20
443.1558558960267
 30
0.0
 11
-654.7054629660912
 21
442.3669795165337
 31
0.0
  0
ARC
  5
2E45
330
19
100
AcDbEntity
  8
0
100
AcDbCircle
 10
-657.4441353153761
 20
442.6775013027219
 30
0.0
 40
0.5
100
AcDbArc
 50
73.07941270377043
 51
253.0794359916156
  0
LINE
  5
2E46
330
19
100
AcDbEntity
  8
0
100
AcDbLine
 10
-659.9598101371656
 20
436.1260602408038
 30
0.0
 11
-660.0799091716327
 21
435.7312775269029
 31
0.0
  0
LINE
  5
2E47
330
19
100
AcDbEntity
  8
0
100
AcDbLine
 10
-660.0799091716327
 20
435.7312775269029
 30
0.0
 11
-662.7573821043571
 21
435.7312775269029
 31
0.0
  0
ARC
  5
2E48
330
19
100
AcDbEntity
  8
0
100
AcDbCircle
 10
-659.4814555734347
 20
435.9805373513406
 30
0.0
 40
0.5
100
AcDbArc
 50
73.07942434768056
 51
163.0794243476849
  0
ARC
  5
2E49
330
19
100
AcDbEntity
  8
0
100
AcDbCircle
 10
-662.7573821043571
 20
438.7312775269029
 30
0.0
 40
3.0
100
AcDbArc
 50
194.9314171781375
 51
270.0000000000006
  0
CIRCLE
  5
2E4A
330
19
100
AcDbEntity
  8
0
100
AcDbCircle
 10
-562.4852103362821
 20
461.7312775269029
 30
0.0
 40
3.5
  0
ARC
  5
2E4B
330
19
100
AcDbEntity
  8
0
100
AcDbCircle
 10
-584.3022170436092
 20
489.7312775269029
 30
0.0
 40
17.00000000000004
100
AcDbArc
 50
304.6317379614132
 51
329.4704637169058
  0
LINE
  5
2E4C
330
19
100
AcDbEntity
  8
Plis
100
AcDbLine
 10
-573.9202226811421
 20
472.7312775269029
 30
0.0
 11
-556.3022170436092
 21
472.7312775269029
 31
0.0
  0
LINE
  5
2E4D
330
19
100
AcDbEntity
  8
0
100
AcDbLine
 10
-555.3022170436092
 20
472.7312775269029
 30
0.0
 11
-555.3022170436092
 21
450.7312775269029
 31
0.0
  0
ARC
  5
2E4E
330
19
100
AcDbEntity
  8
0
100
AcDbCircle
 10
-576.6411235134044
 20
473.7312775269029
 30
0.0
 40
2.0
100
AcDbArc
 50
270.0
 51
360.0
  0
LINE
  5
2E4F
330
19
100
AcDbEntity
  8
0
100
AcDbLine
 10
-574.6411235134044
 20
473.7312775269029
 30
0.0
 11
-574.6411235134044
 21
475.7433087036378
 31
0.0
  0
LINE
  5
2E50
330
19
100
AcDbEntity
  8
0
100
AcDbLine
 10
-566.7747759795925
 20
481.2634083443889
 30
0.0
 11
-579.6903491031165
 21
485.1925263303228
 31
0.0
  0
LINE
  5
2E51
330
19
100
AcDbEntity
  8
0
100
AcDbLine
 10
-579.6903491031165
 20
485.1925263303228
 30
0.0
 11
-577.9440744295571
 21
490.9327810950946
 31
0.0
  0
LINE
  5
2E52
330
19
100
AcDbEntity
  8
0
100
AcDbLine
 10
-577.9440744295571
 20
490.9327810950946
 30
0.0
 11
-565.028501403247
 21
487.0036631387343
 31
0.0
  0
LINE
  5
2E53
330
19
100
AcDbEntity
  8
0
100
AcDbLine
 10
-558.7083471640574
 20
485.5042654785839
 30
0.0
 11
-555.3022170436092
 21
472.7312775269029
 31
0.0
  0
LINE
  5
2E54
330
19
100
AcDbEntity
  8
Plis
100
AcDbLine
 10
-573.9202226811421
 20
450.7312775269029
 30
0.0
 11
-556.3022170436092
 21
450.7312775269029
 31
0.0
  0
ARC
  5
2E55
330
19
100
AcDbEntity
  8
0
100
AcDbCircle
 10
-576.6411235134044
 20
449.7312775269029
 30
0.0
 40
2.0
100
AcDbArc
 50
0.0
 51
90.0
  0
LINE
  5
2E56
330
19
100
AcDbEntity
  8
0
100
AcDbLine
 10
-574.6411235134044
 20
449.7312775269029
 30
0.0
 11
-574.6411235134044
 21
447.7192463501681
 31
0.0
  0
LINE
  5
2E57
330
19
100
AcDbEntity
  8
Epure
100
AcDbLine
 10
-565.985210336282
 20
487.2947088585132
 30
0.0
 11
-567.731485009841
 21
481.5544540937415
 31
0.0
  0
LINE
  5
2E58
330
19
100
AcDbEntity
  8
0
100
AcDbLine
 10
-567.065821564092
 20
480.3066991577792
 30
0.0
 11
-569.6589711211271
 21
481.0955755372722
 31
0.0
  0
ARC
  5
2E59
330
19
100
AcDbEntity
  8
0
100
AcDbCircle
 10
-566.9202987718422
 20
480.785053751084
 30
0.0
 40
0.5
100
AcDbArc
 50
253.0794127037705
 51
73.07943599161558
  0
LINE
  5
2E5A
330
19
100
AcDbEntity
  8
0
100
AcDbLine
 10
-564.4046239500527
 20
487.336494813002
 30
0.0
 11
-564.2845249155856
 21
487.7312775269029
 31
0.0
  0
LINE
  5
2E5B
330
19
100
AcDbEntity
  8
0
100
AcDbLine
 10
-564.2845249155856
 20
487.7312775269029
 30
0.0
 11
-561.6070519828612
 21
487.7312775269029
 31
0.0
  0
ARC
  5
2E5C
330
19
100
AcDbEntity
  8
0
100
AcDbCircle
 10
-564.8829785137837
 20
487.4820177024653
 30
0.0
 40
0.5
100
AcDbArc
 50
253.0794243476806
 51
343.0794243476849
  0
ARC
  5
2E5D
330
19
100
AcDbEntity
  8
0
100
AcDbCircle
 10
-561.6070519828612
 20
484.7312775269029
 30
0.0
 40
3.0
100
AcDbArc
 50
14.93141717813755
 51
90.00000000000058
  0
ARC
  5
2E5E
330
19
100
AcDbEntity
  8
0
100
AcDbCircle
 10
-584.3022170436092
 20
433.7312775269029
 30
0.0
 40
17.00000000000004
100
AcDbArc
 50
30.5295362830941
 51
55.36826203858681
  0
LINE
  5
2E5F
330
19
100
AcDbEntity
  8
0
100
AcDbLine
 10
-566.7747759795925
 20
442.199146709417
 30
0.0
 11
-579.6903491031165
 21
438.2700287234831
 31
0.0
  0
LINE
  5
2E60
330
19
100
AcDbEntity
  8
0
100
AcDbLine
 10
-579.6903491031165
 20
438.2700287234831
 30
0.0
 11
-577.9440744295571
 21
432.5297739587112
 31
0.0
  0
LINE
  5
2E61
330
19
100
AcDbEntity
  8
0
100
AcDbLine
 10
-577.9440744295571
 20
432.5297739587112
 30
0.0
 11
-565.028501403247
 21
436.4588919150715
 31
0.0
  0
LINE
  5
2E62
330
19
100
AcDbEntity
  8
0
100
AcDbLine
 10
-558.7083471640574
 20
437.958289575222
 30
0.0
 11
-555.3022170436092
 21
450.7312775269029
 31
0.0
  0
LINE
  5
2E63
330
19
100
AcDbEntity
  8
Epure
100
AcDbLine
 10
-565.985210336282
 20
436.1678461952927
 30
0.0
 11
-567.731485009841
 21
441.9081009600644
 31
0.0
  0
LINE
  5
2E64
330
19
100
AcDbEntity
  8
0
100
AcDbLine
 10
-567.065821564092
 20
443.1558558960267
 30
0.0
 11
-569.6589711211271
 21
442.3669795165337
 31
0.0
  0
ARC
  5
2E65
330
19
100
AcDbEntity
  8
0
100
AcDbCircle
 10
-566.9202987718422
 20
442.6775013027219
 30
0.0
 40
0.5
100
AcDbArc
 50
286.9205640083844
 51
106.9205872962295
  0
LINE
  5
2E66
330
19
100
AcDbEntity
  8
0
100
AcDbLine
 10
-564.4046239500527
 20
436.1260602408038
 30
0.0
 11
-564.2845249155856
 21
435.7312775269029
 31
0.0
  0
LINE
  5
2E67
330
19
100
AcDbEntity
  8
0
100
AcDbLine
 10
-564.2845249155856
 20
435.7312775269029
 30
0.0
 11
-561.6070519828612
 21
435.7312775269029
 31
0.0
  0
ARC
  5
2E68
330
19
100
AcDbEntity
  8
0
100
AcDbCircle
 10
-564.8829785137837
 20
435.9805373513406
 30
0.0
 40
0.5
100
AcDbArc
 50
16.9205756523151
 51
106.9205756523194
  0
ARC
  5
2E69
330
19
100
AcDbEntity
  8
0
100
AcDbCircle
 10
-561.6070519828612
 20
438.7312775269029
 30
0.0
 40
3.0
100
AcDbArc
 50
270.0
 51
345.068582821863
  0
LINE
  5
2E6E
330
19
100
AcDbEntity
  8
0
100
AcDbLine
 10
-748.9734436610902
 20
-16.58354713192249
 30
0.0
 11
-733.9734436610902
 21
-16.58354713192249
 31
0.0
  0
LINE
  5
2E6F
330
19
100
AcDbEntity
  8
0
100
AcDbLine
 10
-733.9734436610902
 20
-14.08354713192249
 30
0.0
 11
-723.9734436610902
 21
-14.08354713192249
 31
0.0
  0
LINE
  5
2E70
330
19
100
AcDbEntity
  8
0
100
AcDbLine
 10
-725.5452518182763
 20
-11.10616769955531
 30
0.0
 11
-735.438127052002
 21
-8.937866278464723
 31
0.0
  0
LINE
  5
2E71
330
19
100
AcDbEntity
  8
0
100
AcDbLine
 10
-738.9344569021428
 20
-9.221274707045593
 30
0.0
 11
-747.7106951016565
 21
-12.70150709650791
 31
0.0
  0
ARC
  5
2E72
330
19
100
AcDbEntity
  8
0
100
AcDbCircle
 10
-725.9734436610902
 20
-13.05979298239426
 30
0.0
 40
2.0
100
AcDbArc
 50
0.0
 51
77.6375075842857
  0
ARC
  5
2E74
330
19
100
AcDbEntity
  8
0
100
AcDbCircle
 10
-746.9734436610902
 20
-14.56066290315323
 30
0.0
 40
2.000000000000021
100
AcDbArc
 50
111.6308868365193
 51
180.0000000000013
  0
LINE
  5
2E75
330
19
100
AcDbEntity
  8
0
100
AcDbLine
 10
-748.9734436610902
 20
-16.58354713192249
 30
0.0
 11
-748.9734436610902
 21
-14.56066290315323
 31
0.0
  0
LINE
  5
2E76
330
19
100
AcDbEntity
  8
0
100
AcDbLine
 10
-733.9734436610902
 20
-14.08354713192249
 30
0.0
 11
-733.9734436610902
 21
-16.58354713192249
 31
0.0
  0
LINE
  5
2E77
330
19
100
AcDbEntity
  8
0
100
AcDbLine
 10
-723.9734436610902
 20
-14.08354713192249
 30
0.0
 11
-723.9734436610902
 21
-13.05979298239426
 31
0.0
  0
TEXT
  5
2E78
330
19
100
AcDbEntity
  8
0
100
AcDbText
 10
-755.4089772718476
 20
1.172848961416634
 30
0.0
 40
8.0
  1
Rep L
100
AcDbText
  0
CIRCLE
  5
2E79
330
19
100
AcDbEntity
  8
0
100
AcDbCircle
 10
-749.7408486637968
 20
-191.9921201141476
 30
0.0
 40
9.0
  0
CIRCLE
  5
2E7A
330
19
100
AcDbEntity
  8
0
100
AcDbCircle
 10
-749.7408486637968
 20
-191.9921201141476
 30
0.0
 40
3.049999999999955
  0
TEXT
  5
2E7B
330
19
100
AcDbEntity
  8
0
100
AcDbText
 10
-802.956446451149
 20
-175.2132577366547
 30
0.0
 40
8.0
  1
5 pices identiques
100
AcDbText
  0
TEXT
  5
2E7C
330
19
100
AcDbEntity
  8
0
100
AcDbText
 10
-763.7176404604547
 20
-161.0970302673674
 30
0.0
 40
8.0
  1
Rep K
100
AcDbText
  0
ARC
  5
2E7D
330
19
100
AcDbEntity
  8
0
100
AcDbCircle
 10
-736.722702580444
 20
-14.79874212698155
 30
0.0
 40
6.0
100
AcDbArc
 50
77.63750758428591
 51
111.6308868365183
  0
LINE
  5
2E87
330
19
100
AcDbEntity
  8
0
100
AcDbLine
 10
-695.5165766470994
 20
186.961002251347
 30
0.0
 11
-657.9079301009727
 21
210.1923990606694
 31
0.0
  0
LINE
  5
2E89
330
19
100
AcDbEntity
  8
0
100
AcDbLine
 10
-705.1259283986107
 20
202.5172972256125
 30
0.0
 11
-667.5179258805119
 21
225.7482962096461
 31
0.0
  0
LINE
  5
2E96
330
19
100
AcDbEntity
  8
0
100
AcDbLine
 10
-705.7764043431794
 20
199.7646831517059
 30
0.0
 11
-698.2691896219111
 21
187.6114779361863
 31
0.0
  0
ARC
  5
2E97
330
19
100
AcDbEntity
  8
0
100
AcDbCircle
 10
-704.0748598834796
 20
200.8157523462372
 30
0.0
 40
2.000000000000017
100
AcDbArc
 50
121.7042161758444
 51
211.7042390531556
  0
ARC
  5
2E98
330
19
100
AcDbEntity
  8
0
100
AcDbCircle
 10
-696.5676451622232
 20
188.6625471307104
 30
0.0
 40
2.000000000000016
100
AcDbArc
 50
211.7042390531563
 51
301.7042161758445
  0
LINE
  5
2E9E
330
19
100
AcDbEntity
  8
0
100
AcDbLine
 10
-563.2828109671879
 20
311.8930572478664
 30
0.0
 11
-524.4075043886221
 21
292.2989543284502
 31
0.0
  0
LINE
  5
2E9F
330
19
100
AcDbEntity
  8
0
100
AcDbLine
 10
-569.3960627724216
 20
311.4794668505108
 30
0.0
 11
-569.136534106875
 21
311.639781404913
 31
0.0
  0
ARC
  5
2EA0
330
19
100
AcDbEntity
  8
0
100
AcDbCircle
 10
-564.0415439209941
 20
321.8394440642745
 30
0.0
 40
6.000000000000084
100
AcDbArc
 50
63.2507811967199
 51
121.7042161760443
  0
ARC
  5
2EA1
330
19
100
AcDbEntity
  8
0
100
AcDbCircle
 10
-565.9833285614749
 20
306.5351467668163
 30
0.0
 40
5.999999999999982
100
AcDbArc
 50
63.25078119672062
 51
121.7042161760459
  0
LINE
  5
2EA4
330
19
100
AcDbEntity
  8
0
100
AcDbLine
 10
-666.8674854898404
 20
228.50096783851
 30
0.0
 11
-689.9202094727175
 21
265.817509520213
 31
0.0
  0
ARC
  5
2EA5
330
19
100
AcDbEntity
  8
0
100
AcDbCircle
 10
-668.5689943956435
 20
227.4498410890192
 30
0.0
 40
2.000000000000021
100
AcDbArc
 50
301.7042161758864
 51
31.70617711051464
  0
ARC
  5
2EA6
330
19
100
AcDbEntity
  8
0
100
AcDbCircle
 10
-656.856861585838
 20
208.4908541813035
 30
0.0
 40
2.000000000000052
100
AcDbArc
 50
31.70617711032797
 51
121.7042161760717
  0
LINE
  5
2EAE
330
19
100
AcDbEntity
  8
0
100
AcDbLine
 10
-651.8575386605532
 20
281.5650301286141
 30
0.0
 11
-669.152986146475
 21
270.8813857957212
 31
0.0
  0
LINE
  5
2EAF
330
19
100
AcDbEntity
  8
0
100
AcDbLine
 10
-646.9928210282468
 20
273.6890965663031
 30
0.0
 11
-651.8575386605532
 21
281.5650301286141
 31
0.0
  0
LINE
  5
2EB1
330
19
100
AcDbEntity
  8
Plis
100
AcDbLine
 10
-669.152986146475
 20
270.8813857957212
 30
0.0
 11
-607.9060783747657
 21
171.730511427934
 31
0.0
  0
CIRCLE
  5
2EB6
330
19
100
AcDbEntity
  8
0
100
AcDbCircle
 10
-507.1897091141817
 20
343.2120294652315
 30
0.0
 40
3.549999999999955
  0
ARC
  5
2EBC
330
19
100
AcDbEntity
  8
0
100
AcDbCircle
 10
-507.1897091141817
 20
343.2120294652315
 30
0.0
 40
6.999999999999994
100
AcDbArc
 50
359.6469436528363
 51
151.7042306074539
  0
LINE
  5
2EBD
330
19
100
AcDbEntity
  8
0
100
AcDbLine
 10
-500.2742014113192
 20
344.2963510096309
 30
0.0
 11
-498.0262648361672
 21
314.2528962538345
 31
0.0
  0
ARC
  5
2EBE
330
19
100
AcDbEntity
  8
0
100
AcDbCircle
 10
-478.0820154292991
 20
315.7451816141592
 30
0.0
 40
20.0
100
AcDbArc
 50
184.2790593898109
 51
211.7023271408413
  0
LINE
  5
2EBF
330
19
100
AcDbEntity
  8
0
100
AcDbLine
 10
-513.3532956121185
 20
346.5301918305261
 30
0.0
 11
-522.5538112653761
 21
329.4399673055593
 31
0.0
  0
ARC
  5
2EC0
330
19
100
AcDbEntity
  8
0
100
AcDbCircle
 10
-540.1640560144396
 20
338.920435641991
 30
0.0
 40
19.99999999999999
100
AcDbArc
 50
243.2507811967206
 51
331.7042161760473
  0
ARC
  5
2EC5
330
19
100
AcDbEntity
  8
0
100
AcDbCircle
 10
-645.2912414962012
 20
274.7401089811285
 30
0.0
 40
1.999999999999984
100
AcDbArc
 50
211.7023271408878
 51
301.7042161760003
  0
LINE
  5
2EC8
330
19
100
AcDbEntity
  8
0
100
AcDbLine
 10
-492.8194617433746
 20
301.5464311647627
 30
0.0
 11
-495.0978107497771
 21
305.2350574659106
 31
0.0
  0
LINE
  5
2EC9
330
19
100
AcDbEntity
  8
0
100
AcDbLine
 10
-492.8194617433746
 20
301.5464311647627
 30
0.0
 11
-510.1149092292964
 21
290.8627868318698
 31
0.0
  0
ARC
  5
2ECA
330
19
100
AcDbEntity
  8
0
100
AcDbCircle
 10
-515.4057790743324
 20
310.1586559319506
 30
0.0
 40
19.99999999999999
100
AcDbArc
 50
243.2507811967206
 51
283.7035753216638
  0
TEXT
  5
2ECB
330
19
100
AcDbEntity
  8
0
100
AcDbText
 10
-569.6886457303339
 20
340.0271912027443
 30
0.0
 40
8.0
  1
Rep K
 50
359.9999999999968
100
AcDbText
  0
ENDSEC
  0
SECTION
  2
OBJECTS
  0
DICTIONARY
  5
2D
102
{ACAD_REACTORS
330
2D
102
}
330
0
100
AcDbDictionary
281
     1
  3
ACAD_DETAILVIEWSTYLE
350
2F19
  3
ACAD_GROUP
350
2E
  3
ACAD_IMAGE_VARS
350
2F11
  3
ACAD_LAYOUT
350
1D
  3
ACAD_MATERIAL
350
2F07
  3
ACAD_MLEADERSTYLE
350
2F0D
  3
ACAD_MLINESTYLE
350
2F
  3
ACAD_SCALELIST
350
2EE5
  3
ACAD_SECTIONVIEWSTYLE
350
2F1A
  3
ACAD_TABLESTYLE
350
2F0B
  3
ACAD_VISUALSTYLE
350
2ECC
  3
ACDB_RECOMPOSE_DATA
350
2F15
  3
ACDBVARIABLEDICTIONARY
350
86
  3
APPDATA
350
2F0F
  0
SUN
  5
2F10
330
2C
100
AcDbSun
 90
        1
290
     0
 63
     7
421
 16777215
 40
1.0
291
     1
 91
  2455826
 92
 54000000
292
     0
 70
     2
 71
   256
280
     1
  0
DICTIONARY
  5
2F19
102
{ACAD_REACTORS
330
2D
102
}
330
2D
100
AcDbDictionary
281
     1
  0
DICTIONARY
  5
2E
102
{ACAD_REACTORS
330
2D
102
}
330
2D
100
AcDbDictionary
281
     1
  0
RASTERVARIABLES
  5
2F11
102
{ACAD_REACTORS
330
2D
102
}
330
2D
100
AcDbRasterVariables
 90
        0
 70
     1
 71
     1
 72
     0
  0
DICTIONARY
  5
1D
102
{ACAD_REACTORS
330
2D
102
}
330
2D
100
AcDbDictionary
281
     1
  3
LAYOUT1
350
20
  3
MODEL
350
1F
  0
DICTIONARY
  5
2F07
102
{ACAD_REACTORS
330
2D
102
}
330
2D
100
AcDbDictionary
281
     1
  3
ByBlock
350
2F09
  3
ByLayer
350
2F08
  3
Global
350
2F0A
  0
DICTIONARY
  5
2F0D
102
{ACAD_REACTORS
330
2D
102
}
330
2D
100
AcDbDictionary
281
     1
  3
Standard
350
2F0E
  0
DICTIONARY
  5
2F
102
{ACAD_REACTORS
330
2D
102
}
330
2D
100
AcDbDictionary
281
     1
  3
STANDARD
350
30
  0
DICTIONARY
  5
2EE5
102
{ACAD_REACTORS
330
2D
102
}
330
2D
100
AcDbDictionary
281
     1
  3
A0
350
2EE6
  3
A1
350
2EE7
  3
A2
350
2EE8
  3
A3
350
2EE9
  3
A4
350
2EEA
  3
A5
350
2EEB
  3
A6
350
2EEC
  3
A7
350
2EED
  3
A8
350
2EEE
  3
A9
350
2EEF
  3
B0
350
2EF0
  3
B1
350
2EF1
  3
B2
350
2EF2
  3
B3
350
2EF3
  3
B4
350
2EF4
  3
B5
350
2EF5
  3
B6
350
2EF6
  3
B7
350
2EF7
  3
B8
350
2EF8
  3
B9
350
2EF9
  3
C0
350
2EFA
  3
C1
350
2EFB
  3
C2
350
2EFC
  3
C3
350
2EFD
  3
C4
350
2EFE
  3
C5
350
2EFF
  3
C6
350
2F00
  3
C7
350
2F01
  3
C8
350
2F02
  3
C9
350
2F03
  3
D0
350
2F04
  3
D1
350
2F05
  3
D2
350
2F06
  0
DICTIONARY
  5
2F1A
102
{ACAD_REACTORS
330
2D
102
}
330
2D
100
AcDbDictionary
281
     1
  0
DICTIONARY
  5
2F0B
102
{ACAD_REACTORS
330
2D
102
}
330
2D
100
AcDbDictionary
281
     1
  3
Standard
350
2F0C
  0
DICTIONARY
  5
2ECC
102
{ACAD_REACTORS
330
2D
102
}
330
2D
100
AcDbDictionary
281
     1
  3
2dWireframe
350
2ED1
  3
Basic
350
2ED4
  3
Brighten
350
2ED8
  3
ColorChange
350
2EDC
  3
Conceptual
350
2ED6
  3
Dim
350
2ED7
  3
EdgeColorOff
350
2EDF
  3
Facepattern
350
2EDB
  3
Flat
350
2ECD
  3
FlatWithEdges
350
2ECE
  3
Gouraud
350
2ECF
  3
GouraudWithEdges
350
2ED0
  3
Hidden
350
2ED3
  3
JitterOff
350
2EDD
  3
Linepattern
350
2EDA
  3
OverhangOff
350
2EDE
  3
Realistic
350
2ED5
  3
Shaded
350
2EE4
  3
Shaded with edges
350
2EE3
  3
Shades of Gray
350
2EE0
  3
Sketchy
350
2EE1
  3
Thicken
350
2ED9
  3
Wireframe
350
2ED2
  3
X-Ray
350
2EE2
  0
XRECORD
  5
2F15
102
{ACAD_REACTORS
330
2D
102
}
330
2D
100
AcDbXrecord
280
     1
 90
        1
330
2F0C
  0
DICTIONARY
  5
86
102
{ACAD_REACTORS
330
2D
102
}
330
2D
100
AcDbDictionary
  3
CANNOSCALE
350
2F12
  3
CMLEADERSTYLE
350
2F17
  3
CTABLESTYLE
350
2F16
  3
DIMADEC
350
87
  3
MSLTSCALE
350
2F18
  0
DICTIONARY
  5
2F0F
102
{ACAD_REACTORS
330
2D
102
}
330
2D
100
AcDbDictionary
281
     1
  0
LAYOUT
  5
20
102
{ACAD_REACTORS
330
1D
102
}
330
1D
100
AcDbPlotSettings
  1

  2

  4

  6

 40
0.0
 41
0.0
 42
0.0
 43
0.0
 44
0.0
 45
0.0
 46
0.0
 47
0.0
 48
0.0
 49
0.0
140
0.0
141
0.0
142
1.0
143
1.0
 70
     0
 72
     0
 73
     0
 74
     0
  7

 75
     0
 76
     0
 77
     2
 78
   300
147
1.0
148
0.0
149
0.0
100
AcDbLayout
  1
Layout1
 70
     0
 71
     0
 10
0.0
 20
0.0
 11
0.0
 21
0.0
 12
0.0
 22
0.0
 32
0.0
 14
0.0
 24
0.0
 34
0.0
 15
0.0
 25
0.0
 35
0.0
146
0.0
 13
0.0
 23
0.0
 33
0.0
 16
0.0
 26
0.0
 36
0.0
 17
0.0
 27
0.0
 37
0.0
 76
     0
330
16
  0
LAYOUT
  5
1F
102
{ACAD_REACTORS
330
1D
102
}
330
1D
100
AcDbPlotSettings
  1

  2

  4

  6

 40
0.0
 41
0.0
 42
0.0
 43
0.0
 44
0.0
 45
0.0
 46
0.0
 47
0.0
 48
0.0
 49
0.0
140
0.0
141
0.0
142
1.0
143
1.0
 70
  1024
 72
     0
 73
     0
 74
     0
  7

 75
     0
 76
     0
 77
     2
 78
   300
147
1.0
148
0.0
149
0.0
100
AcDbLayout
  1
Model
 70
     0
 71
     1
 10
0.0
 20
0.0
 11
0.0
 21
0.0
 12
0.0
 22
0.0
 32
0.0
 14
1.000000000000000E+20
 24
1.000000000000000E+20
 34
1.000000000000000E+20
 15
-1.000000000000000E+20
 25
-1.000000000000000E+20
 35
-1.000000000000000E+20
146
0.0
 13
0.0
 23
0.0
 33
0.0
 16
0.0
 26
0.0
 36
0.0
 17
0.0
 27
0.0
 37
0.0
 76
     0
330
19
331
2C
  0
MATERIAL
  5
2F09
102
{ACAD_REACTORS
330
2F07
102
}
330
2F07
100
AcDbMaterial
  1
ByBlock
 72
     1
 94
      127
  0
MATERIAL
  5
2F08
102
{ACAD_REACTORS
330
2F07
102
}
330
2F07
100
AcDbMaterial
  1
ByLayer
 72
     1
 94
      127
  0
MATERIAL
  5
2F0A
102
{ACAD_REACTORS
330
2F07
102
}
330
2F07
100
AcDbMaterial
  1
Global
 72
     1
 94
      127
  0
MLEADERSTYLE
  5
2F0E
102
{ACAD_REACTORS
330
2F0D
102
}
330
2F0D
100
AcDbMLeaderStyle
179
     2
170
     2
171
     1
172
     0
 90
        2
 40
0.0
 41
0.0
173
     1
 91
-1056964608
340
26
 92
       -2
290
     1
 42
0.09
291
     1
 43
0.36
  3
Standard
341
0
 44
0.18
300

342
29
174
     1
178
     6
175
     1
176
     0
 93
-1056964608
 45
0.18
292
     0
297
     0
 46
0.18
343
0
 94
-1056964608
 47
1.0
 49
1.0
140
1.0
293
     1
141
0.0
294
     1
177
     0
142
1.0
295
     0
296
     0
143
0.125
271
     0
272
     9
273
     9
298
     0
  0
MLINESTYLE
  5
30
102
{ACAD_REACTORS
330
2F
102
}
330
2F
100
AcDbMlineStyle
  2
Standard
 70
     0
  3

 62
     0
 51
90.0
 52
90.0
 71
     2
 49
0.5
 62
   256
  6
BYLAYER
 49
-0.5
 62
   256
  6
BYLAYER
  0
SCALE
  5
2EE6
102
{ACAD_REACTORS
330
2EE5
102
}
330
2EE5
100
AcDbScale
 70
     0
300
1:1
140
1.0
141
1.0
290
     1
  0
SCALE
  5
2EE7
102
{ACAD_REACTORS
330
2EE5
102
}
330
2EE5
100
AcDbScale
 70
     0
300
1:2
140
1.0
141
2.0
290
     0
  0
SCALE
  5
2EE8
102
{ACAD_REACTORS
330
2EE5
102
}
330
2EE5
100
AcDbScale
 70
     0
300
1:4
140
1.0
141
4.0
290
     0
  0
SCALE
  5
2EE9
102
{ACAD_REACTORS
330
2EE5
102
}
330
2EE5
100
AcDbScale
 70
     0
300
1:5
140
1.0
141
5.0
290
     0
  0
SCALE
  5
2EEA
102
{ACAD_REACTORS
330
2EE5
102
}
330
2EE5
100
AcDbScale
 70
     0
300
1:8
140
1.0
141
8.0
290
     0
  0
SCALE
  5
2EEB
102
{ACAD_REACTORS
330
2EE5
102
}
330
2EE5
100
AcDbScale
 70
     0
300
1:10
140
1.0
141
10.0
290
     0
  0
SCALE
  5
2EEC
102
{ACAD_REACTORS
330
2EE5
102
}
330
2EE5
100
AcDbScale
 70
     0
300
1:16
140
1.0
141
16.0
290
     0
  0
SCALE
  5
2EED
102
{ACAD_REACTORS
330
2EE5
102
}
330
2EE5
100
AcDbScale
 70
     0
300
1:20
140
1.0
141
20.0
290
     0
  0
SCALE
  5
2EEE
102
{ACAD_REACTORS
330
2EE5
102
}
330
2EE5
100
AcDbScale
 70
     0
300
1:30
140
1.0
141
30.0
290
     0
  0
SCALE
  5
2EEF
102
{ACAD_REACTORS
330
2EE5
102
}
330
2EE5
100
AcDbScale
 70
     0
300
1:40
140
1.0
141
40.0
290
     0
  0
SCALE
  5
2EF0
102
{ACAD_REACTORS
330
2EE5
102
}
330
2EE5
100
AcDbScale
 70
     0
300
1:50
140
1.0
141
50.0
290
     0
  0
SCALE
  5
2EF1
102
{ACAD_REACTORS
330
2EE5
102
}
330
2EE5
100
AcDbScale
 70
     0
300
1:100
140
1.0
141
100.0
290
     0
  0
SCALE
  5
2EF2
102
{ACAD_REACTORS
330
2EE5
102
}
330
2EE5
100
AcDbScale
 70
     0
300
2:1
140
2.0
141
1.0
290
     0
  0
SCALE
  5
2EF3
102
{ACAD_REACTORS
330
2EE5
102
}
330
2EE5
100
AcDbScale
 70
     0
300
4:1
140
4.0
141
1.0
290
     0
  0
SCALE
  5
2EF4
102
{ACAD_REACTORS
330
2EE5
102
}
330
2EE5
100
AcDbScale
 70
     0
300
8:1
140
8.0
141
1.0
290
     0
  0
SCALE
  5
2EF5
102
{ACAD_REACTORS
330
2EE5
102
}
330
2EE5
100
AcDbScale
 70
     0
300
10:1
140
10.0
141
1.0
290
     0
  0
SCALE
  5
2EF6
102
{ACAD_REACTORS
330
2EE5
102
}
330
2EE5
100
AcDbScale
 70
     0
300
100:1
140
100.0
141
1.0
290
     0
  0
SCALE
  5
2EF7
102
{ACAD_REACTORS
330
2EE5
102
}
330
2EE5
100
AcDbScale
 70
     0
300
1/128" = 1'-0"
140
0.0078125
141
12.0
290
     0
  0
SCALE
  5
2EF8
102
{ACAD_REACTORS
330
2EE5
102
}
330
2EE5
100
AcDbScale
 70
     0
300
1/64" = 1'-0"
140
0.015625
141
12.0
290
     0
  0
SCALE
  5
2EF9
102
{ACAD_REACTORS
330
2EE5
102
}
330
2EE5
100
AcDbScale
 70
     0
300
1/32" = 1'-0"
140
0.03125
141
12.0
290
     0
  0
SCALE
  5
2EFA
102
{ACAD_REACTORS
330
2EE5
102
}
330
2EE5
100
AcDbScale
 70
     0
300
1/16" = 1'-0"
140
0.0625
141
12.0
290
     0
  0
SCALE
  5
2EFB
102
{ACAD_REACTORS
330
2EE5
102
}
330
2EE5
100
AcDbScale
 70
     0
300
3/32" = 1'-0"
140
0.09375
141
12.0
290
     0
  0
SCALE
  5
2EFC
102
{ACAD_REACTORS
330
2EE5
102
}
330
2EE5
100
AcDbScale
 70
     0
300
1/8" = 1'-0"
140
0.125
141
12.0
290
     0
  0
SCALE
  5
2EFD
102
{ACAD_REACTORS
330
2EE5
102
}
330
2EE5
100
AcDbScale
 70
     0
300
3/16" = 1'-0"
140
0.1875
141
12.0
290
     0
  0
SCALE
  5
2EFE
102
{ACAD_REACTORS
330
2EE5
102
}
330
2EE5
100
AcDbScale
 70
     0
300
1/4" = 1'-0"
140
0.25
141
12.0
290
     0
  0
SCALE
  5
2EFF
102
{ACAD_REACTORS
330
2EE5
102
}
330
2EE5
100
AcDbScale
 70
     0
300
3/8" = 1'-0"
140
0.375
141
12.0
290
     0
  0
SCALE
  5
2F00
102
{ACAD_REACTORS
330
2EE5
102
}
330
2EE5
100
AcDbScale
 70
     0
300
1/2" = 1'-0"
140
0.5
141
12.0
290
     0
  0
SCALE
  5
2F01
102
{ACAD_REACTORS
330
2EE5
102
}
330
2EE5
100
AcDbScale
 70
     0
300
3/4" = 1'-0"
140
0.75
141
12.0
290
     0
  0
SCALE
  5
2F02
102
{ACAD_REACTORS
330
2EE5
102
}
330
2EE5
100
AcDbScale
 70
     0
300
1" = 1'-0"
140
1.0
141
12.0
290
     0
  0
SCALE
  5
2F03
102
{ACAD_REACTORS
330
2EE5
102
}
330
2EE5
100
AcDbScale
 70
     0
300
1-1/2" = 1'-0"
140
1.5
141
12.0
290
     0
  0
SCALE
  5
2F04
102
{ACAD_REACTORS
330
2EE5
102
}
330
2EE5
100
AcDbScale
 70
     0
300
3" = 1'-0"
140
3.0
141
12.0
290
     0
  0
SCALE
  5
2F05
102
{ACAD_REACTORS
330
2EE5
102
}
330
2EE5
100
AcDbScale
 70
     0
300
6" = 1'-0"
140
6.0
141
12.0
290
     0
  0
SCALE
  5
2F06
102
{ACAD_REACTORS
330
2EE5
102
}
330
2EE5
100
AcDbScale
 70
     0
300
1'-0" = 1'-0"
140
12.0
141
12.0
290
     0
  0
TABLESTYLE
  5
2F0C
102
{ACAD_REACTORS
330
2F0B
102
}
102
{ACAD_XDICTIONARY
360
2F13
102
}
330
2F0B
100
AcDbTableStyle
  3
Standard
 70
     0
 71
     0
 40
0.06
 41
0.06
280
     0
281
     0
  7
STANDARD
140
0.18
170
     2
 62
     0
 63
   257
283
     0
 90
        4
 91
        0
  1

274
    -2
284
     1
 64
     0
275
    -2
285
     1
 65
     0
276
    -2
286
     1
 66
     0
277
    -2
287
     1
 67
     0
278
    -2
288
     1
 68
     0
279
    -2
289
     1
 69
     0
  7
STANDARD
140
0.25
170
     5
 62
     0
 63
   257
283
     0
 90
        4
 91
        0
  1

274
    -2
284
     1
 64
     0
275
    -2
285
     1
 65
     0
276
    -2
286
     1
 66
     0
277
    -2
287
     1
 67
     0
278
    -2
288
     1
 68
     0
279
    -2
289
     1
 69
     0
  7
STANDARD
140
0.18
170
     5
 62
     0
 63
   257
283
     0
 90
        4
 91
        0
  1

274
    -2
284
     1
 64
     0
275
    -2
285
     1
 65
     0
276
    -2
286
     1
 66
     0
277
    -2
287
     1
 67
     0
278
    -2
288
     1
 68
     0
279
    -2
289
     1
 69
     0
  0
VISUALSTYLE
  5
2ED1
102
{ACAD_REACTORS
330
2ECC
102
}
330
2ECC
100
AcDbVisualStyle
  2
2dWireframe
 70
     4
177
     3
291
     0
 70
    58
 90
        0
176
     1
 90
        2
176
     1
 90
        0
176
     1
 90
        0
176
     1
 40
0.6
176
     1
 40
30.0
176
     1
 62
     7
420
 16777215
176
     1
 90
        1
176
     1
 90
        4
176
     1
 62
     7
176
     1
 62
   257
176
     1
 90
        1
176
     1
 90
        1
176
     1
 40
1.0
176
     1
 90
        0
176
     1
 62
   257
176
     1
 40
1.0
176
     1
 90
        1
176
     1
 90
        6
176
     1
 90
        2
176
     1
 62
     7
176
     1
 90
        5
176
     1
 90
        0
176
     1
 90
        0
176
     1
290
     0
176
     1
 90
        1
176
     1
 40
0.0
176
     1
 90
        0
176
     1
290
     1
176
     1
290
     1
176
     1
290
     0
176
     1
290
     0
176
     1
290
     0
176
     1
290
     0
176
     1
290
     0
176
     1
290
     0
176
     1
290
     0
176
     1
 90
       50
176
     1
 40
0.0
176
     1
 40
1.0
176
     1
 90
        0
176
     1
 62
   178
420
        0
176
     1
 90
       50
176
     1
 90
        3
176
     1
 62
     5
420
      255
176
     1
290
     0
176
     1
 90
       50
176
     1
 90
       50
176
     1
 90
       50
176
     1
290
     0
176
     1
 90
       50
176
     1
 62
   256
176
     0
 40
1.0
176
     0
 90
        2
176
     1
  1
strokes_ogs.tif
176
     1
290
     0
176
     1
 40
1.0
176
     1
 40
1.0
176
     1
  0
VISUALSTYLE
  5
2ED4
102
{ACAD_REACTORS
330
2ECC
102
}
330
2ECC
100
AcDbVisualStyle
  2
Basic
 70
     7
177
     3
291
     1
 70
    58
 90
        1
176
     1
 90
        0
176
     1
 90
        1
176
     1
 90
        0
176
     1
 40
0.6
176
     1
 40
30.0
176
     1
 62
     7
420
 16777215
176
     1
 90
        0
176
     1
 90
        4
176
     1
 62
     7
176
     1
 62
   257
176
     1
 90
        1
176
     1
 90
        1
176
     1
 40
1.0
176
     1
 90
        8
176
     1
 62
     7
176
     1
 40
1.0
176
     1
 90
        1
176
     1
 90
        6
176
     1
 90
        2
176
     1
 62
     7
176
     1
 90
        5
176
     1
 90
        0
176
     1
 90
        0
176
     1
290
     0
176
     1
 90
        1
176
     1
 40
0.0
176
     1
 90
        0
176
     1
290
     0
176
     1
290
     1
176
     1
290
     1
176
     1
290
     0
176
     1
290
     0
176
     1
290
     0
176
     1
290
     0
176
     1
290
     0
176
     1
290
     0
176
     1
 90
       50
176
     1
 40
0.0
176
     1
 40
1.0
176
     1
 90
        0
176
     1
 62
   178
420
        0
176
     1
 90
       50
176
     1
 90
        3
176
     1
 62
     5
420
      255
176
     1
290
     0
176
     1
 90
       50
176
     1
 90
       50
176
     1
 90
       50
176
     1
290
     0
176
     1
 90
       50
176
     1
 62
   256
176
     0
 40
1.0
176
     0
 90
        2
176
     1
  1
strokes_ogs.tif
176
     1
290
     0
176
     1
 40
1.0
176
     1
 40
1.0
176
     1
  0
VISUALSTYLE
  5
2ED8
102
{ACAD_REACTORS
330
2ECC
102
}
330
2ECC
100
AcDbVisualStyle
  2
Brighten
 70
    12
177
     3
291
     1
 70
    58
 90
        2
176
     1
 90
        2
176
     1
 90
        0
176
     1
 90
        0
176
     1
 40
0.6
176
     1
 40
30.0
176
     1
 62
     7
420
 16777215
176
     1
 90
        1
176
     1
 90
        4
176
     1
 62
     7
176
     1
 62
   257
176
     1
 90
        1
176
     1
 90
        1
176
     1
 40
1.0
176
     1
 90
        8
176
     1
 62
     7
176
     1
 40
1.0
176
     1
 90
        1
176
     1
 90
        6
176
     1
 90
        2
176
     1
 62
     7
176
     1
 90
        5
176
     1
 90
        0
176
     1
 90
        0
176
     1
290
     0
176
     1
 90
        1
176
     1
 40
50.0
176
     1
 90
        0
176
     1
290
     0
176
     1
290
     1
176
     1
290
     1
176
     1
290
     0
176
     1
290
     0
176
     1
290
     0
176
     1
290
     0
176
     1
290
     0
176
     1
290
     0
176
     1
 90
       50
176
     1
 40
0.0
176
     1
 40
1.0
176
     1
 90
        0
176
     1
 62
   178
420
        0
176
     1
 90
       50
176
     1
 90
        3
176
     1
 62
     5
420
      255
176
     1
290
     0
176
     1
 90
       50
176
     1
 90
       50
176
     1
 90
       50
176
     1
290
     0
176
     1
 90
       50
176
     1
 62
   256
176
     0
 40
1.0
176
     0
 90
        2
176
     1
  1
strokes_ogs.tif
176
     1
290
     0
176
     1
 40
1.0
176
     1
 40
1.0
176
     1
  0
VISUALSTYLE
  5
2EDC
102
{ACAD_REACTORS
330
2ECC
102
}
330
2ECC
100
AcDbVisualStyle
  2
ColorChange
 70
    16
177
     3
291
     1
 70
    58
 90
        2
176
     1
 90
        2
176
     1
 90
        3
176
     1
 90
        0
176
     1
 40
0.6
176
     1
 40
30.0
176
     1
 62
     8
420
  8421504
176
     1
 90
        1
176
     1
 90
        4
176
     1
 62
     7
176
     1
 62
   257
176
     1
 90
        1
176
     1
 90
        1
176
     1
 40
1.0
176
     1
 90
        8
176
     1
 62
     8
420
  8421504
176
     1
 40
1.0
176
     1
 90
        1
176
     1
 90
        6
176
     1
 90
        2
176
     1
 62
     7
176
     1
 90
        5
176
     1
 90
        0
176
     1
 90
        0
176
     1
290
     0
176
     1
 90
        1
176
     1
 40
0.0
176
     1
 90
        0
176
     1
290
     0
176
     1
290
     1
176
     1
290
     1
176
     1
290
     0
176
     1
290
     0
176
     1
290
     0
176
     1
290
     0
176
     1
290
     0
176
     1
290
     0
176
     1
 90
       50
176
     1
 40
0.0
176
     1
 40
1.0
176
     1
 90
        0
176
     1
 62
   178
420
        0
176
     1
 90
       50
176
     1
 90
        3
176
     1
 62
     5
420
      255
176
     1
290
     0
176
     1
 90
       50
176
     1
 90
       50
176
     1
 90
       50
176
     1
290
     0
176
     1
 90
       50
176
     1
 62
   256
176
     0
 40
1.0
176
     0
 90
        2
176
     1
  1
strokes_ogs.tif
176
     1
290
     0
176
     1
 40
1.0
176
     1
 40
1.0
176
     1
  0
VISUALSTYLE
  5
2ED6
102
{ACAD_REACTORS
330
2ECC
102
}
330
2ECC
100
AcDbVisualStyle
  2
Conceptual
 70
     9
177
     3
291
     0
 70
    58
 90
        3
176
     1
 90
        2
176
     1
 90
        0
176
     1
 90
        0
176
     1
 40
0.6
176
     1
 40
30.0
176
     1
 62
     7
420
 16777215
176
     1
 90
        2
176
     1
 90
        2
176
     1
 62
     7
176
     1
 62
   257
176
     1
 90
        1
176
     1
 90
        1
176
     1
 40
179.0
176
     1
 90
        8
176
     1
 62
     7
176
     1
 40
1.0
176
     1
 90
        1
176
     1
 90
        6
176
     1
 90
        2
176
     1
 62
     7
176
     1
 90
        3
176
     1
 90
        0
176
     1
 90
        0
176
     1
290
     0
176
     1
 90
        1
176
     1
 40
0.0
176
     1
 90
        0
176
     1
290
     0
176
     1
290
     1
176
     1
290
     1
176
     1
290
     0
176
     1
290
     0
176
     1
290
     0
176
     1
290
     0
176
     1
290
     0
176
     1
290
     0
176
     1
 90
       50
176
     1
 40
0.0
176
     1
 40
1.0
176
     1
 90
        0
176
     1
 62
   178
420
        0
176
     1
 90
       50
176
     1
 90
        3
176
     1
 62
     5
420
      255
176
     1
290
     0
176
     1
 90
       50
176
     1
 90
       50
176
     1
 90
       50
176
     1
290
     0
176
     1
 90
       50
176
     1
 62
   256
176
     0
 40
1.0
176
     0
 90
        2
176
     1
  1
strokes_ogs.tif
176
     1
290
     0
176
     1
 40
1.0
176
     1
 40
1.0
176
     1
  0
VISUALSTYLE
  5
2ED7
102
{ACAD_REACTORS
330
2ECC
102
}
330
2ECC
100
AcDbVisualStyle
  2
Dim
 70
    11
177
     3
291
     1
 70
    58
 90
        2
176
     1
 90
        2
176
     1
 90
        0
176
     1
 90
        0
176
     1
 40
0.6
176
     1
 40
30.0
176
     1
 62
     7
420
 16777215
176
     1
 90
        1
176
     1
 90
        4
176
     1
 62
     7
176
     1
 62
   257
176
     1
 90
        1
176
     1
 90
        1
176
     1
 40
1.0
176
     1
 90
        8
176
     1
 62
     7
176
     1
 40
1.0
176
     1
 90
        1
176
     1
 90
        6
176
     1
 90
        2
176
     1
 62
     7
176
     1
 90
        5
176
     1
 90
        0
176
     1
 90
        0
176
     1
290
     0
176
     1
 90
        1
176
     1
 40
-50.0
176
     1
 90
        0
176
     1
290
     0
176
     1
290
     1
176
     1
290
     1
176
     1
290
     0
176
     1
290
     0
176
     1
290
     0
176
     1
290
     0
176
     1
290
     0
176
     1
290
     0
176
     1
 90
       50
176
     1
 40
0.0
176
     1
 40
1.0
176
     1
 90
        0
176
     1
 62
   178
420
        0
176
     1
 90
       50
176
     1
 90
        3
176
     1
 62
     5
420
      255
176
     1
290
     0
176
     1
 90
       50
176
     1
 90
       50
176
     1
 90
       50
176
     1
290
     0
176
     1
 90
       50
176
     1
 62
   256
176
     0
 40
1.0
176
     0
 90
        2
176
     1
  1
strokes_ogs.tif
176
     1
290
     0
176
     1
 40
1.0
176
     1
 40
1.0
176
     1
  0
VISUALSTYLE
  5
2EDF
102
{ACAD_REACTORS
330
2ECC
102
}
330
2ECC
100
AcDbVisualStyle
  2
EdgeColorOff
 70
    22
177
     3
291
     1
 70
    58
 90
        2
176
     0
 90
        2
176
     0
 90
        0
176
     0
 90
        0
176
     0
 40
0.6
176
     0
 40
30.0
176
     0
 62
     7
420
 16777215
176
     0
 90
        1
176
     0
 90
        4
176
     0
 62
     7
176
     0
 62
   257
176
     0
 90
        1
176
     0
 90
        1
176
     0
 40
1.0
176
     0
 90
        8
176
     2
 62
     7
176
     0
 40
1.0
176
     0
 90
        1
176
     0
 90
        6
176
     0
 90
        2
176
     0
 62
     7
176
     0
 90
        5
176
     0
 90
        0
176
     0
 90
        0
176
     0
290
     0
176
     0
 90
        1
176
     0
 40
0.0
176
     0
 90
        0
176
     0
290
     0
176
     0
290
     1
176
     0
290
     1
176
     0
290
     0
176
     0
290
     0
176
     0
290
     0
176
     0
290
     0
176
     0
290
     0
176
     0
290
     0
176
     0
 90
       50
176
     0
 40
0.0
176
     0
 40
1.0
176
     0
 90
        0
176
     0
 62
   178
420
        0
176
     0
 90
       50
176
     0
 90
        3
176
     0
 62
     5
420
      255
176
     0
290
     0
176
     0
 90
       50
176
     0
 90
       50
176
     0
 90
       50
176
     0
290
     0
176
     0
 90
       50
176
     0
 62
   256
176
     0
 40
1.0
176
     0
 90
        2
176
     0
  1
strokes_ogs.tif
176
     0
290
     0
176
     0
 40
1.0
176
     0
 40
1.0
176
     0
  0
VISUALSTYLE
  5
2EDB
102
{ACAD_REACTORS
330
2ECC
102
}
330
2ECC
100
AcDbVisualStyle
  2
Facepattern
 70
    15
177
     3
291
     1
 70
    58
 90
        2
176
     1
 90
        2
176
     1
 90
        0
176
     1
 90
        0
176
     1
 40
0.6
176
     1
 40
30.0
176
     1
 62
     7
420
 16777215
176
     1
 90
        1
176
     1
 90
        4
176
     1
 62
     7
176
     1
 62
   257
176
     1
 90
        1
176
     1
 90
        1
176
     1
 40
1.0
176
     1
 90
        8
176
     1
 62
     7
176
     1
 40
1.0
176
     1
 90
        1
176
     1
 90
        6
176
     1
 90
        2
176
     1
 62
     7
176
     1
 90
        5
176
     1
 90
        0
176
     1
 90
        0
176
     1
290
     0
176
     1
 90
        1
176
     1
 40
0.0
176
     1
 90
        0
176
     1
290
     0
176
     1
290
     1
176
     1
290
     1
176
     1
290
     0
176
     1
290
     0
176
     1
290
     0
176
     1
290
     0
176
     1
290
     0
176
     1
290
     0
176
     1
 90
       50
176
     1
 40
0.0
176
     1
 40
1.0
176
     1
 90
        0
176
     1
 62
   178
420
        0
176
     1
 90
       50
176
     1
 90
        3
176
     1
 62
     5
420
      255
176
     1
290
     0
176
     1
 90
       50
176
     1
 90
       50
176
     1
 90
       50
176
     1
290
     0
176
     1
 90
       50
176
     1
 62
   256
176
     0
 40
1.0
176
     0
 90
        2
176
     1
  1
strokes_ogs.tif
176
     1
290
     0
176
     1
 40
1.0
176
     1
 40
1.0
176
     1
  0
VISUALSTYLE
  5
2ECD
102
{ACAD_REACTORS
330
2ECC
102
}
330
2ECC
100
AcDbVisualStyle
  2
Flat
 70
     0
177
     3
291
     1
 70
    58
 90
        2
176
     1
 90
        1
176
     1
 90
        1
176
     1
 90
        2
176
     1
 40
0.6
176
     1
 40
30.0
176
     1
 62
     7
420
 16777215
176
     1
 90
        0
176
     1
 90
        0
176
     1
 62
     7
176
     1
 62
   257
176
     1
 90
        1
176
     1
 90
        1
176
     1
 40
1.0
176
     1
 90
        8
176
     1
 62
     7
176
     1
 40
1.0
176
     1
 90
        1
176
     1
 90
        6
176
     1
 90
        2
176
     1
 62
     7
176
     1
 90
        5
176
     1
 90
        0
176
     1
 90
        0
176
     1
290
     0
176
     1
 90
       13
176
     1
 40
0.0
176
     1
 90
        0
176
     1
290
     0
176
     1
290
     1
176
     1
290
     1
176
     1
290
     0
176
     1
290
     0
176
     1
290
     0
176
     1
290
     0
176
     1
290
     0
176
     1
290
     0
176
     1
 90
       50
176
     1
 40
0.0
176
     1
 40
1.0
176
     1
 90
        0
176
     1
 62
   178
420
        0
176
     1
 90
       50
176
     1
 90
        3
176
     1
 62
     5
420
      255
176
     1
290
     0
176
     1
 90
       50
176
     1
 90
       50
176
     1
 90
       50
176
     1
290
     0
176
     1
 90
       50
176
     1
 62
   256
176
     0
 40
1.0
176
     0
 90
        2
176
     1
  1
strokes_ogs.tif
176
     1
290
     0
176
     1
 40
1.0
176
     1
 40
1.0
176
     1
  0
VISUALSTYLE
  5
2ECE
102
{ACAD_REACTORS
330
2ECC
102
}
330
2ECC
100
AcDbVisualStyle
  2
FlatWithEdges
 70
     1
177
     3
291
     1
 70
    58
 90
        2
176
     1
 90
        1
176
     1
 90
        1
176
     1
 90
        2
176
     1
 40
0.6
176
     1
 40
30.0
176
     1
 62
     7
420
 16777215
176
     1
 90
        1
176
     1
 90
        0
176
     1
 62
     7
176
     1
 62
   257
176
     1
 90
        1
176
     1
 90
        1
176
     1
 40
1.0
176
     1
 90
        0
176
     1
 62
   257
176
     1
 40
1.0
176
     1
 90
        1
176
     1
 90
        6
176
     1
 90
        2
176
     1
 62
     7
176
     1
 90
        5
176
     1
 90
        0
176
     1
 90
        0
176
     1
290
     0
176
     1
 90
       13
176
     1
 40
0.0
176
     1
 90
        0
176
     1
290
     0
176
     1
290
     1
176
     1
290
     1
176
     1
290
     0
176
     1
290
     0
176
     1
290
     0
176
     1
290
     0
176
     1
290
     0
176
     1
290
     0
176
     1
 90
       50
176
     1
 40
0.0
176
     1
 40
1.0
176
     1
 90
        0
176
     1
 62
   178
420
        0
176
     1
 90
       50
176
     1
 90
        3
176
     1
 62
     5
420
      255
176
     1
290
     0
176
     1
 90
       50
176
     1
 90
       50
176
     1
 90
       50
176
     1
290
     0
176
     1
 90
       50
176
     1
 62
   256
176
     0
 40
1.0
176
     0
 90
        2
176
     1
  1
strokes_ogs.tif
176
     1
290
     0
176
     1
 40
1.0
176
     1
 40
1.0
176
     1
  0
VISUALSTYLE
  5
2ECF
102
{ACAD_REACTORS
330
2ECC
102
}
330
2ECC
100
AcDbVisualStyle
  2
Gouraud
 70
     2
177
     3
291
     1
 70
    58
 90
        2
176
     1
 90
        2
176
     1
 90
        1
176
     1
 90
        2
176
     1
 40
0.6
176
     1
 40
30.0
176
     1
 62
     7
420
 16777215
176
     1
 90
        0
176
     1
 90
        0
176
     1
 62
     7
176
     1
 62
   257
176
     1
 90
        1
176
     1
 90
        1
176
     1
 40
1.0
176
     1
 90
        0
176
     1
 62
     7
176
     1
 40
1.0
176
     1
 90
        1
176
     1
 90
        6
176
     1
 90
        2
176
     1
 62
     7
176
     1
 90
        5
176
     1
 90
        0
176
     1
 90
        0
176
     1
290
     0
176
     1
 90
       13
176
     1
 40
0.0
176
     1
 90
        0
176
     1
290
     0
176
     1
290
     1
176
     1
290
     1
176
     1
290
     0
176
     1
290
     0
176
     1
290
     0
176
     1
290
     0
176
     1
290
     0
176
     1
290
     0
176
     1
 90
       50
176
     1
 40
0.0
176
     1
 40
1.0
176
     1
 90
        0
176
     1
 62
   178
420
        0
176
     1
 90
       50
176
     1
 90
        3
176
     1
 62
     5
420
      255
176
     1
290
     0
176
     1
 90
       50
176
     1
 90
       50
176
     1
 90
       50
176
     1
290
     0
176
     1
 90
       50
176
     1
 62
   256
176
     0
 40
1.0
176
     0
 90
        2
176
     1
  1
strokes_ogs.tif
176
     1
290
     0
176
     1
 40
1.0
176
     1
 40
1.0
176
     1
  0
VISUALSTYLE
  5
2ED0
102
{ACAD_REACTORS
330
2ECC
102
}
330
2ECC
100
AcDbVisualStyle
  2
GouraudWithEdges
 70
     3
177
     3
291
     1
 70
    58
 90
        2
176
     1
 90
        2
176
     1
 90
        1
176
     1
 90
        2
176
     1
 40
0.6
176
     1
 40
30.0
176
     1
 62
     7
420
 16777215
176
     1
 90
        1
176
     1
 90
        0
176
     1
 62
     7
176
     1
 62
   257
176
     1
 90
        1
176
     1
 90
        1
176
     1
 40
1.0
176
     1
 90
        0
176
     1
 62
   257
176
     1
 40
1.0
176
     1
 90
        1
176
     1
 90
        6
176
     1
 90
        2
176
     1
 62
     7
176
     1
 90
        5
176
     1
 90
        0
176
     1
 90
        0
176
     1
290
     0
176
     1
 90
       13
176
     1
 40
0.0
176
     1
 90
        0
176
     1
290
     0
176
     1
290
     1
176
     1
290
     1
176
     1
290
     0
176
     1
290
     0
176
     1
290
     0
176
     1
290
     0
176
     1
290
     0
176
     1
290
     0
176
     1
 90
       50
176
     1
 40
0.0
176
     1
 40
1.0
176
     1
 90
        0
176
     1
 62
   178
420
        0
176
     1
 90
       50
176
     1
 90
        3
176
     1
 62
     5
420
      255
176
     1
290
     0
176
     1
 90
       50
176
     1
 90
       50
176
     1
 90
       50
176
     1
290
     0
176
     1
 90
       50
176
     1
 62
   256
176
     0
 40
1.0
176
     0
 90
        2
176
     1
  1
strokes_ogs.tif
176
     1
290
     0
176
     1
 40
1.0
176
     1
 40
1.0
176
     1
  0
VISUALSTYLE
  5
2ED3
102
{ACAD_REACTORS
330
2ECC
102
}
330
2ECC
100
AcDbVisualStyle
  2
Hidden
 70
     6
177
     3
291
     0
 70
    58
 90
        1
176
     1
 90
        2
176
     1
 90
        2
176
     1
 90
        0
176
     1
 40
0.6
176
     1
 40
30.0
176
     1
 62
     7
420
 16777215
176
     1
 90
        2
176
     1
 90
        2
176
     1
 62
     7
176
     1
 62
   257
176
     1
 90
        2
176
     1
 90
        1
176
     1
 40
40.0
176
     1
 90
        0
176
     1
 62
   257
176
     1
 40
1.0
176
     1
 90
        1
176
     1
 90
        6
176
     1
 90
        2
176
     1
 62
     7
176
     1
 90
        3
176
     1
 90
        0
176
     1
 90
        0
176
     1
290
     0
176
     1
 90
        1
176
     1
 40
0.0
176
     1
 90
        0
176
     1
290
     0
176
     1
290
     1
176
     1
290
     1
176
     1
290
     0
176
     1
290
     0
176
     1
290
     0
176
     1
290
     0
176
     1
290
     0
176
     1
290
     0
176
     1
 90
       50
176
     1
 40
0.0
176
     1
 40
1.0
176
     1
 90
        0
176
     1
 62
   178
420
        0
176
     1
 90
       50
176
     1
 90
        3
176
     1
 62
     5
420
      255
176
     1
290
     0
176
     1
 90
       50
176
     1
 90
       50
176
     1
 90
       50
176
     1
290
     0
176
     1
 90
       50
176
     1
 62
   256
176
     0
 40
1.0
176
     0
 90
        2
176
     1
  1
strokes_ogs.tif
176
     1
290
     0
176
     1
 40
1.0
176
     1
 40
1.0
176
     1
  0
VISUALSTYLE
  5
2EDD
102
{ACAD_REACTORS
330
2ECC
102
}
330
2ECC
100
AcDbVisualStyle
  2
JitterOff
 70
    20
177
     3
291
     1
 70
    58
 90
        2
176
     0
 90
        2
176
     0
 90
        0
176
     0
 90
        0
176
     0
 40
0.6
176
     0
 40
30.0
176
     0
 62
     7
420
 16777215
176
     0
 90
        1
176
     0
 90
        4
176
     0
 62
     7
176
     0
 62
   257
176
     0
 90
        1
176
     0
 90
        1
176
     0
 40
1.0
176
     0
 90
       10
176
     2
 62
     7
176
     0
 40
1.0
176
     0
 90
        1
176
     0
 90
        6
176
     0
 90
        2
176
     0
 62
     7
176
     0
 90
        5
176
     0
 90
        0
176
     0
 90
        0
176
     0
290
     0
176
     0
 90
        1
176
     0
 40
0.0
176
     0
 90
        0
176
     0
290
     0
176
     0
290
     1
176
     0
290
     1
176
     0
290
     0
176
     0
290
     0
176
     0
290
     0
176
     0
290
     0
176
     0
290
     0
176
     0
290
     0
176
     0
 90
       50
176
     0
 40
0.0
176
     0
 40
1.0
176
     0
 90
        0
176
     0
 62
   178
420
        0
176
     0
 90
       50
176
     0
 90
        3
176
     0
 62
     5
420
      255
176
     0
290
     0
176
     0
 90
       50
176
     0
 90
       50
176
     0
 90
       50
176
     0
290
     0
176
     0
 90
       50
176
     0
 62
   256
176
     0
 40
1.0
176
     0
 90
        2
176
     0
  1
strokes_ogs.tif
176
     0
290
     0
176
     0
 40
1.0
176
     0
 40
1.0
176
     0
  0
VISUALSTYLE
  5
2EDA
102
{ACAD_REACTORS
330
2ECC
102
}
330
2ECC
100
AcDbVisualStyle
  2
Linepattern
 70
    14
177
     3
291
     1
 70
    58
 90
        2
176
     1
 90
        2
176
     1
 90
        0
176
     1
 90
        0
176
     1
 40
0.6
176
     1
 40
30.0
176
     1
 62
     7
420
 16777215
176
     1
 90
        1
176
     1
 90
        4
176
     1
 62
     7
176
     1
 62
   257
176
     1
 90
        7
176
     1
 90
        7
176
     1
 40
1.0
176
     1
 90
        8
176
     1
 62
     7
176
     1
 40
1.0
176
     1
 90
        1
176
     1
 90
        6
176
     1
 90
        2
176
     1
 62
     7
176
     1
 90
        5
176
     1
 90
        0
176
     1
 90
        0
176
     1
290
     0
176
     1
 90
        1
176
     1
 40
0.0
176
     1
 90
        0
176
     1
290
     0
176
     1
290
     1
176
     1
290
     1
176
     1
290
     0
176
     1
290
     0
176
     1
290
     0
176
     1
290
     0
176
     1
290
     0
176
     1
290
     0
176
     1
 90
       50
176
     1
 40
0.0
176
     1
 40
1.0
176
     1
 90
        0
176
     1
 62
   178
420
        0
176
     1
 90
       50
176
     1
 90
        3
176
     1
 62
     5
420
      255
176
     1
290
     0
176
     1
 90
       50
176
     1
 90
       50
176
     1
 90
       50
176
     1
290
     0
176
     1
 90
       50
176
     1
 62
   256
176
     0
 40
1.0
176
     0
 90
        2
176
     1
  1
strokes_ogs.tif
176
     1
290
     0
176
     1
 40
1.0
176
     1
 40
1.0
176
     1
  0
VISUALSTYLE
  5
2EDE
102
{ACAD_REACTORS
330
2ECC
102
}
330
2ECC
100
AcDbVisualStyle
  2
OverhangOff
 70
    21
177
     3
291
     1
 70
    58
 90
        2
176
     0
 90
        2
176
     0
 90
        0
176
     0
 90
        0
176
     0
 40
0.6
176
     0
 40
30.0
176
     0
 62
     7
420
 16777215
176
     0
 90
        1
176
     0
 90
        4
176
     0
 62
     7
176
     0
 62
   257
176
     0
 90
        1
176
     0
 90
        1
176
     0
 40
1.0
176
     0
 90
        9
176
     2
 62
     7
176
     0
 40
1.0
176
     0
 90
        1
176
     0
 90
        6
176
     0
 90
        2
176
     0
 62
     7
176
     0
 90
        5
176
     0
 90
        0
176
     0
 90
        0
176
     0
290
     0
176
     0
 90
        1
176
     0
 40
0.0
176
     0
 90
        0
176
     0
290
     0
176
     0
290
     1
176
     0
290
     1
176
     0
290
     0
176
     0
290
     0
176
     0
290
     0
176
     0
290
     0
176
     0
290
     0
176
     0
290
     0
176
     0
 90
       50
176
     0
 40
0.0
176
     0
 40
1.0
176
     0
 90
        0
176
     0
 62
   178
420
        0
176
     0
 90
       50
176
     0
 90
        3
176
     0
 62
     5
420
      255
176
     0
290
     0
176
     0
 90
       50
176
     0
 90
       50
176
     0
 90
       50
176
     0
290
     0
176
     0
 90
       50
176
     0
 62
   256
176
     0
 40
1.0
176
     0
 90
        2
176
     0
  1
strokes_ogs.tif
176
     0
290
     0
176
     0
 40
1.0
176
     0
 40
1.0
176
     0
  0
VISUALSTYLE
  5
2ED5
102
{ACAD_REACTORS
330
2ECC
102
}
330
2ECC
100
AcDbVisualStyle
  2
Realistic
 70
     8
177
     3
291
     0
 70
    58
 90
        2
176
     1
 90
        3
176
     1
 90
        0
176
     1
 90
        2
176
     1
 40
0.6
176
     1
 40
30.0
176
     1
 62
     7
420
 16777215
176
     1
 90
        0
176
     1
 90
        0
176
     1
 62
     7
176
     1
 62
   257
176
     1
 90
        1
176
     1
 90
        1
176
     1
 40
1.0
176
     1
 90
        8
176
     1
 62
   257
176
     1
 40
1.0
176
     1
 90
        1
176
     1
 90
        6
176
     1
 90
        2
176
     1
 62
     7
176
     1
 90
        3
176
     1
 90
        0
176
     1
 90
        0
176
     1
290
     0
176
     1
 90
       13
176
     1
 40
0.0
176
     1
 90
        0
176
     1
290
     0
176
     1
290
     1
176
     1
290
     1
176
     1
290
     0
176
     1
290
     0
176
     1
290
     0
176
     1
290
     0
176
     1
290
     0
176
     1
290
     0
176
     1
 90
       50
176
     1
 40
0.0
176
     1
 40
1.0
176
     1
 90
        0
176
     1
 62
   178
420
        0
176
     1
 90
       50
176
     1
 90
        3
176
     1
 62
     5
420
      255
176
     1
290
     0
176
     1
 90
       50
176
     1
 90
       50
176
     1
 90
       50
176
     1
290
     0
176
     1
 90
       50
176
     1
 62
   256
176
     0
 40
1.0
176
     0
 90
        2
176
     1
  1
strokes_ogs.tif
176
     1
290
     0
176
     1
 40
1.0
176
     1
 40
1.0
176
     1
  0
VISUALSTYLE
  5
2EE4
102
{ACAD_REACTORS
330
2ECC
102
}
330
2ECC
100
AcDbVisualStyle
  2
Shaded
 70
    27
177
     3
291
     0
 70
    58
 90
        2
176
     1
 90
        2
176
     1
 90
        1
176
     1
 90
        2
176
     1
 40
0.6
176
     1
 40
30.0
176
     1
 62
     7
420
 16777215
176
     1
 90
        0
176
     1
 90
        4
176
     1
 62
     7
176
     1
 62
   257
176
     1
 90
        1
176
     1
 90
        1
176
     1
 40
1.0
176
     1
 90
        8
176
     1
 62
   257
176
     1
 40
1.0
176
     1
 90
        1
176
     1
 90
        6
176
     1
 90
        2
176
     1
 62
     8
420
  7895160
176
     1
 90
        3
176
     1
 90
        0
176
     1
 90
        0
176
     1
290
     0
176
     1
 90
        5
176
     1
 40
0.0
176
     1
 90
        0
176
     1
290
     0
176
     1
290
     1
176
     1
290
     1
176
     1
290
     0
176
     1
290
     0
176
     1
290
     0
176
     1
290
     0
176
     1
290
     0
176
     1
290
     0
176
     1
 90
       50
176
     1
 40
0.0
176
     1
 40
1.0
176
     1
 90
        0
176
     1
 62
   178
420
        0
176
     1
 90
       50
176
     1
 90
        3
176
     1
 62
     5
420
      255
176
     1
290
     0
176
     1
 90
       50
176
     1
 90
       50
176
     1
 90
       50
176
     1
290
     0
176
     1
 90
       50
176
     1
 62
   256
176
     0
 40
1.0
176
     0
 90
        2
176
     1
  1
strokes_ogs.tif
176
     1
290
     0
176
     1
 40
1.0
176
     1
 40
1.0
176
     1
  0
VISUALSTYLE
  5
2EE3
102
{ACAD_REACTORS
330
2ECC
102
}
330
2ECC
100
AcDbVisualStyle
  2
Shaded with edges
 70
    26
177
     3
291
     0
 70
    58
 90
        2
176
     1
 90
        2
176
     1
 90
        1
176
     1
 90
        2
176
     1
 40
0.6
176
     1
 40
30.0
176
     1
 62
     7
420
 16777215
176
     1
 90
        1
176
     1
 90
       10
176
     1
 62
     7
176
     1
 62
   257
176
     1
 90
        2
176
     1
 90
        1
176
     1
 40
1.0
176
     1
 90
        8
176
     1
 62
   257
176
     1
 40
1.0
176
     1
 90
        1
176
     1
 90
        6
176
     1
 90
        2
176
     1
 62
     7
176
     1
 90
        3
176
     1
 90
        0
176
     1
 90
        0
176
     1
290
     0
176
     1
 90
        5
176
     1
 40
0.0
176
     1
 90
        0
176
     1
290
     0
176
     1
290
     1
176
     1
290
     1
176
     1
290
     0
176
     1
290
     0
176
     1
290
     0
176
     1
290
     0
176
     1
290
     0
176
     1
290
     0
176
     1
 90
       50
176
     1
 40
0.0
176
     1
 40
1.0
176
     1
 90
        0
176
     1
 62
   178
420
        0
176
     1
 90
       50
176
     1
 90
        3
176
     1
 62
     5
420
      255
176
     1
290
     0
176
     1
 90
       50
176
     1
 90
       50
176
     1
 90
       50
176
     1
290
     0
176
     1
 90
       50
176
     1
 62
   256
176
     0
 40
1.0
176
     0
 90
        2
176
     1
  1
strokes_ogs.tif
176
     1
290
     0
176
     1
 40
1.0
176
     1
 40
1.0
176
     1
  0
VISUALSTYLE
  5
2EE0
102
{ACAD_REACTORS
330
2ECC
102
}
330
2ECC
100
AcDbVisualStyle
  2
Shades of Gray
 70
    23
177
     3
291
     0
 70
    58
 90
        2
176
     1
 90
        2
176
     1
 90
        3
176
     1
 90
        0
176
     1
 40
0.6
176
     1
 40
30.0
176
     1
 62
     7
420
 16777215
176
     1
 90
        2
176
     1
 90
        2
176
     1
 62
     7
176
     1
 62
     7
176
     1
 90
        1
176
     1
 90
        1
176
     1
 40
40.0
176
     1
 90
        8
176
     1
 62
     7
176
     1
 40
1.0
176
     1
 90
        1
176
     1
 90
        6
176
     1
 90
        2
176
     1
 62
     7
176
     1
 90
        3
176
     1
 90
        0
176
     1
 90
        0
176
     1
290
     0
176
     1
 90
        1
176
     1
 40
0.0
176
     1
 90
        0
176
     1
290
     0
176
     1
290
     1
176
     1
290
     1
176
     1
290
     0
176
     1
290
     0
176
     1
290
     0
176
     1
290
     0
176
     1
290
     0
176
     1
290
     0
176
     1
 90
       50
176
     1
 40
0.0
176
     1
 40
1.0
176
     1
 90
        0
176
     1
 62
   178
420
        0
176
     1
 90
       50
176
     1
 90
        3
176
     1
 62
     5
420
      255
176
     1
290
     0
176
     1
 90
       50
176
     1
 90
       50
176
     1
 90
       50
176
     1
290
     0
176
     1
 90
       50
176
     1
 62
   256
176
     0
 40
1.0
176
     0
 90
        2
176
     1
  1
strokes_ogs.tif
176
     1
290
     0
176
     1
 40
1.0
176
     1
 40
1.0
176
     1
  0
VISUALSTYLE
  5
2EE1
102
{ACAD_REACTORS
330
2ECC
102
}
330
2ECC
100
AcDbVisualStyle
  2
Sketchy
 70
    24
177
     3
291
     0
 70
    58
 90
        1
176
     1
 90
        2
176
     1
 90
        2
176
     1
 90
        0
176
     1
 40
0.6
176
     1
 40
30.0
176
     1
 62
     7
420
 16777215
176
     1
 90
        2
176
     1
 90
        2
176
     1
 62
     7
176
     1
 62
     7
176
     1
 90
        1
176
     1
 90
        1
176
     1
 40
40.0
176
     1
 90
       11
176
     1
 62
     7
176
     1
 40
1.0
176
     1
 90
        1
176
     1
 90
        6
176
     1
 90
        2
176
     1
 62
     7
176
     1
 90
        6
176
     1
 90
        0
176
     1
 90
        0
176
     1
290
     0
176
     1
 90
        1
176
     1
 40
0.0
176
     1
 90
        0
176
     1
290
     0
176
     1
290
     1
176
     1
290
     1
176
     1
290
     0
176
     1
290
     0
176
     1
290
     0
176
     1
290
     0
176
     1
290
     0
176
     1
290
     0
176
     1
 90
       50
176
     1
 40
0.0
176
     1
 40
1.0
176
     1
 90
        0
176
     1
 62
   178
420
        0
176
     1
 90
       50
176
     1
 90
        3
176
     1
 62
     5
420
      255
176
     1
290
     0
176
     1
 90
       50
176
     1
 90
       50
176
     1
 90
       50
176
     1
290
     0
176
     1
 90
       50
176
     1
 62
   256
176
     0
 40
1.0
176
     0
 90
        2
176
     1
  1
strokes_ogs.tif
176
     1
290
     0
176
     1
 40
1.0
176
     1
 40
1.0
176
     1
  0
VISUALSTYLE
  5
2ED9
102
{ACAD_REACTORS
330
2ECC
102
}
330
2ECC
100
AcDbVisualStyle
  2
Thicken
 70
    13
177
     3
291
     1
 70
    58
 90
        2
176
     1
 90
        2
176
     1
 90
        0
176
     1
 90
        0
176
     1
 40
0.6
176
     1
 40
30.0
176
     1
 62
     7
420
 16777215
176
     1
 90
        1
176
     1
 90
        4
176
     1
 62
     7
176
     1
 62
   257
176
     1
 90
        1
176
     1
 90
        1
176
     1
 40
1.0
176
     1
 90
       12
176
     1
 62
     7
176
     1
 40
1.0
176
     1
 90
        1
176
     1
 90
        6
176
     1
 90
        2
176
     1
 62
     7
176
     1
 90
        5
176
     1
 90
        0
176
     1
 90
        0
176
     1
290
     0
176
     1
 90
        1
176
     1
 40
0.0
176
     1
 90
        0
176
     1
290
     0
176
     1
290
     1
176
     1
290
     1
176
     1
290
     0
176
     1
290
     0
176
     1
290
     0
176
     1
290
     0
176
     1
290
     0
176
     1
290
     0
176
     1
 90
       50
176
     1
 40
0.0
176
     1
 40
1.0
176
     1
 90
        0
176
     1
 62
   178
420
        0
176
     1
 90
       50
176
     1
 90
        3
176
     1
 62
     5
420
      255
176
     1
290
     0
176
     1
 90
       50
176
     1
 90
       50
176
     1
 90
       50
176
     1
290
     0
176
     1
 90
       50
176
     1
 62
   256
176
     0
 40
1.0
176
     0
 90
        2
176
     1
  1
strokes_ogs.tif
176
     1
290
     0
176
     1
 40
1.0
176
     1
 40
1.0
176
     1
  0
VISUALSTYLE
  5
2ED2
102
{ACAD_REACTORS
330
2ECC
102
}
330
2ECC
100
AcDbVisualStyle
  2
Wireframe
 70
     5
177
     3
291
     0
 70
    58
 90
        0
176
     1
 90
        2
176
     1
 90
        0
176
     1
 90
        0
176
     1
 40
0.6
176
     1
 40
30.0
176
     1
 62
     7
420
 16777215
176
     1
 90
        1
176
     1
 90
        4
176
     1
 62
     7
176
     1
 62
   257
176
     1
 90
        1
176
     1
 90
        1
176
     1
 40
1.0
176
     1
 90
        0
176
     1
 62
   257
176
     1
 40
1.0
176
     1
 90
        1
176
     1
 90
        6
176
     1
 90
        2
176
     1
 62
     7
176
     1
 90
        3
176
     1
 90
        0
176
     1
 90
        0
176
     1
290
     0
176
     1
 90
        1
176
     1
 40
0.0
176
     1
 90
        0
176
     1
290
     0
176
     1
290
     1
176
     1
290
     1
176
     1
290
     0
176
     1
290
     0
176
     1
290
     0
176
     1
290
     0
176
     1
290
     0
176
     1
290
     0
176
     1
 90
       50
176
     1
 40
0.0
176
     1
 40
1.0
176
     1
 90
        0
176
     1
 62
   178
420
        0
176
     1
 90
       50
176
     1
 90
        3
176
     1
 62
     5
420
      255
176
     1
290
     0
176
     1
 90
       50
176
     1
 90
       50
176
     1
 90
       50
176
     1
290
     0
176
     1
 90
       50
176
     1
 62
   256
176
     0
 40
1.0
176
     0
 90
        2
176
     1
  1
strokes_ogs.tif
176
     1
290
     0
176
     1
 40
1.0
176
     1
 40
1.0
176
     1
  0
VISUALSTYLE
  5
2EE2
102
{ACAD_REACTORS
330
2ECC
102
}
330
2ECC
100
AcDbVisualStyle
  2
X-Ray
 70
    25
177
     3
291
     0
 70
    58
 90
        2
176
     1
 90
        2
176
     1
 90
        1
176
     1
 90
        1
176
     1
 40
0.5
176
     1
 40
30.0
176
     1
 62
     7
420
 16777215
176
     1
 90
        1
176
     1
 90
        0
176
     1
 62
     7
176
     1
 62
   257
176
     1
 90
        1
176
     1
 90
        1
176
     1
 40
1.0
176
     1
 90
        8
176
     1
 62
     7
176
     1
 40
1.0
176
     1
 90
        1
176
     1
 90
        6
176
     1
 90
        2
176
     1
 62
     7
176
     1
 90
        3
176
     1
 90
        0
176
     1
 90
        0
176
     1
290
     0
176
     1
 90
       13
176
     1
 40
0.0
176
     1
 90
        0
176
     1
290
     0
176
     1
290
     1
176
     1
290
     1
176
     1
290
     0
176
     1
290
     0
176
     1
290
     0
176
     1
290
     0
176
     1
290
     0
176
     1
290
     0
176
     1
 90
       50
176
     1
 40
0.0
176
     1
 40
1.0
176
     1
 90
        0
176
     1
 62
   178
420
        0
176
     1
 90
       50
176
     1
 90
        3
176
     1
 62
     5
420
      255
176
     1
290
     0
176
     1
 90
       50
176
     1
 90
       50
176
     1
 90
       50
176
     1
290
     0
176
     1
 90
       50
176
     1
 62
   256
176
     0
 40
1.0
176
     0
 90
        2
176
     1
  1
strokes_ogs.tif
176
     1
290
     0
176
     1
 40
1.0
176
     1
 40
1.0
176
     1
  0
DICTIONARYVAR
  5
2F12
102
{ACAD_REACTORS
330
86
102
}
330
86
100
DictionaryVariables
280
     0
  1
1:1
  0
DICTIONARYVAR
  5
2F17
102
{ACAD_REACTORS
330
86
102
}
330
86
100
DictionaryVariables
280
     0
  1
Standard
  0
DICTIONARYVAR
  5
2F16
102
{ACAD_REACTORS
330
86
102
}
330
86
100
DictionaryVariables
280
     0
  1
Standard
  0
DICTIONARYVAR
  5
87
102
{ACAD_REACTORS
330
86
102
}
330
86
100
DictionaryVariables
280
     0
  1
0
  0
DICTIONARYVAR
  5
2F18
102
{ACAD_REACTORS
330
86
102
}
330
86
100
DictionaryVariables
280
     0
  1
0
  0
DICTIONARY
  5
2F13
330
2F0C
100
AcDbDictionary
280
     1
281
     1
  3
ACAD_ROUNDTRIP_2008_TABLESTYLE_CELLSTYLEMAP
360
2F14
  0
CELLSTYLEMAP
  5
2F14
102
{ACAD_REACTORS
330
2F13
102
}
330
2F13
100
AcDbCellStyleMap
 90
        3
300
CELLSTYLE
  1
TABLEFORMAT_BEGIN
 90
        5
170
     1
 91
        0
 92
    32768
 62
   257
 93
        1
300
CONTENTFORMAT
  1
CONTENTFORMAT_BEGIN
 90
        0
 91
        0
 92
        4
 93
        0
300

 40
0.0
140
1.0
 94
        5
 62
     0
340
29
144
0.25
309
CONTENTFORMAT_END
171
     1
301
MARGIN
  1
CELLMARGIN_BEGIN
 40
0.06
 40
0.06
 40
0.06
 40
0.06
 40
0.06
 40
0.06
309
CELLMARGIN_END
 94
        6
 95
        1
302
GRIDFORMAT
  1
GRIDFORMAT_BEGIN
 90
        0
 91
        1
 62
     0
 92
       -2
340
26
 93
        0
 40
0.045
309
GRIDFORMAT_END
 95
        2
302
GRIDFORMAT
  1
GRIDFORMAT_BEGIN
 90
        0
 91
        1
 62
     0
 92
       -2
340
26
 93
        0
 40
0.045
309
GRIDFORMAT_END
 95
        4
302
GRIDFORMAT
  1
GRIDFORMAT_BEGIN
 90
        0
 91
        1
 62
     0
 92
       -2
340
26
 93
        0
 40
0.045
309
GRIDFORMAT_END
 95
        8
302
GRIDFORMAT
  1
GRIDFORMAT_BEGIN
 90
        0
 91
        1
 62
     0
 92
       -2
340
26
 93
        0
 40
0.045
309
GRIDFORMAT_END
 95
       16
302
GRIDFORMAT
  1
GRIDFORMAT_BEGIN
 90
        0
 91
        1
 62
     0
 92
       -2
340
26
 93
        0
 40
0.045
309
GRIDFORMAT_END
 95
       32
302
GRIDFORMAT
  1
GRIDFORMAT_BEGIN
 90
        0
 91
        1
 62
     0
 92
       -2
340
26
 93
        0
 40
0.045
309
GRIDFORMAT_END
309
TABLEFORMAT_END
  1
CELLSTYLE_BEGIN
 90
        1
 91
        1
300
_TITLE
309
CELLSTYLE_END
300
CELLSTYLE
  1
TABLEFORMAT_BEGIN
 90
        5
170
     1
 91
        0
 92
        0
 62
   257
 93
        1
300
CONTENTFORMAT
  1
CONTENTFORMAT_BEGIN
 90
        0
 91
        0
 92
        4
 93
        0
300

 40
0.0
140
1.0
 94
        5
 62
     0
340
29
144
0.18
309
CONTENTFORMAT_END
171
     1
301
MARGIN
  1
CELLMARGIN_BEGIN
 40
0.06
 40
0.06
 40
0.06
 40
0.06
 40
0.06
 40
0.06
309
CELLMARGIN_END
 94
        6
 95
        1
302
GRIDFORMAT
  1
GRIDFORMAT_BEGIN
 90
        0
 91
        1
 62
     0
 92
       -2
340
26
 93
        0
 40
0.045
309
GRIDFORMAT_END
 95
        2
302
GRIDFORMAT
  1
GRIDFORMAT_BEGIN
 90
        0
 91
        1
 62
     0
 92
       -2
340
26
 93
        0
 40
0.045
309
GRIDFORMAT_END
 95
        4
302
GRIDFORMAT
  1
GRIDFORMAT_BEGIN
 90
        0
 91
        1
 62
     0
 92
       -2
340
26
 93
        0
 40
0.045
309
GRIDFORMAT_END
 95
        8
302
GRIDFORMAT
  1
GRIDFORMAT_BEGIN
 90
        0
 91
        1
 62
     0
 92
       -2
340
26
 93
        0
 40
0.045
309
GRIDFORMAT_END
 95
       16
302
GRIDFORMAT
  1
GRIDFORMAT_BEGIN
 90
        0
 91
        1
 62
     0
 92
       -2
340
26
 93
        0
 40
0.045
309
GRIDFORMAT_END
 95
       32
302
GRIDFORMAT
  1
GRIDFORMAT_BEGIN
 90
        0
 91
        1
 62
     0
 92
       -2
340
26
 93
        0
 40
0.045
309
GRIDFORMAT_END
309
TABLEFORMAT_END
  1
CELLSTYLE_BEGIN
 90
        2
 91
        1
300
_HEADER
309
CELLSTYLE_END
300
CELLSTYLE
  1
TABLEFORMAT_BEGIN
 90
        5
170
     1
 91
        0
 92
        0
 62
   257
 93
        1
300
CONTENTFORMAT
  1
CONTENTFORMAT_BEGIN
 90
        0
 91
        0
 92
        4
 93
        0
300

 40
0.0
140
1.0
 94
        2
 62
     0
340
29
144
0.18
309
CONTENTFORMAT_END
171
     1
301
MARGIN
  1
CELLMARGIN_BEGIN
 40
0.06
 40
0.06
 40
0.06
 40
0.06
 40
0.06
 40
0.06
309
CELLMARGIN_END
 94
        6
 95
        1
302
GRIDFORMAT
  1
GRIDFORMAT_BEGIN
 90
        0
 91
        1
 62
     0
 92
       -2
340
26
 93
        0
 40
0.045
309
GRIDFORMAT_END
 95
        2
302
GRIDFORMAT
  1
GRIDFORMAT_BEGIN
 90
        0
 91
        1
 62
     0
 92
       -2
340
26
 93
        0
 40
0.045
309
GRIDFORMAT_END
 95
        4
302
GRIDFORMAT
  1
GRIDFORMAT_BEGIN
 90
        0
 91
        1
 62
     0
 92
       -2
340
26
 93
        0
 40
0.045
309
GRIDFORMAT_END
 95
        8
302
GRIDFORMAT
  1
GRIDFORMAT_BEGIN
 90
        0
 91
        1
 62
     0
 92
       -2
340
26
 93
        0
 40
0.045
309
GRIDFORMAT_END
 95
       16
302
GRIDFORMAT
  1
GRIDFORMAT_BEGIN
 90
        0
 91
        1
 62
     0
 92
       -2
340
26
 93
        0
 40
0.045
309
GRIDFORMAT_END
 95
       32
302
GRIDFORMAT
  1
GRIDFORMAT_BEGIN
 90
        0
 91
        1
 62
     0
 92
       -2
340
26
 93
        0
 40
0.045
309
GRIDFORMAT_END
309
TABLEFORMAT_END
  1
CELLSTYLE_BEGIN
 90
        3
 91
        2
300
_DATA
309
CELLSTYLE_END
  0
ENDSEC
  0
EOF
