  0
SECTION
  2
HEADER
  9
$ACADVER
  1
AC1027
  9
$ACADMAINTVER
 70
     8
  9
$DWGCODEPAGE
  3
ANSI_1252
  9
$REQUIREDVERSIONS
160
                 0
  9
$INSBASE
 10
0.0
 20
0.0
 30
0.0
  9
$EXTMIN
 10
233.0328176383955
 20
-52.13555560802064
 30
-605.4881343496629
  9
$EXTMAX
 10
1167.708624094244
 20
1295.938581662866
 30
0.0
  9
$LIMMIN
 10
0.0
 20
0.0
  9
$LIMMAX
 10
12.0
 20
9.0
  9
$ORTHOMODE
 70
     0
  9
$REGENMODE
 70
     1
  9
$FILLMODE
 70
     1
  9
$QTEXTMODE
 70
     0
  9
$MIRRTEXT
 70
     1
  9
$LTSCALE
 40
1.0
  9
$ATTMODE
 70
     1
  9
$TEXTSIZE
 40
5.0
  9
$TRACEWID
 40
0.05
  9
$TEXTSTYLE
  7
STANDARD
  9
$CLAYER
  8
Epure
  9
$CELTYPE
  6
ByLayer
  9
$CECOLOR
 62
   256
  9
$CELTSCALE
 40
1.0
  9
$DISPSILH
 70
     0
  9
$DIMSCALE
 40
1.0
  9
$DIMASZ
 40
0.18
  9
$DIMEXO
 40
0.0625
  9
$DIMDLI
 40
0.38
  9
$DIMRND
 40
0.0
  9
$DIMDLE
 40
0.0
  9
$DIMEXE
 40
0.18
  9
$DIMTP
 40
0.0
  9
$DIMTM
 40
0.0
  9
$DIMTXT
 40
0.18
  9
$DIMCEN
 40
0.09
  9
$DIMTSZ
 40
0.0
  9
$DIMTOL
 70
     0
  9
$DIMLIM
 70
     0
  9
$DIMTIH
 70
     1
  9
$DIMTOH
 70
     1
  9
$DIMSE1
 70
     0
  9
$DIMSE2
 70
     0
  9
$DIMTAD
 70
     0
  9
$DIMZIN
 70
     0
  9
$DIMBLK
  1

  9
$DIMASO
 70
     1
  9
$DIMSHO
 70
     1
  9
$DIMPOST
  1

  9
$DIMAPOST
  1

  9
$DIMALT
 70
     0
  9
$DIMALTD
 70
     2
  9
$DIMALTF
 40
25.4
  9
$DIMLFAC
 40
1.0
  9
$DIMTOFL
 70
     0
  9
$DIMTVP
 40
0.0
  9
$DIMTIX
 70
     0
  9
$DIMSOXD
 70
     0
  9
$DIMSAH
 70
     0
  9
$DIMBLK1
  1

  9
$DIMBLK2
  1

  9
$DIMSTYLE
  2
STANDARD
  9
$DIMCLRD
 70
     0
  9
$DIMCLRE
 70
     0
  9
$DIMCLRT
 70
     0
  9
$DIMTFAC
 40
1.0
  9
$DIMGAP
 40
0.09
  9
$DIMJUST
 70
     0
  9
$DIMSD1
 70
     0
  9
$DIMSD2
 70
     0
  9
$DIMTOLJ
 70
     1
  9
$DIMTZIN
 70
     0
  9
$DIMALTZ
 70
     0
  9
$DIMALTTZ
 70
     0
  9
$DIMUPT
 70
     0
  9
$DIMDEC
 70
     4
  9
$DIMTDEC
 70
     4
  9
$DIMALTU
 70
     2
  9
$DIMALTTD
 70
     2
  9
$DIMTXSTY
  7
STANDARD
  9
$DIMAUNIT
 70
     0
  9
$DIMADEC
 70
    -1
  9
$DIMALTRND
 40
0.0
  9
$DIMAZIN
 70
     0
  9
$DIMDSEP
 70
     0
  9
$DIMATFIT
 70
     3
  9
$DIMFRAC
 70
     0
  9
$DIMLDRBLK
  1

  9
$DIMLUNIT
 70
     2
  9
$DIMLWD
 70
     0
  9
$DIMLWE
 70
     0
  9
$DIMTMOVE
 70
     0
  9
$DIMFXL
 40
1.0
  9
$DIMFXLON
 70
     0
  9
$DIMJOGANG
 40
0.7853981633974483
  9
$DIMTFILL
 70
     0
  9
$DIMTFILLCLR
 70
     0
  9
$DIMARCSYM
 70
     0
  9
$DIMLTYPE
  6

  9
$DIMLTEX1
  6

  9
$DIMLTEX2
  6

  9
$DIMTXTDIRECTION
 70
     0
  9
$LUNITS
 70
     2
  9
$LUPREC
 70
     4
  9
$SKETCHINC
 40
0.1
  9
$FILLETRAD
 40
10.0
  9
$AUNITS
 70
     0
  9
$AUPREC
 70
     2
  9
$MENU
  1
icad
  9
$ELEVATION
 40
0.0
  9
$PELEVATION
 40
0.0
  9
$THICKNESS
 40
0.0
  9
$LIMCHECK
 70
     0
  9
$CHAMFERA
 40
0.0
  9
$CHAMFERB
 40
0.0
  9
$CHAMFERC
 40
0.0
  9
$CHAMFERD
 40
0.0
  9
$SKPOLY
 70
     0
  9
$TDCREATE
 40
2454858.344736956
  9
$TDUCREATE
 40
2454858.30307029
  9
$TDUPDATE
 40
2457128.658298611
  9
$TDUUPDATE
 40
2457128.616631945
  9
$TDINDWG
 40
29.8174766782
  9
$TDUSRTIMER
 40
2457128.616458334
  9
$USRTIMER
 70
     1
  9
$ANGBASE
 50
0.0
  9
$ANGDIR
 70
     0
  9
$PDMODE
 70
     0
  9
$PDSIZE
 40
0.0
  9
$PLINEWID
 40
0.0
  9
$SPLFRAME
 70
     0
  9
$SPLINETYPE
 70
     5
  9
$SPLINESEGS
 70
     8
  9
$HANDSEED
  5
796
  9
$SURFTAB1
 70
     6
  9
$SURFTAB2
 70
     6
  9
$SURFTYPE
 70
     6
  9
$SURFU
 70
     6
  9
$SURFV
 70
     6
  9
$UCSBASE
  2

  9
$UCSNAME
  2

  9
$UCSORG
 10
0.0
 20
0.0
 30
0.0
  9
$UCSXDIR
 10
1.0
 20
0.0
 30
0.0
  9
$UCSYDIR
 10
0.0
 20
1.0
 30
0.0
  9
$UCSORTHOREF
  2

  9
$UCSORTHOVIEW
 70
     0
  9
$UCSORGTOP
 10
0.0
 20
0.0
 30
0.0
  9
$UCSORGBOTTOM
 10
0.0
 20
0.0
 30
0.0
  9
$UCSORGLEFT
 10
0.0
 20
0.0
 30
0.0
  9
$UCSORGRIGHT
 10
0.0
 20
0.0
 30
0.0
  9
$UCSORGFRONT
 10
0.0
 20
0.0
 30
0.0
  9
$UCSORGBACK
 10
0.0
 20
0.0
 30
0.0
  9
$PUCSBASE
  2

  9
$PUCSNAME
  2

  9
$PUCSORG
 10
0.0
 20
0.0
 30
0.0
  9
$PUCSXDIR
 10
1.0
 20
0.0
 30
0.0
  9
$PUCSYDIR
 10
0.0
 20
1.0
 30
0.0
  9
$PUCSORTHOREF
  2

  9
$PUCSORTHOVIEW
 70
     0
  9
$PUCSORGTOP
 10
0.0
 20
0.0
 30
0.0
  9
$PUCSORGBOTTOM
 10
0.0
 20
0.0
 30
0.0
  9
$PUCSORGLEFT
 10
0.0
 20
0.0
 30
0.0
  9
$PUCSORGRIGHT
 10
0.0
 20
0.0
 30
0.0
  9
$PUCSORGFRONT
 10
0.0
 20
0.0
 30
0.0
  9
$PUCSORGBACK
 10
0.0
 20
0.0
 30
0.0
  9
$USERI1
 70
     0
  9
$USERI2
 70
     0
  9
$USERI3
 70
     0
  9
$USERI4
 70
     0
  9
$USERI5
 70
     0
  9
$USERR1
 40
0.0
  9
$USERR2
 40
0.0
  9
$USERR3
 40
0.0
  9
$USERR4
 40
0.0
  9
$USERR5
 40
0.0
  9
$WORLDVIEW
 70
     1
  9
$SHADEDGE
 70
     3
  9
$SHADEDIF
 70
    70
  9
$TILEMODE
 70
     1
  9
$MAXACTVP
 70
    16
  9
$PINSBASE
 10
0.0
 20
0.0
 30
0.0
  9
$PLIMCHECK
 70
     0
  9
$PEXTMIN
 10
1.000000000000000E+20
 20
1.000000000000000E+20
 30
1.000000000000000E+20
  9
$PEXTMAX
 10
-1.000000000000000E+20
 20
-1.000000000000000E+20
 30
-1.000000000000000E+20
  9
$PLIMMIN
 10
0.0
 20
0.0
  9
$PLIMMAX
 10
0.0
 20
0.0
  9
$UNITMODE
 70
     0
  9
$VISRETAIN
 70
     0
  9
$PLINEGEN
 70
     0
  9
$PSLTSCALE
 70
     1
  9
$TREEDEPTH
 70
  3020
  9
$CMLSTYLE
  2
STANDARD
  9
$CMLJUST
 70
     0
  9
$CMLSCALE
 40
1.0
  9
$PROXYGRAPHICS
 70
     1
  9
$MEASUREMENT
 70
     0
  9
$CELWEIGHT
370
     0
  9
$ENDCAPS
280
     0
  9
$JOINSTYLE
280
     0
  9
$LWDISPLAY
290
     0
  9
$INSUNITS
 70
     0
  9
$HYPERLINKBASE
  1

  9
$STYLESHEET
  1

  9
$XEDIT
290
     1
  9
$CEPSNTYPE
380
     0
  9
$PSTYLEMODE
290
     1
  9
$FINGERPRINTGUID
  2

  9
$VERSIONGUID
  2

  9
$EXTNAMES
290
     1
  9
$PSVPSCALE
 40
0.0
  9
$OLESTARTUP
290
     0
  9
$SORTENTS
280
   127
  9
$INDEXCTL
280
     0
  9
$HIDETEXT
280
     1
  9
$XCLIPFRAME
280
     2
  9
$HALOGAP
280
     0
  9
$OBSCOLOR
 70
   257
  9
$OBSLTYPE
280
     0
  9
$INTERSECTIONDISPLAY
280
     0
  9
$INTERSECTIONCOLOR
 70
   257
  9
$DIMASSOC
280
     2
  9
$PROJECTNAME
  1

  9
$CAMERADISPLAY
290
     0
  9
$LENSLENGTH
 40
50.0
  9
$CAMERAHEIGHT
 40
0.0
  9
$STEPSPERSEC
 40
2.0
  9
$STEPSIZE
 40
6.0
  9
$3DDWFPREC
 40
2.0
  9
$PSOLWIDTH
 40
0.25
  9
$PSOLHEIGHT
 40
4.0
  9
$LOFTANG1
 40
1.570796326794897
  9
$LOFTANG2
 40
1.570796326794897
  9
$LOFTMAG1
 40
0.0
  9
$LOFTMAG2
 40
0.0
  9
$LOFTPARAM
 70
     7
  9
$LOFTNORMALS
280
     1
  9
$LATITUDE
 40
37.795
  9
$LONGITUDE
 40
-122.394
  9
$NORTHDIRECTION
 40
0.0
  9
$TIMEZONE
 70
 -8000
  9
$LIGHTGLYPHDISPLAY
280
     1
  9
$TILEMODELIGHTSYNCH
280
     1
  9
$SOLIDHIST
280
     0
  9
$SHOWHIST
280
     1
  9
$DWFFRAME
280
     2
  9
$DGNFRAME
280
     2
  9
$REALWORLDSCALE
290
     1
  9
$INTERFERECOLOR
 62
   256
  9
$CSHADOW
280
     0
  9
$SHADOWPLANELOCATION
 40
0.0
  0
ENDSEC
  0
SECTION
  2
CLASSES
  0
CLASS
  1
LWPOLYLINE
  2
AcDbPolyline
  3
ObjectDBX Classes
 90
        0
 91
        1
280
     0
281
     1
  0
CLASS
  1
IMAGE
  2
AcDbRasterImage
  3
ISM
 90
      127
 91
        5
280
     0
281
     1
  0
CLASS
  1
OLE2FRAME
  2
AcDbOle2Frame
  3
ObjectDBX Classes
 90
        0
 91
        1
280
     0
281
     1
  0
CLASS
  1
HATCH
  2
AcDbHatch
  3
ObjectDBX Classes
 90
        0
 91
        1
280
     0
281
     1
  0
CLASS
  1
DICTIONARYVAR
  2
AcDbDictionaryVar
  3
ObjectDBX Classes
 90
        0
 91
        4
280
     0
281
     0
  0
CLASS
  1
RASTERVARIABLES
  2
AcDbRasterVariables
  3
ISM
 90
        0
 91
        4
280
     0
281
     0
  0
CLASS
  1
IMAGEDEF
  2
AcDbRasterImageDef
  3
ISM
 90
        0
 91
        4
280
     0
281
     0
  0
CLASS
  1
IMAGEDEF_REACTOR
  2
AcDbRasterImageDefReactor
  3
ISM
 90
        1
 91
        4
280
     0
281
     0
  0
CLASS
  1
IDBUFFER
  2
AcDbIdBuffer
  3
ObjectDBX Classes
 90
        0
 91
        4
280
     0
281
     0
  0
CLASS
  1
SPATIAL_FILTER
  2
AcDbSpatialFilter
  3
ObjectDBX Classes
 90
        0
 91
        4
280
     0
281
     0
  0
CLASS
  1
XRECORD
  2
AcDbXrecord
  3
ObjectDBX Classes
 90
        0
 91
        1
280
     0
281
     0
  0
CLASS
  1
SORTENTSTABLE
  2
AcDbSortentsTable
  3
ObjectDBX Classes
 90
        0
 91
        4
280
     0
281
     0
  0
CLASS
  1
LAYER_INDEX
  2
AcDbLayerIndex
  3
ObjectDBX Classes
 90
        0
 91
        4
280
     0
281
     0
  0
CLASS
  1
SPATIAL_INDEX
  2
AcDbSpatialIndex
  3
AutoCAD 2000
 90
        0
 91
        4
280
     0
281
     0
  0
CLASS
  1
OBJECT_PTR
  2
CAseDLPNTableRecord
  3
ASE-LPNTableRecord
 90
        1
 91
        4
280
     0
281
     0
  0
CLASS
  1
LAYOUT
  2
AcDbLayout
  3
ObjectDBX Classes
 90
        0
 91
        1
280
     0
281
     0
  0
CLASS
  1
PLOTSETTINGS
  2
AcDbPlotSettings
  3
ObjectDBX Classes
 90
        0
 91
        4
280
     0
281
     0
  0
CLASS
  1
ACDBDICTIONARYWDFLT
  2
AcDbDictionaryWithDefault
  3
ObjectDBX Classes
 90
        0
 91
        4
280
     0
281
     0
  0
CLASS
  1
ACDBPLACEHOLDER
  2
AcDbPlaceHolder
  3
ObjectDBX Classes
 90
        0
 91
        1
280
     0
281
     0
  0
CLASS
  1
VBA_PROJECT
  2
AcDbVbaProject
  3
ObjectDBX Classes
 90
        0
 91
        1
280
     0
281
     0
  0
CLASS
  1
WIPEOUT
  2
AcDbWipeout
  3
WipeOut|AutoCAD Express Tool|expresstools@autodesk.com
 90
      127
 91
        4
280
     0
281
     1
  0
CLASS
  1
WIPEOUTVARIABLES
  2
AcDbWipeoutVariables
  3
WipeOut|AutoCAD Express Tool|expresstools@autodesk.com
 90
        0
 91
        4
280
     0
281
     0
  0
CLASS
  1
RTEXT
  2
RText
  3
RText|AutoCAD Express Tool|expresstools@autodesk.com
 90
        0
 91
        4
280
     0
281
     1
  0
CLASS
  1
ARCALIGNEDTEXT
  2
AcDbArcAlignedText
  3
ATEXT|AutoCAD Express Tool|expresstools@autodesk.com
 90
        0
 91
        4
280
     0
281
     1
  0
CLASS
  1
VISUALSTYLE
  2
AcDbVisualStyle
  3
ObjectDBX Classes
 90
     4095
 91
        4
280
     0
281
     0
  0
CLASS
  1
SCALE
  2
AcDbScale
  3
ObjectDBX Classes
 90
     1153
 91
        4
280
     0
281
     0
  0
CLASS
  1
MATERIAL
  2
AcDbMaterial
  3
ObjectDBX Classes
 90
     1153
 91
        4
280
     0
281
     0
  0
CLASS
  1
TABLESTYLE
  2
AcDbTableStyle
  3
ObjectDBX Classes
 90
     4095
 91
        4
280
     0
281
     0
  0
CLASS
  1
MLEADERSTYLE
  2
AcDbMLeaderStyle
  3
ACDB_MLEADERSTYLE_CLASS
 90
     4095
 91
        4
280
     0
281
     0
  0
CLASS
  1
SUN
  2
AcDbSun
  3
SCENEOE
 90
     1153
 91
        4
280
     0
281
     0
  0
CLASS
  1
CELLSTYLEMAP
  2
AcDbCellStyleMap
  3
ObjectDBX Classes
 90
     1152
 91
        4
280
     0
281
     0
  0
ENDSEC
  0
SECTION
  2
TABLES
  0
TABLE
  2
VPORT
  5
8
330
0
100
AcDbSymbolTable
 70
     2
  0
VPORT
  5
2C
330
8
100
AcDbSymbolTableRecord
100
AcDbViewportTableRecord
  2
*ACTIVE
 70
     0
 10
0.0
 20
0.0
 11
1.0
 21
1.0
 12
1454.919941158637
 22
786.8626920087183
 13
0.0
 23
0.0
 14
0.5
 24
0.5
 15
0.5
 25
0.5
 16
0.0
 26
0.0
 36
1.0
 17
0.0
 27
0.0
 37
0.0
 40
2218.167044477211
 41
2.15605749486653
 42
50.0
 43
0.0
 44
0.0
 50
0.0
 51
0.0
 71
    16
 72
   100
 73
     0
 74
     1
 75
     0
 76
     0
 77
     0
 78
     0
281
     0
 65
     0
110
0.0
120
0.0
130
0.0
111
1.0
121
0.0
131
0.0
112
0.0
122
1.0
132
0.0
 79
     0
146
0.0
348
74B
 60
     3
 61
     5
292
     1
282
     1
141
0.0
142
0.0
 63
   256
361
78A
  0
ENDTAB
  0
TABLE
  2
LTYPE
  5
5
330
0
100
AcDbSymbolTable
 70
     1
  0
LTYPE
  5
26
330
5
100
AcDbSymbolTableRecord
100
AcDbLinetypeTableRecord
  2
ByBlock
 70
     0
  3

 72
    65
 73
     0
 40
0.0
  0
LTYPE
  5
25
330
5
100
AcDbSymbolTableRecord
100
AcDbLinetypeTableRecord
  2
ByLayer
 70
     0
  3

 72
    65
 73
     0
 40
0.0
  0
LTYPE
  5
27
330
5
100
AcDbSymbolTableRecord
100
AcDbLinetypeTableRecord
  2
CONTINUOUS
 70
     0
  3
CONTINUOUS
 72
    65
 73
     0
 40
0.0
  0
ENDTAB
  0
TABLE
  2
LAYER
  5
2
330
0
100
AcDbSymbolTable
 70
    10
  0
LAYER
  5
28
330
2
100
AcDbSymbolTableRecord
100
AcDbLayerTableRecord
  2
0
 70
     0
 62
     9
  6
CONTINUOUS
370
    -3
390
742
347
784
348
0
  0
LAYER
  5
32
330
2
100
AcDbSymbolTableRecord
100
AcDbLayerTableRecord
  2
Fond
 70
     0
 62
     2
  6
CONTINUOUS
370
    -3
390
742
347
784
348
0
  0
LAYER
  5
8D
330
2
100
AcDbSymbolTableRecord
100
AcDbLayerTableRecord
  2
Flan
 70
     0
 62
     2
  6
CONTINUOUS
370
    -3
390
742
347
784
348
0
  0
LAYER
  5
A6
330
2
100
AcDbSymbolTableRecord
100
AcDbLayerTableRecord
  2
Porte
 70
     0
 62
     2
  6
CONTINUOUS
370
    -3
390
742
347
784
348
0
  0
LAYER
  5
2DB
330
2
100
AcDbSymbolTableRecord
100
AcDbLayerTableRecord
  2
Epure
 70
     0
 62
    16
  6
CONTINUOUS
370
    -3
390
742
347
784
348
0
  0
LAYER
  5
3CD
330
2
100
AcDbSymbolTableRecord
100
AcDbLayerTableRecord
  2
Protège chaine
 70
     0
 62
     2
  6
CONTINUOUS
370
    -3
390
742
347
784
348
0
  0
LAYER
  5
67F
330
2
100
AcDbSymbolTableRecord
100
AcDbLayerTableRecord
  2
Plaques
 70
     0
 62
     2
  6
CONTINUOUS
370
    -3
390
742
347
784
348
0
  0
LAYER
  5
69B
330
2
100
AcDbSymbolTableRecord
100
AcDbLayerTableRecord
  2
Coffre
 70
     0
 62
     2
  6
CONTINUOUS
370
    -3
390
742
347
784
348
0
  0
LAYER
  5
6EC
330
2
100
AcDbSymbolTableRecord
100
AcDbLayerTableRecord
  2
Coffre épure
 70
     0
 62
    14
  6
CONTINUOUS
370
    -3
390
742
347
784
348
0
  0
LAYER
  5
6F0
330
2
100
AcDbSymbolTableRecord
100
AcDbLayerTableRecord
  2
Coffre plis
 70
     0
 62
     1
  6
CONTINUOUS
370
    -3
390
742
347
784
348
0
  0
ENDTAB
  0
TABLE
  2
STYLE
  5
3
330
0
100
AcDbSymbolTable
 70
     1
  0
STYLE
  5
29
330
3
100
AcDbSymbolTableRecord
100
AcDbTextStyleTableRecord
  2
STANDARD
 70
     0
 40
0.0
 41
1.0
 50
0.0
 71
     0
 42
0.2
  3
TXT
  4

  0
ENDTAB
  0
TABLE
  2
VIEW
  5
6
330
0
100
AcDbSymbolTable
 70
     0
  0
ENDTAB
  0
TABLE
  2
UCS
  5
7
330
0
100
AcDbSymbolTable
 70
     0
  0
ENDTAB
  0
TABLE
  2
APPID
  5
9
330
0
100
AcDbSymbolTable
 70
     1
  0
APPID
  5
2B
330
9
100
AcDbSymbolTableRecord
100
AcDbRegAppTableRecord
  2
ACAD
 70
     0
  0
ENDTAB
  0
TABLE
  2
DIMSTYLE
  5
A
330
0
100
AcDbSymbolTable
 70
     1
100
AcDbDimStyleTable
  0
DIMSTYLE
105
2A
330
A
100
AcDbSymbolTableRecord
100
AcDbDimStyleTableRecord
  2
STANDARD
 70
     0
178
     0
340
29
  0
ENDTAB
  0
TABLE
  2
BLOCK_RECORD
  5
1
330
0
100
AcDbSymbolTable
 70
     7
  0
BLOCK_RECORD
  5
19
330
1
100
AcDbSymbolTableRecord
100
AcDbBlockTableRecord
  2
*MODEL_SPACE
340
1F
 70
     0
280
     1
281
     0
  0
BLOCK_RECORD
  5
16
330
1
100
AcDbSymbolTableRecord
100
AcDbBlockTableRecord
  2
*PAPER_SPACE
340
20
 70
     0
280
     1
281
     0
  0
BLOCK_RECORD
  5
57D
330
1
100
AcDbSymbolTableRecord
100
AcDbBlockTableRecord
  2
FLAN
340
0
 70
     0
280
     1
281
     0
  0
BLOCK_RECORD
  5
591
330
1
100
AcDbSymbolTableRecord
100
AcDbBlockTableRecord
  2
PROTEGE_C
340
0
 70
     0
280
     1
281
     0
  0
BLOCK_RECORD
  5
5BD
330
1
100
AcDbSymbolTableRecord
100
AcDbBlockTableRecord
  2
FOND
340
0
 70
     0
280
     1
281
     0
  0
BLOCK_RECORD
  5
5D0
330
1
100
AcDbSymbolTableRecord
100
AcDbBlockTableRecord
  2
FENETRE
340
0
 70
     0
280
     1
281
     0
  0
BLOCK_RECORD
  5
5F1
330
1
100
AcDbSymbolTableRecord
100
AcDbBlockTableRecord
  2
PORTE
340
0
 70
     0
280
     1
281
     0
  0
BLOCK_RECORD
  5
616
330
1
100
AcDbSymbolTableRecord
100
AcDbBlockTableRecord
  2
AVANT
340
0
 70
     0
280
     1
281
     0
  0
BLOCK_RECORD
  5
65A
330
1
100
AcDbSymbolTableRecord
100
AcDbBlockTableRecord
  2
PROTEGE_C2
340
0
 70
     0
280
     1
281
     0
  0
ENDTAB
  0
ENDSEC
  0
SECTION
  2
BLOCKS
  0
BLOCK
  5
1A
330
19
100
AcDbEntity
  8
0
100
AcDbBlockBegin
  2
*MODEL_SPACE
 70
     0
 71
     1
 10
0.0
 20
0.0
 30
0.0
  3
*MODEL_SPACE
  1
*MODEL_SPACE
  0
ENDBLK
  5
1B
330
19
100
AcDbEntity
  8
0
100
AcDbBlockEnd
  0
BLOCK
  5
17
330
16
100
AcDbEntity
 67
     1
  8
0
100
AcDbBlockBegin
  2
*PAPER_SPACE
 70
     0
 71
     1
 10
0.0
 20
0.0
 30
0.0
  3
*PAPER_SPACE
  1
*PAPER_SPACE
  0
ENDBLK
  5
18
330
16
100
AcDbEntity
 67
     1
  8
0
100
AcDbBlockEnd
  0
BLOCK
  5
552
330
57D
100
AcDbEntity
  8
0
100
AcDbBlockBegin
  2
FLAN
 70
     0
 10
0.0
 20
0.0
 30
0.0
  3
FLAN
  1
FLAN
  0
CIRCLE
  5
553
330
57D
100
AcDbEntity
  8
Flan
100
AcDbCircle
 10
556.7984867027924
 20
-136.9610603145912
 30
0.0
 40
2.04999999999999
  0
CIRCLE
  5
554
330
57D
100
AcDbEntity
  8
Flan
100
AcDbCircle
 10
577.233579602686
 20
-182.6442800144882
 30
0.0
 40
2.050000000000215
  0
CIRCLE
  5
555
330
57D
100
AcDbEntity
  8
Flan
100
AcDbCircle
 10
665.6880019600833
 20
-262.0098871787593
 30
0.0
 40
2.049999999999635
  0
CIRCLE
  5
556
330
57D
100
AcDbEntity
  8
Flan
100
AcDbCircle
 10
650.8113611585431
 20
-398.9659256390278
 30
0.0
 40
2.049999999999859
  0
CIRCLE
  5
557
330
57D
100
AcDbEntity
  8
Flan
100
AcDbCircle
 10
638.1551241699399
 20
-456.5297476454778
 30
0.0
 40
2.049999999999635
  0
CIRCLE
  5
558
330
57D
100
AcDbEntity
  8
Flan
100
AcDbCircle
 10
528.9955108449824
 20
-459.7051048642836
 30
0.0
 40
2.049999999999747
  0
LINE
  5
559
330
57D
100
AcDbEntity
  8
Flan
100
AcDbLine
 10
585.9113933167923
 20
-486.3779965658739
 30
0.0
 11
643.1694685727398
 21
-487.2774782894111
 31
0.0
  0
LINE
  5
55A
330
57D
100
AcDbEntity
  8
Flan
100
AcDbLine
 10
691.0846909681397
 20
-269.346512169967
 30
0.0
 11
643.1694685727398
 21
-487.2774782894111
 31
0.0
  0
LINE
  5
55B
330
57D
100
AcDbEntity
  8
Flan
100
AcDbLine
 10
568.337338813142
 20
-159.211621545445
 30
0.0
 11
691.0846909681397
 21
-269.346512169967
 31
0.0
  0
LINE
  5
55C
330
57D
100
AcDbEntity
  8
Flan
100
AcDbLine
 10
540.0211789756472
 20
-0.0005832054798702
 30
0.0
 11
568.0594629013829
 21
-0.0006134859233953
 31
0.0
  0
LINE
  5
55D
330
57D
100
AcDbEntity
  8
Flan
100
AcDbLine
 10
568.0594629013829
 20
-0.0006134859233953
 30
0.0
 11
568.337338813142
 21
-159.211621545445
 31
0.0
  0
LINE
  5
55E
330
57D
100
AcDbEntity
  8
Epure
100
AcDbLine
 10
465.7862426210101
 20
-425.3475896785726
 30
0.0
 11
540.0211789756472
 21
-0.0005832054798702
 31
0.0
  0
LINE
  5
55F
330
57D
100
AcDbEntity
  8
Flan
100
AcDbLine
 10
-32.48878223265541
 20
-186.1523286098023
 30
0.0
 11
0.0
 21
0.0
 31
0.0
  0
LINE
  5
560
330
57D
100
AcDbEntity
  8
Flan
100
AcDbLine
 10
0.0
 20
0.0
 30
0.0
 11
540.0211789756472
 21
-0.0005832054798702
 31
0.0
  0
ARC
  5
561
330
57D
100
AcDbEntity
  8
Flan
100
AcDbCircle
 10
588.3224665241567
 20
-332.8969334799389
 30
0.0
 40
153.5000000000002
100
AcDbArc
 50
217.0336819108908
 51
269.100002465435
  0
LINE
  5
562
330
57D
100
AcDbEntity
  8
Flan
100
AcDbLine
 10
232.2428219526644
 20
-246.5326124867645
 30
0.0
 11
-32.48878223265541
 21
-186.1523286098023
 31
0.0
  0
ARC
  5
563
330
57D
100
AcDbEntity
  8
Flan
100
AcDbCircle
 10
154.2901556230219
 20
-588.3087609433644
 30
0.0
 40
350.5532111416588
100
AcDbArc
 50
68.78757216346493
 51
77.15170232151166
  0
ARC
  5
564
330
57D
100
AcDbEntity
  8
Flan
100
AcDbCircle
 10
155.1697606456732
 20
-586.0424619595038
 30
0.0
 40
348.1222238374367
100
AcDbArc
 50
53.0669516052142
 51
68.78757216346678
  0
ARC
  5
565
330
57D
100
AcDbEntity
  8
Flan
100
AcDbCircle
 10
130.494791308398
 20
-612.0784531050481
 30
0.0
 40
383.7821943229192
100
AcDbArc
 50
29.11435388861858
 51
52.45796088349282
  0
CIRCLE
  5
566
330
57D
100
AcDbEntity
  8
Flan
100
AcDbCircle
 10
271.0927721612093
 20
-245.9009998333202
 30
0.0
 40
2.04999999999999
  0
CIRCLE
  5
567
330
57D
100
AcDbEntity
  8
Flan
100
AcDbCircle
 10
299.0151371897492
 20
-256.8718515303314
 30
0.0
 40
2.049999999999971
  0
CIRCLE
  5
568
330
57D
100
AcDbEntity
  8
Flan
100
AcDbCircle
 10
372.1107139625664
 20
-299.5617126226742
 30
0.0
 40
2.04999999999999
  0
CIRCLE
  5
569
330
57D
100
AcDbEntity
  8
Flan
100
AcDbCircle
 10
437.5460702664452
 20
-352.57254969044
 30
0.0
 40
2.049999999999971
  0
CIRCLE
  5
56A
330
57D
100
AcDbEntity
  8
Flan
100
AcDbCircle
 10
499.3606816721853
 20
-432.0346215892613
 30
0.0
 40
2.049999999999971
  0
CIRCLE
  5
56B
330
57D
100
AcDbEntity
  8
Flan
100
AcDbCircle
 10
525.0129591896252
 20
-13.50056699710058
 30
0.0
 40
2.049999999999859
  0
CIRCLE
  5
56C
330
57D
100
AcDbEntity
  8
Flan
100
AcDbCircle
 10
518.5027875377191
 20
-301.8046432799897
 30
0.0
 40
2.04999999999999
  0
CIRCLE
  5
56D
330
57D
100
AcDbEntity
  8
Flan
100
AcDbCircle
 10
598.5439611817901
 20
-300.6353846319544
 30
0.0
 40
2.049999999999859
  0
CIRCLE
  5
56E
330
57D
100
AcDbEntity
  8
Flan
100
AcDbCircle
 10
-4.279847495091531
 20
-100.1349838622788
 30
0.0
 40
2.050000000000046
  0
CIRCLE
  5
56F
330
57D
100
AcDbEntity
  8
Flan
100
AcDbCircle
 10
11.16884181051483
 20
-11.61798536064157
 30
0.0
 40
2.049999999999971
  0
CIRCLE
  5
570
330
57D
100
AcDbEntity
  8
Flan
100
AcDbCircle
 10
234.2570840168736
 20
-13.50025299011691
 30
0.0
 40
2.049999999999971
  0
CIRCLE
  5
571
330
57D
100
AcDbEntity
  8
Flan
100
AcDbCircle
 10
89.32907291597047
 20
-13.50009647253137
 30
0.0
 40
2.049999999999971
  0
CIRCLE
  5
572
330
57D
100
AcDbEntity
  8
Flan
100
AcDbCircle
 10
379.1850951177768
 20
-13.50040950770267
 30
0.0
 40
2.049999999999859
  0
CIRCLE
  5
573
330
57D
100
AcDbEntity
  8
Flan
100
AcDbCircle
 10
674.1284822049363
 20
-283.0348956238334
 30
0.0
 40
2.050000000000083
  0
CIRCLE
  5
574
330
57D
100
AcDbEntity
  8
Flan
100
AcDbCircle
 10
676.5852780559408
 20
-295.1776734565102
 30
0.0
 40
2.049999999999879
  0
CIRCLE
  5
575
330
57D
100
AcDbEntity
  8
Flan
100
AcDbCircle
 10
560.0621861396048
 20
-15.68111651663548
 30
0.0
 40
4.049999999999955
  0
CIRCLE
  5
576
330
57D
100
AcDbEntity
  8
Flan
100
AcDbCircle
 10
554.8500661520961
 20
-35.48600755232087
 30
0.0
 40
2.049999999999971
  0
CIRCLE
  5
577
330
57D
100
AcDbEntity
  8
Flan
100
AcDbCircle
 10
499.5473619273079
 20
-4.74019681795744
 30
0.0
 40
3.999999999999969
  0
CIRCLE
  5
578
330
57D
100
AcDbEntity
  8
Flan
100
AcDbCircle
 10
-18.00892958378518
 20
-178.7871106424772
 30
0.0
 40
2.049999999999915
  0
CIRCLE
  5
579
330
57D
100
AcDbEntity
  8
Flan
100
AcDbCircle
 10
39.35840137483058
 20
-185.9351525051387
 30
0.0
 40
4.99999999999998
  0
CIRCLE
  5
57A
330
57D
100
AcDbEntity
  8
Flan
100
AcDbCircle
 10
103.0181245613335
 20
-205.5831379668325
 30
0.0
 40
2.04999999999999
  0
CIRCLE
  5
57B
330
57D
100
AcDbEntity
  8
Flan
100
AcDbCircle
 10
187.6998211353874
 20
-224.856407924914
 30
0.0
 40
2.04999999999999
  0
ENDBLK
  5
57C
330
57D
100
AcDbEntity
  8
0
100
AcDbBlockEnd
  0
BLOCK
  5
57E
330
591
100
AcDbEntity
  8
0
100
AcDbBlockBegin
  2
PROTEGE_C
 70
     0
 10
0.0
 20
0.0
 30
0.0
  3
PROTEGE_C
  1
PROTEGE_C
  0
LINE
  5
57F
330
591
100
AcDbEntity
  8
Protège chaine
100
AcDbLine
 10
-9.999375820180575
 20
-10.00062384285775
 30
0.0
 11
-9.99750378612842
 21
-40.00062393346093
 31
0.0
  0
LINE
  5
580
330
591
100
AcDbEntity
  8
Protège chaine
100
AcDbLine
 10
191.0037373260452
 20
-53.68060322003157
 30
0.0
 11
197.0735332496994
 21
-76.07924809764609
 31
0.0
  0
LINE
  5
581
330
591
100
AcDbEntity
  8
Protège chaine
100
AcDbLine
 10
0.0031202057496955
 20
-49.99999990264325
 30
0.0
 11
186.1774835870984
 21
-49.98838241107239
 31
0.0
  0
LINE
  5
582
330
591
100
AcDbEntity
  8
Protège chaine
100
AcDbLine
 10
206.7260407275928
 20
-83.46368971556456
 30
0.0
 11
394.0747678504763
 21
-83.45199894236328
 31
0.0
  0
LINE
  5
583
330
591
100
AcDbEntity
  8
Protège chaine
100
AcDbLine
 10
493.5728270456966
 20
0.030799504581978
 30
0.0
 11
0.0
 21
0.0
 31
0.0
  0
LINE
  5
584
330
591
100
AcDbEntity
  8
Protège chaine
100
AcDbLine
 10
477.0883739221501
 20
-25.95610851091408
 30
0.0
 11
496.6643208383376
 21
-19.4795382194302
 31
0.0
  0
LINE
  5
585
330
591
100
AcDbEntity
  8
Protège chaine
100
AcDbLine
 10
399.0750798464153
 20
-88.4516869269545
 30
0.0
 11
399.0763278691104
 21
-108.4516868880147
 31
0.0
  0
CIRCLE
  5
586
330
591
100
AcDbEntity
  8
Protège chaine
100
AcDbCircle
 10
414.0763278399063
 20
-108.4507508709933
 30
0.0
 40
4.99999999999998
  0
LINE
  5
587
330
591
100
AcDbEntity
  8
Protège chaine
100
AcDbLine
 10
429.0753273938645
 20
-92.41778531576574
 30
0.0
 11
429.0763278107019
 21
-108.449814853971
 31
0.0
  0
ARC
  5
588
330
591
100
AcDbEntity
  8
Protège chaine
100
AcDbCircle
 10
414.0763278399063
 20
-108.4507508709933
 30
0.0
 40
15.00000000000016
100
AcDbArc
 50
180.0035753216611
 51
0.0035753216638086
  0
ARC
  5
589
330
591
100
AcDbEntity
  8
Protège chaine
100
AcDbCircle
 10
394.0750798561502
 20
-88.45199893262838
 30
0.0
 40
4.999999999999893
100
AcDbArc
 50
0.0035753216619358
 51
90.00357532166274
  0
ARC
  5
58A
330
591
100
AcDbEntity
  8
Protège chaine
100
AcDbCircle
 10
186.1777955927725
 20
-54.98838240133762
 30
0.0
 40
5.000000000000073
100
AcDbArc
 50
15.16240000722642
 51
90.00357532166359
  0
ARC
  5
58B
330
591
100
AcDbEntity
  8
Protège chaine
100
AcDbCircle
 10
0.0006240858491537
 20
-9.99999990602032
 30
0.0
 40
9.999999999999943
100
AcDbArc
 50
90.00357574854925
 51
180.0035748947753
  0
ARC
  5
58C
330
591
100
AcDbEntity
  8
Protège chaine
100
AcDbCircle
 10
0.002496194401914
 20
-39.99999992211303
 30
0.0
 40
10.00000000000007
100
AcDbArc
 50
180.0035753216626
 51
270.0035753216626
  0
ARC
  5
58D
330
591
100
AcDbEntity
  8
Protège chaine
100
AcDbCircle
 10
206.7254167162448
 20
-73.46368973503411
 30
0.0
 40
10.00000000000009
100
AcDbArc
 50
195.1624000072258
 51
270.0035753216634
  0
ARC
  5
58E
330
591
100
AcDbEntity
  8
Protège chaine
100
AcDbCircle
 10
493.5734510570448
 20
-9.969200475948583
 30
0.0
 40
10.00000000000001
100
AcDbArc
 50
288.0042161760416
 51
90.00357532166173
  0
ARC
  5
58F
330
591
100
AcDbEntity
  8
Protège chaine
100
AcDbCircle
 10
499.075327257578
 20
-92.41341723633366
 30
0.0
 40
70.00000000000009
100
AcDbArc
 50
108.3064499403667
 51
180.00357532166
  0
ENDBLK
  5
590
330
591
100
AcDbEntity
  8
0
100
AcDbBlockEnd
  0
BLOCK
  5
592
330
5BD
100
AcDbEntity
  8
0
100
AcDbBlockBegin
  2
FOND
 70
     0
 10
0.0
 20
0.0
 30
0.0
  3
FOND
  1
FOND
  0
LINE
  5
593
330
5BD
100
AcDbEntity
  8
Fond
100
AcDbLine
 10
0.0
 20
-176.5
 30
0.0
 11
0.0
 21
-353.0
 31
0.0
  0
LINE
  5
594
330
5BD
100
AcDbEntity
  8
Fond
100
AcDbLine
 10
0.0
 20
-353.0
 30
0.0
 11
-60.09000000000015
 21
-353.0
 31
0.0
  0
LINE
  5
595
330
5BD
100
AcDbEntity
  8
Fond
100
AcDbLine
 10
-60.09000000000015
 20
-353.0
 30
0.0
 11
-227.7
 21
-353.0
 31
0.0
  0
LINE
  5
596
330
5BD
100
AcDbEntity
  8
Epure
100
AcDbLine
 10
-227.7
 20
-176.5
 30
0.0
 11
-227.7
 21
-353.0
 31
0.0
  0
LINE
  5
597
330
5BD
100
AcDbEntity
  8
Epure
100
AcDbLine
 10
-211.0599999999999
 20
-176.5
 30
0.0
 11
-211.0600000000001
 21
-353.0
 31
0.0
  0
LINE
  5
598
330
5BD
100
AcDbEntity
  8
Epure
100
AcDbLine
 10
-501.21
 20
-176.4999999999999
 30
0.0
 11
-501.21
 21
-338.4273708763745
 31
0.0
  0
LINE
  5
599
330
5BD
100
AcDbEntity
  8
Epure
100
AcDbLine
 10
-60.09000000000015
 20
-176.5
 30
0.0
 11
-60.09000000000015
 21
-353.0
 31
0.0
  0
LINE
  5
59A
330
5BD
100
AcDbEntity
  8
Fond
100
AcDbLine
 10
-285.4300000000001
 20
-352.23
 30
0.0
 11
-227.7
 21
-353.0
 31
0.0
  0
LINE
  5
59B
330
5BD
100
AcDbEntity
  8
Fond
100
AcDbLine
 10
-285.4300000000001
 20
-352.23
 30
0.0
 11
-356.4595084295161
 21
-349.9299999999999
 31
0.0
  0
LINE
  5
59C
330
5BD
100
AcDbEntity
  8
Fond
100
AcDbLine
 10
-356.4595084295161
 20
-349.9299999999999
 30
0.0
 11
-420.73
 21
-346.08
 31
0.0
  0
LINE
  5
59D
330
5BD
100
AcDbEntity
  8
Fond
100
AcDbLine
 10
-420.73
 20
-346.08
 30
0.0
 11
-481.6700000000001
 21
-340.6899999999999
 31
0.0
  0
LINE
  5
59E
330
5BD
100
AcDbEntity
  8
Fond
100
AcDbLine
 10
-481.6700000000001
 20
-340.6899999999999
 30
0.0
 11
-541.69
 21
-333.74
 31
0.0
  0
LINE
  5
59F
330
5BD
100
AcDbEntity
  8
Fond
100
AcDbLine
 10
-541.69
 20
-333.74
 30
0.0
 11
-601.77
 21
-325.21
 31
0.0
  0
LINE
  5
5A0
330
5BD
100
AcDbEntity
  8
Fond
100
AcDbLine
 10
-601.77
 20
-325.21
 30
0.0
 11
-661.85
 21
-315.1
 31
0.0
  0
LINE
  5
5A1
330
5BD
100
AcDbEntity
  8
Fond
100
AcDbLine
 10
-661.85
 20
-315.1
 30
0.0
 11
-721.93
 21
-303.3699999999999
 31
0.0
  0
LINE
  5
5A2
330
5BD
100
AcDbEntity
  8
Fond
100
AcDbLine
 10
-721.93
 20
-303.3699999999999
 30
0.0
 11
-768.81
 21
-292.9452862849533
 31
0.0
  0
LINE
  5
5A3
330
5BD
100
AcDbEntity
  8
Fond
100
AcDbLine
 10
-768.81
 20
-292.9452862849533
 30
0.0
 11
-768.81
 21
-176.4999999999999
 31
0.0
  0
LINE
  5
5A4
330
5BD
100
AcDbEntity
  8
Fond
100
AcDbLine
 10
0.0
 20
-176.5
 30
0.0
 11
0.0
 21
0.0
 31
0.0
  0
LINE
  5
5A5
330
5BD
100
AcDbEntity
  8
Fond
100
AcDbLine
 10
0.0
 20
0.0
 30
0.0
 11
-60.09000000000015
 21
0.0
 31
0.0
  0
LINE
  5
5A6
330
5BD
100
AcDbEntity
  8
Fond
100
AcDbLine
 10
-60.09000000000015
 20
0.0
 30
0.0
 11
-227.7
 21
0.0
 31
0.0
  0
LINE
  5
5A7
330
5BD
100
AcDbEntity
  8
Epure
100
AcDbLine
 10
-227.7
 20
-176.5
 30
0.0
 11
-227.7
 21
0.0
 31
0.0
  0
LINE
  5
5A8
330
5BD
100
AcDbEntity
  8
Epure
100
AcDbLine
 10
-211.0599999999999
 20
-176.5
 30
0.0
 11
-211.0599999999999
 21
0.0
 31
0.0
  0
LINE
  5
5A9
330
5BD
100
AcDbEntity
  8
Epure
100
AcDbLine
 10
-501.21
 20
-176.4999999999999
 30
0.0
 11
-501.21
 21
-14.5726291236254
 31
0.0
  0
LINE
  5
5AA
330
5BD
100
AcDbEntity
  8
Epure
100
AcDbLine
 10
-60.09000000000015
 20
-176.5
 30
0.0
 11
-60.09000000000015
 21
0.0
 31
0.0
  0
LINE
  5
5AB
330
5BD
100
AcDbEntity
  8
Fond
100
AcDbLine
 10
-285.4300000000001
 20
-0.7699999999999818
 30
0.0
 11
-227.7
 21
0.0
 31
0.0
  0
LINE
  5
5AC
330
5BD
100
AcDbEntity
  8
Fond
100
AcDbLine
 10
-285.4300000000001
 20
-0.7699999999999818
 30
0.0
 11
-356.4595084295161
 21
-3.07000000000005
 31
0.0
  0
LINE
  5
5AD
330
5BD
100
AcDbEntity
  8
Fond
100
AcDbLine
 10
-356.4595084295161
 20
-3.07000000000005
 30
0.0
 11
-420.73
 21
-6.919999999999959
 31
0.0
  0
LINE
  5
5AE
330
5BD
100
AcDbEntity
  8
Fond
100
AcDbLine
 10
-420.73
 20
-6.919999999999959
 30
0.0
 11
-481.6700000000001
 21
-12.31
 31
0.0
  0
LINE
  5
5AF
330
5BD
100
AcDbEntity
  8
Fond
100
AcDbLine
 10
-481.6700000000001
 20
-12.31
 30
0.0
 11
-541.69
 21
-19.25999999999993
 31
0.0
  0
LINE
  5
5B0
330
5BD
100
AcDbEntity
  8
Fond
100
AcDbLine
 10
-541.69
 20
-19.25999999999993
 30
0.0
 11
-601.77
 21
-27.78999999999991
 31
0.0
  0
LINE
  5
5B1
330
5BD
100
AcDbEntity
  8
Fond
100
AcDbLine
 10
-601.77
 20
-27.78999999999991
 30
0.0
 11
-661.85
 21
-37.89999999999992
 31
0.0
  0
LINE
  5
5B2
330
5BD
100
AcDbEntity
  8
Fond
100
AcDbLine
 10
-661.85
 20
-37.89999999999992
 30
0.0
 11
-721.93
 21
-49.62999999999994
 31
0.0
  0
LINE
  5
5B3
330
5BD
100
AcDbEntity
  8
Fond
100
AcDbLine
 10
-721.93
 20
-49.62999999999994
 30
0.0
 11
-768.81
 21
-60.05471371504655
 31
0.0
  0
LINE
  5
5B4
330
5BD
100
AcDbEntity
  8
Fond
100
AcDbLine
 10
-768.81
 20
-60.05471371504655
 30
0.0
 11
-768.81
 21
-176.4999999999999
 31
0.0
  0
CIRCLE
  5
5B5
330
5BD
100
AcDbEntity
  8
Fond
100
AcDbCircle
 10
-10.0
 20
-238.0
 30
0.0
 40
2.049999999999727
  0
CIRCLE
  5
5B6
330
5BD
100
AcDbEntity
  8
Fond
100
AcDbCircle
 10
-55.28999999999996
 20
-343.0
 30
0.0
 40
2.049999999999955
  0
CIRCLE
  5
5B7
330
5BD
100
AcDbEntity
  8
Fond
100
AcDbCircle
 10
-55.28999999999996
 20
-9.999999999999886
 30
0.0
 40
2.049999999999955
  0
CIRCLE
  5
5B8
330
5BD
100
AcDbEntity
  8
Fond
100
AcDbCircle
 10
-10.0
 20
-114.9999999999999
 30
0.0
 40
2.049999999999727
  0
CIRCLE
  5
5B9
330
5BD
100
AcDbEntity
  8
Fond
100
AcDbCircle
 10
-755.81
 20
-176.4999999999999
 30
0.0
 40
2.049999999999955
  0
CIRCLE
  5
5BA
330
5BD
100
AcDbEntity
  8
Flan
100
AcDbCircle
 10
-755.81
 20
-285.3
 30
0.0
 40
2.049999999999955
  0
CIRCLE
  5
5BB
330
5BD
100
AcDbEntity
  8
Flan
100
AcDbCircle
 10
-755.81
 20
-67.69999999999993
 30
0.0
 40
2.049999999999955
  0
ENDBLK
  5
5BC
330
5BD
100
AcDbEntity
  8
0
100
AcDbBlockEnd
  0
BLOCK
  5
5BE
330
5D0
100
AcDbEntity
  8
0
100
AcDbBlockBegin
  2
FENETRE
 70
     0
 10
0.0
 20
0.0
 30
0.0
  3
FENETRE
  1
FENETRE
  0
ARC
  5
5BF
330
5D0
100
AcDbEntity
  8
Flan
100
AcDbCircle
 10
0.0
 20
-20.0
 30
0.0
 40
20.0
100
AcDbArc
 50
90.0
 51
180.0
  0
CIRCLE
  5
5C0
330
5D0
100
AcDbEntity
  8
Flan
100
AcDbCircle
 10
-10.0
 20
-10.0
 30
0.0
 40
2.049999999999727
  0
LINE
  5
5C1
330
5D0
100
AcDbEntity
  8
Flan
100
AcDbLine
 10
-20.0
 20
-20.0
 30
0.0
 11
-20.0
 21
-118.8599999999999
 31
0.0
  0
LINE
  5
5C2
330
5D0
100
AcDbEntity
  8
Flan
100
AcDbLine
 10
0.0
 20
0.0
 30
0.0
 11
310.0799999999999
 21
0.0
 31
0.0
  0
CIRCLE
  5
5C3
330
5D0
100
AcDbEntity
  8
Flan
100
AcDbCircle
 10
105.04
 20
-5.0
 30
0.0
 40
2.049999999999727
  0
CIRCLE
  5
5C4
330
5D0
100
AcDbEntity
  8
Flan
100
AcDbCircle
 10
205.04
 20
-5.0
 30
0.0
 40
2.049999999999727
  0
ARC
  5
5C5
330
5D0
100
AcDbEntity
  8
Flan
100
AcDbCircle
 10
310.0799999999999
 20
-20.0
 30
0.0
 40
20.0
100
AcDbArc
 50
0.0
 51
90.0
  0
CIRCLE
  5
5C6
330
5D0
100
AcDbEntity
  8
Flan
100
AcDbCircle
 10
320.0799999999999
 20
-10.0
 30
0.0
 40
2.050000000000182
  0
LINE
  5
5C7
330
5D0
100
AcDbEntity
  8
Flan
100
AcDbLine
 10
330.0799999999999
 20
-20.0
 30
0.0
 11
330.0799999999999
 21
-118.8599999999999
 31
0.0
  0
CIRCLE
  5
5C8
330
5D0
100
AcDbEntity
  8
Flan
100
AcDbCircle
 10
320.0799999999999
 20
-128.86
 30
0.0
 40
2.050000000000182
  0
ARC
  5
5C9
330
5D0
100
AcDbEntity
  8
Flan
100
AcDbCircle
 10
310.0799999999999
 20
-118.8599999999999
 30
0.0
 40
20.0
100
AcDbArc
 50
270.0
 51
360.0
  0
LINE
  5
5CA
330
5D0
100
AcDbEntity
  8
Flan
100
AcDbLine
 10
0.0
 20
-138.8599999999999
 30
0.0
 11
310.0799999999999
 21
-138.8599999999999
 31
0.0
  0
ARC
  5
5CB
330
5D0
100
AcDbEntity
  8
Flan
100
AcDbCircle
 10
0.0
 20
-118.8599999999999
 30
0.0
 40
20.0
100
AcDbArc
 50
180.0
 51
270.0
  0
CIRCLE
  5
5CC
330
5D0
100
AcDbEntity
  8
Flan
100
AcDbCircle
 10
-10.0
 20
-128.86
 30
0.0
 40
2.049999999999727
  0
CIRCLE
  5
5CD
330
5D0
100
AcDbEntity
  8
Flan
100
AcDbCircle
 10
105.04
 20
-133.8599999999999
 30
0.0
 40
2.049999999999727
  0
CIRCLE
  5
5CE
330
5D0
100
AcDbEntity
  8
Flan
100
AcDbCircle
 10
205.04
 20
-133.8599999999999
 30
0.0
 40
2.049999999999727
  0
ENDBLK
  5
5CF
330
5D0
100
AcDbEntity
  8
0
100
AcDbBlockEnd
  0
BLOCK
  5
5D1
330
5F1
100
AcDbEntity
  8
0
100
AcDbBlockBegin
  2
PORTE
 70
     0
 10
0.0
 20
0.0
 30
0.0
  3
PORTE
  1
PORTE
  0
LINE
  5
5D2
330
5F1
100
AcDbEntity
  8
Porte
100
AcDbLine
 10
-511.6099999999999
 20
-179.727095516569
 30
0.0
 11
-511.6099999999999
 21
-59.94088182873062
 31
0.0
  0
LINE
  5
5D3
330
5F1
100
AcDbEntity
  8
Porte
100
AcDbLine
 10
-511.6099999999999
 20
-59.94088182873062
 30
0.0
 11
-462.9400000000001
 21
-49.27709551656926
 31
0.0
  0
LINE
  5
5D4
330
5F1
100
AcDbEntity
  8
Porte
100
AcDbLine
 10
-462.9400000000001
 20
-49.27709551656926
 30
0.0
 11
-402.01
 21
-37.56709551656922
 31
0.0
  0
LINE
  5
5D5
330
5F1
100
AcDbEntity
  8
Porte
100
AcDbLine
 10
-402.01
 20
-37.56709551656922
 30
0.0
 11
-341.0799999999999
 21
-27.46709551656886
 31
0.0
  0
LINE
  5
5D6
330
5F1
100
AcDbEntity
  8
Porte
100
AcDbLine
 10
-341.0799999999999
 20
-27.46709551656886
 30
0.0
 11
-280.15
 21
-18.9570955165691
 31
0.0
  0
LINE
  5
5D7
330
5F1
100
AcDbEntity
  8
Porte
100
AcDbLine
 10
-280.15
 20
-18.9570955165691
 30
0.0
 11
-219.22
 21
-12.01709551656904
 31
0.0
  0
LINE
  5
5D8
330
5F1
100
AcDbEntity
  8
Porte
100
AcDbLine
 10
-219.22
 20
-12.01709551656904
 30
0.0
 11
-158.29
 21
-6.637095516568934
 31
0.0
  0
LINE
  5
5D9
330
5F1
100
AcDbEntity
  8
Porte
100
AcDbLine
 10
-158.29
 20
-6.637095516568934
 30
0.0
 11
-97.3599999999999
 21
-2.797095516569243
 31
0.0
  0
LINE
  5
5DA
330
5F1
100
AcDbEntity
  8
Porte
100
AcDbLine
 10
-97.3599999999999
 20
-2.797095516569243
 30
0.0
 11
-36.43000000000006
 21
-0.4970955165690611
 31
0.0
  0
LINE
  5
5DB
330
5F1
100
AcDbEntity
  8
Porte
100
AcDbLine
 10
-36.43000000000006
 20
-0.4970955165690611
 30
0.0
 11
0.0
 21
0.0
 31
0.0
  0
LINE
  5
5DC
330
5F1
100
AcDbEntity
  8
Porte
100
AcDbLine
 10
0.0
 20
0.0
 30
0.0
 11
0.0
 21
-179.7270955165691
 31
0.0
  0
LINE
  5
5DD
330
5F1
100
AcDbEntity
  8
Porte
100
AcDbLine
 10
-511.6099999999999
 20
-179.727095516569
 30
0.0
 11
-511.6099999999999
 21
-299.5133092044075
 31
0.0
  0
LINE
  5
5DE
330
5F1
100
AcDbEntity
  8
Porte
100
AcDbLine
 10
-511.6099999999999
 20
-299.5133092044075
 30
0.0
 11
-462.9400000000001
 21
-310.1770955165691
 31
0.0
  0
LINE
  5
5DF
330
5F1
100
AcDbEntity
  8
Porte
100
AcDbLine
 10
-462.9400000000001
 20
-310.1770955165691
 30
0.0
 11
-402.01
 21
-321.8870955165692
 31
0.0
  0
LINE
  5
5E0
330
5F1
100
AcDbEntity
  8
Porte
100
AcDbLine
 10
-402.01
 20
-321.8870955165692
 30
0.0
 11
-341.0799999999999
 21
-331.9870955165691
 31
0.0
  0
LINE
  5
5E1
330
5F1
100
AcDbEntity
  8
Porte
100
AcDbLine
 10
-341.0799999999999
 20
-331.9870955165691
 30
0.0
 11
-280.15
 21
-340.4970955165691
 31
0.0
  0
LINE
  5
5E2
330
5F1
100
AcDbEntity
  8
Porte
100
AcDbLine
 10
-280.15
 20
-340.4970955165691
 30
0.0
 11
-219.22
 21
-347.4370955165691
 31
0.0
  0
LINE
  5
5E3
330
5F1
100
AcDbEntity
  8
Porte
100
AcDbLine
 10
-219.22
 20
-347.4370955165691
 30
0.0
 11
-158.29
 21
-352.817095516569
 31
0.0
  0
LINE
  5
5E4
330
5F1
100
AcDbEntity
  8
Porte
100
AcDbLine
 10
-158.29
 20
-352.817095516569
 30
0.0
 11
-97.36000000000013
 21
-356.6570955165691
 31
0.0
  0
LINE
  5
5E5
330
5F1
100
AcDbEntity
  8
Porte
100
AcDbLine
 10
-97.36000000000013
 20
-356.6570955165691
 30
0.0
 11
-36.43000000000006
 21
-358.9570955165691
 31
0.0
  0
LINE
  5
5E6
330
5F1
100
AcDbEntity
  8
Porte
100
AcDbLine
 10
-36.43000000000006
 20
-358.9570955165691
 30
0.0
 11
0.0
 21
-359.4541910331384
 31
0.0
  0
LINE
  5
5E7
330
5F1
100
AcDbEntity
  8
Porte
100
AcDbLine
 10
0.0
 20
-359.4541910331384
 30
0.0
 11
0.0
 21
-179.7270955165691
 31
0.0
  0
CIRCLE
  5
5E8
330
5F1
100
AcDbEntity
  8
Porte
100
AcDbCircle
 10
-476.6099999999999
 20
-204.727095516569
 30
0.0
 40
2.100000000000023
  0
CIRCLE
  5
5E9
330
5F1
100
AcDbEntity
  8
Porte
100
AcDbCircle
 10
-476.6099999999999
 20
-154.727095516569
 30
0.0
 40
2.100000000000023
  0
CIRCLE
  5
5EA
330
5F1
100
AcDbEntity
  8
Porte
100
AcDbCircle
 10
-476.6099999999999
 20
-179.727095516569
 30
0.0
 40
10.10000000000002
  0
CIRCLE
  5
5EB
330
5F1
100
AcDbEntity
  8
Porte
100
AcDbCircle
 10
-504.5419549908039
 20
-77.72343119008406
 30
0.0
 40
2.100000000000023
  0
CIRCLE
  5
5EC
330
5F1
100
AcDbEntity
  8
Porte
100
AcDbCircle
 10
-504.5419549908039
 20
-281.730759843054
 30
0.0
 40
2.100000000000023
  0
CIRCLE
  5
5ED
330
5F1
100
AcDbEntity
  8
Porte
100
AcDbCircle
 10
-10.0
 20
-179.7270955165691
 30
0.0
 40
2.099999999999909
  0
CIRCLE
  5
5EE
330
5F1
100
AcDbEntity
  8
Porte
100
AcDbCircle
 10
-16.13003086446452
 20
-307.6500597676165
 30
0.0
 40
2.099999999999909
  0
CIRCLE
  5
5EF
330
5F1
100
AcDbEntity
  8
Porte
100
AcDbCircle
 10
-16.13003086446452
 20
-51.80413126552179
 30
0.0
 40
2.099999999999909
  0
ENDBLK
  5
5F0
330
5F1
100
AcDbEntity
  8
0
100
AcDbBlockEnd
  0
BLOCK
  5
5F2
330
616
100
AcDbEntity
  8
0
100
AcDbBlockBegin
  2
AVANT
 70
     0
 10
0.0
 20
0.0
 30
0.0
  3
AVANT
  1
AVANT
  0
CIRCLE
  5
5F3
330
616
100
AcDbEntity
  8
Flan
100
AcDbCircle
 10
237.84
 20
-56.58999999999992
 30
0.0
 40
2.049999999999955
  0
CIRCLE
  5
5F4
330
616
100
AcDbEntity
  8
Flan
100
AcDbCircle
 10
237.84
 20
-143.0899999999999
 30
0.0
 40
2.049999999999955
  0
CIRCLE
  5
5F5
330
616
100
AcDbEntity
  8
Flan
100
AcDbCircle
 10
237.84
 20
-229.5899999999999
 30
0.0
 40
2.049999999999955
  0
LINE
  5
5F6
330
616
100
AcDbEntity
  8
Flan
100
AcDbLine
 10
281.3774388453427
 20
-314.9
 30
0.0
 11
324.0363991803307
 21
-314.9
 31
0.0
  0
CIRCLE
  5
5F7
330
616
100
AcDbEntity
  8
Flan
100
AcDbCircle
 10
284.4400000000001
 20
-309.9
 30
0.0
 40
2.049999999999955
  0
ARC
  5
5F8
330
616
100
AcDbEntity
  8
Flan
100
AcDbCircle
 10
249.4400000000001
 20
-267.9
 30
0.0
 40
29.99999999999995
100
AcDbArc
 50
3.583321698471979
 51
86.41667830152802
  0
CIRCLE
  5
5F9
330
616
100
AcDbEntity
  8
Flan
100
AcDbCircle
 10
320.8499690635994
 20
-309.9
 30
0.0
 40
2.049999999999955
  0
CIRCLE
  5
5FA
330
616
100
AcDbEntity
  8
Flan
100
AcDbCircle
 10
342.1883959507958
 20
-61.04713444718288
 30
0.0
 40
2.049999999999955
  0
CIRCLE
  5
5FB
330
616
100
AcDbEntity
  8
Flan
100
AcDbCircle
 10
333.2567619912692
 20
-152.1805027313247
 30
0.0
 40
2.049999999999955
  0
CIRCLE
  5
5FC
330
616
100
AcDbEntity
  8
Flan
100
AcDbCircle
 10
324.3251280317426
 20
-243.3138710154664
 30
0.0
 40
2.049999999999955
  0
LINE
  5
5FD
330
616
100
AcDbEntity
  8
Flan
100
AcDbLine
 10
326.0268626134232
 20
-313.0950777319979
 30
0.0
 11
354.6614345829905
 21
-2.193825943841091
 31
0.0
  0
ARC
  5
5FE
330
616
100
AcDbEntity
  8
Flan
100
AcDbCircle
 10
281.3774388453427
 20
-312.9
 30
0.0
 40
2.00000000000005
100
AcDbArc
 50
183.5833216984718
 51
269.9999999999999
  0
ARC
  5
5FF
330
616
100
AcDbEntity
  8
Flan
100
AcDbCircle
 10
324.0363991803307
 20
-312.9
 30
0.0
 40
2.0
100
AcDbArc
 50
270.0
 51
354.4025350418844
  0
LINE
  5
600
330
616
100
AcDbEntity
  8
Flan
100
AcDbLine
 10
352.6708488642901
 20
0.0
 30
0.0
 11
0.0
 21
0.0
 31
0.0
  0
CIRCLE
  5
601
330
616
100
AcDbEntity
  8
Flan
100
AcDbCircle
 10
347.1913309695484
 20
-10.0
 30
0.0
 40
2.049999999999955
  0
ARC
  5
602
330
616
100
AcDbEntity
  8
Flan
100
AcDbCircle
 10
352.6708488642901
 20
-2.0
 30
0.0
 40
2.000000000000028
100
AcDbArc
 50
354.4385668380929
 51
90.0
  0
LINE
  5
603
330
616
100
AcDbEntity
  8
Flan
100
AcDbLine
 10
279.3813489175087
 20
-266.025
 30
0.0
 11
279.3813489175087
 21
-313.025
 31
0.0
  0
LINE
  5
604
330
616
100
AcDbEntity
  8
Flan
100
AcDbLine
 10
101.365
 20
-237.9586510824913
 30
0.0
 11
251.3150000000001
 21
-237.9586510824913
 31
0.0
  0
CIRCLE
  5
605
330
616
100
AcDbEntity
  8
Flan
100
AcDbCircle
 10
114.84
 20
-56.58999999999992
 30
0.0
 40
2.049999999999955
  0
CIRCLE
  5
606
330
616
100
AcDbEntity
  8
Flan
100
AcDbCircle
 10
114.84
 20
-143.0899999999999
 30
0.0
 40
2.049999999999955
  0
CIRCLE
  5
607
330
616
100
AcDbEntity
  8
Flan
100
AcDbCircle
 10
114.84
 20
-229.5899999999999
 30
0.0
 40
2.049999999999955
  0
LINE
  5
608
330
616
100
AcDbEntity
  8
Flan
100
AcDbLine
 10
71.30256115465738
 20
-314.9
 30
0.0
 11
28.64360081966936
 21
-314.9
 31
0.0
  0
CIRCLE
  5
609
330
616
100
AcDbEntity
  8
Flan
100
AcDbCircle
 10
68.24000000000001
 20
-309.9
 30
0.0
 40
2.049999999999955
  0
ARC
  5
60A
330
616
100
AcDbEntity
  8
Flan
100
AcDbCircle
 10
103.24
 20
-267.9
 30
0.0
 40
29.99999999999995
100
AcDbArc
 50
93.58332169847198
 51
176.416678301528
  0
CIRCLE
  5
60B
330
616
100
AcDbEntity
  8
Flan
100
AcDbCircle
 10
31.8300309364007
 20
-309.9
 30
0.0
 40
2.049999999999955
  0
CIRCLE
  5
60C
330
616
100
AcDbEntity
  8
Flan
100
AcDbCircle
 10
10.49160404920428
 20
-61.04713444718288
 30
0.0
 40
2.049999999999955
  0
CIRCLE
  5
60D
330
616
100
AcDbEntity
  8
Flan
100
AcDbCircle
 10
19.42323800873089
 20
-152.1805027313247
 30
0.0
 40
2.049999999999955
  0
CIRCLE
  5
60E
330
616
100
AcDbEntity
  8
Flan
100
AcDbCircle
 10
28.3548719682575
 20
-243.3138710154664
 30
0.0
 40
2.049999999999955
  0
LINE
  5
60F
330
616
100
AcDbEntity
  8
Flan
100
AcDbLine
 10
26.65313738657687
 20
-313.0950777319979
 30
0.0
 11
-1.98143458299046
 21
-2.193825943841091
 31
0.0
  0
ARC
  5
610
330
616
100
AcDbEntity
  8
Flan
100
AcDbCircle
 10
71.30256115465738
 20
-312.9
 30
0.0
 40
2.0
100
AcDbArc
 50
270.0
 51
356.416678301528
  0
ARC
  5
611
330
616
100
AcDbEntity
  8
Flan
100
AcDbCircle
 10
28.64360081966936
 20
-312.9
 30
0.0
 40
1.999999999999944
100
AcDbArc
 50
185.5974649581158
 51
270.0000000000002
  0
CIRCLE
  5
612
330
616
100
AcDbEntity
  8
Flan
100
AcDbCircle
 10
5.488669030451661
 20
-10.0
 30
0.0
 40
2.049999999999955
  0
ARC
  5
613
330
616
100
AcDbEntity
  8
Flan
100
AcDbCircle
 10
0.0091511357099989
 20
-2.0
 30
0.0
 40
2.0
100
AcDbArc
 50
90.0
 51
185.5614331619071
  0
LINE
  5
614
330
616
100
AcDbEntity
  8
Flan
100
AcDbLine
 10
73.29865108249135
 20
-266.025
 30
0.0
 11
73.29865108249135
 21
-313.025
 31
0.0
  0
ENDBLK
  5
615
330
616
100
AcDbEntity
  8
0
100
AcDbBlockEnd
  0
BLOCK
  5
643
330
65A
100
AcDbEntity
  8
0
100
AcDbBlockBegin
  2
PROTEGE_C2
 70
     0
 10
0.0
 20
0.0
 30
0.0
  3
PROTEGE_C2
  1
PROTEGE_C2
  0
LINE
  5
644
330
65A
100
AcDbEntity
  8
Protège chaine
100
AcDbLine
 10
-420.8057992981126
 20
-28.15236306625513
 30
-56.0
 11
-414.7076120785865
 21
-53.16135005230865
 31
0.0
  0
LINE
  5
645
330
65A
100
AcDbEntity
  8
Protège chaine
100
AcDbLine
 10
45.71297853818209
 20
122.8015656657441
 30
0.0
 11
-263.3905392555926
 21
47.42981539164441
 31
0.0
  0
LINE
  5
646
330
65A
100
AcDbEntity
  8
Protège chaine
100
AcDbLine
 10
41.21125998140155
 20
96.99940339383386
 30
0.0
 11
53.33730882756993
 21
104.5784978775456
 31
0.0
  0
CIRCLE
  5
647
330
65A
100
AcDbEntity
  8
Protège chaine
100
AcDbCircle
 10
0.0
 20
0.0
 30
0.0
 40
5.0
  0
LINE
  5
648
330
65A
100
AcDbEntity
  8
Protège chaine
100
AcDbLine
 10
10.30488719731278
 20
21.05729885378912
 30
0.0
 11
14.57301508705513
 21
3.553481570581766
 31
0.0
  0
ARC
  5
649
330
65A
100
AcDbEntity
  8
Protège chaine
100
AcDbCircle
 10
-14.5907484437887
 20
19.55497728728335
 30
0.0
 40
2.999999999999964
100
AcDbArc
 50
283.7036000000004
 51
103.7035753216627
  0
ARC
  5
64A
330
65A
100
AcDbEntity
  8
Protège chaine
100
AcDbCircle
 10
48.08196625190322
 20
113.0862222743739
 30
0.0
 40
10.00000000000011
100
AcDbArc
 50
301.7042161760429
 51
103.7035753216632
  0
ARC
  5
64B
330
65A
100
AcDbEntity
  8
Protège chaine
100
AcDbCircle
 10
78.31229093690405
 20
37.64021284983426
 30
0.0
 40
70.00000000000001
100
AcDbArc
 50
122.0064499403661
 51
193.7035753216611
  0
LINE
  5
64C
330
65A
100
AcDbEntity
  8
Protège chaine
100
AcDbLine
 10
-204.7506408896211
 20
-23.72568011286967
 30
0.0
 11
-15.30144475790496
 21
22.46958030469443
 31
0.0
  0
LINE
  5
64D
330
65A
100
AcDbEntity
  8
Protège chaine
100
AcDbLine
 10
-203.3292470060159
 20
-29.55488584158161
 30
0.0
 11
-13.88005087429977
 21
16.64037457598249
 31
0.0
  0
ARC
  5
64E
330
65A
100
AcDbEntity
  8
Protège chaine
100
AcDbCircle
 10
-204.0399445755048
 20
-26.64028313028075
 30
0.0
 40
3.000000000000038
100
AcDbArc
 50
103.7035753216618
 51
283.7036000000004
  0
ARC
  5
64F
330
65A
100
AcDbEntity
  8
Protège chaine
100
AcDbCircle
 10
-395.2760181448698
 20
-46.49386230772677
 30
0.0
 40
3.000000000000038
100
AcDbArc
 50
103.7035753216618
 51
283.7036000000004
  0
LINE
  5
650
330
65A
100
AcDbEntity
  8
Protège chaine
100
AcDbLine
 10
-394.5653205753808
 20
-49.40846501902763
 30
0.0
 11
-205.1161244436648
 21
-3.213204601463531
 31
0.0
  0
LINE
  5
651
330
65A
100
AcDbEntity
  8
Protège chaine
100
AcDbLine
 10
-395.9867144589861
 20
-43.57925929031569
 30
0.0
 11
-206.53751832727
 21
2.61600112724841
 31
0.0
  0
ARC
  5
652
330
65A
100
AcDbEntity
  8
Protège chaine
100
AcDbCircle
 10
-205.8268220131537
 20
-0.2986018901626721
 30
0.0
 40
2.999999999999964
100
AcDbArc
 50
283.7036000000004
 51
103.7035753216627
  0
LINE
  5
653
330
65A
100
AcDbEntity
  8
Protège chaine
100
AcDbLine
 10
-94.69463528027774
 20
-38.52981952926143
 30
0.0
 11
3.553481570581084
 21
-14.5730150870553
 31
0.0
  0
ARC
  5
654
330
65A
100
AcDbEntity
  8
Protège chaine
100
AcDbCircle
 10
-331.5934066524014
 20
933.0045196077441
 30
0.0
 40
1000.0
100
AcDbArc
 50
266.0098506747271
 51
283.7035753216641
  0
ARC
  5
655
330
65A
100
AcDbEntity
  8
Protège chaine
100
AcDbCircle
 10
0.0
 20
0.0
 30
0.0
 40
15.00000000000006
100
AcDbArc
 50
283.7035715806153
 51
13.70357532166367
  0
ARC
  5
656
330
65A
100
AcDbEntity
  8
Protège chaine
100
AcDbCircle
 10
-400.1345969915312
 20
-49.60786848172779
 30
0.0
 40
15.0
100
AcDbArc
 50
193.7035753216601
 51
266.009850674727
  0
ARC
  5
657
330
65A
100
AcDbEntity
  8
Protège chaine
100
AcDbCircle
 10
-121.2512764323175
 20
-535.4907880905587
 30
0.0
 40
600.0
100
AcDbArc
 50
103.7035753216642
 51
119.1532915297992
  0
ARC
  5
658
330
65A
100
AcDbEntity
  8
Protège chaine
100
AcDbCircle
 10
-406.2327842110573
 20
-24.59888149567416
 30
-56.0
 40
14.99999999999998
100
AcDbArc
 50
119.1532915297992
 51
193.7035753216606
  0
ENDBLK
  5
659
330
65A
100
AcDbEntity
  8
0
100
AcDbBlockEnd
  0
ENDSEC
  0
SECTION
  2
ENTITIES
  0
CIRCLE
  5
474
330
19
100
AcDbEntity
  8
Flan
100
AcDbCircle
 10
1040.646195728342
 20
1119.902377957504
 30
0.0
 40
2.050000000000182
  0
CIRCLE
  5
475
330
19
100
AcDbEntity
  8
Flan
100
AcDbCircle
 10
1141.428729565129
 20
1056.926467415687
 30
0.0
 40
2.049999999999727
  0
CIRCLE
  5
476
330
19
100
AcDbEntity
  8
Flan
100
AcDbCircle
 10
1150.320340439984
 20
919.4520691870757
 30
0.0
 40
2.049999999999727
  0
CIRCLE
  5
477
330
19
100
AcDbEntity
  8
Flan
100
AcDbCircle
 10
1147.749459474698
 20
860.569435841035
 30
0.0
 40
2.049999999999727
  0
LINE
  5
479
330
19
100
AcDbEntity
  8
Fond
100
AcDbLine
 10
1166.596914664242
 20
563.9310545795602
 30
0.0
 11
1166.596914664242
 21
387.4310545795601
 31
0.0
  0
LINE
  5
47A
330
19
100
AcDbEntity
  8
Fond
100
AcDbLine
 10
1166.596914664242
 20
387.4310545795601
 30
0.0
 11
1106.506914664242
 21
387.4310545795601
 31
0.0
  0
LINE
  5
47B
330
19
100
AcDbEntity
  8
Fond
100
AcDbLine
 10
1106.506914664242
 20
387.4310545795601
 30
0.0
 11
938.8969146642419
 21
387.4310545795601
 31
0.0
  0
LINE
  5
47C
330
19
100
AcDbEntity
  8
Epure
100
AcDbLine
 10
938.8969146642419
 20
563.9310545795602
 30
0.0
 11
938.8969146642419
 21
387.4310545795601
 31
0.0
  0
LINE
  5
47D
330
19
100
AcDbEntity
  8
Epure
100
AcDbLine
 10
955.536914664242
 20
563.9310545795602
 30
0.0
 11
955.5369146642419
 21
387.4310545795601
 31
0.0
  0
LINE
  5
47E
330
19
100
AcDbEntity
  8
Epure
100
AcDbLine
 10
665.3869146642419
 20
563.9310545795602
 30
0.0
 11
665.3869146642419
 21
402.0036837031856
 31
0.0
  0
LINE
  5
47F
330
19
100
AcDbEntity
  8
Epure
100
AcDbLine
 10
1106.506914664242
 20
563.9310545795602
 30
0.0
 11
1106.506914664242
 21
387.4310545795601
 31
0.0
  0
LINE
  5
480
330
19
100
AcDbEntity
  8
Fond
100
AcDbLine
 10
881.1669146642419
 20
388.2010545795601
 30
0.0
 11
938.8969146642419
 21
387.4310545795601
 31
0.0
  0
LINE
  5
481
330
19
100
AcDbEntity
  8
Fond
100
AcDbLine
 10
881.1669146642419
 20
388.2010545795601
 30
0.0
 11
810.1374062347259
 21
390.5010545795602
 31
0.0
  0
LINE
  5
482
330
19
100
AcDbEntity
  8
Fond
100
AcDbLine
 10
810.1374062347259
 20
390.5010545795602
 30
0.0
 11
745.8669146642419
 21
394.3510545795601
 31
0.0
  0
LINE
  5
483
330
19
100
AcDbEntity
  8
Fond
100
AcDbLine
 10
745.8669146642419
 20
394.3510545795601
 30
0.0
 11
684.9269146642418
 21
399.7410545795602
 31
0.0
  0
LINE
  5
484
330
19
100
AcDbEntity
  8
Fond
100
AcDbLine
 10
684.9269146642418
 20
399.7410545795602
 30
0.0
 11
624.9069146642419
 21
406.6910545795602
 31
0.0
  0
LINE
  5
485
330
19
100
AcDbEntity
  8
Fond
100
AcDbLine
 10
624.9069146642419
 20
406.6910545795602
 30
0.0
 11
564.8269146642419
 21
415.2210545795601
 31
0.0
  0
LINE
  5
486
330
19
100
AcDbEntity
  8
Fond
100
AcDbLine
 10
564.8269146642419
 20
415.2210545795601
 30
0.0
 11
504.746914664242
 21
425.3310545795601
 31
0.0
  0
LINE
  5
487
330
19
100
AcDbEntity
  8
Fond
100
AcDbLine
 10
504.746914664242
 20
425.3310545795601
 30
0.0
 11
444.6669146642421
 21
437.0610545795602
 31
0.0
  0
LINE
  5
488
330
19
100
AcDbEntity
  8
Fond
100
AcDbLine
 10
444.6669146642421
 20
437.0610545795602
 30
0.0
 11
397.786914664242
 21
447.4857682946068
 31
0.0
  0
LINE
  5
489
330
19
100
AcDbEntity
  8
Fond
100
AcDbLine
 10
397.786914664242
 20
447.4857682946068
 30
0.0
 11
397.786914664242
 21
563.9310545795602
 31
0.0
  0
LINE
  5
48A
330
19
100
AcDbEntity
  8
Fond
100
AcDbLine
 10
1166.596914664242
 20
563.9310545795602
 30
0.0
 11
1166.596914664242
 21
740.4310545795602
 31
0.0
  0
LINE
  5
48B
330
19
100
AcDbEntity
  8
Fond
100
AcDbLine
 10
1166.596914664242
 20
740.4310545795602
 30
0.0
 11
1106.506914664242
 21
740.4310545795602
 31
0.0
  0
LINE
  5
48C
330
19
100
AcDbEntity
  8
Fond
100
AcDbLine
 10
1106.506914664242
 20
740.4310545795602
 30
0.0
 11
938.8969146642419
 21
740.4310545795602
 31
0.0
  0
LINE
  5
48D
330
19
100
AcDbEntity
  8
Epure
100
AcDbLine
 10
938.8969146642419
 20
563.9310545795602
 30
0.0
 11
938.8969146642419
 21
740.4310545795602
 31
0.0
  0
LINE
  5
48E
330
19
100
AcDbEntity
  8
Epure
100
AcDbLine
 10
955.536914664242
 20
563.9310545795602
 30
0.0
 11
955.536914664242
 21
740.4310545795602
 31
0.0
  0
LINE
  5
48F
330
19
100
AcDbEntity
  8
Epure
100
AcDbLine
 10
665.3869146642419
 20
563.9310545795602
 30
0.0
 11
665.3869146642419
 21
725.8584254559347
 31
0.0
  0
LINE
  5
490
330
19
100
AcDbEntity
  8
Epure
100
AcDbLine
 10
1106.506914664242
 20
563.9310545795602
 30
0.0
 11
1106.506914664242
 21
740.4310545795602
 31
0.0
  0
LINE
  5
491
330
19
100
AcDbEntity
  8
Fond
100
AcDbLine
 10
881.1669146642419
 20
739.6610545795602
 30
0.0
 11
938.8969146642419
 21
740.4310545795602
 31
0.0
  0
LINE
  5
492
330
19
100
AcDbEntity
  8
Fond
100
AcDbLine
 10
881.1669146642419
 20
739.6610545795602
 30
0.0
 11
810.1374062347259
 21
737.36105457956
 31
0.0
  0
LINE
  5
493
330
19
100
AcDbEntity
  8
Fond
100
AcDbLine
 10
810.1374062347259
 20
737.36105457956
 30
0.0
 11
745.8669146642419
 21
733.5110545795601
 31
0.0
  0
LINE
  5
494
330
19
100
AcDbEntity
  8
Fond
100
AcDbLine
 10
745.8669146642419
 20
733.5110545795601
 30
0.0
 11
684.9269146642418
 21
728.1210545795601
 31
0.0
  0
LINE
  5
495
330
19
100
AcDbEntity
  8
Fond
100
AcDbLine
 10
684.9269146642418
 20
728.1210545795601
 30
0.0
 11
624.9069146642419
 21
721.1710545795602
 31
0.0
  0
LINE
  5
496
330
19
100
AcDbEntity
  8
Fond
100
AcDbLine
 10
624.9069146642419
 20
721.1710545795602
 30
0.0
 11
564.8269146642419
 21
712.6410545795602
 31
0.0
  0
LINE
  5
497
330
19
100
AcDbEntity
  8
Fond
100
AcDbLine
 10
564.8269146642419
 20
712.6410545795602
 30
0.0
 11
504.746914664242
 21
702.5310545795602
 31
0.0
  0
LINE
  5
498
330
19
100
AcDbEntity
  8
Fond
100
AcDbLine
 10
504.746914664242
 20
702.5310545795602
 30
0.0
 11
444.6669146642421
 21
690.8010545795602
 31
0.0
  0
LINE
  5
499
330
19
100
AcDbEntity
  8
Fond
100
AcDbLine
 10
444.6669146642421
 20
690.8010545795602
 30
0.0
 11
397.786914664242
 21
680.3763408645136
 31
0.0
  0
LINE
  5
49A
330
19
100
AcDbEntity
  8
Fond
100
AcDbLine
 10
397.786914664242
 20
680.3763408645136
 30
0.0
 11
397.786914664242
 21
563.9310545795602
 31
0.0
  0
CIRCLE
  5
49B
330
19
100
AcDbEntity
  8
Fond
100
AcDbCircle
 10
1156.596914664242
 20
502.4310545795601
 30
0.0
 40
2.049999999999727
  0
CIRCLE
  5
49C
330
19
100
AcDbEntity
  8
Fond
100
AcDbCircle
 10
1111.306914664242
 20
397.4310545795601
 30
0.0
 40
2.049999999999955
  0
LINE
  5
49D
330
19
100
AcDbEntity
  8
Flan
100
AcDbLine
 10
1101.415455559943
 20
822.1834298193423
 30
0.0
 11
1157.975566575694
 21
831.1416713472659
 31
0.0
  0
LINE
  5
49E
330
19
100
AcDbEntity
  8
Flan
100
AcDbLine
 10
1167.708624094244
 20
1054.065519605579
 30
0.0
 11
1157.975566575694
 21
831.1416713472659
 31
0.0
  0
LINE
  5
49F
330
19
100
AcDbEntity
  8
Flan
100
AcDbLine
 10
1027.853670071106
 20
1141.456585677143
 30
0.0
 11
1167.708624094244
 21
1054.065519605579
 31
0.0
  0
LINE
  5
4A0
330
19
100
AcDbEntity
  8
Flan
100
AcDbLine
 10
972.5861463579598
 20
1293.4284924884
 30
0.0
 11
989.3369825367571
 21
1295.938581662866
 31
0.0
  0
LINE
  5
4A1
330
19
100
AcDbEntity
  8
Flan
100
AcDbLine
 10
989.3369825367571
 20
1295.938581662866
 30
0.0
 11
1027.853670071106
 21
1141.456585677143
 31
0.0
  0
LINE
  5
4A2
330
19
100
AcDbEntity
  8
Epure
100
AcDbLine
 10
972.5861463579598
 20
861.652043742989
 30
0.0
 11
972.5861463579598
 21
1293.4284924884
 31
0.0
  0
LINE
  5
4A3
330
19
100
AcDbEntity
  8
Flan
100
AcDbLine
 10
440.6061463579599
 20
1011.617549479069
 30
0.0
 11
440.6061463579599
 21
1200.583711576448
 31
0.0
  0
LINE
  5
4A4
330
19
100
AcDbEntity
  8
Flan
100
AcDbLine
 10
440.6061463579599
 20
1200.583711576448
 30
0.0
 11
972.5861463579598
 21
1293.4284924884
 31
0.0
  0
ARC
  5
4A5
330
19
100
AcDbEntity
  8
Flan
100
AcDbCircle
 10
1077.188448925564
 20
973.7935901006961
 30
0.0
 40
153.5000000000003
100
AcDbArc
 50
226.9336819108908
 51
279.0000024654349
  0
LINE
  5
4A6
330
19
100
AcDbEntity
  8
Flan
100
AcDbLine
 10
711.7768464504142
 20
997.651435239108
 30
0.0
 11
440.6061463579599
 21
1011.617549479069
 31
0.0
  0
ARC
  5
4A7
330
19
100
AcDbEntity
  8
Flan
100
AcDbCircle
 10
693.7462135515573
 20
647.5622321508164
 30
0.0
 40
350.5532111416588
100
AcDbArc
 50
78.68757216346496
 51
87.05170232151168
  0
ARC
  5
4A8
330
19
100
AcDbEntity
  8
Flan
100
AcDbCircle
 10
694.2230779174444
 20
649.9460141158182
 30
0.0
 40
348.1222238374367
100
AcDbArc
 50
62.96695160521421
 51
78.6875721634668
  0
ARC
  5
4A9
330
19
100
AcDbEntity
  8
Flan
100
AcDbCircle
 10
674.3918800332475
 20
620.0553711450797
 30
0.0
 40
383.7821943229192
100
AcDbArc
 50
39.01435388861858
 51
62.35796088349282
  0
CIRCLE
  5
4AC
330
19
100
AcDbEntity
  8
Flan
100
AcDbCircle
 10
858.6792567739711
 20
969.459334968868
 30
0.0
 40
2.049999999999955
  0
CIRCLE
  5
4AF
330
19
100
AcDbEntity
  8
Flan
100
AcDbCircle
 10
960.1224491448489
 20
1277.549182827729
 30
0.0
 40
2.049999999999955
  0
CIRCLE
  5
4B0
330
19
100
AcDbEntity
  8
Fond
100
AcDbCircle
 10
1111.306914664242
 20
730.4310545795602
 30
0.0
 40
2.049999999999955
  0
CIRCLE
  5
4B1
330
19
100
AcDbEntity
  8
Fond
100
AcDbCircle
 10
1156.596914664242
 20
625.4310545795602
 30
0.0
 40
2.049999999999727
  0
LINE
  5
4B2
330
19
100
AcDbEntity
  8
Porte
100
AcDbLine
 10
649.2393492718764
 20
127.5915399085487
 30
0.0
 11
649.2393492718764
 21
247.3777535963871
 31
0.0
  0
LINE
  5
4B3
330
19
100
AcDbEntity
  8
Porte
100
AcDbLine
 10
649.2393492718764
 20
247.3777535963871
 30
0.0
 11
697.9093492718763
 21
258.0415399085485
 31
0.0
  0
LINE
  5
4B4
330
19
100
AcDbEntity
  8
Porte
100
AcDbLine
 10
697.9093492718763
 20
258.0415399085485
 30
0.0
 11
758.8393492718764
 21
269.7515399085485
 31
0.0
  0
LINE
  5
4B5
330
19
100
AcDbEntity
  8
Porte
100
AcDbLine
 10
758.8393492718764
 20
269.7515399085485
 30
0.0
 11
819.7693492718764
 21
279.8515399085489
 31
0.0
  0
LINE
  5
4B6
330
19
100
AcDbEntity
  8
Porte
100
AcDbLine
 10
819.7693492718764
 20
279.8515399085489
 30
0.0
 11
880.6993492718764
 21
288.3615399085487
 31
0.0
  0
LINE
  5
4B7
330
19
100
AcDbEntity
  8
Porte
100
AcDbLine
 10
880.6993492718764
 20
288.3615399085487
 30
0.0
 11
941.6293492718763
 21
295.3015399085487
 31
0.0
  0
LINE
  5
4B8
330
19
100
AcDbEntity
  8
Porte
100
AcDbLine
 10
941.6293492718763
 20
295.3015399085487
 30
0.0
 11
1002.559349271876
 21
300.6815399085488
 31
0.0
  0
LINE
  5
4B9
330
19
100
AcDbEntity
  8
Porte
100
AcDbLine
 10
1002.559349271876
 20
300.6815399085488
 30
0.0
 11
1063.489349271877
 21
304.5215399085485
 31
0.0
  0
LINE
  5
4BA
330
19
100
AcDbEntity
  8
Porte
100
AcDbLine
 10
1063.489349271877
 20
304.5215399085485
 30
0.0
 11
1124.419349271876
 21
306.8215399085487
 31
0.0
  0
LINE
  5
4BB
330
19
100
AcDbEntity
  8
Porte
100
AcDbLine
 10
1124.419349271876
 20
306.8215399085487
 30
0.0
 11
1160.849349271876
 21
307.3186354251177
 31
0.0
  0
LINE
  5
4BC
330
19
100
AcDbEntity
  8
Porte
100
AcDbLine
 10
1160.849349271876
 20
307.3186354251177
 30
0.0
 11
1160.849349271876
 21
127.5915399085487
 31
0.0
  0
LINE
  5
4BD
330
19
100
AcDbEntity
  8
Porte
100
AcDbLine
 10
649.2393492718764
 20
127.5915399085487
 30
0.0
 11
649.2393492718764
 21
7.805326220710242
 31
0.0
  0
LINE
  5
4BE
330
19
100
AcDbEntity
  8
Porte
100
AcDbLine
 10
649.2393492718764
 20
7.805326220710242
 30
0.0
 11
697.9093492718763
 21
-2.85846009145132
 31
0.0
  0
LINE
  5
4BF
330
19
100
AcDbEntity
  8
Porte
100
AcDbLine
 10
697.9093492718763
 20
-2.85846009145132
 30
0.0
 11
758.8393492718764
 21
-14.56846009145141
 31
0.0
  0
LINE
  5
4C0
330
19
100
AcDbEntity
  8
Porte
100
AcDbLine
 10
758.8393492718764
 20
-14.56846009145141
 30
0.0
 11
819.7693492718764
 21
-24.66846009145132
 31
0.0
  0
LINE
  5
4C1
330
19
100
AcDbEntity
  8
Porte
100
AcDbLine
 10
819.7693492718764
 20
-24.66846009145132
 30
0.0
 11
880.6993492718764
 21
-33.17846009145131
 31
0.0
  0
LINE
  5
4C2
330
19
100
AcDbEntity
  8
Porte
100
AcDbLine
 10
880.6993492718764
 20
-33.17846009145131
 30
0.0
 11
941.6293492718763
 21
-40.11846009145137
 31
0.0
  0
LINE
  5
4C3
330
19
100
AcDbEntity
  8
Porte
100
AcDbLine
 10
941.6293492718763
 20
-40.11846009145137
 30
0.0
 11
1002.559349271876
 21
-45.49846009145125
 31
0.0
  0
LINE
  5
4C4
330
19
100
AcDbEntity
  8
Porte
100
AcDbLine
 10
1002.559349271876
 20
-45.49846009145125
 30
0.0
 11
1063.489349271876
 21
-49.3384600914514
 31
0.0
  0
LINE
  5
4C5
330
19
100
AcDbEntity
  8
Porte
100
AcDbLine
 10
1063.489349271876
 20
-49.3384600914514
 30
0.0
 11
1124.419349271876
 21
-51.63846009145135
 31
0.0
  0
LINE
  5
4C6
330
19
100
AcDbEntity
  8
Porte
100
AcDbLine
 10
1124.419349271876
 20
-51.63846009145135
 30
0.0
 11
1160.849349271876
 21
-52.13555560802064
 31
0.0
  0
LINE
  5
4C7
330
19
100
AcDbEntity
  8
Porte
100
AcDbLine
 10
1160.849349271876
 20
-52.13555560802064
 30
0.0
 11
1160.849349271876
 21
127.5915399085487
 31
0.0
  0
CIRCLE
  5
4C8
330
19
100
AcDbEntity
  8
Porte
100
AcDbCircle
 10
684.2393492718764
 20
102.5915399085487
 30
0.0
 40
2.100000000000023
  0
CIRCLE
  5
4C9
330
19
100
AcDbEntity
  8
Porte
100
AcDbCircle
 10
684.2393492718764
 20
152.5915399085487
 30
0.0
 40
2.100000000000023
  0
CIRCLE
  5
4CA
330
19
100
AcDbEntity
  8
Porte
100
AcDbCircle
 10
684.2393492718764
 20
127.5915399085487
 30
0.0
 40
10.10000000000002
  0
CIRCLE
  5
4CB
330
19
100
AcDbEntity
  8
Porte
100
AcDbCircle
 10
656.3073942810724
 20
229.5952042350337
 30
0.0
 40
2.100000000000023
  0
CIRCLE
  5
4CC
330
19
100
AcDbEntity
  8
Flan
100
AcDbCircle
 10
1003.277078777891
 20
992.4188605582412
 30
0.0
 40
2.049999999999955
  0
CIRCLE
  5
4CD
330
19
100
AcDbEntity
  8
Flan
100
AcDbCircle
 10
1081.925355823689
 20
1007.332115127041
 30
0.0
 40
2.049999999999955
  0
CIRCLE
  5
4CE
330
19
100
AcDbEntity
  8
Porte
100
AcDbCircle
 10
656.3073942810724
 20
25.58787558206376
 30
0.0
 40
2.100000000000023
  0
CIRCLE
  5
4CF
330
19
100
AcDbEntity
  8
Fond
100
AcDbCircle
 10
410.786914664242
 20
563.9310545795602
 30
0.0
 40
2.049999999999955
  0
CIRCLE
  5
4D0
330
19
100
AcDbEntity
  8
Flan
100
AcDbCircle
 10
453.6061463579599
 20
1101.203974770195
 30
0.0
 40
2.049999999999955
  0
CIRCLE
  5
4D1
330
19
100
AcDbEntity
  8
Flan
100
AcDbCircle
 10
453.6061463579599
 20
1191.058974770195
 30
0.0
 40
2.049999999999955
  0
CIRCLE
  5
4D2
330
19
100
AcDbEntity
  8
Porte
100
AcDbCircle
 10
1150.849349271876
 20
127.5915399085486
 30
0.0
 40
2.099999999999909
  0
CIRCLE
  5
4D3
330
19
100
AcDbEntity
  8
Flan
100
AcDbCircle
 10
673.6960708909398
 20
1227.560096139534
 30
0.0
 40
2.049999999999955
  0
CIRCLE
  5
4D4
330
19
100
AcDbEntity
  8
Flan
100
AcDbCircle
 10
530.9261086244499
 20
1202.642907772605
 30
0.0
 40
2.049999999999955
  0
CIRCLE
  5
4D5
330
19
100
AcDbEntity
  8
Flan
100
AcDbCircle
 10
816.4660331574298
 20
1252.477284506463
 30
0.0
 40
2.049999999999955
  0
CIRCLE
  5
4D6
330
19
100
AcDbEntity
  8
Flan
100
AcDbCircle
 10
1153.358336156888
 20
1037.665699688385
 30
0.0
 40
2.049999999999955
  0
CIRCLE
  5
4D7
330
19
100
AcDbEntity
  8
Flan
100
AcDbCircle
 10
1157.866245529835
 20
1026.126130700223
 30
0.0
 40
2.049999999999955
  0
CIRCLE
  5
4DA
330
19
100
AcDbEntity
  8
Flan
100
AcDbCircle
 10
933.529889222624
 20
1281.800827966383
 30
0.0
 40
4.0
  0
CIRCLE
  5
4DB
330
19
100
AcDbEntity
  8
Porte
100
AcDbCircle
 10
1144.719318407412
 20
-0.3314243424987353
 30
0.0
 40
2.099999999999909
  0
CIRCLE
  5
4DC
330
19
100
AcDbEntity
  8
Porte
100
AcDbCircle
 10
1144.719318407412
 20
255.514504159596
 30
0.0
 40
2.099999999999909
  0
CIRCLE
  5
4ED
330
19
100
AcDbEntity
  8
Fond
100
AcDbCircle
 10
410.786914664242
 20
455.1310545795602
 30
0.0
 40
2.049999999999955
  0
CIRCLE
  5
4EE
330
19
100
AcDbEntity
  8
Fond
100
AcDbCircle
 10
410.786914664242
 20
672.7310545795601
 30
0.0
 40
2.049999999999955
  0
ARC
  5
4EF
330
19
100
AcDbEntity
  8
Plaques
100
AcDbCircle
 10
407.5244650187284
 20
912.0661684185675
 30
0.0
 40
20.0
100
AcDbArc
 50
90.0
 51
180.0
  0
CIRCLE
  5
4F0
330
19
100
AcDbEntity
  8
Plaques
100
AcDbCircle
 10
397.5244650187284
 20
922.0661684185675
 30
0.0
 40
2.049999999999727
  0
LINE
  5
4F1
330
19
100
AcDbEntity
  8
Plaques
100
AcDbLine
 10
387.5244650187284
 20
912.0661684185675
 30
0.0
 11
387.5244650187284
 21
813.2061684185676
 31
0.0
  0
LINE
  5
4F2
330
19
100
AcDbEntity
  8
Plaques
100
AcDbLine
 10
407.5244650187284
 20
932.0661684185675
 30
0.0
 11
717.6044650187283
 21
932.0661684185675
 31
0.0
  0
CIRCLE
  5
4F3
330
19
100
AcDbEntity
  8
Plaques
100
AcDbCircle
 10
512.5644650187284
 20
927.0661684185675
 30
0.0
 40
2.049999999999727
  0
CIRCLE
  5
4F4
330
19
100
AcDbEntity
  8
Plaques
100
AcDbCircle
 10
612.5644650187284
 20
927.0661684185675
 30
0.0
 40
2.049999999999727
  0
ARC
  5
4F5
330
19
100
AcDbEntity
  8
Plaques
100
AcDbCircle
 10
717.6044650187283
 20
912.0661684185675
 30
0.0
 40
20.0
100
AcDbArc
 50
0.0
 51
90.0
  0
LINE
  5
4F7
330
19
100
AcDbEntity
  8
Plaques
100
AcDbLine
 10
737.6044650187283
 20
912.0661684185675
 30
0.0
 11
737.6044650187283
 21
813.2061684185676
 31
0.0
  0
ARC
  5
4F9
330
19
100
AcDbEntity
  8
Plaques
100
AcDbCircle
 10
717.6044650187283
 20
813.2061684185676
 30
0.0
 40
20.0
100
AcDbArc
 50
270.0
 51
360.0
  0
LINE
  5
4FA
330
19
100
AcDbEntity
  8
Plaques
100
AcDbLine
 10
407.5244650187284
 20
793.2061684185676
 30
0.0
 11
553.025073004559
 21
793.2061684185676
 31
0.0
  0
ARC
  5
4FB
330
19
100
AcDbEntity
  8
Plaques
100
AcDbCircle
 10
407.5244650187284
 20
813.2061684185676
 30
0.0
 40
20.0
100
AcDbArc
 50
180.0
 51
270.0
  0
CIRCLE
  5
4FC
330
19
100
AcDbEntity
  8
Plaques
100
AcDbCircle
 10
397.5244650187284
 20
803.2061684185675
 30
0.0
 40
2.049999999999727
  0
CIRCLE
  5
4FD
330
19
100
AcDbEntity
  8
Plaques
100
AcDbCircle
 10
512.5644650187284
 20
798.2061684185676
 30
0.0
 40
2.049999999999727
  0
CIRCLE
  5
4FE
330
19
100
AcDbEntity
  8
Plaques
100
AcDbCircle
 10
612.5644650187284
 20
798.2061684185676
 30
0.0
 40
2.049999999999727
  0
CIRCLE
  5
4FF
330
19
100
AcDbEntity
  8
Plaques
100
AcDbCircle
 10
472.8636665026854
 20
270.0304132030279
 30
0.0
 40
2.050000000000182
  0
CIRCLE
  5
500
330
19
100
AcDbEntity
  8
Plaques
100
AcDbCircle
 10
472.8636665026852
 20
170.5204132030279
 30
0.0
 40
2.050000000000182
  0
CIRCLE
  5
506
330
19
100
AcDbEntity
  8
Plaques
100
AcDbCircle
 10
577.2120624534812
 20
265.5732787558449
 30
0.0
 40
2.050000000000182
  0
CIRCLE
  5
507
330
19
100
AcDbEntity
  8
Plaques
100
AcDbCircle
 10
568.2804284939546
 20
174.4399104717031
 30
0.0
 40
2.050000000000182
  0
LINE
  5
50C
330
19
100
AcDbEntity
  8
Plaques
100
AcDbLine
 10
587.6945153669756
 20
326.6204132030278
 30
0.0
 11
235.0236665026855
 21
326.6204132030278
 31
0.0
  0
ARC
  5
50E
330
19
100
AcDbEntity
  8
Plaques
100
AcDbCircle
 10
587.6945153669756
 20
324.6204132030278
 30
0.0
 40
2.000000000000033
100
AcDbArc
 50
354.4385668380912
 51
89.99999999999837
  0
CIRCLE
  5
511
330
19
100
AcDbEntity
  8
Plaques
100
AcDbCircle
 10
349.8636665026854
 20
270.0304132030279
 30
0.0
 40
2.050000000000182
  0
CIRCLE
  5
518
330
19
100
AcDbEntity
  8
Plaques
100
AcDbCircle
 10
245.5152705518897
 20
265.5732787558449
 30
0.0
 40
2.050000000000182
  0
ARC
  5
51F
330
19
100
AcDbEntity
  8
Plaques
100
AcDbCircle
 10
235.0328176383955
 20
324.6204132030278
 30
0.0
 40
2.0
100
AcDbArc
 50
90.0
 51
185.5614331619071
  0
CIRCLE
  5
522
330
19
100
AcDbEntity
  8
Flan
100
AcDbCircle
 10
511.3461380953718
 20
1024.184113320436
 30
0.0
 40
5.0
  0
CIRCLE
  5
523
330
19
100
AcDbEntity
  8
Flan
100
AcDbCircle
 10
577.4359855695591
 20
1015.77365853346
 30
0.0
 40
2.049999999999955
  0
CIRCLE
  5
524
330
19
100
AcDbEntity
  8
Flan
100
AcDbCircle
 10
664.1703505826034
 20
1011.346628454366
 30
0.0
 40
2.049999999999955
  0
CIRCLE
  5
623
330
19
100
AcDbEntity
  8
Flan
100
AcDbCircle
 10
985.1765918746753
 20
1279.690603438223
 30
-0.0000000000000088
 40
4.049999999999955
  0
CIRCLE
  5
624
330
19
100
AcDbEntity
  8
Flan
100
AcDbCircle
 10
985.26802832915
 20
1258.003813274374
 30
-0.0000000000000088
 40
2.049999999999955
  0
CIRCLE
  5
625
330
19
100
AcDbEntity
  8
Flan
100
AcDbCircle
 10
1011.536545556114
 20
1159.968372343837
 30
-0.0000000000000011
 40
2.049999999999955
  0
CIRCLE
  5
663
330
19
100
AcDbEntity
  8
Plaques
100
AcDbCircle
 10
727.6044650187284
 20
880.6361684185675
 30
0.0
 40
2.049999999999955
  0
CIRCLE
  5
664
330
19
100
AcDbEntity
  8
Plaques
100
AcDbCircle
 10
727.6044650187284
 20
844.6361684185675
 30
0.0
 40
2.049999999999955
  0
CIRCLE
  5
67C
330
19
100
AcDbEntity
  8
Flan
100
AcDbCircle
 10
453.5793197884788
 20
1033.943766125313
 30
-605.4881343496629
 40
2.049999999999955
  0
CIRCLE
  5
67E
330
19
100
AcDbEntity
  8
Flan
100
AcDbCircle
 10
770.7394432102907
 20
1000.904033055961
 30
-605.4881343496629
 40
2.049999999999955
  0
CIRCLE
  5
684
330
19
100
AcDbEntity
  8
Porte
100
AcDbCircle
 10
674.8585098891999
 20
246.8486799799195
 30
0.0
 40
2.100000000000023
  0
CIRCLE
  5
685
330
19
100
AcDbEntity
  8
Porte
100
AcDbCircle
 10
790.2855440842819
 20
268.8823121937105
 30
0.0
 40
2.100000000000023
  0
CIRCLE
  5
686
330
19
100
AcDbEntity
  8
Porte
100
AcDbCircle
 10
911.8433660480248
 20
285.8700857052767
 30
0.0
 40
2.100000000000023
  0
CIRCLE
  5
687
330
19
100
AcDbEntity
  8
Porte
100
AcDbCircle
 10
1033.401739381507
 20
296.6134202783849
 30
0.0
 40
2.099999999999909
  0
CIRCLE
  5
688
330
19
100
AcDbEntity
  8
Porte
100
AcDbCircle
 10
674.8585098891998
 20
8.334399837177955
 30
0.0
 40
2.100000000000023
  0
CIRCLE
  5
689
330
19
100
AcDbEntity
  8
Porte
100
AcDbCircle
 10
790.2855440842818
 20
-13.69923237661311
 30
0.0
 40
2.100000000000023
  0
CIRCLE
  5
68A
330
19
100
AcDbEntity
  8
Porte
100
AcDbCircle
 10
911.8433660480247
 20
-30.68700588817939
 30
0.0
 40
2.100000000000023
  0
CIRCLE
  5
68B
330
19
100
AcDbEntity
  8
Porte
100
AcDbCircle
 10
1033.401739381507
 20
-41.43034046128759
 30
0.0
 40
2.099999999999909
  0
CIRCLE
  5
693
330
19
100
AcDbEntity
  8
Fond
100
AcDbCircle
 10
1046.596914664242
 20
563.9310545795602
 30
0.0
 40
3.0
  0
CIRCLE
  5
6A9
330
19
100
AcDbEntity
  8
Plaques
100
AcDbCircle
 10
303.2636665026855
 20
16.72041320302782
 30
0.0
 40
2.049999999999955
  0
CIRCLE
  5
6AC
330
19
100
AcDbEntity
  8
Plaques
100
AcDbCircle
 10
254.4469045114165
 20
174.4399104717031
 30
0.0
 40
2.050000000000182
  0
CIRCLE
  5
6AD
330
19
100
AcDbEntity
  8
Plaques
100
AcDbCircle
 10
263.3785384709431
 20
83.30654218756132
 30
0.0
 40
2.050000000000182
  0
ARC
  5
6AF
330
19
100
AcDbEntity
  8
Plaques
100
AcDbCircle
 10
300.0772363859539
 20
13.72041320302782
 30
0.0
 40
2.000000000000001
100
AcDbArc
 50
185.5974649581156
 51
270.0
  0
LINE
  5
6B1
330
19
100
AcDbEntity
  8
Plaques
100
AcDbLine
 10
347.8636665026855
 20
88.66176212053648
 30
0.0
 11
342.4660888331748
 21
88.66176212053648
 31
0.0
  0
LINE
  5
6B2
330
19
100
AcDbEntity
  8
Plaques
100
AcDbLine
 10
298.0867729528616
 20
13.5253354710299
 30
0.0
 11
292.9568540190522
 21
69.22367871108784
 31
0.0
  0
LINE
  5
6B5
330
19
100
AcDbEntity
  8
Plaques
100
AcDbLine
 10
282.9989998025449
 20
78.30654218756132
 30
0.0
 11
257.5345978609265
 21
78.30654218756132
 31
0.0
  0
LINE
  5
6B6
330
19
100
AcDbEntity
  8
Plaques
100
AcDbLine
 10
255.543027017625
 20
80.12311488285602
 30
0.0
 11
233.042231919695
 21
324.4265872591866
 31
0.0
  0
ARC
  5
6B7
330
19
100
AcDbEntity
  8
Plaques
100
AcDbCircle
 10
257.5345978609265
 20
80.30654218756132
 30
0.0
 40
2.000000000000028
100
AcDbArc
 50
185.262199934055
 51
269.9999999999999
  0
LINE
  5
6BE
330
19
100
AcDbEntity
  8
Plaques
100
AcDbLine
 10
332.5783419709092
 20
80.15590467991863
 30
0.0
 11
323.522343872544
 21
20.22627064364565
 31
0.0
  0
LINE
  5
6C4
330
19
100
AcDbEntity
  8
Plaques
100
AcDbLine
 10
313.6345970102784
 20
11.72041320302782
 30
0.0
 11
300.0772363859539
 21
11.72041320302782
 31
0.0
  0
LINE
  5
6C7
330
19
100
AcDbEntity
  8
Plaques
100
AcDbLine
 10
411.3636665026855
 20
11.72041320302782
 30
0.0
 11
367.8636665026855
 21
11.72041320302782
 31
0.0
  0
CIRCLE
  5
6C9
330
19
100
AcDbEntity
  8
Plaques
100
AcDbCircle
 10
519.4636665026856
 20
16.72041320302782
 30
0.0
 40
2.049999999999955
  0
CIRCLE
  5
6CA
330
19
100
AcDbEntity
  8
Plaques
100
AcDbCircle
 10
559.348794534428
 20
83.30654218756132
 30
0.0
 40
2.050000000000182
  0
ARC
  5
6CC
330
19
100
AcDbEntity
  8
Plaques
100
AcDbCircle
 10
522.6500966194171
 20
13.72041320302782
 30
0.0
 40
2.0
100
AcDbArc
 50
270.0
 51
354.4025350418844
  0
ARC
  5
6D0
330
19
100
AcDbEntity
  8
Plaques
100
AcDbCircle
 10
565.1927351444447
 20
80.30654218756132
 30
0.0
 40
2.0
100
AcDbArc
 50
270.0
 51
354.7378000659448
  0
LINE
  5
6DC
330
19
100
AcDbEntity
  8
Plaques
100
AcDbLine
 10
567.184305987746
 20
80.12311488285602
 30
0.0
 11
589.685101085676
 21
324.4265872591866
 31
0.0
  0
CIRCLE
  5
6DF
330
19
100
AcDbEntity
  8
Plaques
100
AcDbCircle
 10
411.3636665026855
 20
16.72041320302782
 30
0.0
 40
2.049999999999955
  0
CIRCLE
  5
6E4
330
19
100
AcDbEntity
  8
Coffre
100
AcDbCircle
 10
1056.637252387846
 20
835.5920246153577
 30
0.0
 40
2.050000000000182
  0
CIRCLE
  5
6E5
330
19
100
AcDbEntity
  8
Coffre
100
AcDbCircle
 10
1093.976206653778
 20
835.0268784528508
 30
0.0
 40
2.049999999999727
  0
CIRCLE
  5
6FF
330
19
100
AcDbEntity
  8
Plaques
100
AcDbCircle
 10
349.8636665026854
 20
170.5204132030279
 30
0.0
 40
2.050000000000182
  0
LINE
  5
701
330
19
100
AcDbEntity
  8
Plaques
100
AcDbLine
 10
572.1038570328977
 20
793.2061684185676
 30
0.0
 11
717.6044650187283
 21
793.2061684185676
 31
0.0
  0
ARC
  5
702
330
19
100
AcDbEntity
  8
Coffre
100
AcDbCircle
 10
562.5644650187284
 20
790.2061684185675
 30
0.0
 40
10.0
100
AcDbArc
 50
17.45760312372285
 51
162.5423968762772
  0
LINE
  5
708
330
19
100
AcDbEntity
  8
Plaques
100
AcDbLine
 10
357.8636665026855
 20
78.66176212053648
 30
0.0
 11
357.8636665026855
 21
21.72041320302782
 31
0.0
  0
ARC
  5
709
330
19
100
AcDbEntity
  8
Plaques
100
AcDbCircle
 10
347.8636665026855
 20
78.66176212053648
 30
0.0
 40
10.0
100
AcDbArc
 50
0.0
 51
90.0
  0
ARC
  5
70B
330
19
100
AcDbEntity
  8
Plaques
100
AcDbCircle
 10
367.8636665026855
 20
21.72041320302782
 30
0.0
 40
10.0
100
AcDbArc
 50
180.0
 51
270.0
  0
ARC
  5
70D
330
19
100
AcDbEntity
  8
Plaques
100
AcDbCircle
 10
282.9989998025449
 20
68.30654218756132
 30
0.0
 40
10.0
100
AcDbArc
 50
5.262199934055147
 51
90.0
  0
ARC
  5
711
330
19
100
AcDbEntity
  8
Plaques
100
AcDbCircle
 10
342.4660888331748
 20
78.66176212053648
 30
0.0
 40
10.0
100
AcDbArc
 50
90.0
 51
171.4070166311141
  0
ARC
  5
712
330
19
100
AcDbEntity
  8
Plaques
100
AcDbCircle
 10
313.6345970102784
 20
21.72041320302782
 30
0.0
 40
10.0
100
AcDbArc
 50
270.0
 51
351.407016631114
  0
LINE
  5
713
330
19
100
AcDbEntity
  8
Plaques
100
AcDbLine
 10
474.8636665026855
 20
88.66176212053648
 30
0.0
 11
480.2612441721963
 21
88.66176212053648
 31
0.0
  0
LINE
  5
714
330
19
100
AcDbEntity
  8
Plaques
100
AcDbLine
 10
490.1489910344619
 20
80.15590467991863
 30
0.0
 11
499.2049891328271
 21
20.22627064364565
 31
0.0
  0
LINE
  5
715
330
19
100
AcDbEntity
  8
Plaques
100
AcDbLine
 10
509.0927359950927
 20
11.72041320302782
 30
0.0
 11
522.6500966194171
 21
11.72041320302782
 31
0.0
  0
LINE
  5
716
330
19
100
AcDbEntity
  8
Plaques
100
AcDbLine
 10
411.3636665026855
 20
11.72041320302782
 30
0.0
 11
454.8636665026855
 21
11.72041320302782
 31
0.0
  0
LINE
  5
717
330
19
100
AcDbEntity
  8
Plaques
100
AcDbLine
 10
464.8636665026855
 20
78.66176212053648
 30
0.0
 11
464.8636665026855
 21
21.72041320302782
 31
0.0
  0
ARC
  5
718
330
19
100
AcDbEntity
  8
Plaques
100
AcDbCircle
 10
474.8636665026855
 20
78.66176212053648
 30
0.0
 40
10.0
100
AcDbArc
 50
90.0
 51
180.0
  0
ARC
  5
719
330
19
100
AcDbEntity
  8
Plaques
100
AcDbCircle
 10
454.8636665026855
 20
21.72041320302782
 30
0.0
 40
10.0
100
AcDbArc
 50
270.0
 51
360.0
  0
ARC
  5
71A
330
19
100
AcDbEntity
  8
Plaques
100
AcDbCircle
 10
480.2612441721963
 20
78.66176212053648
 30
0.0
 40
10.0
100
AcDbArc
 50
8.592983368885847
 51
89.99999999999999
  0
ARC
  5
71B
330
19
100
AcDbEntity
  8
Plaques
100
AcDbCircle
 10
509.0927359950927
 20
21.72041320302782
 30
0.0
 40
10.0
100
AcDbArc
 50
188.592983368886
 51
270.0
  0
LINE
  5
71C
330
19
100
AcDbEntity
  8
Plaques
100
AcDbLine
 10
524.6405600525095
 20
13.5253354710299
 30
0.0
 11
529.7704789863188
 21
69.22367871108784
 31
0.0
  0
LINE
  5
71D
330
19
100
AcDbEntity
  8
Plaques
100
AcDbLine
 10
539.7283332028262
 20
78.30654218756132
 30
0.0
 11
565.1927351444446
 21
78.30654218756132
 31
0.0
  0
ARC
  5
71E
330
19
100
AcDbEntity
  8
Plaques
100
AcDbCircle
 10
539.7283332028262
 20
68.30654218756132
 30
0.0
 40
10.0
100
AcDbArc
 50
90.0
 51
174.7378000659448
  0
LINE
  5
727
330
19
100
AcDbEntity
  8
Epure
100
AcDbLine
 10
410.786914664242
 20
563.9310545795602
 30
0.0
 11
1166.596914664242
 21
563.9310545795602
 31
0.0
  0
CIRCLE
  5
73A
330
19
100
AcDbEntity
  8
Fond
100
AcDbCircle
 10
707.5725984135389
 20
523.9310545795602
 30
0.0
 40
2.049999999999955
  0
CIRCLE
  5
73B
330
19
100
AcDbEntity
  8
Fond
100
AcDbCircle
 10
707.5725984135389
 20
603.9310545795602
 30
0.0
 40
2.049999999999955
  0
CIRCLE
  5
73C
330
19
100
AcDbEntity
  8
Fond
100
AcDbCircle
 10
867.786914664242
 20
523.9310545795602
 30
0.0
 40
2.049999999999955
  0
CIRCLE
  5
73D
330
19
100
AcDbEntity
  8
Fond
100
AcDbCircle
 10
867.786914664242
 20
603.9310545795602
 30
0.0
 40
2.049999999999955
  0
ENDSEC
  0
SECTION
  2
OBJECTS
  0
DICTIONARY
  5
2D
102
{ACAD_REACTORS
330
2D
102
}
330
0
100
AcDbDictionary
281
     1
  3
ACAD_DETAILVIEWSTYLE
350
794
  3
ACAD_GROUP
350
2E
  3
ACAD_IMAGE_VARS
350
78B
  3
ACAD_LAYOUT
350
1D
  3
ACAD_MATERIAL
350
781
  3
ACAD_MLEADERSTYLE
350
787
  3
ACAD_MLINESTYLE
350
2F
  3
ACAD_SCALELIST
350
75F
  3
ACAD_SECTIONVIEWSTYLE
350
795
  3
ACAD_TABLESTYLE
350
785
  3
ACAD_VISUALSTYLE
350
746
  3
ACDB_RECOMPOSE_DATA
350
790
  3
AcDbVariableDictionary
350
78C
  3
APPDATA
350
789
  0
SUN
  5
78A
330
2C
100
AcDbSun
 90
        1
290
     0
 63
     7
421
 16777215
 40
1.0
291
     1
 91
  2455826
 92
 54000000
292
     0
 70
     2
 71
   256
280
     1
  0
DICTIONARY
  5
794
102
{ACAD_REACTORS
330
2D
102
}
330
2D
100
AcDbDictionary
281
     1
  0
DICTIONARY
  5
2E
102
{ACAD_REACTORS
330
2D
102
}
330
2D
100
AcDbDictionary
281
     1
  0
RASTERVARIABLES
  5
78B
102
{ACAD_REACTORS
330
2D
102
}
330
2D
100
AcDbRasterVariables
 90
        0
 70
     1
 71
     1
 72
     0
  0
DICTIONARY
  5
1D
102
{ACAD_REACTORS
330
2D
102
}
330
2D
100
AcDbDictionary
281
     1
  3
LAYOUT1
350
20
  3
MODEL
350
1F
  0
DICTIONARY
  5
781
102
{ACAD_REACTORS
330
2D
102
}
330
2D
100
AcDbDictionary
281
     1
  3
ByBlock
350
783
  3
ByLayer
350
782
  3
Global
350
784
  0
DICTIONARY
  5
787
102
{ACAD_REACTORS
330
2D
102
}
330
2D
100
AcDbDictionary
281
     1
  3
Standard
350
788
  0
DICTIONARY
  5
2F
102
{ACAD_REACTORS
330
2D
102
}
330
2D
100
AcDbDictionary
281
     1
  3
STANDARD
350
30
  0
DICTIONARY
  5
75F
102
{ACAD_REACTORS
330
2D
102
}
330
2D
100
AcDbDictionary
281
     1
  3
A0
350
760
  3
A1
350
761
  3
A2
350
762
  3
A3
350
763
  3
A4
350
764
  3
A5
350
765
  3
A6
350
766
  3
A7
350
767
  3
A8
350
768
  3
A9
350
769
  3
B0
350
76A
  3
B1
350
76B
  3
B2
350
76C
  3
B3
350
76D
  3
B4
350
76E
  3
B5
350
76F
  3
B6
350
770
  3
B7
350
771
  3
B8
350
772
  3
B9
350
773
  3
C0
350
774
  3
C1
350
775
  3
C2
350
776
  3
C3
350
777
  3
C4
350
778
  3
C5
350
779
  3
C6
350
77A
  3
C7
350
77B
  3
C8
350
77C
  3
C9
350
77D
  3
D0
350
77E
  3
D1
350
77F
  3
D2
350
780
  0
DICTIONARY
  5
795
102
{ACAD_REACTORS
330
2D
102
}
330
2D
100
AcDbDictionary
281
     1
  0
DICTIONARY
  5
785
102
{ACAD_REACTORS
330
2D
102
}
330
2D
100
AcDbDictionary
281
     1
  3
Standard
350
786
  0
DICTIONARY
  5
746
102
{ACAD_REACTORS
330
2D
102
}
330
2D
100
AcDbDictionary
281
     1
  3
2dWireframe
350
74B
  3
Basic
350
74E
  3
Brighten
350
752
  3
ColorChange
350
756
  3
Conceptual
350
750
  3
Dim
350
751
  3
EdgeColorOff
350
759
  3
Facepattern
350
755
  3
Flat
350
747
  3
FlatWithEdges
350
748
  3
Gouraud
350
749
  3
GouraudWithEdges
350
74A
  3
Hidden
350
74D
  3
JitterOff
350
757
  3
Linepattern
350
754
  3
OverhangOff
350
758
  3
Realistic
350
74F
  3
Shaded
350
75E
  3
Shaded with edges
350
75D
  3
Shades of Gray
350
75A
  3
Sketchy
350
75B
  3
Thicken
350
753
  3
Wireframe
350
74C
  3
X-Ray
350
75C
  0
XRECORD
  5
790
102
{ACAD_REACTORS
330
2D
102
}
330
2D
100
AcDbXrecord
280
     1
 90
        1
330
786
  0
DICTIONARY
  5
78C
102
{ACAD_REACTORS
330
2D
102
}
330
2D
100
AcDbDictionary
281
     1
  3
CANNOSCALE
350
78D
  3
CMLEADERSTYLE
350
792
  3
CTABLESTYLE
350
791
  3
MSLTSCALE
350
793
  0
DICTIONARY
  5
789
102
{ACAD_REACTORS
330
2D
102
}
330
2D
100
AcDbDictionary
281
     1
  0
LAYOUT
  5
20
102
{ACAD_REACTORS
330
1D
102
}
330
1D
100
AcDbPlotSettings
  1

  2

  4

  6

 40
0.0
 41
0.0
 42
0.0
 43
0.0
 44
0.0
 45
0.0
 46
0.0
 47
0.0
 48
0.0
 49
0.0
140
0.0
141
0.0
142
1.0
143
1.0
 70
     0
 72
     0
 73
     0
 74
     0
  7

 75
     0
 76
     0
 77
     2
 78
   300
147
1.0
148
0.0
149
0.0
100
AcDbLayout
  1
Layout1
 70
     0
 71
     0
 10
0.0
 20
0.0
 11
0.0
 21
0.0
 12
0.0
 22
0.0
 32
0.0
 14
0.0
 24
0.0
 34
0.0
 15
0.0
 25
0.0
 35
0.0
146
0.0
 13
0.0
 23
0.0
 33
0.0
 16
0.0
 26
0.0
 36
0.0
 17
0.0
 27
0.0
 37
0.0
 76
     0
330
16
  0
LAYOUT
  5
1F
102
{ACAD_REACTORS
330
1D
102
}
330
1D
100
AcDbPlotSettings
  1

  2

  4

  6

 40
0.0
 41
0.0
 42
0.0
 43
0.0
 44
0.0
 45
0.0
 46
0.0
 47
0.0
 48
0.0
 49
0.0
140
0.0
141
0.0
142
1.0
143
1.0
 70
  1024
 72
     0
 73
     0
 74
     0
  7

 75
     0
 76
     0
 77
     2
 78
   300
147
1.0
148
0.0
149
0.0
100
AcDbLayout
  1
Model
 70
     0
 71
     1
 10
0.0
 20
0.0
 11
0.0
 21
0.0
 12
0.0
 22
0.0
 32
0.0
 14
233.0328176383955
 24
-52.13555560802064
 34
-605.4881343496629
 15
0.0
 25
0.0
 35
0.0
146
0.0
 13
0.0
 23
0.0
 33
0.0
 16
0.0
 26
0.0
 36
0.0
 17
0.0
 27
0.0
 37
0.0
 76
     0
330
19
331
2C
  0
MATERIAL
  5
783
102
{ACAD_REACTORS
330
781
102
}
330
781
100
AcDbMaterial
  1
ByBlock
 72
     1
 94
      127
  0
MATERIAL
  5
782
102
{ACAD_REACTORS
330
781
102
}
330
781
100
AcDbMaterial
  1
ByLayer
 72
     1
 94
      127
  0
MATERIAL
  5
784
102
{ACAD_REACTORS
330
781
102
}
330
781
100
AcDbMaterial
  1
Global
 72
     1
 94
      127
  0
MLEADERSTYLE
  5
788
102
{ACAD_REACTORS
330
787
102
}
330
787
100
AcDbMLeaderStyle
179
     2
170
     2
171
     1
172
     0
 90
        2
 40
0.0
 41
0.0
173
     1
 91
-1056964608
340
26
 92
       -2
290
     1
 42
0.09
291
     1
 43
0.36
  3
Standard
341
0
 44
0.18
300

342
29
174
     1
178
     6
175
     1
176
     0
 93
-1056964608
 45
0.18
292
     0
297
     0
 46
0.18
343
0
 94
-1056964608
 47
1.0
 49
1.0
140
1.0
293
     1
141
0.0
294
     1
177
     0
142
1.0
295
     0
296
     0
143
0.125
271
     0
272
     9
273
     9
298
     0
  0
MLINESTYLE
  5
30
102
{ACAD_REACTORS
330
2F
102
}
330
2F
100
AcDbMlineStyle
  2
Standard
 70
     0
  3

 62
     0
 51
90.0
 52
90.0
 71
     2
 49
0.5
 62
   256
  6
BYLAYER
 49
-0.5
 62
   256
  6
BYLAYER
  0
SCALE
  5
760
102
{ACAD_REACTORS
330
75F
102
}
330
75F
100
AcDbScale
 70
     0
300
1:1
140
1.0
141
1.0
290
     1
  0
SCALE
  5
761
102
{ACAD_REACTORS
330
75F
102
}
330
75F
100
AcDbScale
 70
     0
300
1:2
140
1.0
141
2.0
290
     0
  0
SCALE
  5
762
102
{ACAD_REACTORS
330
75F
102
}
330
75F
100
AcDbScale
 70
     0
300
1:4
140
1.0
141
4.0
290
     0
  0
SCALE
  5
763
102
{ACAD_REACTORS
330
75F
102
}
330
75F
100
AcDbScale
 70
     0
300
1:5
140
1.0
141
5.0
290
     0
  0
SCALE
  5
764
102
{ACAD_REACTORS
330
75F
102
}
330
75F
100
AcDbScale
 70
     0
300
1:8
140
1.0
141
8.0
290
     0
  0
SCALE
  5
765
102
{ACAD_REACTORS
330
75F
102
}
330
75F
100
AcDbScale
 70
     0
300
1:10
140
1.0
141
10.0
290
     0
  0
SCALE
  5
766
102
{ACAD_REACTORS
330
75F
102
}
330
75F
100
AcDbScale
 70
     0
300
1:16
140
1.0
141
16.0
290
     0
  0
SCALE
  5
767
102
{ACAD_REACTORS
330
75F
102
}
330
75F
100
AcDbScale
 70
     0
300
1:20
140
1.0
141
20.0
290
     0
  0
SCALE
  5
768
102
{ACAD_REACTORS
330
75F
102
}
330
75F
100
AcDbScale
 70
     0
300
1:30
140
1.0
141
30.0
290
     0
  0
SCALE
  5
769
102
{ACAD_REACTORS
330
75F
102
}
330
75F
100
AcDbScale
 70
     0
300
1:40
140
1.0
141
40.0
290
     0
  0
SCALE
  5
76A
102
{ACAD_REACTORS
330
75F
102
}
330
75F
100
AcDbScale
 70
     0
300
1:50
140
1.0
141
50.0
290
     0
  0
SCALE
  5
76B
102
{ACAD_REACTORS
330
75F
102
}
330
75F
100
AcDbScale
 70
     0
300
1:100
140
1.0
141
100.0
290
     0
  0
SCALE
  5
76C
102
{ACAD_REACTORS
330
75F
102
}
330
75F
100
AcDbScale
 70
     0
300
2:1
140
2.0
141
1.0
290
     0
  0
SCALE
  5
76D
102
{ACAD_REACTORS
330
75F
102
}
330
75F
100
AcDbScale
 70
     0
300
4:1
140
4.0
141
1.0
290
     0
  0
SCALE
  5
76E
102
{ACAD_REACTORS
330
75F
102
}
330
75F
100
AcDbScale
 70
     0
300
8:1
140
8.0
141
1.0
290
     0
  0
SCALE
  5
76F
102
{ACAD_REACTORS
330
75F
102
}
330
75F
100
AcDbScale
 70
     0
300
10:1
140
10.0
141
1.0
290
     0
  0
SCALE
  5
770
102
{ACAD_REACTORS
330
75F
102
}
330
75F
100
AcDbScale
 70
     0
300
100:1
140
100.0
141
1.0
290
     0
  0
SCALE
  5
771
102
{ACAD_REACTORS
330
75F
102
}
330
75F
100
AcDbScale
 70
     0
300
1/128" = 1'-0"
140
0.0078125
141
12.0
290
     0
  0
SCALE
  5
772
102
{ACAD_REACTORS
330
75F
102
}
330
75F
100
AcDbScale
 70
     0
300
1/64" = 1'-0"
140
0.015625
141
12.0
290
     0
  0
SCALE
  5
773
102
{ACAD_REACTORS
330
75F
102
}
330
75F
100
AcDbScale
 70
     0
300
1/32" = 1'-0"
140
0.03125
141
12.0
290
     0
  0
SCALE
  5
774
102
{ACAD_REACTORS
330
75F
102
}
330
75F
100
AcDbScale
 70
     0
300
1/16" = 1'-0"
140
0.0625
141
12.0
290
     0
  0
SCALE
  5
775
102
{ACAD_REACTORS
330
75F
102
}
330
75F
100
AcDbScale
 70
     0
300
3/32" = 1'-0"
140
0.09375
141
12.0
290
     0
  0
SCALE
  5
776
102
{ACAD_REACTORS
330
75F
102
}
330
75F
100
AcDbScale
 70
     0
300
1/8" = 1'-0"
140
0.125
141
12.0
290
     0
  0
SCALE
  5
777
102
{ACAD_REACTORS
330
75F
102
}
330
75F
100
AcDbScale
 70
     0
300
3/16" = 1'-0"
140
0.1875
141
12.0
290
     0
  0
SCALE
  5
778
102
{ACAD_REACTORS
330
75F
102
}
330
75F
100
AcDbScale
 70
     0
300
1/4" = 1'-0"
140
0.25
141
12.0
290
     0
  0
SCALE
  5
779
102
{ACAD_REACTORS
330
75F
102
}
330
75F
100
AcDbScale
 70
     0
300
3/8" = 1'-0"
140
0.375
141
12.0
290
     0
  0
SCALE
  5
77A
102
{ACAD_REACTORS
330
75F
102
}
330
75F
100
AcDbScale
 70
     0
300
1/2" = 1'-0"
140
0.5
141
12.0
290
     0
  0
SCALE
  5
77B
102
{ACAD_REACTORS
330
75F
102
}
330
75F
100
AcDbScale
 70
     0
300
3/4" = 1'-0"
140
0.75
141
12.0
290
     0
  0
SCALE
  5
77C
102
{ACAD_REACTORS
330
75F
102
}
330
75F
100
AcDbScale
 70
     0
300
1" = 1'-0"
140
1.0
141
12.0
290
     0
  0
SCALE
  5
77D
102
{ACAD_REACTORS
330
75F
102
}
330
75F
100
AcDbScale
 70
     0
300
1-1/2" = 1'-0"
140
1.5
141
12.0
290
     0
  0
SCALE
  5
77E
102
{ACAD_REACTORS
330
75F
102
}
330
75F
100
AcDbScale
 70
     0
300
3" = 1'-0"
140
3.0
141
12.0
290
     0
  0
SCALE
  5
77F
102
{ACAD_REACTORS
330
75F
102
}
330
75F
100
AcDbScale
 70
     0
300
6" = 1'-0"
140
6.0
141
12.0
290
     0
  0
SCALE
  5
780
102
{ACAD_REACTORS
330
75F
102
}
330
75F
100
AcDbScale
 70
     0
300
1'-0" = 1'-0"
140
12.0
141
12.0
290
     0
  0
TABLESTYLE
  5
786
102
{ACAD_REACTORS
330
785
102
}
102
{ACAD_XDICTIONARY
360
78E
102
}
330
785
100
AcDbTableStyle
  3
Standard
 70
     0
 71
     0
 40
0.06
 41
0.06
280
     0
281
     0
  7
STANDARD
140
0.18
170
     2
 62
     0
 63
   257
283
     0
 90
        4
 91
        0
  1

274
    -2
284
     1
 64
     0
275
    -2
285
     1
 65
     0
276
    -2
286
     1
 66
     0
277
    -2
287
     1
 67
     0
278
    -2
288
     1
 68
     0
279
    -2
289
     1
 69
     0
  7
STANDARD
140
0.25
170
     5
 62
     0
 63
   257
283
     0
 90
        4
 91
        0
  1

274
    -2
284
     1
 64
     0
275
    -2
285
     1
 65
     0
276
    -2
286
     1
 66
     0
277
    -2
287
     1
 67
     0
278
    -2
288
     1
 68
     0
279
    -2
289
     1
 69
     0
  7
STANDARD
140
0.18
170
     5
 62
     0
 63
   257
283
     0
 90
        4
 91
        0
  1

274
    -2
284
     1
 64
     0
275
    -2
285
     1
 65
     0
276
    -2
286
     1
 66
     0
277
    -2
287
     1
 67
     0
278
    -2
288
     1
 68
     0
279
    -2
289
     1
 69
     0
  0
VISUALSTYLE
  5
74B
102
{ACAD_REACTORS
330
746
102
}
330
746
100
AcDbVisualStyle
  2
2dWireframe
 70
     4
177
     3
291
     0
 70
    58
 90
        0
176
     1
 90
        2
176
     1
 90
        0
176
     1
 90
        0
176
     1
 40
0.6
176
     1
 40
30.0
176
     1
 62
     7
420
 16777215
176
     1
 90
        1
176
     1
 90
        4
176
     1
 62
     7
176
     1
 62
   257
176
     1
 90
        1
176
     1
 90
        1
176
     1
 40
1.0
176
     1
 90
        0
176
     1
 62
   257
176
     1
 40
1.0
176
     1
 90
        1
176
     1
 90
        6
176
     1
 90
        2
176
     1
 62
     7
176
     1
 90
        5
176
     1
 90
        0
176
     1
 90
        0
176
     1
290
     0
176
     1
 90
        1
176
     1
 40
0.0
176
     1
 90
        0
176
     1
290
     1
176
     1
290
     1
176
     1
290
     0
176
     1
290
     0
176
     1
290
     0
176
     1
290
     0
176
     1
290
     0
176
     1
290
     0
176
     1
290
     0
176
     1
 90
       50
176
     1
 40
0.0
176
     1
 40
1.0
176
     1
 90
        0
176
     1
 62
   178
420
        0
176
     1
 90
       50
176
     1
 90
        3
176
     1
 62
     5
420
      255
176
     1
290
     0
176
     1
 90
       50
176
     1
 90
       50
176
     1
 90
       50
176
     1
290
     0
176
     1
 90
       50
176
     1
 62
   256
176
     0
 40
1.0
176
     0
 90
        2
176
     1
  1
strokes_ogs.tif
176
     1
290
     0
176
     1
 40
1.0
176
     1
 40
1.0
176
     1
  0
VISUALSTYLE
  5
74E
102
{ACAD_REACTORS
330
746
102
}
330
746
100
AcDbVisualStyle
  2
Basic
 70
     7
177
     3
291
     1
 70
    58
 90
        1
176
     1
 90
        0
176
     1
 90
        1
176
     1
 90
        0
176
     1
 40
0.6
176
     1
 40
30.0
176
     1
 62
     7
420
 16777215
176
     1
 90
        0
176
     1
 90
        4
176
     1
 62
     7
176
     1
 62
   257
176
     1
 90
        1
176
     1
 90
        1
176
     1
 40
1.0
176
     1
 90
        8
176
     1
 62
     7
176
     1
 40
1.0
176
     1
 90
        1
176
     1
 90
        6
176
     1
 90
        2
176
     1
 62
     7
176
     1
 90
        5
176
     1
 90
        0
176
     1
 90
        0
176
     1
290
     0
176
     1
 90
        1
176
     1
 40
0.0
176
     1
 90
        0
176
     1
290
     0
176
     1
290
     1
176
     1
290
     1
176
     1
290
     0
176
     1
290
     0
176
     1
290
     0
176
     1
290
     0
176
     1
290
     0
176
     1
290
     0
176
     1
 90
       50
176
     1
 40
0.0
176
     1
 40
1.0
176
     1
 90
        0
176
     1
 62
   178
420
        0
176
     1
 90
       50
176
     1
 90
        3
176
     1
 62
     5
420
      255
176
     1
290
     0
176
     1
 90
       50
176
     1
 90
       50
176
     1
 90
       50
176
     1
290
     0
176
     1
 90
       50
176
     1
 62
   256
176
     0
 40
1.0
176
     0
 90
        2
176
     1
  1
strokes_ogs.tif
176
     1
290
     0
176
     1
 40
1.0
176
     1
 40
1.0
176
     1
  0
VISUALSTYLE
  5
752
102
{ACAD_REACTORS
330
746
102
}
330
746
100
AcDbVisualStyle
  2
Brighten
 70
    12
177
     3
291
     1
 70
    58
 90
        2
176
     1
 90
        2
176
     1
 90
        0
176
     1
 90
        0
176
     1
 40
0.6
176
     1
 40
30.0
176
     1
 62
     7
420
 16777215
176
     1
 90
        1
176
     1
 90
        4
176
     1
 62
     7
176
     1
 62
   257
176
     1
 90
        1
176
     1
 90
        1
176
     1
 40
1.0
176
     1
 90
        8
176
     1
 62
     7
176
     1
 40
1.0
176
     1
 90
        1
176
     1
 90
        6
176
     1
 90
        2
176
     1
 62
     7
176
     1
 90
        5
176
     1
 90
        0
176
     1
 90
        0
176
     1
290
     0
176
     1
 90
        1
176
     1
 40
50.0
176
     1
 90
        0
176
     1
290
     0
176
     1
290
     1
176
     1
290
     1
176
     1
290
     0
176
     1
290
     0
176
     1
290
     0
176
     1
290
     0
176
     1
290
     0
176
     1
290
     0
176
     1
 90
       50
176
     1
 40
0.0
176
     1
 40
1.0
176
     1
 90
        0
176
     1
 62
   178
420
        0
176
     1
 90
       50
176
     1
 90
        3
176
     1
 62
     5
420
      255
176
     1
290
     0
176
     1
 90
       50
176
     1
 90
       50
176
     1
 90
       50
176
     1
290
     0
176
     1
 90
       50
176
     1
 62
   256
176
     0
 40
1.0
176
     0
 90
        2
176
     1
  1
strokes_ogs.tif
176
     1
290
     0
176
     1
 40
1.0
176
     1
 40
1.0
176
     1
  0
VISUALSTYLE
  5
756
102
{ACAD_REACTORS
330
746
102
}
330
746
100
AcDbVisualStyle
  2
ColorChange
 70
    16
177
     3
291
     1
 70
    58
 90
        2
176
     1
 90
        2
176
     1
 90
        3
176
     1
 90
        0
176
     1
 40
0.6
176
     1
 40
30.0
176
     1
 62
     8
420
  8421504
176
     1
 90
        1
176
     1
 90
        4
176
     1
 62
     7
176
     1
 62
   257
176
     1
 90
        1
176
     1
 90
        1
176
     1
 40
1.0
176
     1
 90
        8
176
     1
 62
     8
420
  8421504
176
     1
 40
1.0
176
     1
 90
        1
176
     1
 90
        6
176
     1
 90
        2
176
     1
 62
     7
176
     1
 90
        5
176
     1
 90
        0
176
     1
 90
        0
176
     1
290
     0
176
     1
 90
        1
176
     1
 40
0.0
176
     1
 90
        0
176
     1
290
     0
176
     1
290
     1
176
     1
290
     1
176
     1
290
     0
176
     1
290
     0
176
     1
290
     0
176
     1
290
     0
176
     1
290
     0
176
     1
290
     0
176
     1
 90
       50
176
     1
 40
0.0
176
     1
 40
1.0
176
     1
 90
        0
176
     1
 62
   178
420
        0
176
     1
 90
       50
176
     1
 90
        3
176
     1
 62
     5
420
      255
176
     1
290
     0
176
     1
 90
       50
176
     1
 90
       50
176
     1
 90
       50
176
     1
290
     0
176
     1
 90
       50
176
     1
 62
   256
176
     0
 40
1.0
176
     0
 90
        2
176
     1
  1
strokes_ogs.tif
176
     1
290
     0
176
     1
 40
1.0
176
     1
 40
1.0
176
     1
  0
VISUALSTYLE
  5
750
102
{ACAD_REACTORS
330
746
102
}
330
746
100
AcDbVisualStyle
  2
Conceptual
 70
     9
177
     3
291
     0
 70
    58
 90
        3
176
     1
 90
        2
176
     1
 90
        0
176
     1
 90
        0
176
     1
 40
0.6
176
     1
 40
30.0
176
     1
 62
     7
420
 16777215
176
     1
 90
        2
176
     1
 90
        2
176
     1
 62
     7
176
     1
 62
   257
176
     1
 90
        1
176
     1
 90
        1
176
     1
 40
179.0
176
     1
 90
        8
176
     1
 62
     7
176
     1
 40
1.0
176
     1
 90
        1
176
     1
 90
        6
176
     1
 90
        2
176
     1
 62
     7
176
     1
 90
        3
176
     1
 90
        0
176
     1
 90
        0
176
     1
290
     0
176
     1
 90
        1
176
     1
 40
0.0
176
     1
 90
        0
176
     1
290
     0
176
     1
290
     1
176
     1
290
     1
176
     1
290
     0
176
     1
290
     0
176
     1
290
     0
176
     1
290
     0
176
     1
290
     0
176
     1
290
     0
176
     1
 90
       50
176
     1
 40
0.0
176
     1
 40
1.0
176
     1
 90
        0
176
     1
 62
   178
420
        0
176
     1
 90
       50
176
     1
 90
        3
176
     1
 62
     5
420
      255
176
     1
290
     0
176
     1
 90
       50
176
     1
 90
       50
176
     1
 90
       50
176
     1
290
     0
176
     1
 90
       50
176
     1
 62
   256
176
     0
 40
1.0
176
     0
 90
        2
176
     1
  1
strokes_ogs.tif
176
     1
290
     0
176
     1
 40
1.0
176
     1
 40
1.0
176
     1
  0
VISUALSTYLE
  5
751
102
{ACAD_REACTORS
330
746
102
}
330
746
100
AcDbVisualStyle
  2
Dim
 70
    11
177
     3
291
     1
 70
    58
 90
        2
176
     1
 90
        2
176
     1
 90
        0
176
     1
 90
        0
176
     1
 40
0.6
176
     1
 40
30.0
176
     1
 62
     7
420
 16777215
176
     1
 90
        1
176
     1
 90
        4
176
     1
 62
     7
176
     1
 62
   257
176
     1
 90
        1
176
     1
 90
        1
176
     1
 40
1.0
176
     1
 90
        8
176
     1
 62
     7
176
     1
 40
1.0
176
     1
 90
        1
176
     1
 90
        6
176
     1
 90
        2
176
     1
 62
     7
176
     1
 90
        5
176
     1
 90
        0
176
     1
 90
        0
176
     1
290
     0
176
     1
 90
        1
176
     1
 40
-50.0
176
     1
 90
        0
176
     1
290
     0
176
     1
290
     1
176
     1
290
     1
176
     1
290
     0
176
     1
290
     0
176
     1
290
     0
176
     1
290
     0
176
     1
290
     0
176
     1
290
     0
176
     1
 90
       50
176
     1
 40
0.0
176
     1
 40
1.0
176
     1
 90
        0
176
     1
 62
   178
420
        0
176
     1
 90
       50
176
     1
 90
        3
176
     1
 62
     5
420
      255
176
     1
290
     0
176
     1
 90
       50
176
     1
 90
       50
176
     1
 90
       50
176
     1
290
     0
176
     1
 90
       50
176
     1
 62
   256
176
     0
 40
1.0
176
     0
 90
        2
176
     1
  1
strokes_ogs.tif
176
     1
290
     0
176
     1
 40
1.0
176
     1
 40
1.0
176
     1
  0
VISUALSTYLE
  5
759
102
{ACAD_REACTORS
330
746
102
}
330
746
100
AcDbVisualStyle
  2
EdgeColorOff
 70
    22
177
     3
291
     1
 70
    58
 90
        2
176
     0
 90
        2
176
     0
 90
        0
176
     0
 90
        0
176
     0
 40
0.6
176
     0
 40
30.0
176
     0
 62
     7
420
 16777215
176
     0
 90
        1
176
     0
 90
        4
176
     0
 62
     7
176
     0
 62
   257
176
     0
 90
        1
176
     0
 90
        1
176
     0
 40
1.0
176
     0
 90
        8
176
     2
 62
     7
176
     0
 40
1.0
176
     0
 90
        1
176
     0
 90
        6
176
     0
 90
        2
176
     0
 62
     7
176
     0
 90
        5
176
     0
 90
        0
176
     0
 90
        0
176
     0
290
     0
176
     0
 90
        1
176
     0
 40
0.0
176
     0
 90
        0
176
     0
290
     0
176
     0
290
     1
176
     0
290
     1
176
     0
290
     0
176
     0
290
     0
176
     0
290
     0
176
     0
290
     0
176
     0
290
     0
176
     0
290
     0
176
     0
 90
       50
176
     0
 40
0.0
176
     0
 40
1.0
176
     0
 90
        0
176
     0
 62
   178
420
        0
176
     0
 90
       50
176
     0
 90
        3
176
     0
 62
     5
420
      255
176
     0
290
     0
176
     0
 90
       50
176
     0
 90
       50
176
     0
 90
       50
176
     0
290
     0
176
     0
 90
       50
176
     0
 62
   256
176
     0
 40
1.0
176
     0
 90
        2
176
     0
  1
strokes_ogs.tif
176
     0
290
     0
176
     0
 40
1.0
176
     0
 40
1.0
176
     0
  0
VISUALSTYLE
  5
755
102
{ACAD_REACTORS
330
746
102
}
330
746
100
AcDbVisualStyle
  2
Facepattern
 70
    15
177
     3
291
     1
 70
    58
 90
        2
176
     1
 90
        2
176
     1
 90
        0
176
     1
 90
        0
176
     1
 40
0.6
176
     1
 40
30.0
176
     1
 62
     7
420
 16777215
176
     1
 90
        1
176
     1
 90
        4
176
     1
 62
     7
176
     1
 62
   257
176
     1
 90
        1
176
     1
 90
        1
176
     1
 40
1.0
176
     1
 90
        8
176
     1
 62
     7
176
     1
 40
1.0
176
     1
 90
        1
176
     1
 90
        6
176
     1
 90
        2
176
     1
 62
     7
176
     1
 90
        5
176
     1
 90
        0
176
     1
 90
        0
176
     1
290
     0
176
     1
 90
        1
176
     1
 40
0.0
176
     1
 90
        0
176
     1
290
     0
176
     1
290
     1
176
     1
290
     1
176
     1
290
     0
176
     1
290
     0
176
     1
290
     0
176
     1
290
     0
176
     1
290
     0
176
     1
290
     0
176
     1
 90
       50
176
     1
 40
0.0
176
     1
 40
1.0
176
     1
 90
        0
176
     1
 62
   178
420
        0
176
     1
 90
       50
176
     1
 90
        3
176
     1
 62
     5
420
      255
176
     1
290
     0
176
     1
 90
       50
176
     1
 90
       50
176
     1
 90
       50
176
     1
290
     0
176
     1
 90
       50
176
     1
 62
   256
176
     0
 40
1.0
176
     0
 90
        2
176
     1
  1
strokes_ogs.tif
176
     1
290
     0
176
     1
 40
1.0
176
     1
 40
1.0
176
     1
  0
VISUALSTYLE
  5
747
102
{ACAD_REACTORS
330
746
102
}
330
746
100
AcDbVisualStyle
  2
Flat
 70
     0
177
     3
291
     1
 70
    58
 90
        2
176
     1
 90
        1
176
     1
 90
        1
176
     1
 90
        2
176
     1
 40
0.6
176
     1
 40
30.0
176
     1
 62
     7
420
 16777215
176
     1
 90
        0
176
     1
 90
        0
176
     1
 62
     7
176
     1
 62
   257
176
     1
 90
        1
176
     1
 90
        1
176
     1
 40
1.0
176
     1
 90
        8
176
     1
 62
     7
176
     1
 40
1.0
176
     1
 90
        1
176
     1
 90
        6
176
     1
 90
        2
176
     1
 62
     7
176
     1
 90
        5
176
     1
 90
        0
176
     1
 90
        0
176
     1
290
     0
176
     1
 90
       13
176
     1
 40
0.0
176
     1
 90
        0
176
     1
290
     0
176
     1
290
     1
176
     1
290
     1
176
     1
290
     0
176
     1
290
     0
176
     1
290
     0
176
     1
290
     0
176
     1
290
     0
176
     1
290
     0
176
     1
 90
       50
176
     1
 40
0.0
176
     1
 40
1.0
176
     1
 90
        0
176
     1
 62
   178
420
        0
176
     1
 90
       50
176
     1
 90
        3
176
     1
 62
     5
420
      255
176
     1
290
     0
176
     1
 90
       50
176
     1
 90
       50
176
     1
 90
       50
176
     1
290
     0
176
     1
 90
       50
176
     1
 62
   256
176
     0
 40
1.0
176
     0
 90
        2
176
     1
  1
strokes_ogs.tif
176
     1
290
     0
176
     1
 40
1.0
176
     1
 40
1.0
176
     1
  0
VISUALSTYLE
  5
748
102
{ACAD_REACTORS
330
746
102
}
330
746
100
AcDbVisualStyle
  2
FlatWithEdges
 70
     1
177
     3
291
     1
 70
    58
 90
        2
176
     1
 90
        1
176
     1
 90
        1
176
     1
 90
        2
176
     1
 40
0.6
176
     1
 40
30.0
176
     1
 62
     7
420
 16777215
176
     1
 90
        1
176
     1
 90
        0
176
     1
 62
     7
176
     1
 62
   257
176
     1
 90
        1
176
     1
 90
        1
176
     1
 40
1.0
176
     1
 90
        0
176
     1
 62
   257
176
     1
 40
1.0
176
     1
 90
        1
176
     1
 90
        6
176
     1
 90
        2
176
     1
 62
     7
176
     1
 90
        5
176
     1
 90
        0
176
     1
 90
        0
176
     1
290
     0
176
     1
 90
       13
176
     1
 40
0.0
176
     1
 90
        0
176
     1
290
     0
176
     1
290
     1
176
     1
290
     1
176
     1
290
     0
176
     1
290
     0
176
     1
290
     0
176
     1
290
     0
176
     1
290
     0
176
     1
290
     0
176
     1
 90
       50
176
     1
 40
0.0
176
     1
 40
1.0
176
     1
 90
        0
176
     1
 62
   178
420
        0
176
     1
 90
       50
176
     1
 90
        3
176
     1
 62
     5
420
      255
176
     1
290
     0
176
     1
 90
       50
176
     1
 90
       50
176
     1
 90
       50
176
     1
290
     0
176
     1
 90
       50
176
     1
 62
   256
176
     0
 40
1.0
176
     0
 90
        2
176
     1
  1
strokes_ogs.tif
176
     1
290
     0
176
     1
 40
1.0
176
     1
 40
1.0
176
     1
  0
VISUALSTYLE
  5
749
102
{ACAD_REACTORS
330
746
102
}
330
746
100
AcDbVisualStyle
  2
Gouraud
 70
     2
177
     3
291
     1
 70
    58
 90
        2
176
     1
 90
        2
176
     1
 90
        1
176
     1
 90
        2
176
     1
 40
0.6
176
     1
 40
30.0
176
     1
 62
     7
420
 16777215
176
     1
 90
        0
176
     1
 90
        0
176
     1
 62
     7
176
     1
 62
   257
176
     1
 90
        1
176
     1
 90
        1
176
     1
 40
1.0
176
     1
 90
        0
176
     1
 62
     7
176
     1
 40
1.0
176
     1
 90
        1
176
     1
 90
        6
176
     1
 90
        2
176
     1
 62
     7
176
     1
 90
        5
176
     1
 90
        0
176
     1
 90
        0
176
     1
290
     0
176
     1
 90
       13
176
     1
 40
0.0
176
     1
 90
        0
176
     1
290
     0
176
     1
290
     1
176
     1
290
     1
176
     1
290
     0
176
     1
290
     0
176
     1
290
     0
176
     1
290
     0
176
     1
290
     0
176
     1
290
     0
176
     1
 90
       50
176
     1
 40
0.0
176
     1
 40
1.0
176
     1
 90
        0
176
     1
 62
   178
420
        0
176
     1
 90
       50
176
     1
 90
        3
176
     1
 62
     5
420
      255
176
     1
290
     0
176
     1
 90
       50
176
     1
 90
       50
176
     1
 90
       50
176
     1
290
     0
176
     1
 90
       50
176
     1
 62
   256
176
     0
 40
1.0
176
     0
 90
        2
176
     1
  1
strokes_ogs.tif
176
     1
290
     0
176
     1
 40
1.0
176
     1
 40
1.0
176
     1
  0
VISUALSTYLE
  5
74A
102
{ACAD_REACTORS
330
746
102
}
330
746
100
AcDbVisualStyle
  2
GouraudWithEdges
 70
     3
177
     3
291
     1
 70
    58
 90
        2
176
     1
 90
        2
176
     1
 90
        1
176
     1
 90
        2
176
     1
 40
0.6
176
     1
 40
30.0
176
     1
 62
     7
420
 16777215
176
     1
 90
        1
176
     1
 90
        0
176
     1
 62
     7
176
     1
 62
   257
176
     1
 90
        1
176
     1
 90
        1
176
     1
 40
1.0
176
     1
 90
        0
176
     1
 62
   257
176
     1
 40
1.0
176
     1
 90
        1
176
     1
 90
        6
176
     1
 90
        2
176
     1
 62
     7
176
     1
 90
        5
176
     1
 90
        0
176
     1
 90
        0
176
     1
290
     0
176
     1
 90
       13
176
     1
 40
0.0
176
     1
 90
        0
176
     1
290
     0
176
     1
290
     1
176
     1
290
     1
176
     1
290
     0
176
     1
290
     0
176
     1
290
     0
176
     1
290
     0
176
     1
290
     0
176
     1
290
     0
176
     1
 90
       50
176
     1
 40
0.0
176
     1
 40
1.0
176
     1
 90
        0
176
     1
 62
   178
420
        0
176
     1
 90
       50
176
     1
 90
        3
176
     1
 62
     5
420
      255
176
     1
290
     0
176
     1
 90
       50
176
     1
 90
       50
176
     1
 90
       50
176
     1
290
     0
176
     1
 90
       50
176
     1
 62
   256
176
     0
 40
1.0
176
     0
 90
        2
176
     1
  1
strokes_ogs.tif
176
     1
290
     0
176
     1
 40
1.0
176
     1
 40
1.0
176
     1
  0
VISUALSTYLE
  5
74D
102
{ACAD_REACTORS
330
746
102
}
330
746
100
AcDbVisualStyle
  2
Hidden
 70
     6
177
     3
291
     0
 70
    58
 90
        1
176
     1
 90
        2
176
     1
 90
        2
176
     1
 90
        0
176
     1
 40
0.6
176
     1
 40
30.0
176
     1
 62
     7
420
 16777215
176
     1
 90
        2
176
     1
 90
        2
176
     1
 62
     7
176
     1
 62
   257
176
     1
 90
        2
176
     1
 90
        1
176
     1
 40
40.0
176
     1
 90
        0
176
     1
 62
   257
176
     1
 40
1.0
176
     1
 90
        1
176
     1
 90
        6
176
     1
 90
        2
176
     1
 62
     7
176
     1
 90
        3
176
     1
 90
        0
176
     1
 90
        0
176
     1
290
     0
176
     1
 90
        1
176
     1
 40
0.0
176
     1
 90
        0
176
     1
290
     0
176
     1
290
     1
176
     1
290
     1
176
     1
290
     0
176
     1
290
     0
176
     1
290
     0
176
     1
290
     0
176
     1
290
     0
176
     1
290
     0
176
     1
 90
       50
176
     1
 40
0.0
176
     1
 40
1.0
176
     1
 90
        0
176
     1
 62
   178
420
        0
176
     1
 90
       50
176
     1
 90
        3
176
     1
 62
     5
420
      255
176
     1
290
     0
176
     1
 90
       50
176
     1
 90
       50
176
     1
 90
       50
176
     1
290
     0
176
     1
 90
       50
176
     1
 62
   256
176
     0
 40
1.0
176
     0
 90
        2
176
     1
  1
strokes_ogs.tif
176
     1
290
     0
176
     1
 40
1.0
176
     1
 40
1.0
176
     1
  0
VISUALSTYLE
  5
757
102
{ACAD_REACTORS
330
746
102
}
330
746
100
AcDbVisualStyle
  2
JitterOff
 70
    20
177
     3
291
     1
 70
    58
 90
        2
176
     0
 90
        2
176
     0
 90
        0
176
     0
 90
        0
176
     0
 40
0.6
176
     0
 40
30.0
176
     0
 62
     7
420
 16777215
176
     0
 90
        1
176
     0
 90
        4
176
     0
 62
     7
176
     0
 62
   257
176
     0
 90
        1
176
     0
 90
        1
176
     0
 40
1.0
176
     0
 90
       10
176
     2
 62
     7
176
     0
 40
1.0
176
     0
 90
        1
176
     0
 90
        6
176
     0
 90
        2
176
     0
 62
     7
176
     0
 90
        5
176
     0
 90
        0
176
     0
 90
        0
176
     0
290
     0
176
     0
 90
        1
176
     0
 40
0.0
176
     0
 90
        0
176
     0
290
     0
176
     0
290
     1
176
     0
290
     1
176
     0
290
     0
176
     0
290
     0
176
     0
290
     0
176
     0
290
     0
176
     0
290
     0
176
     0
290
     0
176
     0
 90
       50
176
     0
 40
0.0
176
     0
 40
1.0
176
     0
 90
        0
176
     0
 62
   178
420
        0
176
     0
 90
       50
176
     0
 90
        3
176
     0
 62
     5
420
      255
176
     0
290
     0
176
     0
 90
       50
176
     0
 90
       50
176
     0
 90
       50
176
     0
290
     0
176
     0
 90
       50
176
     0
 62
   256
176
     0
 40
1.0
176
     0
 90
        2
176
     0
  1
strokes_ogs.tif
176
     0
290
     0
176
     0
 40
1.0
176
     0
 40
1.0
176
     0
  0
VISUALSTYLE
  5
754
102
{ACAD_REACTORS
330
746
102
}
330
746
100
AcDbVisualStyle
  2
Linepattern
 70
    14
177
     3
291
     1
 70
    58
 90
        2
176
     1
 90
        2
176
     1
 90
        0
176
     1
 90
        0
176
     1
 40
0.6
176
     1
 40
30.0
176
     1
 62
     7
420
 16777215
176
     1
 90
        1
176
     1
 90
        4
176
     1
 62
     7
176
     1
 62
   257
176
     1
 90
        7
176
     1
 90
        7
176
     1
 40
1.0
176
     1
 90
        8
176
     1
 62
     7
176
     1
 40
1.0
176
     1
 90
        1
176
     1
 90
        6
176
     1
 90
        2
176
     1
 62
     7
176
     1
 90
        5
176
     1
 90
        0
176
     1
 90
        0
176
     1
290
     0
176
     1
 90
        1
176
     1
 40
0.0
176
     1
 90
        0
176
     1
290
     0
176
     1
290
     1
176
     1
290
     1
176
     1
290
     0
176
     1
290
     0
176
     1
290
     0
176
     1
290
     0
176
     1
290
     0
176
     1
290
     0
176
     1
 90
       50
176
     1
 40
0.0
176
     1
 40
1.0
176
     1
 90
        0
176
     1
 62
   178
420
        0
176
     1
 90
       50
176
     1
 90
        3
176
     1
 62
     5
420
      255
176
     1
290
     0
176
     1
 90
       50
176
     1
 90
       50
176
     1
 90
       50
176
     1
290
     0
176
     1
 90
       50
176
     1
 62
   256
176
     0
 40
1.0
176
     0
 90
        2
176
     1
  1
strokes_ogs.tif
176
     1
290
     0
176
     1
 40
1.0
176
     1
 40
1.0
176
     1
  0
VISUALSTYLE
  5
758
102
{ACAD_REACTORS
330
746
102
}
330
746
100
AcDbVisualStyle
  2
OverhangOff
 70
    21
177
     3
291
     1
 70
    58
 90
        2
176
     0
 90
        2
176
     0
 90
        0
176
     0
 90
        0
176
     0
 40
0.6
176
     0
 40
30.0
176
     0
 62
     7
420
 16777215
176
     0
 90
        1
176
     0
 90
        4
176
     0
 62
     7
176
     0
 62
   257
176
     0
 90
        1
176
     0
 90
        1
176
     0
 40
1.0
176
     0
 90
        9
176
     2
 62
     7
176
     0
 40
1.0
176
     0
 90
        1
176
     0
 90
        6
176
     0
 90
        2
176
     0
 62
     7
176
     0
 90
        5
176
     0
 90
        0
176
     0
 90
        0
176
     0
290
     0
176
     0
 90
        1
176
     0
 40
0.0
176
     0
 90
        0
176
     0
290
     0
176
     0
290
     1
176
     0
290
     1
176
     0
290
     0
176
     0
290
     0
176
     0
290
     0
176
     0
290
     0
176
     0
290
     0
176
     0
290
     0
176
     0
 90
       50
176
     0
 40
0.0
176
     0
 40
1.0
176
     0
 90
        0
176
     0
 62
   178
420
        0
176
     0
 90
       50
176
     0
 90
        3
176
     0
 62
     5
420
      255
176
     0
290
     0
176
     0
 90
       50
176
     0
 90
       50
176
     0
 90
       50
176
     0
290
     0
176
     0
 90
       50
176
     0
 62
   256
176
     0
 40
1.0
176
     0
 90
        2
176
     0
  1
strokes_ogs.tif
176
     0
290
     0
176
     0
 40
1.0
176
     0
 40
1.0
176
     0
  0
VISUALSTYLE
  5
74F
102
{ACAD_REACTORS
330
746
102
}
330
746
100
AcDbVisualStyle
  2
Realistic
 70
     8
177
     3
291
     0
 70
    58
 90
        2
176
     1
 90
        3
176
     1
 90
        0
176
     1
 90
        2
176
     1
 40
0.6
176
     1
 40
30.0
176
     1
 62
     7
420
 16777215
176
     1
 90
        0
176
     1
 90
        0
176
     1
 62
     7
176
     1
 62
   257
176
     1
 90
        1
176
     1
 90
        1
176
     1
 40
1.0
176
     1
 90
        8
176
     1
 62
   257
176
     1
 40
1.0
176
     1
 90
        1
176
     1
 90
        6
176
     1
 90
        2
176
     1
 62
     7
176
     1
 90
        3
176
     1
 90
        0
176
     1
 90
        0
176
     1
290
     0
176
     1
 90
       13
176
     1
 40
0.0
176
     1
 90
        0
176
     1
290
     0
176
     1
290
     1
176
     1
290
     1
176
     1
290
     0
176
     1
290
     0
176
     1
290
     0
176
     1
290
     0
176
     1
290
     0
176
     1
290
     0
176
     1
 90
       50
176
     1
 40
0.0
176
     1
 40
1.0
176
     1
 90
        0
176
     1
 62
   178
420
        0
176
     1
 90
       50
176
     1
 90
        3
176
     1
 62
     5
420
      255
176
     1
290
     0
176
     1
 90
       50
176
     1
 90
       50
176
     1
 90
       50
176
     1
290
     0
176
     1
 90
       50
176
     1
 62
   256
176
     0
 40
1.0
176
     0
 90
        2
176
     1
  1
strokes_ogs.tif
176
     1
290
     0
176
     1
 40
1.0
176
     1
 40
1.0
176
     1
  0
VISUALSTYLE
  5
75E
102
{ACAD_REACTORS
330
746
102
}
330
746
100
AcDbVisualStyle
  2
Shaded
 70
    27
177
     3
291
     0
 70
    58
 90
        2
176
     1
 90
        2
176
     1
 90
        1
176
     1
 90
        2
176
     1
 40
0.6
176
     1
 40
30.0
176
     1
 62
     7
420
 16777215
176
     1
 90
        0
176
     1
 90
        4
176
     1
 62
     7
176
     1
 62
   257
176
     1
 90
        1
176
     1
 90
        1
176
     1
 40
1.0
176
     1
 90
        8
176
     1
 62
   257
176
     1
 40
1.0
176
     1
 90
        1
176
     1
 90
        6
176
     1
 90
        2
176
     1
 62
     8
420
  7895160
176
     1
 90
        3
176
     1
 90
        0
176
     1
 90
        0
176
     1
290
     0
176
     1
 90
        5
176
     1
 40
0.0
176
     1
 90
        0
176
     1
290
     0
176
     1
290
     1
176
     1
290
     1
176
     1
290
     0
176
     1
290
     0
176
     1
290
     0
176
     1
290
     0
176
     1
290
     0
176
     1
290
     0
176
     1
 90
       50
176
     1
 40
0.0
176
     1
 40
1.0
176
     1
 90
        0
176
     1
 62
   178
420
        0
176
     1
 90
       50
176
     1
 90
        3
176
     1
 62
     5
420
      255
176
     1
290
     0
176
     1
 90
       50
176
     1
 90
       50
176
     1
 90
       50
176
     1
290
     0
176
     1
 90
       50
176
     1
 62
   256
176
     0
 40
1.0
176
     0
 90
        2
176
     1
  1
strokes_ogs.tif
176
     1
290
     0
176
     1
 40
1.0
176
     1
 40
1.0
176
     1
  0
VISUALSTYLE
  5
75D
102
{ACAD_REACTORS
330
746
102
}
330
746
100
AcDbVisualStyle
  2
Shaded with edges
 70
    26
177
     3
291
     0
 70
    58
 90
        2
176
     1
 90
        2
176
     1
 90
        1
176
     1
 90
        2
176
     1
 40
0.6
176
     1
 40
30.0
176
     1
 62
     7
420
 16777215
176
     1
 90
        1
176
     1
 90
       10
176
     1
 62
     7
176
     1
 62
   257
176
     1
 90
        2
176
     1
 90
        1
176
     1
 40
1.0
176
     1
 90
        8
176
     1
 62
   257
176
     1
 40
1.0
176
     1
 90
        1
176
     1
 90
        6
176
     1
 90
        2
176
     1
 62
     7
176
     1
 90
        3
176
     1
 90
        0
176
     1
 90
        0
176
     1
290
     0
176
     1
 90
        5
176
     1
 40
0.0
176
     1
 90
        0
176
     1
290
     0
176
     1
290
     1
176
     1
290
     1
176
     1
290
     0
176
     1
290
     0
176
     1
290
     0
176
     1
290
     0
176
     1
290
     0
176
     1
290
     0
176
     1
 90
       50
176
     1
 40
0.0
176
     1
 40
1.0
176
     1
 90
        0
176
     1
 62
   178
420
        0
176
     1
 90
       50
176
     1
 90
        3
176
     1
 62
     5
420
      255
176
     1
290
     0
176
     1
 90
       50
176
     1
 90
       50
176
     1
 90
       50
176
     1
290
     0
176
     1
 90
       50
176
     1
 62
   256
176
     0
 40
1.0
176
     0
 90
        2
176
     1
  1
strokes_ogs.tif
176
     1
290
     0
176
     1
 40
1.0
176
     1
 40
1.0
176
     1
  0
VISUALSTYLE
  5
75A
102
{ACAD_REACTORS
330
746
102
}
330
746
100
AcDbVisualStyle
  2
Shades of Gray
 70
    23
177
     3
291
     0
 70
    58
 90
        2
176
     1
 90
        2
176
     1
 90
        3
176
     1
 90
        0
176
     1
 40
0.6
176
     1
 40
30.0
176
     1
 62
     7
420
 16777215
176
     1
 90
        2
176
     1
 90
        2
176
     1
 62
     7
176
     1
 62
     7
176
     1
 90
        1
176
     1
 90
        1
176
     1
 40
40.0
176
     1
 90
        8
176
     1
 62
     7
176
     1
 40
1.0
176
     1
 90
        1
176
     1
 90
        6
176
     1
 90
        2
176
     1
 62
     7
176
     1
 90
        3
176
     1
 90
        0
176
     1
 90
        0
176
     1
290
     0
176
     1
 90
        1
176
     1
 40
0.0
176
     1
 90
        0
176
     1
290
     0
176
     1
290
     1
176
     1
290
     1
176
     1
290
     0
176
     1
290
     0
176
     1
290
     0
176
     1
290
     0
176
     1
290
     0
176
     1
290
     0
176
     1
 90
       50
176
     1
 40
0.0
176
     1
 40
1.0
176
     1
 90
        0
176
     1
 62
   178
420
        0
176
     1
 90
       50
176
     1
 90
        3
176
     1
 62
     5
420
      255
176
     1
290
     0
176
     1
 90
       50
176
     1
 90
       50
176
     1
 90
       50
176
     1
290
     0
176
     1
 90
       50
176
     1
 62
   256
176
     0
 40
1.0
176
     0
 90
        2
176
     1
  1
strokes_ogs.tif
176
     1
290
     0
176
     1
 40
1.0
176
     1
 40
1.0
176
     1
  0
VISUALSTYLE
  5
75B
102
{ACAD_REACTORS
330
746
102
}
330
746
100
AcDbVisualStyle
  2
Sketchy
 70
    24
177
     3
291
     0
 70
    58
 90
        1
176
     1
 90
        2
176
     1
 90
        2
176
     1
 90
        0
176
     1
 40
0.6
176
     1
 40
30.0
176
     1
 62
     7
420
 16777215
176
     1
 90
        2
176
     1
 90
        2
176
     1
 62
     7
176
     1
 62
     7
176
     1
 90
        1
176
     1
 90
        1
176
     1
 40
40.0
176
     1
 90
       11
176
     1
 62
     7
176
     1
 40
1.0
176
     1
 90
        1
176
     1
 90
        6
176
     1
 90
        2
176
     1
 62
     7
176
     1
 90
        6
176
     1
 90
        0
176
     1
 90
        0
176
     1
290
     0
176
     1
 90
        1
176
     1
 40
0.0
176
     1
 90
        0
176
     1
290
     0
176
     1
290
     1
176
     1
290
     1
176
     1
290
     0
176
     1
290
     0
176
     1
290
     0
176
     1
290
     0
176
     1
290
     0
176
     1
290
     0
176
     1
 90
       50
176
     1
 40
0.0
176
     1
 40
1.0
176
     1
 90
        0
176
     1
 62
   178
420
        0
176
     1
 90
       50
176
     1
 90
        3
176
     1
 62
     5
420
      255
176
     1
290
     0
176
     1
 90
       50
176
     1
 90
       50
176
     1
 90
       50
176
     1
290
     0
176
     1
 90
       50
176
     1
 62
   256
176
     0
 40
1.0
176
     0
 90
        2
176
     1
  1
strokes_ogs.tif
176
     1
290
     0
176
     1
 40
1.0
176
     1
 40
1.0
176
     1
  0
VISUALSTYLE
  5
753
102
{ACAD_REACTORS
330
746
102
}
330
746
100
AcDbVisualStyle
  2
Thicken
 70
    13
177
     3
291
     1
 70
    58
 90
        2
176
     1
 90
        2
176
     1
 90
        0
176
     1
 90
        0
176
     1
 40
0.6
176
     1
 40
30.0
176
     1
 62
     7
420
 16777215
176
     1
 90
        1
176
     1
 90
        4
176
     1
 62
     7
176
     1
 62
   257
176
     1
 90
        1
176
     1
 90
        1
176
     1
 40
1.0
176
     1
 90
       12
176
     1
 62
     7
176
     1
 40
1.0
176
     1
 90
        1
176
     1
 90
        6
176
     1
 90
        2
176
     1
 62
     7
176
     1
 90
        5
176
     1
 90
        0
176
     1
 90
        0
176
     1
290
     0
176
     1
 90
        1
176
     1
 40
0.0
176
     1
 90
        0
176
     1
290
     0
176
     1
290
     1
176
     1
290
     1
176
     1
290
     0
176
     1
290
     0
176
     1
290
     0
176
     1
290
     0
176
     1
290
     0
176
     1
290
     0
176
     1
 90
       50
176
     1
 40
0.0
176
     1
 40
1.0
176
     1
 90
        0
176
     1
 62
   178
420
        0
176
     1
 90
       50
176
     1
 90
        3
176
     1
 62
     5
420
      255
176
     1
290
     0
176
     1
 90
       50
176
     1
 90
       50
176
     1
 90
       50
176
     1
290
     0
176
     1
 90
       50
176
     1
 62
   256
176
     0
 40
1.0
176
     0
 90
        2
176
     1
  1
strokes_ogs.tif
176
     1
290
     0
176
     1
 40
1.0
176
     1
 40
1.0
176
     1
  0
VISUALSTYLE
  5
74C
102
{ACAD_REACTORS
330
746
102
}
330
746
100
AcDbVisualStyle
  2
Wireframe
 70
     5
177
     3
291
     0
 70
    58
 90
        0
176
     1
 90
        2
176
     1
 90
        0
176
     1
 90
        0
176
     1
 40
0.6
176
     1
 40
30.0
176
     1
 62
     7
420
 16777215
176
     1
 90
        1
176
     1
 90
        4
176
     1
 62
     7
176
     1
 62
   257
176
     1
 90
        1
176
     1
 90
        1
176
     1
 40
1.0
176
     1
 90
        0
176
     1
 62
   257
176
     1
 40
1.0
176
     1
 90
        1
176
     1
 90
        6
176
     1
 90
        2
176
     1
 62
     7
176
     1
 90
        3
176
     1
 90
        0
176
     1
 90
        0
176
     1
290
     0
176
     1
 90
        1
176
     1
 40
0.0
176
     1
 90
        0
176
     1
290
     0
176
     1
290
     1
176
     1
290
     1
176
     1
290
     0
176
     1
290
     0
176
     1
290
     0
176
     1
290
     0
176
     1
290
     0
176
     1
290
     0
176
     1
 90
       50
176
     1
 40
0.0
176
     1
 40
1.0
176
     1
 90
        0
176
     1
 62
   178
420
        0
176
     1
 90
       50
176
     1
 90
        3
176
     1
 62
     5
420
      255
176
     1
290
     0
176
     1
 90
       50
176
     1
 90
       50
176
     1
 90
       50
176
     1
290
     0
176
     1
 90
       50
176
     1
 62
   256
176
     0
 40
1.0
176
     0
 90
        2
176
     1
  1
strokes_ogs.tif
176
     1
290
     0
176
     1
 40
1.0
176
     1
 40
1.0
176
     1
  0
VISUALSTYLE
  5
75C
102
{ACAD_REACTORS
330
746
102
}
330
746
100
AcDbVisualStyle
  2
X-Ray
 70
    25
177
     3
291
     0
 70
    58
 90
        2
176
     1
 90
        2
176
     1
 90
        1
176
     1
 90
        1
176
     1
 40
0.5
176
     1
 40
30.0
176
     1
 62
     7
420
 16777215
176
     1
 90
        1
176
     1
 90
        0
176
     1
 62
     7
176
     1
 62
   257
176
     1
 90
        1
176
     1
 90
        1
176
     1
 40
1.0
176
     1
 90
        8
176
     1
 62
     7
176
     1
 40
1.0
176
     1
 90
        1
176
     1
 90
        6
176
     1
 90
        2
176
     1
 62
     7
176
     1
 90
        3
176
     1
 90
        0
176
     1
 90
        0
176
     1
290
     0
176
     1
 90
       13
176
     1
 40
0.0
176
     1
 90
        0
176
     1
290
     0
176
     1
290
     1
176
     1
290
     1
176
     1
290
     0
176
     1
290
     0
176
     1
290
     0
176
     1
290
     0
176
     1
290
     0
176
     1
290
     0
176
     1
 90
       50
176
     1
 40
0.0
176
     1
 40
1.0
176
     1
 90
        0
176
     1
 62
   178
420
        0
176
     1
 90
       50
176
     1
 90
        3
176
     1
 62
     5
420
      255
176
     1
290
     0
176
     1
 90
       50
176
     1
 90
       50
176
     1
 90
       50
176
     1
290
     0
176
     1
 90
       50
176
     1
 62
   256
176
     0
 40
1.0
176
     0
 90
        2
176
     1
  1
strokes_ogs.tif
176
     1
290
     0
176
     1
 40
1.0
176
     1
 40
1.0
176
     1
  0
DICTIONARYVAR
  5
78D
102
{ACAD_REACTORS
330
78C
102
}
330
78C
100
DictionaryVariables
280
     0
  1
1:1
  0
DICTIONARYVAR
  5
792
102
{ACAD_REACTORS
330
78C
102
}
330
78C
100
DictionaryVariables
280
     0
  1
Standard
  0
DICTIONARYVAR
  5
791
102
{ACAD_REACTORS
330
78C
102
}
330
78C
100
DictionaryVariables
280
     0
  1
Standard
  0
DICTIONARYVAR
  5
793
102
{ACAD_REACTORS
330
78C
102
}
330
78C
100
DictionaryVariables
280
     0
  1
0
  0
DICTIONARY
  5
78E
330
786
100
AcDbDictionary
280
     1
281
     1
  3
ACAD_ROUNDTRIP_2008_TABLESTYLE_CELLSTYLEMAP
360
78F
  0
CELLSTYLEMAP
  5
78F
102
{ACAD_REACTORS
330
78E
102
}
330
78E
100
AcDbCellStyleMap
 90
        3
300
CELLSTYLE
  1
TABLEFORMAT_BEGIN
 90
        5
170
     1
 91
        0
 92
    32768
 62
   257
 93
        1
300
CONTENTFORMAT
  1
CONTENTFORMAT_BEGIN
 90
        0
 91
        0
 92
        4
 93
        0
300

 40
0.0
140
1.0
 94
        5
 62
     0
340
29
144
0.25
309
CONTENTFORMAT_END
171
     1
301
MARGIN
  1
CELLMARGIN_BEGIN
 40
0.06
 40
0.06
 40
0.06
 40
0.06
 40
0.06
 40
0.06
309
CELLMARGIN_END
 94
        6
 95
        1
302
GRIDFORMAT
  1
GRIDFORMAT_BEGIN
 90
        0
 91
        1
 62
     0
 92
       -2
340
26
 93
        0
 40
0.045
309
GRIDFORMAT_END
 95
        2
302
GRIDFORMAT
  1
GRIDFORMAT_BEGIN
 90
        0
 91
        1
 62
     0
 92
       -2
340
26
 93
        0
 40
0.045
309
GRIDFORMAT_END
 95
        4
302
GRIDFORMAT
  1
GRIDFORMAT_BEGIN
 90
        0
 91
        1
 62
     0
 92
       -2
340
26
 93
        0
 40
0.045
309
GRIDFORMAT_END
 95
        8
302
GRIDFORMAT
  1
GRIDFORMAT_BEGIN
 90
        0
 91
        1
 62
     0
 92
       -2
340
26
 93
        0
 40
0.045
309
GRIDFORMAT_END
 95
       16
302
GRIDFORMAT
  1
GRIDFORMAT_BEGIN
 90
        0
 91
        1
 62
     0
 92
       -2
340
26
 93
        0
 40
0.045
309
GRIDFORMAT_END
 95
       32
302
GRIDFORMAT
  1
GRIDFORMAT_BEGIN
 90
        0
 91
        1
 62
     0
 92
       -2
340
26
 93
        0
 40
0.045
309
GRIDFORMAT_END
309
TABLEFORMAT_END
  1
CELLSTYLE_BEGIN
 90
        1
 91
        1
300
_TITLE
309
CELLSTYLE_END
300
CELLSTYLE
  1
TABLEFORMAT_BEGIN
 90
        5
170
     1
 91
        0
 92
        0
 62
   257
 93
        1
300
CONTENTFORMAT
  1
CONTENTFORMAT_BEGIN
 90
        0
 91
        0
 92
        4
 93
        0
300

 40
0.0
140
1.0
 94
        5
 62
     0
340
29
144
0.18
309
CONTENTFORMAT_END
171
     1
301
MARGIN
  1
CELLMARGIN_BEGIN
 40
0.06
 40
0.06
 40
0.06
 40
0.06
 40
0.06
 40
0.06
309
CELLMARGIN_END
 94
        6
 95
        1
302
GRIDFORMAT
  1
GRIDFORMAT_BEGIN
 90
        0
 91
        1
 62
     0
 92
       -2
340
26
 93
        0
 40
0.045
309
GRIDFORMAT_END
 95
        2
302
GRIDFORMAT
  1
GRIDFORMAT_BEGIN
 90
        0
 91
        1
 62
     0
 92
       -2
340
26
 93
        0
 40
0.045
309
GRIDFORMAT_END
 95
        4
302
GRIDFORMAT
  1
GRIDFORMAT_BEGIN
 90
        0
 91
        1
 62
     0
 92
       -2
340
26
 93
        0
 40
0.045
309
GRIDFORMAT_END
 95
        8
302
GRIDFORMAT
  1
GRIDFORMAT_BEGIN
 90
        0
 91
        1
 62
     0
 92
       -2
340
26
 93
        0
 40
0.045
309
GRIDFORMAT_END
 95
       16
302
GRIDFORMAT
  1
GRIDFORMAT_BEGIN
 90
        0
 91
        1
 62
     0
 92
       -2
340
26
 93
        0
 40
0.045
309
GRIDFORMAT_END
 95
       32
302
GRIDFORMAT
  1
GRIDFORMAT_BEGIN
 90
        0
 91
        1
 62
     0
 92
       -2
340
26
 93
        0
 40
0.045
309
GRIDFORMAT_END
309
TABLEFORMAT_END
  1
CELLSTYLE_BEGIN
 90
        2
 91
        1
300
_HEADER
309
CELLSTYLE_END
300
CELLSTYLE
  1
TABLEFORMAT_BEGIN
 90
        5
170
     1
 91
        0
 92
        0
 62
   257
 93
        1
300
CONTENTFORMAT
  1
CONTENTFORMAT_BEGIN
 90
        0
 91
        0
 92
        4
 93
        0
300

 40
0.0
140
1.0
 94
        2
 62
     0
340
29
144
0.18
309
CONTENTFORMAT_END
171
     1
301
MARGIN
  1
CELLMARGIN_BEGIN
 40
0.06
 40
0.06
 40
0.06
 40
0.06
 40
0.06
 40
0.06
309
CELLMARGIN_END
 94
        6
 95
        1
302
GRIDFORMAT
  1
GRIDFORMAT_BEGIN
 90
        0
 91
        1
 62
     0
 92
       -2
340
26
 93
        0
 40
0.045
309
GRIDFORMAT_END
 95
        2
302
GRIDFORMAT
  1
GRIDFORMAT_BEGIN
 90
        0
 91
        1
 62
     0
 92
       -2
340
26
 93
        0
 40
0.045
309
GRIDFORMAT_END
 95
        4
302
GRIDFORMAT
  1
GRIDFORMAT_BEGIN
 90
        0
 91
        1
 62
     0
 92
       -2
340
26
 93
        0
 40
0.045
309
GRIDFORMAT_END
 95
        8
302
GRIDFORMAT
  1
GRIDFORMAT_BEGIN
 90
        0
 91
        1
 62
     0
 92
       -2
340
26
 93
        0
 40
0.045
309
GRIDFORMAT_END
 95
       16
302
GRIDFORMAT
  1
GRIDFORMAT_BEGIN
 90
        0
 91
        1
 62
     0
 92
       -2
340
26
 93
        0
 40
0.045
309
GRIDFORMAT_END
 95
       32
302
GRIDFORMAT
  1
GRIDFORMAT_BEGIN
 90
        0
 91
        1
 62
     0
 92
       -2
340
26
 93
        0
 40
0.045
309
GRIDFORMAT_END
309
TABLEFORMAT_END
  1
CELLSTYLE_BEGIN
 90
        3
 91
        2
300
_DATA
309
CELLSTYLE_END
  0
ENDSEC
  0
EOF
